<svg width="169" height="48" viewBox="0 0 169 48" fill="none" xmlns="http://www.w3.org/2000/svg">
    <rect width="169" height="48" rx="12" fill="#E0E7FF"/>
    <path d="M62.4375 18.6875H64.1562V26.125C64.1562 28.5 62.375 30.1875 59.6719 30.1875C56.9375 30.1875 55.1719 28.5 55.1719 26.125V18.6875H56.8906V25.9844C56.8906 27.5156 57.9531 28.625 59.6719 28.625C61.375 28.625 62.4375 27.5156 62.4375 25.9844V18.6875ZM66.4688 30V18.6875H70.5C73.125 18.6875 74.4219 20.1562 74.4219 22.2344C74.4219 23.7578 73.7344 24.9141 72.3594 25.4219L74.8594 30H72.9062L70.6094 25.7344H70.5H68.1875V30H66.4688ZM68.1875 24.25H70.3281C72 24.25 72.6875 23.5156 72.6875 22.2344C72.6875 20.9531 72 20.1562 70.3281 20.1562H68.1875V24.25ZM76.3281 30V18.6875H78.0469V28.5156H83.1562V30H76.3281ZM94.5 26.125C97.5312 26.125 99.4375 27.0781 99.4531 28.7188C99.4375 30.3438 97.5312 31.3125 94.5 31.2969C91.5 31.3125 89.5781 30.3438 89.5781 28.7188C89.5781 27.0781 91.5 26.125 94.5 26.125ZM94.5 27.25C92.375 27.25 91.0469 27.7969 91.0625 28.7188C91.0469 29.625 92.375 30.1562 94.5 30.1562C96.6406 30.1562 97.9688 29.625 97.9844 28.7188C97.9688 27.7969 96.6406 27.25 94.5 27.25ZM99.3438 18.0156V19.1875C99.3438 20.3125 99.3438 21.4688 98.9531 22.9062L97.5 22.75C97.875 21.3203 97.875 20.2891 97.875 19.2031H89.6875V18.0156H99.3438ZM100.938 23.7656V24.9688H88.2031V23.7656H93.3125V21.1406H94.7656V23.7656H100.938ZM114.812 25.2344V26.4531H111.562V31.3281H110.062V26.4531H106.719V31.3281H105.188V26.4531H102V25.2344H114.812ZM108.375 17.8594C111.328 17.8594 113.359 19.0625 113.359 20.9531C113.359 22.8125 111.328 24 108.375 23.9844C105.406 24 103.391 22.8125 103.391 20.9531C103.391 19.0625 105.406 17.8594 108.375 17.8594ZM108.375 19.0469C106.297 19.0625 104.906 19.7812 104.922 20.9531C104.906 22.0938 106.297 22.8125 108.375 22.8125C110.453 22.8125 111.844 22.0938 111.844 20.9531C111.844 19.7812 110.453 19.0625 108.375 19.0469ZM126.75 17.3281V23H129V24.2344H126.75V31.3281H125.281V17.3281H126.75ZM124.062 19.5156V20.7344H115.766V19.5156H119.219V17.5156H120.703V19.5156H124.062ZM119.969 21.7656C121.969 21.7656 123.438 23.1094 123.453 25.0156C123.438 26.9375 121.969 28.2656 119.969 28.2812C117.953 28.2656 116.484 26.9375 116.484 25.0156C116.484 23.1094 117.953 21.7656 119.969 21.7656ZM119.969 22.9844C118.781 22.9844 117.891 23.8125 117.906 25.0156C117.891 26.2344 118.781 27.0469 119.969 27.0312C121.156 27.0469 122.031 26.2344 122.031 25.0156C122.031 23.8125 121.156 22.9844 119.969 22.9844ZM141.312 17.3281V31.3281H139.812V17.3281H141.312ZM137.141 18.8281C137.141 22.9219 135.391 26.4844 130.594 28.7812L129.812 27.5781C133.539 25.8047 135.352 23.2812 135.641 20.0156H130.484V18.8281H137.141Z" fill="#6568FE"/>
    <g clip-path="url(#clip0_5250_45164)">
        <path d="M32.332 24.8333C32.6899 25.3118 33.1465 25.7077 33.6708 25.9941C34.1952 26.2806 34.775 26.4509 35.3709 26.4936C35.9669 26.5363 36.565 26.4503 37.1248 26.2415C37.6846 26.0327 38.193 25.7059 38.6154 25.2833L41.1154 22.7833C41.8744 21.9975 42.2943 20.945 42.2848 19.8525C42.2753 18.76 41.8371 17.715 41.0646 16.9424C40.2921 16.1699 39.247 15.7317 38.1545 15.7222C37.062 15.7127 36.0095 16.1327 35.2237 16.8917L33.7904 18.3167" stroke="#6366F1" stroke-width="2" stroke-linecap="round" stroke-linejoin="round"/>
        <path d="M35.6678 23.1667C35.3099 22.6882 34.8533 22.2923 34.329 22.0059C33.8047 21.7194 33.2249 21.5491 32.6289 21.5064C32.033 21.4637 31.4348 21.5497 30.875 21.7585C30.3152 21.9673 29.8069 22.2941 29.3845 22.7167L26.8845 25.2167C26.1255 26.0025 25.7055 27.055 25.715 28.1475C25.7245 29.24 26.1627 30.285 26.9352 31.0576C27.7078 31.8301 28.7528 32.2683 29.8453 32.2778C30.9378 32.2873 31.9903 31.8673 32.7761 31.1083L34.2011 29.6833" stroke="#6366F1" stroke-width="2" stroke-linecap="round" stroke-linejoin="round"/>
    </g>
    <defs>
        <clipPath id="clip0_5250_45164">
            <rect width="20" height="20" fill="white" transform="translate(24 14)"/>
        </clipPath>
    </defs>
</svg>
