<svg width="180" height="48" viewBox="0 0 180 48" fill="none" xmlns="http://www.w3.org/2000/svg">
    <rect width="180" height="48" rx="12" fill="#E0E7FF"/>
    <path d="M49.6172 17.3281V22.75H51.8672V23.9688H49.6172V31.3594H48.1328V17.3281H49.6172ZM45.8516 18.6719V19.875H40.7891V26.6406C43.1406 26.6328 44.9062 26.5312 46.8984 26.1719L47.0859 27.4219C44.8984 27.8125 43.0391 27.8906 40.4297 27.875H39.3047V18.6719H45.8516ZM65.3359 25.0156V26.2188H52.5234V25.0156H65.3359ZM64.0234 29.8281V31.0312H54.1953V27.2188H55.6797V29.8281H64.0234ZM63.7266 17.75V21.3438H55.6328V22.7188H64.0078V23.8594H54.1641V20.2656H62.2422V18.9219H54.1328V17.75H63.7266ZM76.0391 17.9844V18.5C76.0391 19.2969 76.0391 20.7656 75.5391 22.7656H79.6484C80.0234 21.2109 80.1016 20.0469 80.1172 19.1875H77.0391V17.9844H81.5547V18.625C81.5547 19.5078 81.5547 20.8828 81.1484 22.7656H83.0703V23.9688H77.3516V26.1719H81.4453V31.1406H71.8516V26.1719H75.8984V23.9688H70.2734V22.7656H74.0391C74.4531 21.2031 74.5547 20.0234 74.5859 19.1875H71.4766V17.9844H76.0391ZM73.3047 27.3438V29.9531H79.9766V27.3438H73.3047ZM94.9297 19.6406V20.8438H87.9766V19.6406H90.7266V17.7344H92.1953V19.6406H94.9297ZM91.4609 21.6875C93.2422 21.6875 94.4922 23.0156 94.5078 24.9062C94.4922 26.8125 93.2422 28.1562 91.4609 28.1562C89.7109 28.1562 88.4141 26.8125 88.4297 24.9062C88.4141 23.0156 89.7109 21.6875 91.4609 21.6875ZM91.4609 22.9219C90.4453 22.9219 89.7422 23.75 89.7422 24.9062C89.7422 26.0938 90.4453 26.8906 91.4609 26.8906C92.4609 26.8906 93.1953 26.0938 93.1953 24.9062C93.1953 23.75 92.4609 22.9219 91.4609 22.9219ZM99.9922 17.3281V31.3281H98.5859V24.375H96.9766V30.6719H95.5703V17.6406H96.9766V23.1562H98.5859V17.3281H99.9922ZM106.773 19.5625C106.758 21.4219 108.039 23.1719 110.148 23.875L109.336 25.0625C107.789 24.5078 106.648 23.375 106.055 21.9531C105.438 23.5156 104.25 24.7422 102.617 25.3594L101.82 24.1562C104.008 23.3906 105.273 21.5469 105.289 19.4844V18.0469H106.773V19.5625ZM113.508 26.3594V31.3281H112.023V27.5312H104.023V26.3594H113.508ZM113.508 17.3281V25.625H112.023V21.375H109.07V20.1562H112.023V17.3281H113.508ZM126.57 17.3281V23H128.82V24.2344H126.57V31.3281H125.102V17.3281H126.57ZM123.883 19.5156V20.7344H115.586V19.5156H119.039V17.5156H120.523V19.5156H123.883ZM119.789 21.7656C121.789 21.7656 123.258 23.1094 123.273 25.0156C123.258 26.9375 121.789 28.2656 119.789 28.2812C117.773 28.2656 116.305 26.9375 116.305 25.0156C116.305 23.1094 117.773 21.7656 119.789 21.7656ZM119.789 22.9844C118.602 22.9844 117.711 23.8125 117.727 25.0156C117.711 26.2344 118.602 27.0469 119.789 27.0312C120.977 27.0469 121.852 26.2344 121.852 25.0156C121.852 23.8125 120.977 22.9844 119.789 22.9844ZM141.133 17.3281V31.3281H139.633V17.3281H141.133ZM136.961 18.8281C136.961 22.9219 135.211 26.4844 130.414 28.7812L129.633 27.5781C133.359 25.8047 135.172 23.2812 135.461 20.0156H130.305V18.8281H136.961Z" fill="#6568FE"/>
</svg>
