<svg width="350" height="48" viewBox="0 0 350 48" fill="none" xmlns="http://www.w3.org/2000/svg">
    <rect width="350" height="48" rx="12" fill="#E0E7FF"/>
    <path d="M134.617 17.3281V22.75H136.867V23.9688H134.617V31.3594H133.133V17.3281H134.617ZM130.852 18.6719V19.875H125.789V26.6406C128.141 26.6328 129.906 26.5312 131.898 26.1719L132.086 27.4219C129.898 27.8125 128.039 27.8906 125.43 27.875H124.305V18.6719H130.852ZM150.336 25.0156V26.2188H137.523V25.0156H150.336ZM149.023 29.8281V31.0312H139.195V27.2188H140.68V29.8281H149.023ZM148.727 17.75V21.3438H140.633V22.7188H149.008V23.8594H139.164V20.2656H147.242V18.9219H139.133V17.75H148.727ZM161.039 17.9844V18.5C161.039 19.2969 161.039 20.7656 160.539 22.7656H164.648C165.023 21.2109 165.102 20.0469 165.117 19.1875H162.039V17.9844H166.555V18.625C166.555 19.5078 166.555 20.8828 166.148 22.7656H168.07V23.9688H162.352V26.1719H166.445V31.1406H156.852V26.1719H160.898V23.9688H155.273V22.7656H159.039C159.453 21.2031 159.555 20.0234 159.586 19.1875H156.477V17.9844H161.039ZM158.305 27.3438V29.9531H164.977V27.3438H158.305ZM179.93 19.6406V20.8438H172.977V19.6406H175.727V17.7344H177.195V19.6406H179.93ZM176.461 21.6875C178.242 21.6875 179.492 23.0156 179.508 24.9062C179.492 26.8125 178.242 28.1562 176.461 28.1562C174.711 28.1562 173.414 26.8125 173.43 24.9062C173.414 23.0156 174.711 21.6875 176.461 21.6875ZM176.461 22.9219C175.445 22.9219 174.742 23.75 174.742 24.9062C174.742 26.0938 175.445 26.8906 176.461 26.8906C177.461 26.8906 178.195 26.0938 178.195 24.9062C178.195 23.75 177.461 22.9219 176.461 22.9219ZM184.992 17.3281V31.3281H183.586V24.375H181.977V30.6719H180.57V17.6406H181.977V23.1562H183.586V17.3281H184.992ZM191.773 19.5625C191.758 21.4219 193.039 23.1719 195.148 23.875L194.336 25.0625C192.789 24.5078 191.648 23.375 191.055 21.9531C190.438 23.5156 189.25 24.7422 187.617 25.3594L186.82 24.1562C189.008 23.3906 190.273 21.5469 190.289 19.4844V18.0469H191.773V19.5625ZM198.508 26.3594V31.3281H197.023V27.5312H189.023V26.3594H198.508ZM198.508 17.3281V25.625H197.023V21.375H194.07V20.1562H197.023V17.3281H198.508ZM211.57 17.3281V23H213.82V24.2344H211.57V31.3281H210.102V17.3281H211.57ZM208.883 19.5156V20.7344H200.586V19.5156H204.039V17.5156H205.523V19.5156H208.883ZM204.789 21.7656C206.789 21.7656 208.258 23.1094 208.273 25.0156C208.258 26.9375 206.789 28.2656 204.789 28.2812C202.773 28.2656 201.305 26.9375 201.305 25.0156C201.305 23.1094 202.773 21.7656 204.789 21.7656ZM204.789 22.9844C203.602 22.9844 202.711 23.8125 202.727 25.0156C202.711 26.2344 203.602 27.0469 204.789 27.0312C205.977 27.0469 206.852 26.2344 206.852 25.0156C206.852 23.8125 205.977 22.9844 204.789 22.9844ZM226.133 17.3281V31.3281H224.633V17.3281H226.133ZM221.961 18.8281C221.961 22.9219 220.211 26.4844 215.414 28.7812L214.633 27.5781C218.359 25.8047 220.172 23.2812 220.461 20.0156H215.305V18.8281H221.961Z" fill="#6568FE"/>
</svg>
