<svg width="169" height="48" viewBox="0 0 169 48" fill="none" xmlns="http://www.w3.org/2000/svg">
    <rect width="169" height="48" rx="12" fill="#9398FF"/>
    <path d="M44.6172 17.3281V22.75H46.8672V23.9688H44.6172V31.3594H43.1328V17.3281H44.6172ZM40.8516 18.6719V19.875H35.7891V26.6406C38.1406 26.6328 39.9062 26.5312 41.8984 26.1719L42.0859 27.4219C39.8984 27.8125 38.0391 27.8906 35.4297 27.875H34.3047V18.6719H40.8516ZM60.3359 25.0156V26.2188H47.5234V25.0156H60.3359ZM59.0234 29.8281V31.0312H49.1953V27.2188H50.6797V29.8281H59.0234ZM58.7266 17.75V21.3438H50.6328V22.7188H59.0078V23.8594H49.1641V20.2656H57.2422V18.9219H49.1328V17.75H58.7266ZM71.0391 17.9844V18.5C71.0391 19.2969 71.0391 20.7656 70.5391 22.7656H74.6484C75.0234 21.2109 75.1016 20.0469 75.1172 19.1875H72.0391V17.9844H76.5547V18.625C76.5547 19.5078 76.5547 20.8828 76.1484 22.7656H78.0703V23.9688H72.3516V26.1719H76.4453V31.1406H66.8516V26.1719H70.8984V23.9688H65.2734V22.7656H69.0391C69.4531 21.2031 69.5547 20.0234 69.5859 19.1875H66.4766V17.9844H71.0391ZM68.3047 27.3438V29.9531H74.9766V27.3438H68.3047ZM89.9297 19.6406V20.8438H82.9766V19.6406H85.7266V17.7344H87.1953V19.6406H89.9297ZM86.4609 21.6875C88.2422 21.6875 89.4922 23.0156 89.5078 24.9062C89.4922 26.8125 88.2422 28.1562 86.4609 28.1562C84.7109 28.1562 83.4141 26.8125 83.4297 24.9062C83.4141 23.0156 84.7109 21.6875 86.4609 21.6875ZM86.4609 22.9219C85.4453 22.9219 84.7422 23.75 84.7422 24.9062C84.7422 26.0938 85.4453 26.8906 86.4609 26.8906C87.4609 26.8906 88.1953 26.0938 88.1953 24.9062C88.1953 23.75 87.4609 22.9219 86.4609 22.9219ZM94.9922 17.3281V31.3281H93.5859V24.375H91.9766V30.6719H90.5703V17.6406H91.9766V23.1562H93.5859V17.3281H94.9922ZM101.773 19.5625C101.758 21.4219 103.039 23.1719 105.148 23.875L104.336 25.0625C102.789 24.5078 101.648 23.375 101.055 21.9531C100.438 23.5156 99.25 24.7422 97.6172 25.3594L96.8203 24.1562C99.0078 23.3906 100.273 21.5469 100.289 19.4844V18.0469H101.773V19.5625ZM108.508 26.3594V31.3281H107.023V27.5312H99.0234V26.3594H108.508ZM108.508 17.3281V25.625H107.023V21.375H104.07V20.1562H107.023V17.3281H108.508ZM121.57 17.3281V23H123.82V24.2344H121.57V31.3281H120.102V17.3281H121.57ZM118.883 19.5156V20.7344H110.586V19.5156H114.039V17.5156H115.523V19.5156H118.883ZM114.789 21.7656C116.789 21.7656 118.258 23.1094 118.273 25.0156C118.258 26.9375 116.789 28.2656 114.789 28.2812C112.773 28.2656 111.305 26.9375 111.305 25.0156C111.305 23.1094 112.773 21.7656 114.789 21.7656ZM114.789 22.9844C113.602 22.9844 112.711 23.8125 112.727 25.0156C112.711 26.2344 113.602 27.0469 114.789 27.0312C115.977 27.0469 116.852 26.2344 116.852 25.0156C116.852 23.8125 115.977 22.9844 114.789 22.9844ZM136.133 17.3281V31.3281H134.633V17.3281H136.133ZM131.961 18.8281C131.961 22.9219 130.211 26.4844 125.414 28.7812L124.633 27.5781C128.359 25.8047 130.172 23.2812 130.461 20.0156H125.305V18.8281H131.961Z" fill="white"/>
</svg>
