<svg width="180" height="48" viewBox="0 0 180 48" fill="none" xmlns="http://www.w3.org/2000/svg">
    <rect width="180" height="48" rx="12" fill="#9398FF"/>
    <path d="M28.6953 17.9844V18.5C28.6953 19.2969 28.6953 20.7656 28.1953 22.7656H32.3047C32.6797 21.2109 32.7578 20.0469 32.7734 19.1875H29.6953V17.9844H34.2109V18.625C34.2109 19.5078 34.2109 20.8828 33.8047 22.7656H35.7266V23.9688H30.0078V26.1719H34.1016V31.1406H24.5078V26.1719H28.5547V23.9688H22.9297V22.7656H26.6953C27.1094 21.2031 27.2109 20.0234 27.2422 19.1875H24.1328V17.9844H28.6953ZM25.9609 27.3438V29.9531H32.6328V27.3438H25.9609ZM47.5859 19.6406V20.8438H40.6328V19.6406H43.3828V17.7344H44.8516V19.6406H47.5859ZM44.1172 21.6875C45.8984 21.6875 47.1484 23.0156 47.1641 24.9062C47.1484 26.8125 45.8984 28.1562 44.1172 28.1562C42.3672 28.1562 41.0703 26.8125 41.0859 24.9062C41.0703 23.0156 42.3672 21.6875 44.1172 21.6875ZM44.1172 22.9219C43.1016 22.9219 42.3984 23.75 42.3984 24.9062C42.3984 26.0938 43.1016 26.8906 44.1172 26.8906C45.1172 26.8906 45.8516 26.0938 45.8516 24.9062C45.8516 23.75 45.1172 22.9219 44.1172 22.9219ZM52.6484 17.3281V31.3281H51.2422V24.375H49.6328V30.6719H48.2266V17.6406H49.6328V23.1562H51.2422V17.3281H52.6484ZM59.4297 19.5625C59.4141 21.4219 60.6953 23.1719 62.8047 23.875L61.9922 25.0625C60.4453 24.5078 59.3047 23.375 58.7109 21.9531C58.0938 23.5156 56.9062 24.7422 55.2734 25.3594L54.4766 24.1562C56.6641 23.3906 57.9297 21.5469 57.9453 19.4844V18.0469H59.4297V19.5625ZM66.1641 26.3594V31.3281H64.6797V27.5312H56.6797V26.3594H66.1641ZM66.1641 17.3281V25.625H64.6797V21.375H61.7266V20.1562H64.6797V17.3281H66.1641ZM84.2109 17.3281V31.3281H82.7891V24.1562H80.9922V30.6094H79.6016V17.6094H80.9922V22.9375H82.7891V17.3281H84.2109ZM74.3672 18.9844V26.4531C75.6641 26.4453 77.0781 26.3438 78.6641 26.0312L78.8203 27.3281C76.8984 27.6719 75.2891 27.7656 73.7891 27.7656H72.8828V18.9844H74.3672ZM98.8203 24.1562V25.3594H86.0547V24.1562H89.1172V22.2656C88.0391 21.8281 87.4297 21.125 87.4297 20.2031C87.4297 18.5469 89.3516 17.5781 92.4297 17.5781C95.4922 17.5781 97.4297 18.5469 97.4297 20.2031C97.4297 21.125 96.8125 21.8359 95.7266 22.2656V24.1562H98.8203ZM92.4297 26.3125C95.4453 26.3125 97.2578 27.2031 97.2578 28.7969C97.2578 30.4219 95.4453 31.2969 92.4297 31.2969C89.3828 31.2969 87.5703 30.4219 87.5703 28.7969C87.5703 27.2031 89.3828 26.3125 92.4297 26.3125ZM92.4297 27.4531C90.2891 27.4531 89.0703 27.9375 89.0703 28.7969C89.0703 29.6719 90.2891 30.1719 92.4297 30.1562C94.5391 30.1719 95.7734 29.6719 95.7734 28.7969C95.7734 27.9375 94.5391 27.4531 92.4297 27.4531ZM92.4297 18.7188C90.2578 18.7188 88.9453 19.2656 88.9609 20.2031C88.9453 21.1406 90.2578 21.6719 92.4297 21.6719C94.6016 21.6719 95.8984 21.1406 95.8984 20.2031C95.8984 19.2656 94.6016 18.7188 92.4297 18.7188ZM90.6172 24.1562H94.2578V22.6562C93.7109 22.75 93.0938 22.7969 92.4297 22.7969C91.7734 22.7969 91.1641 22.75 90.6172 22.6719V24.1562ZM115.477 17.3281V31.3594H113.992V23.5781H111.102V22.3594H113.992V17.3281H115.477ZM108.789 21.2656C108.789 23.6406 110.273 26.1875 112.43 27.1406L111.539 28.3281C109.922 27.5469 108.672 25.9141 108.055 24C107.43 26.0391 106.156 27.7812 104.539 28.6094L103.633 27.4531C105.773 26.4375 107.273 23.7812 107.289 21.2656V19.9531H104.195V18.7344H111.898V19.9531H108.789V21.2656ZM122.508 19.9062C122.508 21.6875 123.742 23.3125 125.867 23.9844L125.164 25.1406C123.57 24.6328 122.406 23.5781 121.789 22.25C121.18 23.7812 119.953 24.9922 118.273 25.5781L117.508 24.3906C119.695 23.6719 121.008 21.8594 121.023 19.9219V19.5312H117.945V18.3281H125.523V19.5312H122.508V19.9062ZM128.617 17.3281V20.7969H130.648V22.0156H128.617V25.7344H127.133V17.3281H128.617ZM124.102 26.0781C126.992 26.0781 128.742 27.0312 128.742 28.6719C128.742 30.3281 126.992 31.3125 124.102 31.2969C121.18 31.3125 119.398 30.3281 119.398 28.6719C119.398 27.0312 121.18 26.0781 124.102 26.0781ZM124.102 27.25C122.07 27.25 120.867 27.7656 120.883 28.6719C120.867 29.6094 122.07 30.125 124.102 30.125C126.117 30.125 127.289 29.6094 127.289 28.6719C127.289 27.7656 126.117 27.25 124.102 27.25ZM142.352 17.3281V23H144.602V24.2344H142.352V31.3281H140.883V17.3281H142.352ZM139.664 19.5156V20.7344H131.367V19.5156H134.82V17.5156H136.305V19.5156H139.664ZM135.57 21.7656C137.57 21.7656 139.039 23.1094 139.055 25.0156C139.039 26.9375 137.57 28.2656 135.57 28.2812C133.555 28.2656 132.086 26.9375 132.086 25.0156C132.086 23.1094 133.555 21.7656 135.57 21.7656ZM135.57 22.9844C134.383 22.9844 133.492 23.8125 133.508 25.0156C133.492 26.2344 134.383 27.0469 135.57 27.0312C136.758 27.0469 137.633 26.2344 137.633 25.0156C137.633 23.8125 136.758 22.9844 135.57 22.9844ZM156.914 17.3281V31.3281H155.414V17.3281H156.914ZM152.742 18.8281C152.742 22.9219 150.992 26.4844 146.195 28.7812L145.414 27.5781C149.141 25.8047 150.953 23.2812 151.242 20.0156H146.086V18.8281H152.742Z" fill="white"/>
</svg>
