<svg width="350" height="48" viewBox="0 0 350 48" fill="none" xmlns="http://www.w3.org/2000/svg">
    <rect width="350" height="48" rx="12" fill="#9398FF"/>
    <path d="M113.695 17.9844V18.5C113.695 19.2969 113.695 20.7656 113.195 22.7656H117.305C117.68 21.2109 117.758 20.0469 117.773 19.1875H114.695V17.9844H119.211V18.625C119.211 19.5078 119.211 20.8828 118.805 22.7656H120.727V23.9688H115.008V26.1719H119.102V31.1406H109.508V26.1719H113.555V23.9688H107.93V22.7656H111.695C112.109 21.2031 112.211 20.0234 112.242 19.1875H109.133V17.9844H113.695ZM110.961 27.3438V29.9531H117.633V27.3438H110.961ZM132.586 19.6406V20.8438H125.633V19.6406H128.383V17.7344H129.852V19.6406H132.586ZM129.117 21.6875C130.898 21.6875 132.148 23.0156 132.164 24.9062C132.148 26.8125 130.898 28.1562 129.117 28.1562C127.367 28.1562 126.07 26.8125 126.086 24.9062C126.07 23.0156 127.367 21.6875 129.117 21.6875ZM129.117 22.9219C128.102 22.9219 127.398 23.75 127.398 24.9062C127.398 26.0938 128.102 26.8906 129.117 26.8906C130.117 26.8906 130.852 26.0938 130.852 24.9062C130.852 23.75 130.117 22.9219 129.117 22.9219ZM137.648 17.3281V31.3281H136.242V24.375H134.633V30.6719H133.227V17.6406H134.633V23.1562H136.242V17.3281H137.648ZM144.43 19.5625C144.414 21.4219 145.695 23.1719 147.805 23.875L146.992 25.0625C145.445 24.5078 144.305 23.375 143.711 21.9531C143.094 23.5156 141.906 24.7422 140.273 25.3594L139.477 24.1562C141.664 23.3906 142.93 21.5469 142.945 19.4844V18.0469H144.43V19.5625ZM151.164 26.3594V31.3281H149.68V27.5312H141.68V26.3594H151.164ZM151.164 17.3281V25.625H149.68V21.375H146.727V20.1562H149.68V17.3281H151.164ZM169.211 17.3281V31.3281H167.789V24.1562H165.992V30.6094H164.602V17.6094H165.992V22.9375H167.789V17.3281H169.211ZM159.367 18.9844V26.4531C160.664 26.4453 162.078 26.3438 163.664 26.0312L163.82 27.3281C161.898 27.6719 160.289 27.7656 158.789 27.7656H157.883V18.9844H159.367ZM183.82 24.1562V25.3594H171.055V24.1562H174.117V22.2656C173.039 21.8281 172.43 21.125 172.43 20.2031C172.43 18.5469 174.352 17.5781 177.43 17.5781C180.492 17.5781 182.43 18.5469 182.43 20.2031C182.43 21.125 181.812 21.8359 180.727 22.2656V24.1562H183.82ZM177.43 26.3125C180.445 26.3125 182.258 27.2031 182.258 28.7969C182.258 30.4219 180.445 31.2969 177.43 31.2969C174.383 31.2969 172.57 30.4219 172.57 28.7969C172.57 27.2031 174.383 26.3125 177.43 26.3125ZM177.43 27.4531C175.289 27.4531 174.07 27.9375 174.07 28.7969C174.07 29.6719 175.289 30.1719 177.43 30.1562C179.539 30.1719 180.773 29.6719 180.773 28.7969C180.773 27.9375 179.539 27.4531 177.43 27.4531ZM177.43 18.7188C175.258 18.7188 173.945 19.2656 173.961 20.2031C173.945 21.1406 175.258 21.6719 177.43 21.6719C179.602 21.6719 180.898 21.1406 180.898 20.2031C180.898 19.2656 179.602 18.7188 177.43 18.7188ZM175.617 24.1562H179.258V22.6562C178.711 22.75 178.094 22.7969 177.43 22.7969C176.773 22.7969 176.164 22.75 175.617 22.6719V24.1562ZM200.477 17.3281V31.3594H198.992V23.5781H196.102V22.3594H198.992V17.3281H200.477ZM193.789 21.2656C193.789 23.6406 195.273 26.1875 197.43 27.1406L196.539 28.3281C194.922 27.5469 193.672 25.9141 193.055 24C192.43 26.0391 191.156 27.7812 189.539 28.6094L188.633 27.4531C190.773 26.4375 192.273 23.7812 192.289 21.2656V19.9531H189.195V18.7344H196.898V19.9531H193.789V21.2656ZM207.508 19.9062C207.508 21.6875 208.742 23.3125 210.867 23.9844L210.164 25.1406C208.57 24.6328 207.406 23.5781 206.789 22.25C206.18 23.7812 204.953 24.9922 203.273 25.5781L202.508 24.3906C204.695 23.6719 206.008 21.8594 206.023 19.9219V19.5312H202.945V18.3281H210.523V19.5312H207.508V19.9062ZM213.617 17.3281V20.7969H215.648V22.0156H213.617V25.7344H212.133V17.3281H213.617ZM209.102 26.0781C211.992 26.0781 213.742 27.0312 213.742 28.6719C213.742 30.3281 211.992 31.3125 209.102 31.2969C206.18 31.3125 204.398 30.3281 204.398 28.6719C204.398 27.0312 206.18 26.0781 209.102 26.0781ZM209.102 27.25C207.07 27.25 205.867 27.7656 205.883 28.6719C205.867 29.6094 207.07 30.125 209.102 30.125C211.117 30.125 212.289 29.6094 212.289 28.6719C212.289 27.7656 211.117 27.25 209.102 27.25ZM227.352 17.3281V23H229.602V24.2344H227.352V31.3281H225.883V17.3281H227.352ZM224.664 19.5156V20.7344H216.367V19.5156H219.82V17.5156H221.305V19.5156H224.664ZM220.57 21.7656C222.57 21.7656 224.039 23.1094 224.055 25.0156C224.039 26.9375 222.57 28.2656 220.57 28.2812C218.555 28.2656 217.086 26.9375 217.086 25.0156C217.086 23.1094 218.555 21.7656 220.57 21.7656ZM220.57 22.9844C219.383 22.9844 218.492 23.8125 218.508 25.0156C218.492 26.2344 219.383 27.0469 220.57 27.0312C221.758 27.0469 222.633 26.2344 222.633 25.0156C222.633 23.8125 221.758 22.9844 220.57 22.9844ZM241.914 17.3281V31.3281H240.414V17.3281H241.914ZM237.742 18.8281C237.742 22.9219 235.992 26.4844 231.195 28.7812L230.414 27.5781C234.141 25.8047 235.953 23.2812 236.242 20.0156H231.086V18.8281H237.742Z" fill="white"/>
</svg>
