<svg width="390" height="38" viewBox="0 0 390 38" fill="none" xmlns="http://www.w3.org/2000/svg">
    <rect width="390" height="38" fill="#E0E7FF"/>
    <path d="M56.3955 24V14.1016H57.8994V22.7012H62.3701V24H56.3955ZM66.9365 24.1504C64.8311 24.1504 63.4639 22.6191 63.4639 20.3223C63.4639 18.0117 64.8311 16.4805 66.9365 16.4805C69.0283 16.4805 70.3955 18.0117 70.3955 20.3223C70.3955 22.6191 69.0283 24.1504 66.9365 24.1504ZM66.9365 22.9336C68.2764 22.9336 68.9189 21.7441 68.9189 20.3223C68.9189 18.9004 68.2764 17.6836 66.9365 17.6836C65.5693 17.6836 64.9268 18.9004 64.9268 20.3223C64.9268 21.7441 65.5693 22.9336 66.9365 22.9336ZM74.9756 24.1504C72.8701 24.1504 71.5029 22.6191 71.5029 20.3223C71.5029 18.0117 72.8701 16.4805 74.9756 16.4805C77.0674 16.4805 78.4346 18.0117 78.4346 20.3223C78.4346 22.6191 77.0674 24.1504 74.9756 24.1504ZM74.9756 22.9336C76.3154 22.9336 76.958 21.7441 76.958 20.3223C76.958 18.9004 76.3154 17.6836 74.9756 17.6836C73.6084 17.6836 72.9658 18.9004 72.9658 20.3223C72.9658 21.7441 73.6084 22.9336 74.9756 22.9336ZM79.8701 24V16.5762H81.333V24H79.8701ZM80.6084 15.4277C80.1025 15.4277 79.6787 15.0449 79.6787 14.5664C79.6787 14.0879 80.1025 13.7051 80.6084 13.7051C81.1006 13.7051 81.5244 14.0879 81.5244 14.5664C81.5244 15.0449 81.1006 15.4277 80.6084 15.4277ZM86.665 13.7871C88.6064 13.7734 89.9873 14.9766 90.001 16.6992C89.9873 18.4219 88.6064 19.625 86.665 19.625C84.7373 19.625 83.3154 18.4219 83.3291 16.6992C83.3154 14.9766 84.7373 13.7734 86.665 13.7871ZM86.665 14.9082C85.4756 14.9082 84.6006 15.6191 84.6143 16.6992C84.6006 17.7793 85.4756 18.4902 86.665 18.4902C87.8545 18.4902 88.7295 17.7793 88.7295 16.6992C88.7295 15.6191 87.8545 14.9082 86.665 14.9082ZM92.8037 12.9121V25.1895H91.5049V12.9121H92.8037ZM82.7412 21.4707C84.9697 21.4707 88.0596 21.4434 90.7393 21.0605L90.835 22.0039C88.0596 22.5371 85.0928 22.5508 82.9053 22.5508L82.7412 21.4707ZM103.235 13.4863V13.9375C103.235 14.6348 103.235 15.9199 102.798 17.6699H106.394C106.722 16.3096 106.79 15.291 106.804 14.5391H104.11V13.4863H108.062V14.0469C108.062 14.8193 108.062 16.0225 107.706 17.6699H109.388V18.7227H104.384V20.6504H107.966V24.998H99.5713V20.6504H103.112V18.7227H98.1904V17.6699H101.485C101.848 16.3027 101.937 15.2705 101.964 14.5391H99.2432V13.4863H103.235ZM100.843 21.6758V23.959H106.681V21.6758H100.843ZM119.765 14.9355V15.9883H113.681V14.9355H116.087V13.2676H117.372V14.9355H119.765ZM116.729 16.7266C118.288 16.7266 119.382 17.8887 119.396 19.543C119.382 21.2109 118.288 22.3867 116.729 22.3867C115.198 22.3867 114.063 21.2109 114.077 19.543C114.063 17.8887 115.198 16.7266 116.729 16.7266ZM116.729 17.8066C115.841 17.8066 115.226 18.5312 115.226 19.543C115.226 20.582 115.841 21.2793 116.729 21.2793C117.604 21.2793 118.247 20.582 118.247 19.543C118.247 18.5312 117.604 17.8066 116.729 17.8066ZM124.194 12.9121V25.1621H122.964V19.0781H121.556V24.5879H120.325V13.1855H121.556V18.0117H122.964V12.9121H124.194ZM130.128 14.8672C130.114 16.4941 131.235 18.0254 133.081 18.6406L132.37 19.6797C131.017 19.1943 130.019 18.2031 129.499 16.959C128.959 18.3262 127.92 19.3994 126.491 19.9395L125.794 18.8867C127.708 18.2168 128.815 16.6035 128.829 14.7988V13.541H130.128V14.8672ZM136.021 20.8145V25.1621H134.722V21.8398H127.722V20.8145H136.021ZM136.021 12.9121V20.1719H134.722V16.4531H132.138V15.3867H134.722V12.9121H136.021ZM150.868 12.9121V17.875H152.837V18.9551H150.868V25.1621H149.583V12.9121H150.868ZM148.517 14.8262V15.8926H141.257V14.8262H144.278V13.0762H145.577V14.8262H148.517ZM144.935 16.7949C146.685 16.7949 147.97 17.9707 147.983 19.6387C147.97 21.3203 146.685 22.4824 144.935 22.4961C143.171 22.4824 141.886 21.3203 141.886 19.6387C141.886 17.9707 143.171 16.7949 144.935 16.7949ZM144.935 17.8613C143.896 17.8613 143.116 18.5859 143.13 19.6387C143.116 20.7051 143.896 21.416 144.935 21.4023C145.974 21.416 146.739 20.7051 146.739 19.6387C146.739 18.5859 145.974 17.8613 144.935 17.8613ZM163.624 12.9121V25.1895H162.339V18.5996H160.097V17.5195H162.339V12.9121H163.624ZM159.372 14.0195V18.3945H155.175V21.1836C157.13 21.1768 158.634 21.1084 160.343 20.8008L160.452 21.8672C158.62 22.1953 157.007 22.2637 154.847 22.2773H153.876V17.3418H158.114V15.0723H153.849V14.0195H159.372ZM175.067 12.9121V17.793H176.968V18.873H175.067V25.1484H173.769V12.9121H175.067ZM171.868 14.1973C171.854 17.7383 170.296 20.8965 166.263 22.8926L165.538 21.8809C168.607 20.3496 170.275 18.1348 170.542 15.2773H166.153V14.1973H171.868ZM187.81 12.9121V25.1621H186.497V12.9121H187.81ZM184.159 14.2246C184.159 17.8066 182.628 20.9238 178.431 22.9336L177.747 21.8809C181.008 20.3291 182.594 18.1211 182.847 15.2637H178.335V14.2246H184.159ZM195.507 19.707V24H193.483V14.1016H195.452V17.875H195.534C195.876 17.0137 196.628 16.4805 197.749 16.4805C199.294 16.4805 200.319 17.5195 200.319 19.2695V24H198.296V19.625C198.296 18.709 197.804 18.1621 196.956 18.1621C196.108 18.1621 195.507 18.7227 195.507 19.707ZM205.788 16.5762V18.0938H204.394V21.7168C204.394 22.3047 204.681 22.4551 205.091 22.4688C205.296 22.4688 205.651 22.4551 205.897 22.4277V24.0273C205.679 24.0684 205.323 24.0957 204.817 24.0957C203.354 24.0957 202.356 23.4395 202.37 22.0039V18.0938H201.345V16.5762H202.37V14.7988H204.394V16.5762H205.788ZM210.97 16.5762V18.0938H209.575V21.7168C209.575 22.3047 209.862 22.4551 210.272 22.4688C210.478 22.4688 210.833 22.4551 211.079 22.4277V24.0273C210.86 24.0684 210.505 24.0957 209.999 24.0957C208.536 24.0957 207.538 23.4395 207.552 22.0039V18.0938H206.526V16.5762H207.552V14.7988H209.575V16.5762H210.97ZM212.241 26.7891V16.5762H214.237V17.8203H214.319C214.593 17.2188 215.194 16.4805 216.438 16.4805C218.079 16.4805 219.446 17.752 219.446 20.2949C219.446 22.7695 218.134 24.123 216.438 24.123C215.222 24.123 214.606 23.4258 214.319 22.8105H214.265V26.7891H212.241ZM214.224 20.2812C214.224 21.6211 214.798 22.5098 215.796 22.5098C216.835 22.5098 217.382 21.5938 217.382 20.2812C217.382 18.9824 216.835 18.0938 215.796 18.0938C214.784 18.0938 214.224 18.9414 214.224 20.2812ZM224.997 18.7773C224.915 18.2578 224.45 17.916 223.78 17.916C223.124 17.916 222.618 18.2305 222.632 18.6816C222.618 19.0098 222.892 19.2695 223.589 19.4199L224.915 19.6934C226.351 19.9941 227.048 20.6367 227.062 21.7031C227.048 23.166 225.735 24.1504 223.767 24.1504C221.757 24.1504 220.581 23.248 220.417 21.7988H222.454C222.55 22.3867 223.028 22.6875 223.767 22.6875C224.505 22.6875 224.997 22.3867 224.997 21.9082C224.997 21.5254 224.683 21.293 223.985 21.1426L222.755 20.8965C221.347 20.623 220.608 19.8848 220.622 18.791C220.608 17.3691 221.839 16.4805 223.753 16.4805C225.626 16.4805 226.788 17.3691 226.897 18.7773H224.997ZM229.495 24.123C228.853 24.123 228.333 23.6035 228.347 22.9746C228.333 22.3457 228.853 21.8398 229.495 21.8398C230.097 21.8398 230.63 22.3457 230.63 22.9746C230.63 23.6035 230.097 24.123 229.495 24.123ZM229.495 18.9141C228.853 18.9141 228.333 18.3945 228.347 17.7656C228.333 17.1367 228.853 16.6309 229.495 16.6309C230.097 16.6309 230.63 17.1367 230.63 17.7656C230.63 18.3945 230.097 18.9141 229.495 18.9141ZM236.536 13.6367L233.337 25.4902H231.601L234.786 13.6367H236.536ZM241.731 13.6367L238.532 25.4902H236.796L239.981 13.6367H241.731ZM244.671 14.1016V24H242.647V14.1016H244.671ZM249.579 24.1504C247.337 24.1504 245.942 22.6055 245.942 20.3086C245.942 18.0117 247.337 16.4805 249.579 16.4805C251.821 16.4805 253.229 18.0117 253.229 20.3086C253.229 22.6055 251.821 24.1504 249.579 24.1504ZM249.593 22.5781C250.632 22.5781 251.165 21.6074 251.165 20.3086C251.165 18.9961 250.632 18.0254 249.593 18.0254C248.54 18.0254 247.993 18.9961 247.993 20.3086C247.993 21.6074 248.54 22.5781 249.593 22.5781ZM257.837 24.1504C255.595 24.1504 254.2 22.6055 254.2 20.3086C254.2 18.0117 255.595 16.4805 257.837 16.4805C260.079 16.4805 261.487 18.0117 261.487 20.3086C261.487 22.6055 260.079 24.1504 257.837 24.1504ZM257.851 22.5781C258.89 22.5781 259.423 21.6074 259.423 20.3086C259.423 18.9961 258.89 18.0254 257.851 18.0254C256.798 18.0254 256.251 18.9961 256.251 20.3086C256.251 21.6074 256.798 22.5781 257.851 22.5781ZM262.759 24V14.1016H264.782V19.4199H264.892L267.298 16.5762H269.622L266.86 19.7891L269.772 24H267.394L265.356 20.9785L264.782 21.6211V24H262.759ZM274.913 19.1191V20.7324H270.401V19.1191H274.913ZM276.595 24V16.5762H278.618V24H276.595ZM277.606 15.6055C276.991 15.6055 276.499 15.1406 276.499 14.5801C276.499 14.0059 276.991 13.541 277.606 13.541C278.208 13.541 278.7 14.0059 278.7 14.5801C278.7 15.1406 278.208 15.6055 277.606 15.6055ZM281.38 24.123C280.737 24.123 280.218 23.6035 280.231 22.9746C280.218 22.3457 280.737 21.8398 281.38 21.8398C281.981 21.8398 282.515 22.3457 282.515 22.9746C282.515 23.6035 281.981 24.123 281.38 24.123ZM283.786 21.9219C283.786 20.2676 285.126 19.7207 286.548 19.6387C287.081 19.6045 288.079 19.5566 288.394 19.543V18.9414C288.38 18.3262 287.956 17.957 287.204 17.957C286.521 17.957 286.083 18.2715 285.974 18.7773H284.046C284.169 17.4922 285.29 16.4805 287.259 16.4805C288.872 16.4805 290.403 17.2051 290.403 18.9961V24H288.489V22.9746H288.435C288.065 23.6582 287.368 24.1367 286.261 24.1367C284.839 24.1367 283.786 23.3984 283.786 21.9219ZM285.728 21.8672C285.728 22.4414 286.192 22.7422 286.835 22.7422C287.751 22.7422 288.407 22.127 288.394 21.3477V20.8008C288.086 20.8145 287.225 20.8623 286.876 20.8965C286.179 20.9648 285.728 21.293 285.728 21.8672ZM291.948 26.7891V16.5762H293.944V17.8203H294.026C294.3 17.2188 294.901 16.4805 296.146 16.4805C297.786 16.4805 299.153 17.752 299.153 20.2949C299.153 22.7695 297.841 24.123 296.146 24.123C294.929 24.123 294.313 23.4258 294.026 22.8105H293.972V26.7891H291.948ZM293.931 20.2812C293.931 21.6211 294.505 22.5098 295.503 22.5098C296.542 22.5098 297.089 21.5938 297.089 20.2812C297.089 18.9824 296.542 18.0938 295.503 18.0938C294.491 18.0938 293.931 18.9414 293.931 20.2812ZM300.466 26.7891V16.5762H302.462V17.8203H302.544C302.817 17.2188 303.419 16.4805 304.663 16.4805C306.304 16.4805 307.671 17.752 307.671 20.2949C307.671 22.7695 306.358 24.123 304.663 24.123C303.446 24.123 302.831 23.4258 302.544 22.8105H302.489V26.7891H300.466ZM302.448 20.2812C302.448 21.6211 303.022 22.5098 304.021 22.5098C305.06 22.5098 305.606 21.5938 305.606 20.2812C305.606 18.9824 305.06 18.0938 304.021 18.0938C303.009 18.0938 302.448 18.9414 302.448 20.2812ZM318.198 13.6777C318.198 16.7949 316.065 19.0098 312.511 20.0078L311.978 18.9961C314.801 18.2031 316.558 16.6719 316.817 14.7441H312.62V13.6777H318.198ZM322.081 12.9258V19.8574H320.782V17.0684H318.253V15.9883H320.782V12.9258H322.081ZM322.081 20.3633V24.998H314.069V20.3633H322.081ZM315.341 21.4023V23.959H320.796V21.4023H315.341ZM327.714 15.2227C327.714 16.6035 328.562 17.9844 330.147 18.5996L329.45 19.5977C328.329 19.1465 327.536 18.2988 327.099 17.2734C326.641 18.415 325.807 19.3994 324.624 19.9121L323.913 18.9141C325.567 18.1895 326.456 16.6035 326.456 15.2227V13.6504H327.714V15.2227ZM334.413 12.9258V20.3223H333.183V17.123H331.747V20.2539H330.544V13.1309H331.747V16.043H333.183V12.9258H334.413ZM334.413 20.9648V25.1621H333.128V22.0176H326.087V20.9648H334.413Z" fill="#4F46E5"/>
</svg>
