<svg width="115" height="31" viewBox="0 0 115 31" fill="none" xmlns="http://www.w3.org/2000/svg">
    <rect width="115" height="31" rx="8" fill="#6366F1"/>
    <path d="M30 15.5L10 24L10 7L30 15.5Z" fill="white"/>
    <path d="M10 24V7L30 15.5L10 24ZM10.7489 22.8262L27.753 15.5L10.7489 8.17377V13.3954L16.5919 15.5L10.7489 17.605V22.8262Z" fill="#6366F1"/>
    <path d="M47.2461 10.4141V16.1445H45.7461V10.4141H47.2461ZM38.4805 13.3906C38.4805 11.8906 39.7344 10.8477 41.3984 10.8594C43.0566 10.8477 44.3105 11.8906 44.3164 13.3906C44.3105 14.8438 43.0566 15.8867 41.3984 15.8867C39.7344 15.8867 38.4805 14.8438 38.4805 13.3906ZM39.9453 13.3906C39.9336 14.1816 40.543 14.6562 41.3984 14.6562C42.2305 14.6562 42.834 14.1816 42.8398 13.3906C42.834 12.5879 42.2305 12.0957 41.3984 12.1016C40.543 12.0957 39.9336 12.5879 39.9453 13.3906ZM40.1094 20.9609V16.6133H41.5859V17.6094H45.7578V16.6133H47.2461V20.9609H40.1094ZM41.5859 19.7539H45.7578V18.7695H41.5859V19.7539ZM53.8086 11.0352V14.3633H50.5859V15.5C52.168 15.5 53.1172 15.4473 54.1953 15.2422L54.3359 16.4375C53.0879 16.6602 51.9688 16.6895 49.9062 16.6953H49.1094V13.25H52.3086V12.207H49.0859V11.0352H53.8086ZM50.3281 18.6641V17.4688H57.6758V21.0781H56.1875V18.6641H50.3281ZM54.418 15.3477V14.1641H56.1875V13.0859H54.418V11.9023H56.1875V10.4258H57.6758V16.9883H56.1875V15.3477H54.418ZM65.0352 10.8477C66.5938 10.8535 67.7129 11.7266 67.7188 13.0156C67.7129 14.0586 66.9512 14.8555 65.8086 15.1016V15.8809C66.6465 15.8281 67.4785 15.752 68.2578 15.6406L68.375 16.7305C66.1777 17.1172 63.7344 17.1699 61.9531 17.1641L61.8008 15.9805C62.5391 15.9805 63.4004 15.9746 64.3086 15.9512V15.1133C63.1309 14.8789 62.3457 14.0762 62.3516 13.0156C62.3457 11.7266 63.4648 10.8535 65.0352 10.8477ZM63.207 20.8789V17.8438H64.707V19.6836H70.7188V20.8789H63.207ZM63.7461 13.0156C63.7344 13.666 64.2793 14.041 65.0352 14.0469C65.8027 14.041 66.3125 13.666 66.3125 13.0156C66.3125 12.3477 65.7969 11.9844 65.0352 11.9727C64.2793 11.9844 63.7344 12.3477 63.7461 13.0156ZM68.8555 18.5586V10.4258H70.3555V13.7773H71.7148V15.0195H70.3555V18.5586H68.8555ZM81.957 18.6641V19.8945H72.1953V18.6641H74.6914V17.0352H73.3203V13.4492H79.3555V12.3008H73.3086V11.1055H80.832V14.6445H74.8203V15.8281H81.0781V17.0352H79.5664V18.6641H81.957ZM76.1445 18.6641H78.1016V17.0352H76.1445V18.6641ZM90.9805 10.4141V14.5859H92.5508V15.8164H90.9805V21.0781H89.5039V10.4141H90.9805ZM82.5078 13.2031V12.0078H84.9219V10.5781H86.4219V12.0078H88.7773V13.2031H82.5078ZM82.9414 16.3438C82.9355 14.8555 84.0957 13.7949 85.6719 13.8008C87.2246 13.7949 88.3906 14.8555 88.3906 16.3438C88.3906 17.832 87.2246 18.8809 85.6719 18.8867C84.0957 18.8809 82.9355 17.832 82.9414 16.3438ZM84.3711 16.3438C84.3711 17.1699 84.916 17.6621 85.6719 17.6562C86.416 17.6621 86.9609 17.1699 86.9609 16.3438C86.9609 15.5234 86.416 15.0195 85.6719 15.0078C84.916 15.0195 84.3711 15.5234 84.3711 16.3438ZM101.902 10.4141V21.0781H100.391V10.4141H101.902ZM92.9727 18.0547C95.7266 16.7539 96.9395 15.0664 97.1797 12.6992H93.5469V11.5273H98.7031C98.6973 14.7617 97.5664 17.4512 93.7578 19.25L92.9727 18.0547Z" fill="white"/>
</svg>
