<svg width="115" height="31" viewBox="0 0 115 31" fill="none" xmlns="http://www.w3.org/2000/svg">
    <rect width="115" height="31" rx="8" fill="#E5E7EB"/>
    <path d="M30 15.5L10 24L10 7L30 15.5Z" fill="#9CA3AF"/>
    <path d="M10 24V7L30 15.5L10 24ZM10.7489 22.8262L27.753 15.5L10.7489 8.17377V13.3954L16.5919 15.5L10.7489 17.605V22.8262Z" fill="#E5E7EB"/>
    <path d="M47.0234 10.5312V16.1211H46.1094V10.5312H47.0234ZM38.668 13.4375C38.6621 12.0137 39.8164 11.0352 41.3984 11.0469C42.9805 11.0352 44.123 12.0137 44.1289 13.4375C44.123 14.8555 42.9805 15.834 41.3984 15.8281C39.8164 15.834 38.6621 14.8555 38.668 13.4375ZM39.5703 13.4375C39.5586 14.3867 40.3262 15.0605 41.3984 15.0664C42.459 15.0605 43.2266 14.3867 43.2266 13.4375C43.2266 12.4824 42.459 11.8145 41.3984 11.8203C40.3262 11.8145 39.5586 12.4824 39.5703 13.4375ZM40.2734 20.8086V16.6484H41.1875V17.9141H46.1094V16.6484H47.0234V20.8086H40.2734ZM41.1875 20.0586H46.1094V18.6523H41.1875V20.0586ZM53.7383 11.1758V14.0938H50.1523V15.7109C52.1094 15.7168 53.123 15.6758 54.3477 15.4531L54.4414 16.2148C53.1465 16.4258 52.0859 16.4609 49.9766 16.4609H49.2383V13.3906H52.8242V11.9141H49.2148V11.1758H53.7383ZM50.4102 18.2539V17.5039H57.4297V20.9727H56.5039V18.2539H50.4102ZM54.4297 15.0078V14.2461H56.5039V12.8398H54.4297V12.0898H56.5039V10.543H57.4297V16.9414H56.5039V15.0078H54.4297ZM65.3516 11.0234C66.875 11.0234 67.9355 11.8438 67.9414 13.0859C67.9355 14.1641 67.0977 14.9375 65.8438 15.0957V16.1152C66.8164 16.0625 67.8066 15.9746 68.7148 15.8398L68.7852 16.5312C66.5762 16.9238 64.0801 16.959 62.2812 16.9531L62.1641 16.1914C62.9727 16.1973 63.9219 16.1914 64.918 16.1562V15.1016C63.6289 14.9609 62.7676 14.1816 62.7734 13.0859C62.7676 11.8438 63.8281 11.0234 65.3516 11.0234ZM63.6406 13.0859C63.6289 13.877 64.3379 14.416 65.3516 14.4219C66.3711 14.416 67.0684 13.877 67.0742 13.0859C67.0684 12.2773 66.3711 11.7383 65.3516 11.7383C64.3379 11.7383 63.6289 12.2773 63.6406 13.0859ZM63.6875 20.7148V17.8203H64.6133V19.9414H70.6836V20.7148H63.6875ZM69.3828 18.5117V10.543H70.3086V14.0703H71.8672V14.8555H70.3086V18.5117H69.3828ZM82.0859 18.8867V19.6602H72.5469V18.8867H75.2305V16.9062H73.7422V13.6953H79.9766V12.0664H73.7188V11.3047H80.8789V14.457H74.6562V16.1445H81.125V16.9062H79.4961V18.8867H82.0859ZM76.1328 18.8867H78.5938V16.9062H76.1328V18.8867ZM90.9805 10.5312V14.832H92.7266V15.5938H90.9805V20.9492H90.0664V10.5312H90.9805ZM82.8594 12.9688V12.207H85.543V10.6602H86.457V12.207H89.0586V12.9688H82.8594ZM83.457 16.2266C83.4512 14.8203 84.5293 13.8359 86.0117 13.8359C87.4824 13.8359 88.5547 14.8203 88.5664 16.2266C88.5547 17.6387 87.4824 18.6172 86.0117 18.6172C84.5293 18.6172 83.4512 17.6387 83.457 16.2266ZM84.3359 16.2266C84.3301 17.1758 85.0391 17.8438 86.0117 17.832C86.9727 17.8438 87.6758 17.1758 87.6875 16.2266C87.6758 15.2832 86.9727 14.6035 86.0117 14.6094C85.0391 14.6035 84.3301 15.2832 84.3359 16.2266ZM101.902 10.5312V20.9492H100.977V10.5312H101.902ZM93.418 18.2422C96.2363 16.9062 97.6777 14.9082 97.8828 12.418H93.8984V11.668H98.8203C98.8086 14.6621 97.4141 17.3164 93.9219 18.9922L93.418 18.2422Z" fill="#9CA3AF"/>
</svg>
