<svg width="36" height="36" viewBox="0 0 36 36" fill="none" xmlns="http://www.w3.org/2000/svg">
<g clip-path="url(#clip0_214_44094)">
<path d="M28 4C27.175 4 26.38 4.125 25.631 4.357C24.744 1.822 22.338 0 19.5 0C16.456 0 13.908 2.096 13.201 4.921C12.447 4.351 11.519 4 10.5 4C8.015 4 6 6.015 6 8.5C6 9.104 6.123 9.678 6.339 10.204C5.91 10.085 5.467 10 5 10C2.238 10 0 12.238 0 15C0 17.762 2.238 20 5 20H28C32.418 20 36 16.419 36 12C36 7.582 32.418 4 28 4Z" fill="#E1E8ED"/>
<path d="M6.53 26.75C6.392 26.511 6.087 26.43 5.847 26.567L4 27.634V25.5C4 25.224 3.776 25 3.5 25C3.224 25 3 25.224 3 25.5V27.635L1.151 26.568C0.911999 26.43 0.605999 26.511 0.467999 26.751C0.328999 26.991 0.410999 27.296 0.650999 27.435L2.499 28.5L0.650999 29.567C0.411999 29.705 0.330999 30.01 0.467999 30.25C0.605999 30.49 0.910999 30.571 1.151 30.434L3 29.366V31.5C3 31.776 3.224 32 3.5 32C3.776 32 4 31.776 4 31.5V29.367L5.848 30.434C6.087 30.572 6.393 30.491 6.531 30.25C6.669 30.011 6.588 29.705 6.348 29.567L4.5 28.5L6.348 27.433C6.587 27.295 6.669 26.99 6.53 26.75ZM16.53 30.75C16.392 30.511 16.087 30.43 15.847 30.567L14 31.634V29.5C14 29.224 13.776 29 13.5 29C13.224 29 13 29.224 13 29.5V31.635L11.151 30.568C10.912 30.43 10.606 30.511 10.468 30.751C10.329 30.991 10.411 31.296 10.651 31.435L12.499 32.502L10.651 33.569C10.412 33.707 10.331 34.012 10.468 34.252C10.606 34.492 10.911 34.573 11.151 34.436L13 33.366V35.5C13 35.776 13.224 36 13.5 36C13.776 36 14 35.776 14 35.5V33.367L15.848 34.434C16.087 34.572 16.393 34.491 16.531 34.25C16.669 34.011 16.588 33.705 16.348 33.567L14.5 32.5L16.348 31.433C16.587 31.295 16.669 30.99 16.53 30.75ZM11 27.5C11 27.776 11.224 28 11.5 28C11.776 28 12 27.776 12 27.5V25.367L13.848 26.434C14.087 26.572 14.393 26.491 14.531 26.25C14.669 26.011 14.588 25.705 14.348 25.567L12.5 24.5L14.348 23.433C14.587 23.294 14.669 22.99 14.531 22.749C14.393 22.51 14.088 22.429 13.848 22.566L12 23.634V21.5C12 21.224 11.776 21 11.5 21C11.224 21 11 21.224 11 21.5V23.635L9.151 22.568C8.912 22.43 8.606 22.511 8.468 22.751C8.329 22.991 8.411 23.296 8.651 23.435L10.499 24.502L8.651 25.569C8.412 25.707 8.331 26.012 8.468 26.252C8.606 26.492 8.911 26.573 9.151 26.436L11 25.366V27.5ZM23.848 27.434C24.087 27.572 24.393 27.491 24.531 27.25C24.669 27.011 24.588 26.705 24.348 26.567L22.5 25.5L24.348 24.433C24.587 24.294 24.669 23.99 24.531 23.749C24.393 23.51 24.088 23.429 23.848 23.566L22 24.634V22.5C22 22.224 21.776 22 21.5 22C21.224 22 21 22.224 21 22.5V24.635L19.151 23.568C18.912 23.43 18.606 23.511 18.468 23.751C18.329 23.991 18.411 24.296 18.651 24.435L20.499 25.502L18.651 26.569C18.412 26.707 18.331 27.012 18.468 27.252C18.606 27.492 18.911 27.573 19.151 27.436L21 26.366V28.5C21 28.776 21.224 29 21.5 29C21.776 29 22 28.776 22 28.5V26.367L23.848 27.434ZM34.348 25.567L32.5 24.5L34.348 23.433C34.587 23.294 34.669 22.99 34.531 22.749C34.393 22.51 34.088 22.429 33.848 22.566L32 23.634V21.5C32 21.224 31.776 21 31.5 21C31.224 21 31 21.224 31 21.5V23.635L29.151 22.568C28.912 22.43 28.606 22.511 28.468 22.751C28.329 22.991 28.411 23.296 28.651 23.435L30.499 24.502L28.651 25.569C28.412 25.707 28.331 26.012 28.468 26.252C28.606 26.492 28.911 26.573 29.151 26.436L31 25.366V27.5C31 27.776 31.224 28 31.5 28C31.776 28 32 27.776 32 27.5V25.367L33.848 26.434C34.087 26.572 34.393 26.491 34.531 26.25C34.668 26.011 34.587 25.705 34.348 25.567ZM29.53 30.75C29.392 30.511 29.087 30.43 28.847 30.567L27 31.634V29.5C27 29.224 26.776 29 26.5 29C26.224 29 26 29.224 26 29.5V31.635L24.151 30.568C23.912 30.43 23.606 30.511 23.468 30.751C23.329 30.991 23.411 31.296 23.651 31.435L25.499 32.502L23.651 33.569C23.412 33.707 23.331 34.012 23.468 34.252C23.606 34.492 23.911 34.573 24.151 34.436L26 33.366V35.5C26 35.776 26.224 36 26.5 36C26.776 36 27 35.776 27 35.5V33.367L28.848 34.434C29.087 34.572 29.393 34.491 29.531 34.25C29.669 34.011 29.588 33.705 29.348 33.567L27.5 32.5L29.348 31.433C29.587 31.295 29.669 30.99 29.53 30.75Z" fill="#5DADEC"/>
</g>
<defs>
<clipPath id="clip0_214_44094">
<rect width="36" height="36" fill="white"/>
</clipPath>
</defs>
</svg>
