<svg width="36" height="36" viewBox="0 0 36 36" fill="none" xmlns="http://www.w3.org/2000/svg">
<path d="M12.125 32.667C12.125 32.667 15.708 26.875 14.792 21.583C14.081 17.477 11.405 16.646 8.75 13C5.625 8.708 5.306 5.539 6.25 4C7.375 2.167 11.583 0 21 0C27.042 0 29.794 1.622 30.708 3.417C31.833 5.625 31.167 13 28.5 18.083C24.11 26.45 19.25 32.042 14.75 34C11.197 35.546 12.125 32.667 12.125 32.667Z" fill="#8899A6"/>
<path d="M17.137 7.99895C22.022 7.73595 25.869 6.42195 26.709 4.72995C26.997 4.14895 26.96 3.51695 26.606 2.99595C25.666 1.60795 22.375 1.31295 16.833 1.93795C15.152 2.12695 12.979 2.45095 13.042 2.99995C13.105 3.54895 15.459 3.31195 17.018 3.20195C17.711 3.15295 18.354 3.11895 18.957 3.09795C22.744 2.96295 24.73 3.35395 24.793 4.00195C24.863 4.72095 21.601 5.75495 17.031 6.00195C8.073 6.48695 6.435 4.99095 6.146 4.52095C6.108 4.45895 6.087 4.39895 6.076 4.34095C5.804 4.96595 5.708 5.79295 5.851 6.79795C7.429 7.65995 10.041 8.09595 13.782 8.09595C14.816 8.09595 15.934 8.06295 17.137 7.99895ZM22.125 14.6879C22.656 14.5379 24.535 13.7909 24.422 13.2499C24.281 12.5779 21.758 13.2869 21.219 13.3909C12.405 15.0859 8.915 12.7149 7.849 11.6659C8.12 12.0979 8.416 12.5409 8.75 12.9999C9.412 13.9099 10.076 14.6439 10.711 15.2979C11.94 15.6189 13.444 15.8319 15.277 15.8319C17.205 15.8319 19.25 15.4999 22.125 14.6879Z" fill="#66757F"/>
<path d="M30.375 5.22782C29.421 6.73182 26.875 9.17182 16.078 10.2028C15.47 10.2608 13.344 10.3588 13.39 10.9688C13.462 11.9088 16.167 11.6418 16.187 11.6408C23.936 11.1758 28.775 9.89582 31.215 7.37282C31.265 5.90682 31.153 4.66282 30.878 3.84082C30.834 4.24182 30.697 4.71982 30.375 5.22782ZM14.792 21.5828C14.839 21.8538 14.867 22.1278 14.891 22.4008C15.857 22.7378 17.128 22.9678 18.83 22.9678C19.629 22.9678 20.522 22.9148 21.517 22.8068C22.328 22.7188 23.53 22.2518 23.468 21.7038C23.406 21.1548 21.871 21.3518 21.312 21.3598C16.605 21.4258 14.888 20.4128 14.268 19.7578C14.491 20.2938 14.672 20.8888 14.792 21.5828ZM20.641 17.0778C20.091 17.1258 18.469 17.2188 18.422 17.8118C18.352 18.7008 20.674 18.5938 20.688 18.5928C24.746 18.4278 27.537 17.3038 29.396 16.1108C29.842 14.9778 30.201 13.7878 30.483 12.6028C29.652 13.7718 27.068 16.5148 20.641 17.0778ZM18.875 29.1558C18.844 28.7648 18.375 28.7028 17.172 28.6088C15.969 28.5148 15.457 28.0028 15.018 27.5298C14.762 27.2548 14.625 26.9218 14.55 26.6198C14.352 27.4838 14.098 28.3008 13.827 29.0398C14.618 29.7098 15.657 30.0248 17.063 30.0928C17.592 30.1188 18.94 29.9668 18.875 29.1558ZM25.931 22.5788C24.947 23.4858 22.877 24.7778 18.891 25.0628C18.348 25.1018 17.062 25.1518 17.032 25.7038C17.002 26.2558 18.207 26.5948 18.759 26.6238C19.095 26.6428 19.42 26.6508 19.736 26.6508C21.215 26.6508 22.455 26.4498 23.506 26.1468C24.32 25.0508 25.13 23.8608 25.931 22.5788Z" fill="#66757F"/>
<path d="M12.167 1.917C18.412 0.0680001 26.375 0.417 29.709 2.209C29.735 2.223 29.755 2.228 29.78 2.241C28.371 0.971 25.672 0 21 0C11.583 0 7.375 2.167 6.25 4C6.185 4.105 6.128 4.22 6.076 4.341C6.088 4.399 6.109 4.46 6.147 4.522C6.435 4.992 8.074 6.487 17.03 6.002C21.6 5.755 24.863 4.721 24.792 4.002C24.729 3.354 22.743 2.963 18.956 3.098C23.448 3.09 23.37 4.24 20.959 4.584C10.406 6.091 6.958 3.458 12.167 1.917Z" fill="#788895"/>
<path d="M28.642 36C28.652 35.917 28.667 35.836 28.667 35.75C28.667 34.771 28.015 33.955 27.125 33.686C26.914 31.734 25.279 30.208 23.271 30.208C21.865 30.208 20.644 30.959 19.959 32.075C19.511 31.794 18.984 31.625 18.416 31.625C17.313 31.625 16.365 32.244 15.87 33.146C15.347 32.596 14.612 32.25 13.792 32.25C13.504 32.25 13.232 32.305 12.97 32.384C12.63 32.131 12.234 31.954 11.799 31.88C11.206 30.344 9.724 29.25 7.979 29.25C5.994 29.25 4.339 30.659 3.958 32.531C3.854 32.519 3.752 32.5 3.646 32.5C2.277 32.5 1.167 33.61 1.167 34.979C1.167 35.344 1.251 35.688 1.393 36H28.642Z" fill="#CCD6DD"/>
</svg>
