<svg width="24" height="24" viewBox="0 0 24 24" fill="none" xmlns="http://www.w3.org/2000/svg">
<path d="M23.3333 8C23.3333 5.42267 21.244 3.33333 18.6667 3.33333C17.8887 3.33333 17.1567 3.52667 16.512 3.86267C15.124 1.978 12.8953 0.75 10.3753 0.75C6.954 0.75 4.05867 3.00333 3.09333 6.10733C1.32133 6.51867 0 8.10333 0 10C0 11.986 1.44933 13.63 3.34733 13.942C3.49133 16.5747 5.66533 18.6667 8.33333 18.6667C9.784 18.6667 11.0867 18.0447 12 17.058C12.9133 18.0447 14.2153 18.6667 15.6667 18.6667C18.4287 18.6667 20.6667 16.4287 20.6667 13.6667C20.6667 13.1933 20.5967 12.7373 20.474 12.3033C22.1533 11.5973 23.3333 9.93667 23.3333 8Z" fill="#BDDDF4"/>
<path d="M2.66675 22.6665C3.77132 22.6665 4.66675 21.7711 4.66675 20.6665C4.66675 19.5619 3.77132 18.6665 2.66675 18.6665C1.56218 18.6665 0.666748 19.5619 0.666748 20.6665C0.666748 21.7711 1.56218 22.6665 2.66675 22.6665Z" fill="#BDDDF4"/>
</svg>
