<svg width="20" height="20" viewBox="0 0 20 20" fill="none" xmlns="http://www.w3.org/2000/svg">
<g id="Frame" clip-path="url(#clip0_1480_11990)">
<path id="Vector" d="M19.4446 11.1111C19.4446 12.3383 18.4496 12.2222 17.2223 12.2222H2.77789C1.55066 12.2222 0.555664 12.3383 0.555664 11.1111L1.66678 4.44439C1.73622 3.37939 2.66178 2.22217 3.889 2.22217H16.1112C17.3384 2.22217 18.2173 3.44883 18.3334 4.44439L19.4446 11.1111Z" fill="#67757F"/>
<path id="Vector_2" d="M15.5554 7.22206C15.5554 7.83539 15.0577 8.33317 14.4443 8.33317H5.55545C4.94211 8.33317 4.44434 7.83539 4.44434 7.22206V2.77761C4.44434 2.16373 4.94211 1.6665 5.55545 1.6665H14.4443C15.0577 1.6665 15.5554 2.16373 15.5554 2.77761V7.22206Z" fill="#CCD6DD"/>
<path id="Vector_3" d="M16.6666 9.44423C16.6666 10.0576 16.1688 10.5553 15.5555 10.5553H4.44436C3.83103 10.5553 3.33325 10.0576 3.33325 9.44423V4.99978C3.33325 4.38645 3.83103 3.88867 4.44436 3.88867H15.5555C16.1688 3.88867 16.6666 4.38645 16.6666 4.99978V9.44423Z" fill="#E1E8ED"/>
<path id="Vector_4" d="M17.7777 11.6669C17.7777 12.2802 17.2799 12.778 16.6666 12.778H3.33328C2.71995 12.778 2.22217 12.2802 2.22217 11.6669V7.22244C2.22217 6.60911 2.71995 6.11133 3.33328 6.11133H16.6666C17.2799 6.11133 17.7777 6.60911 17.7777 7.22244V11.6669Z" fill="#F5F8FA"/>
<path id="Vector_5" d="M19.4446 17.222C19.4446 18.4492 18.4496 19.4442 17.2223 19.4442H2.77789C1.55066 19.4442 0.555664 18.4492 0.555664 17.222V11.1109C0.555664 9.88367 1.55066 8.88867 2.77789 8.88867H17.2223C18.4496 8.88867 19.4446 9.88367 19.4446 11.1109V17.222Z" fill="#9AAAB4"/>
<path id="Vector_6" d="M12.2221 0.555664H9.44436C8.83103 0.555664 8.33325 1.05289 8.33325 1.66678V2.22233H10.5555C11.1688 2.22233 11.6666 2.72011 11.6666 3.33344H12.2221C12.8355 3.33344 13.3333 2.83566 13.3333 2.22233V1.66678C13.3333 1.05289 12.8355 0.555664 12.2221 0.555664Z" fill="#FCAB40"/>
<path id="Vector_7" d="M9.99997 2.77783H7.2222C6.60886 2.77783 6.11108 3.27561 6.11108 3.88894V4.4445H8.33331C8.94664 4.4445 9.44442 4.94228 9.44442 5.55561H9.99997C10.6133 5.55561 11.1111 5.05783 11.1111 4.4445V3.88894C11.1111 3.27561 10.6133 2.77783 9.99997 2.77783Z" fill="#5DADEC"/>
<path id="Vector_8" d="M8.88892 6.66667C8.88892 7.28 8.39114 7.77778 7.77781 7.77778H5.00003C4.38669 7.77778 3.88892 7.28 3.88892 6.66667V6.11111C3.88892 5.49778 4.38669 5 5.00003 5H7.77781C8.39114 5 8.88892 5.49778 8.88892 6.11111V6.66667Z" fill="#E75A70"/>
<path id="Vector_9" d="M13.8889 15.5554C13.8889 16.1687 13.3911 16.6665 12.7778 16.6665H7.2222C6.60886 16.6665 6.11108 16.1687 6.11108 15.5554V12.7776C6.11108 12.1643 6.60886 11.6665 7.2222 11.6665H12.7778C13.3911 11.6665 13.8889 12.1643 13.8889 12.7776V15.5554Z" fill="#67757F"/>
<path id="Vector_10" d="M12.7777 15.0001C12.7777 15.3073 12.5294 15.5556 12.2222 15.5556H7.77772C7.47106 15.5556 7.22217 15.3073 7.22217 15.0001V13.3334C7.22217 13.0262 7.47106 12.7778 7.77772 12.7778H12.2222C12.5294 12.7778 12.7777 13.0262 12.7777 13.3334V15.0001Z" fill="#E1E8ED"/>
</g>
<defs>
<clipPath id="clip0_1480_11990">
<rect width="20" height="20" fill="white"/>
</clipPath>
</defs>
</svg>
