<svg width="24" height="24" viewBox="0 0 24 24" fill="none" xmlns="http://www.w3.org/2000/svg">
<g id="Frame">
<path id="Vector" d="M19.1577 19.178L4.85239 19.2286L3.75306 22.452C3.71173 22.5766 3.68573 22.71 3.70439 22.84C3.80106 23.496 4.36639 24 5.04906 24H18.9784C19.6611 24 20.2264 23.496 20.3231 22.84C20.3424 22.71 20.3164 22.5766 20.2744 22.452L19.1577 19.178Z" fill="#BF6952"/>
<path id="Vector_2" d="M19.1569 19.178L19.0302 18.8073C18.8976 18.4087 18.5242 18.14 18.1042 18.14H5.92156C5.50156 18.14 5.12823 18.4087 4.99556 18.8073L4.85156 19.2287C6.80356 20.7913 9.27556 21.7313 11.9702 21.7313C14.6956 21.7313 17.1949 20.7727 19.1569 19.178Z" fill="#854836"/>
<path id="Vector_3" d="M11.9703 20.5174C17.5992 20.5174 22.1623 15.9542 22.1623 10.3254C22.1623 4.69648 17.5992 0.133362 11.9703 0.133362C6.34143 0.133362 1.77832 4.69648 1.77832 10.3254C1.77832 15.9542 6.34143 20.5174 11.9703 20.5174Z" fill="#AA8DD8"/>
<path id="Vector_4" d="M15.5105 11.0433C17.0551 11.0433 18.3072 9.79123 18.3072 8.24668C18.3072 6.70212 17.0551 5.45001 15.5105 5.45001C13.966 5.45001 12.7139 6.70212 12.7139 8.24668C12.7139 9.79123 13.966 11.0433 15.5105 11.0433Z" fill="#744EAA"/>
<path id="Vector_5" d="M9.91667 14.5387C11.075 14.5387 12.014 13.5997 12.014 12.4413C12.014 11.283 11.075 10.344 9.91667 10.344C8.75834 10.344 7.81934 11.283 7.81934 12.4413C7.81934 13.5997 8.75834 14.5387 9.91667 14.5387Z" fill="#744EAA"/>
<path id="Vector_6" d="M10.6164 4.75064C11.3889 4.75064 12.0151 4.12444 12.0151 3.35197C12.0151 2.57951 11.3889 1.95331 10.6164 1.95331C9.84398 1.95331 9.21777 2.57951 9.21777 3.35197C9.21777 4.12444 9.84398 4.75064 10.6164 4.75064Z" fill="#744EAA"/>
</g>
</svg>
