<svg width="20" height="20" viewBox="0 0 20 20" fill="none" xmlns="http://www.w3.org/2000/svg">
<g id="Frame" clip-path="url(#clip0_1576_4682)">
<path id="Vector" d="M17.7778 0H5.55556C4.32833 0 3.33333 0.995 3.33333 2.22222V15.5556H2.22222C0.995 15.5556 0 16.5506 0 17.7778C0 19.005 0.995 20 2.22222 20H15.5556C16.7828 20 17.7778 19.005 17.7778 17.7778V4.44444C19.005 4.44444 20 3.44944 20 2.22222C20 0.995 19.005 0 17.7778 0Z" fill="#FFD983"/>
<path id="Vector_2" d="M4.44434 5.55534H17.7777V4.44423H5.55545L4.44434 3.88867V5.55534Z" fill="#E39F3D"/>
<path id="Vector_3" d="M5.55556 0C4.32833 0 3.33333 0.995 3.33333 2.22222V15.8639C3.00556 15.6728 2.62889 15.5556 2.22222 15.5556C0.995 15.5556 0 16.5506 0 17.7778C0 19.005 0.995 20 2.22222 20C3.44944 20 4.44444 19.005 4.44444 17.7778V4.13611C4.77222 4.32722 5.14889 4.44444 5.55556 4.44444C6.78278 4.44444 7.77778 3.44944 7.77778 2.22222C7.77778 0.995 6.78278 0 5.55556 0Z" fill="#FFE8B6"/>
<path id="Vector_4" d="M6.66664 2.22244C6.66664 2.83577 6.16886 3.33355 5.55553 3.33355C4.94219 3.33355 4.44442 2.83577 4.44442 2.22244C4.44442 1.60911 4.94219 1.11133 5.55553 1.11133C6.16886 1.11133 6.66664 1.60911 6.66664 2.22244ZM3.33331 17.778C3.33331 18.3913 2.83553 18.8891 2.2222 18.8891C1.60886 18.8891 1.11108 18.3913 1.11108 17.778C1.11108 17.1647 1.60886 16.6669 2.2222 16.6669C2.83553 16.6669 3.33331 17.1647 3.33331 17.778ZM16.6666 8.33355C16.6666 8.64022 16.4183 8.88911 16.1111 8.88911H6.11108C5.80442 8.88911 5.55553 8.64022 5.55553 8.33355C5.55553 8.02688 5.80442 7.778 6.11108 7.778H16.1111C16.4183 7.778 16.6666 8.02688 16.6666 8.33355ZM16.6666 10.5558C16.6666 10.863 16.4183 11.1113 16.1111 11.1113H6.11108C5.80442 11.1113 5.55553 10.863 5.55553 10.5558C5.55553 10.2486 5.80442 10.0002 6.11108 10.0002H16.1111C16.4183 10.0002 16.6666 10.2486 16.6666 10.5558ZM16.6666 12.778C16.6666 13.0852 16.4183 13.3336 16.1111 13.3336H6.11108C5.80442 13.3336 5.55553 13.0852 5.55553 12.778C5.55553 12.4708 5.80442 12.2224 6.11108 12.2224H16.1111C16.4183 12.2224 16.6666 12.4708 16.6666 12.778ZM16.6666 15.0002C16.6666 15.3074 16.4183 15.5558 16.1111 15.5558H6.11108C5.80442 15.5558 5.55553 15.3074 5.55553 15.0002C5.55553 14.693 5.80442 14.4447 6.11108 14.4447H16.1111C16.4183 14.4447 16.6666 14.693 16.6666 15.0002Z" fill="#C1694F"/>
</g>
<defs>
<clipPath id="clip0_1576_4682">
<rect width="20" height="20" fill="white"/>
</clipPath>
</defs>
</svg>
