<svg width="24" height="24" viewBox="0 0 24 24" fill="none" xmlns="http://www.w3.org/2000/svg">
<g clip-path="url(#clip0_1768_1688)">
<path d="M21.5346 16.2312C21.0712 15.5579 21.3299 14.5846 21.2146 13.5099C21.0959 11.7566 20.3426 10.0579 18.8812 8.69923L13.9039 4.07123C13.9039 4.07123 12.9232 3.15856 12.0099 4.1399C11.0979 5.12056 12.0792 6.03323 12.0792 6.03323L14.1819 7.98923L16.0046 9.6839C16.0046 9.6839 15.5479 10.1746 13.5306 8.29856L6.71722 1.96123C6.71722 1.96123 5.73522 1.04923 4.82255 2.03056C3.91055 3.01123 4.89122 3.9239 4.89122 3.9239L11.3339 9.91656C11.3199 9.90323 10.8466 10.3779 10.8379 10.3699L3.94455 3.95856C3.94455 3.95856 2.96322 3.0459 2.05055 4.02723C1.13789 5.00856 2.11922 5.92056 2.11922 5.92056L9.01322 12.3332C9.02122 12.3412 8.57722 12.8426 8.59055 12.8552L2.64389 7.32323C2.64389 7.32323 1.66255 6.41056 0.749887 7.3919C-0.162779 8.37323 0.818554 9.2859 0.818554 9.2859L7.14122 15.1659C7.19922 15.2199 6.80789 15.7712 6.88055 15.8386L2.32455 11.6012C2.32455 11.6012 1.34322 10.6886 0.430554 11.6706C-0.482113 12.6519 0.499221 13.5646 0.499221 13.5646L7.93055 20.4732C9.17122 21.6272 10.4452 22.2112 11.9812 22.4252C12.2939 22.4686 12.6939 22.4686 12.8579 22.4892C13.3759 22.5546 13.8306 22.7386 14.4392 23.1119C15.2226 23.5919 16.3979 23.7919 17.0732 23.0699L19.3759 20.6066L21.5019 18.3319C22.1766 17.6106 22.0559 16.9879 21.5346 16.2312V16.2312Z" fill="#EF9645"/>
<path d="M1.30388 23.3504C1.13321 23.3504 0.962547 23.2851 0.832547 23.1551C0.571881 22.8944 0.571881 22.4731 0.832547 22.2124L3.19988 19.8464C3.46055 19.5858 3.88188 19.5858 4.14255 19.8464C4.40321 20.1071 4.40321 20.5284 4.14255 20.7891L1.77521 23.1558C1.64521 23.2858 1.47455 23.3504 1.30388 23.3504V23.3504ZM5.80121 23.9651C5.72855 23.9651 5.65388 23.9531 5.58055 23.9278C5.23321 23.8064 5.04988 23.4264 5.17188 23.0784L5.81921 21.2298C5.94055 20.8824 6.32121 20.6998 6.66855 20.8204C7.01588 20.9424 7.19921 21.3224 7.07721 21.6698L6.42988 23.5184C6.33388 23.7931 6.07655 23.9651 5.80121 23.9651V23.9651ZM0.689881 18.8538C0.415214 18.8538 0.157881 18.6824 0.0612142 18.4091C-0.0614525 18.0618 0.120547 17.6811 0.467881 17.5584L2.13121 16.9711C2.47988 16.8511 2.85921 17.0318 2.98188 17.3778C3.10455 17.7251 2.92255 18.1058 2.57521 18.2284L0.911881 18.8158C0.837881 18.8418 0.763214 18.8538 0.689881 18.8538V18.8538ZM20.3299 4.34242C20.1592 4.34242 19.9885 4.27709 19.8585 4.14709C19.5979 3.88642 19.5979 3.46442 19.8585 3.20376L22.2265 0.837089C22.4872 0.577089 22.9085 0.577089 23.1692 0.837089C23.4299 1.09709 23.4299 1.51976 23.1692 1.78042L20.8012 4.14709C20.6712 4.27776 20.5005 4.34242 20.3299 4.34242V4.34242ZM17.5539 3.21109C17.4812 3.21109 17.4065 3.19842 17.3339 3.17309C16.9865 3.05176 16.8032 2.67176 16.9245 2.32376L17.5712 0.475089C17.6932 0.127756 18.0725 -0.0555772 18.4205 0.0657561C18.7679 0.187089 18.9512 0.567089 18.8299 0.915089L18.1832 2.76376C18.0872 3.03909 17.8292 3.21109 17.5539 3.21109V3.21109ZM21.6492 7.06042C21.3745 7.06042 21.1172 6.88909 21.0205 6.61576C20.8979 6.26842 21.0805 5.88776 21.4272 5.76509L23.0899 5.17776C23.4379 5.05442 23.8179 5.23776 23.9405 5.58442C24.0632 5.93176 23.8805 6.31242 23.5339 6.43509L21.8712 7.02242C21.7972 7.04842 21.7225 7.06042 21.6492 7.06042V7.06042Z" fill="#FA743E"/>
<path d="M23.5934 15.8811C23.1527 15.1931 23.4441 14.2284 23.3654 13.1504C23.3054 11.3944 22.61 9.67109 21.1954 8.26376L16.3767 3.47109C16.3767 3.47109 15.4274 2.52642 14.4814 3.47642C13.5367 4.42576 14.4867 5.37109 14.4867 5.37109L16.5227 7.39709L18.2867 9.15176C18.2867 9.15176 17.8134 9.62642 15.8607 7.68376C13.9067 5.74042 9.26472 1.12042 9.26472 1.12042C9.26472 1.12042 8.31472 0.175758 7.36938 1.12576C6.42405 2.07509 7.37405 3.01976 7.37405 3.01976L13.6114 9.22642C13.598 9.21309 13.1087 9.67109 13.1 9.66242L6.42672 3.02242C6.42672 3.02242 5.47672 2.07709 4.53138 3.02709C3.58672 3.97709 4.53605 4.92176 4.53605 4.92176L11.21 11.5631C11.218 11.5711 10.7567 12.0571 10.77 12.0704L5.01338 6.34176C5.01338 6.34176 4.06338 5.39709 3.11805 6.34709C2.17272 7.29709 3.12272 8.24242 3.12272 8.24242L9.24338 14.3324C9.29938 14.3878 8.89005 14.9264 8.96005 14.9964L4.54938 10.6078C4.54938 10.6078 3.59938 9.66309 2.65405 10.6131C1.70872 11.5631 2.65872 12.5084 2.65872 12.5084L9.85205 19.6631C11.0534 20.8584 12.3067 21.4844 13.8347 21.7504C14.1461 21.8044 14.546 21.8178 14.7087 21.8438C15.224 21.9264 15.672 22.1258 16.2687 22.5198C17.0354 23.0258 18.2034 23.2651 18.9027 22.5664L21.2874 20.1824L23.4887 17.9811C24.1881 17.2811 24.0887 16.6544 23.5934 15.8811V15.8811Z" fill="#FFDB5E"/>
</g>
<defs>
<clipPath id="clip0_1768_1688">
<rect width="24" height="24" fill="white"/>
</clipPath>
</defs>
</svg>
