<svg width="24" height="24" viewBox="0 0 24 24" fill="none" xmlns="http://www.w3.org/2000/svg">
<g clip-path="url(#clip0_407_3299)">
<path d="M20.6667 21.3333C20.6667 22.806 19.4727 24 18.0001 24H3.33341C1.86075 24 0.666748 22.806 0.666748 21.3333V2.66667C0.666748 1.194 1.86075 0 3.33341 0H18.0001C19.4727 0 20.6667 1.194 20.6667 2.66667V21.3333Z" fill="#CCD6DD"/>
<path d="M17.9999 15.9998C17.9999 16.3685 17.7019 16.6665 17.3333 16.6665H3.99992C3.63192 16.6665 3.33325 16.3685 3.33325 15.9998C3.33325 15.6312 3.63192 15.3332 3.99992 15.3332H17.3333C17.7019 15.3332 17.9999 15.6312 17.9999 15.9998ZM7.33325 18.6665C7.33325 19.0352 7.03459 19.3332 6.66659 19.3332H3.99992C3.63192 19.3332 3.33325 19.0352 3.33325 18.6665C3.33325 18.2978 3.63192 17.9998 3.99992 17.9998H6.66659C7.03459 17.9998 7.33325 18.2978 7.33325 18.6665ZM17.9999 5.33317C17.9999 5.70117 17.7019 5.99984 17.3333 5.99984H3.99992C3.63192 5.99984 3.33325 5.70117 3.33325 5.33317C3.33325 4.96517 3.63192 4.6665 3.99992 4.6665H17.3333C17.7019 4.6665 17.9999 4.96517 17.9999 5.33317ZM17.9999 7.99984C17.9999 8.3685 17.7019 8.6665 17.3333 8.6665H3.99992C3.63192 8.6665 3.33325 8.3685 3.33325 7.99984C3.33325 7.63117 3.63192 7.33317 3.99992 7.33317H17.3333C17.7019 7.33317 17.9999 7.63117 17.9999 7.99984ZM17.9999 10.6665C17.9999 11.0352 17.7019 11.3332 17.3333 11.3332H3.99992C3.63192 11.3332 3.33325 11.0352 3.33325 10.6665C3.33325 10.2978 3.63192 9.99984 3.99992 9.99984H17.3333C17.7019 9.99984 17.9999 10.2978 17.9999 10.6665ZM17.9999 13.3332C17.9999 13.7018 17.7019 13.9998 17.3333 13.9998H3.99992C3.63192 13.9998 3.33325 13.7018 3.33325 13.3332C3.33325 12.9645 3.63192 12.6665 3.99992 12.6665H17.3333C17.7019 12.6665 17.9999 12.9645 17.9999 13.3332Z" fill="#99AAB5"/>
<path d="M20.6668 4.18155C20.1154 3.82489 19.4421 3.79555 18.9861 4.16622L18.4581 4.59689L17.4688 5.40422L17.4021 5.45755L15.8181 6.74955L7.89945 13.2069C7.60811 13.4449 7.37078 14.0196 7.11745 14.5896C6.86545 15.1562 6.47145 16.4909 6.15545 17.5169C6.05678 17.6836 5.44545 18.7476 5.78811 19.1522C6.13478 19.5622 7.33878 19.1589 7.50011 19.1016C8.58411 18.9856 9.98745 18.8529 10.5988 18.7149C11.2148 18.5742 11.8348 18.4516 12.1261 18.2136C12.1314 18.2096 12.1328 18.2016 12.1374 18.1982L20.0428 11.7542L20.5708 11.3236L20.6668 11.2449V4.18155V4.18155Z" fill="#66757F"/>
<path d="M12.0967 15.0171C12.0967 15.0171 11.2473 13.7631 10.6853 13.3151C10.2373 12.7531 8.986 11.9044 8.986 11.9044C8.68734 11.6071 8.192 11.5844 7.9 11.8758C7.60867 12.1678 7.37134 12.7864 7.118 13.4031C6.80334 14.1671 6.26734 16.1724 5.93934 17.2378C5.884 17.4191 6.284 16.9378 6.27467 17.0978C6.268 17.2224 6.29267 17.3604 6.324 17.4851L6.22667 17.5911L6.36534 17.6358C6.382 17.6904 6.39867 17.7384 6.41067 17.7758L6.51667 17.6784C6.64134 17.7098 6.77934 17.7344 6.90334 17.7278C7.06334 17.7184 6.58134 18.1191 6.76334 18.0631C7.82867 17.7344 9.83467 17.1991 10.598 16.8844C11.214 16.6304 11.834 16.3938 12.1253 16.1018C12.418 15.8118 12.396 15.3164 12.0967 15.0171Z" fill="#D99E82"/>
<path d="M16.8748 2.90057C16.2908 3.48391 16.2908 4.42924 16.8748 5.01257L18.9861 7.12457C19.5701 7.70724 20.5154 7.70724 21.0981 7.12457L23.2108 5.01257C23.7934 4.42924 23.7934 3.48391 23.2108 2.90057L21.0981 0.788574C20.5154 0.205241 19.5701 0.205241 18.9861 0.788574L16.8748 2.90057V2.90057Z" fill="#EA596E"/>
<path d="M7.89941 11.8769L10.0127 13.9902L12.1227 16.1009L20.0434 8.18152L15.8187 3.95752L7.89941 11.8769V11.8769Z" fill="#FFCC4D"/>
<path d="M7.53188 17.8279C7.53188 17.8279 6.15855 18.5832 5.78788 18.2119C5.41655 17.8399 6.17522 16.4712 6.17522 16.4712C6.17522 16.4712 7.47588 16.4952 7.53188 17.8279Z" fill="#292F33"/>
<path d="M15.8186 3.95689L18.4586 1.31689L22.6826 5.54156L20.0426 8.18156L15.8186 3.95689Z" fill="#CCD6DD"/>
<path d="M17.402 2.37224L17.93 1.84424L22.154 6.06757L21.626 6.59557L17.402 2.37224ZM16.3467 3.42824L16.874 2.9009L21.098 7.12424L20.57 7.65224L16.3467 3.42824Z" fill="#99AAB5"/>
</g>
<defs>
<clipPath id="clip0_407_3299">
<rect width="24" height="24" fill="white"/>
</clipPath>
</defs>
</svg>
