<svg width="44" height="44" viewBox="0 0 44 44" fill="none" xmlns="http://www.w3.org/2000/svg">
<g id="Frame" clip-path="url(#clip0_1576_3507)">
<path id="Vector" d="M43.0492 41.064C42.2584 38.4961 40.9653 33.6586 40.2075 31.8167C39.5951 30.3305 39.0232 28.8369 38.3204 28.1329C37.6176 27.4301 36.4223 27.4851 35.7011 28.2038C35.7011 28.2038 32.6835 30.251 31.6018 31.6053C30.2476 32.6833 28.1979 35.7083 28.1979 35.7083C27.4768 36.4294 27.4218 37.6235 28.1246 38.3275C28.8286 39.0303 30.3222 39.6023 31.8096 40.2146C33.6503 40.9724 38.489 42.263 41.0569 43.0563C41.4957 43.1907 43.1836 41.5028 43.0492 41.064Z" fill="#D99E82"/>
<path id="Vector_2" d="M16.6747 6.48744C18.0815 7.89422 18.0815 10.1737 16.6747 11.5804L11.5817 16.6747C10.1749 18.0802 7.89305 18.0802 6.48872 16.6747L1.3945 11.5804C-0.0110569 10.1737 -0.0110569 7.89422 1.3945 6.48744L6.4875 1.39444C7.89305 -0.012339 10.1737 -0.012339 11.5805 1.39444L16.6747 6.48744Z" fill="#EA596E"/>
<path id="Vector_3" d="M38.3203 28.1331L33.2237 33.2298L28.1356 38.3203L9.03467 19.2207L19.2219 9.03467L38.3203 28.1331Z" fill="#FFCC4D"/>
<path id="Vector_4" d="M39.2065 42.488C39.2065 42.488 42.5175 44.3078 43.4122 43.4132C44.3069 42.5185 42.4772 39.2148 42.4772 39.2148C42.4772 39.2148 39.341 39.2735 39.2065 42.488Z" fill="#292F33"/>
<path id="Vector_5" d="M2.66821 12.8542L12.8554 2.66699L19.2208 9.03355L9.03477 19.2208L2.66821 12.8542Z" fill="#CCD6DD"/>
<path id="Vector_6" d="M3.94165 14.1264L14.1277 3.94043L15.4012 5.21398L5.21521 15.4L3.94165 14.1264ZM6.48754 16.676L16.6748 6.48876L17.9483 7.76232L7.76109 17.9483L6.48754 16.676Z" fill="#99AAB5"/>
</g>
<defs>
<clipPath id="clip0_1576_3507">
<rect width="44" height="44" fill="white"/>
</clipPath>
</defs>
</svg>
