<svg width="24" height="24" viewBox="0 0 24 24" fill="none" xmlns="http://www.w3.org/2000/svg">
    <g clip-path="url(#clip0_4861_48634)">
        <path d="M12 0.666992C5.37267 0.666992 0 4.84566 0 10.0003C0 12.9123 1.716 15.5123 4.40267 17.2237C4.05333 18.763 3.23933 21.0463 1.33333 23.3337C5.172 22.6937 7.626 20.8263 9.144 19.0563C10.0613 19.231 11.014 19.3337 12 19.3337C18.6273 19.3337 24 15.155 24 10.0003C24 4.84566 18.6273 0.666992 12 0.666992Z" fill="#BDDDF4"/>
        <path d="M11.9998 11.3337C12.7362 11.3337 13.3332 10.7367 13.3332 10.0003C13.3332 9.26395 12.7362 8.66699 11.9998 8.66699C11.2635 8.66699 10.6665 9.26395 10.6665 10.0003C10.6665 10.7367 11.2635 11.3337 11.9998 11.3337Z" fill="#2A6797"/>
        <path d="M17.3333 11.3337C18.0697 11.3337 18.6667 10.7367 18.6667 10.0003C18.6667 9.26395 18.0697 8.66699 17.3333 8.66699C16.597 8.66699 16 9.26395 16 10.0003C16 10.7367 16.597 11.3337 17.3333 11.3337Z" fill="#2A6797"/>
        <path d="M6.66683 11.3337C7.40321 11.3337 8.00016 10.7367 8.00016 10.0003C8.00016 9.26395 7.40321 8.66699 6.66683 8.66699C5.93045 8.66699 5.3335 9.26395 5.3335 10.0003C5.3335 10.7367 5.93045 11.3337 6.66683 11.3337Z" fill="#2A6797"/>
    </g>
    <defs>
        <clipPath id="clip0_4861_48634">
            <rect width="24" height="24" fill="white"/>
        </clipPath>
    </defs>
</svg>
