<svg width="24" height="24" viewBox="0 0 24 24" fill="none" xmlns="http://www.w3.org/2000/svg">
<g clip-path="url(#clip0_537_6581)">
<path d="M0.666748 11.3332L6.00008 6.6665L16.6667 7.33317L17.3334 17.9998L12.6667 23.3332C12.6667 23.3332 12.6674 19.3338 8.66675 15.3332C4.66608 11.3325 0.666748 11.3332 0.666748 11.3332Z" fill="#A0041E"/>
<path d="M0.648695 23.3333C0.648695 23.3333 0.624695 18.0139 2.63869 15.9999C4.65269 13.9859 10 14.1246 10 14.1246C10 14.1246 9.99936 19.3333 7.99936 21.3333C5.99936 23.3333 0.648695 23.3333 0.648695 23.3333Z" fill="#FFAC33"/>
<path d="M5.99943 20.6668C7.47219 20.6668 8.6661 19.4729 8.6661 18.0002C8.6661 16.5274 7.47219 15.3335 5.99943 15.3335C4.52667 15.3335 3.33276 16.5274 3.33276 18.0002C3.33276 19.4729 4.52667 20.6668 5.99943 20.6668Z" fill="#FFCC4D"/>
<path d="M23.9994 0C23.9994 0 17.3328 0 9.33275 6.66667C5.33275 10 5.33275 16 6.66609 17.3333C7.99942 18.6667 13.9994 18.6667 17.3328 14.6667C23.9994 6.66667 23.9994 0 23.9994 0Z" fill="#55ACEE"/>
<path d="M17.9994 3.3335C16.9174 3.3335 15.9907 3.98083 15.572 4.90683C15.9067 4.7555 16.2754 4.66683 16.666 4.66683C18.1387 4.66683 19.3327 5.86083 19.3327 7.3335C19.3327 7.72416 19.244 8.09283 19.0934 8.42683C20.0194 8.00883 20.666 7.08216 20.666 6.00016C20.666 4.5275 19.472 3.3335 17.9994 3.3335Z" fill="black"/>
<path d="M5.33325 18.6668C5.33325 18.6668 5.33325 16.0002 5.99992 15.3335C6.66659 14.6668 14.6673 8.00082 15.3333 8.66682C15.9993 9.33282 9.33259 17.3335 8.66592 18.0002C7.99925 18.6668 5.33325 18.6668 5.33325 18.6668Z" fill="#A0041E"/>
</g>
<defs>
<clipPath id="clip0_537_6581">
<rect width="24" height="24" fill="white"/>
</clipPath>
</defs>
</svg>
