<svg width="24" height="24" viewBox="0 0 24 24" fill="none" xmlns="http://www.w3.org/2000/svg">
<g clip-path="url(#clip0_409_3310)">
<path d="M15.2366 0.505436L5.24998 4.68277L13.608 11.1714C15.3633 12.6541 17.8593 13.1294 20.1213 12.1834C23.3386 10.8381 24.852 7.13277 23.5026 3.9081C22.1546 0.68277 18.4533 -0.840564 15.2366 0.505436ZM8.59531 12.4548L1.36665 6.8561L0.091312 15.6861C-0.264688 17.5894 0.425979 19.6208 2.06331 20.8881C4.39265 22.6914 7.74198 22.2654 9.54598 19.9374C11.3493 17.6094 10.924 14.2594 8.59531 12.4548ZM18.8213 17.1314L13.384 14.0048L13.362 20.1534C13.3033 21.4868 13.9646 22.8068 15.1953 23.5141C16.9493 24.5221 19.18 23.9101 20.1813 22.1468C21.1806 20.3841 20.574 18.1381 18.8213 17.1314Z" fill="#5DADEC"/>
</g>
<defs>
<clipPath id="clip0_409_3310">
<rect width="24" height="24" fill="white"/>
</clipPath>
</defs>
</svg>
