<svg width="24" height="24" viewBox="0 0 24 24" fill="none" xmlns="http://www.w3.org/2000/svg">
<g clip-path="url(#clip0_407_3302)">
<path d="M19.2266 11.7588C18.5686 12.4548 18.138 13.8035 18.268 14.7542L18.8626 19.0482C18.994 19.9995 18.3953 20.4395 17.532 20.0275L13.6313 18.1635C12.768 17.7502 11.3593 17.7562 10.498 18.1755L6.61398 20.0702C5.75331 20.4895 5.15198 20.0528 5.27598 19.1022L5.83798 14.8028C5.96198 13.8515 5.52131 12.5068 4.85798 11.8155L1.86198 8.69016C1.19798 7.99882 1.42531 7.28882 2.36531 7.11349L6.61198 6.32149C7.55198 6.14616 8.68931 5.30949 9.14065 4.46216L11.1746 0.637492C11.6246 -0.209842 12.3673 -0.211841 12.8233 0.631492L14.8866 4.44016C15.344 5.28349 16.4866 6.11149 17.4293 6.27882L21.6813 7.03949C22.6226 7.20749 22.8553 7.91549 22.1973 8.61216L19.2266 11.7588Z" fill="#FFAC33"/>
<path d="M6.52192 1.45378C7.20392 2.39578 8.15259 4.73178 7.66659 5.08512C7.18126 5.43912 5.26192 3.81178 4.57992 2.86978C3.89859 1.92778 3.95659 1.09112 4.49259 0.70045C5.02859 0.309117 5.83926 0.51245 6.52192 1.45378ZM19.4206 2.86978C18.7393 3.81178 16.8199 5.43978 16.3333 5.08445C15.8473 4.73112 16.7966 2.39578 17.4793 1.45445C18.1613 0.511784 18.9713 0.30845 19.5079 0.70045C20.0433 1.09112 20.1013 1.92778 19.4206 2.86978ZM11.0833 22.1938C11.0826 21.0298 11.6819 18.5798 12.2839 18.5798C12.8819 18.5798 13.4826 21.0298 13.4819 22.1931C13.4819 23.3578 12.9459 24.0011 12.2819 23.9998C11.6193 24.0011 11.0833 23.3585 11.0833 22.1938ZM21.8693 16.0191C20.7659 15.6598 18.6306 14.3305 18.8166 13.7558C19.0013 13.1838 21.5079 13.3685 22.6099 13.7285C23.7133 14.0885 24.1573 14.7985 23.9519 15.4325C23.7466 16.0658 22.9726 16.3791 21.8693 16.0191ZM1.38859 13.7291C2.49192 13.3691 4.99792 13.1845 5.18459 13.7585C5.36859 14.3298 3.23259 15.6611 2.13059 16.0198C1.02792 16.3798 0.251924 16.0665 0.048591 15.4331C-0.156742 14.7998 0.284591 14.0898 1.38859 13.7291Z" fill="#FFD983"/>
</g>
<defs>
<clipPath id="clip0_407_3302">
<rect width="24" height="24" fill="white"/>
</clipPath>
</defs>
</svg>
