<svg width="250" height="250" viewBox="0 0 250 250" fill="none" xmlns="http://www.w3.org/2000/svg">
<path d="M55.9119 167.897C60.3089 167.897 63.7942 169.118 66.3531 171.573C68.8825 174.029 70.1472 178.044 70.1472 183.632V191.72C70.1472 197.265 68.8383 201.294 66.2501 203.779C63.6472 206.265 60.1325 207.515 55.6913 207.515H41.9707V167.897H55.9266H55.9119ZM55.8531 200.971C58.1178 200.971 59.8089 200.221 60.9707 198.735C62.0736 197.206 62.6325 194.853 62.6325 191.676V184.044C62.6325 180.721 62.0736 178.265 60.9707 176.691C59.8972 175.191 58.1913 174.456 55.8531 174.456H49.4854V200.985H55.8531V200.971Z" fill="#002C2A"/>
<path d="M78.0148 204.809C75.8383 202.779 74.7354 199.618 74.7354 195.338V189.765C74.7354 185.515 75.8236 182.382 78.0148 180.353C80.1618 178.324 83.103 177.309 86.853 177.309C90.603 177.309 93.4853 178.324 95.6324 180.353C97.7795 182.382 98.853 185.515 98.853 189.765V195.338C98.853 199.632 97.7795 202.779 95.6324 204.809C93.4853 206.838 90.5589 207.853 86.853 207.853C83.1471 207.853 80.1618 206.838 78.0148 204.809ZM91.7942 189.882C91.7942 185.706 90.1471 183.618 86.853 183.618C83.5589 183.618 81.7942 185.706 81.7942 189.882V195.279C81.7942 199.456 83.4706 201.544 86.853 201.544C90.2354 201.544 91.7942 199.456 91.7942 195.279V189.882Z" fill="#002C2A"/>
<path d="M107.294 204.809C105.118 202.779 104.015 199.618 104.015 195.338V189.765C104.015 185.515 105.103 182.382 107.294 180.353C109.441 178.324 112.383 177.309 116.133 177.309C119.883 177.309 122.721 178.25 124.75 180.118C126.824 182 127.853 184.603 127.853 187.926V188.5H121.074V188.162C121.074 186.75 120.647 185.632 119.809 184.838C118.971 184.029 117.78 183.632 116.25 183.632C112.809 183.632 111.088 185.721 111.088 189.897V195.294C111.088 197.559 111.544 199.162 112.471 200.118C113.309 201.074 114.574 201.559 116.265 201.559C117.765 201.559 118.941 201.176 119.824 200.412C120.662 199.691 121.088 198.618 121.088 197.191V196.853H127.868V197.25C127.868 200.5 126.838 203.088 124.765 205C122.662 206.912 119.794 207.868 116.147 207.868C112.5 207.868 109.456 206.853 107.309 204.824L107.294 204.809Z" fill="#002C2A"/>
<path d="M140.074 195.5C140.074 197.676 140.574 199.265 141.559 200.265C142.544 201.265 143.926 201.706 145.809 201.706C147.265 201.706 148.368 201.397 149.132 200.794C149.971 200.22 150.412 199.397 150.456 198.323L150.515 198.147H157.294V198.441C157.294 201.279 156.235 203.544 154.132 205.279C152.029 207 149.162 207.868 145.515 207.868C141.647 207.868 138.603 206.765 136.382 204.544C134.118 202.368 133 198.97 133 194.382V190.765C133 186.25 134.088 182.882 136.279 180.662C138.456 178.441 141.471 177.338 145.294 177.338C149.118 177.338 151.985 178.47 154.25 180.72C156.426 182.985 157.529 186.323 157.529 190.765V194.72H140.074V195.529V195.5ZM141.456 184.823C140.529 185.779 140.074 187.382 140.074 189.647V189.823H150.412V189.073C150.412 185.279 148.706 183.382 145.309 183.382C143.588 183.382 142.309 183.868 141.456 184.823Z" fill="#002C2A"/>
<path d="M170.162 177.647V180.338C171.088 179.309 172.147 178.544 173.382 178.044C174.529 177.544 175.809 177.294 177.235 177.294C180.294 177.294 182.677 178.25 184.353 180.162C186.044 182.073 186.882 184.691 186.882 188.029V207.485H179.765V188.882C179.765 187.162 179.338 185.853 178.5 184.985C177.618 184.073 176.485 183.603 175.118 183.603C173.75 183.603 172.574 184.059 171.735 184.985C170.824 185.897 170.353 187.206 170.353 188.882V207.485H163.235V177.632H170.177L170.162 177.647Z" fill="#002C2A"/>
<path d="M202.309 198.441C202.309 200.471 203.279 201.485 205.235 201.485H207.471V207.515H204.088C201.368 207.515 199.221 206.735 197.662 205.162C196.059 203.588 195.25 201.5 195.25 198.897V182.647H191.118V177.647H195.25V171.794L202.309 169.323V177.647H208.044V182.647H202.309V198.441Z" fill="#002C2A"/>
<path d="M209.25 68.4854C207.779 63.5736 205.015 59.0001 200.97 54.7795C195.926 49.5589 189.338 45.9707 181.191 44.0001C176.412 42.853 170.426 42.2354 163.235 42.1619H131.338C125.97 42.1619 121.618 45.353 121.618 49.2795V58.8825C121.618 61.3236 119.647 63.2942 117.206 63.2942H86.7499C79.5587 63.3677 73.5734 63.9854 68.794 65.1325C60.6469 67.0883 54.0587 70.6766 49.0146 75.9119C44.9705 80.1325 42.2205 84.706 40.7352 89.6177C39.2646 94.5295 38.5293 99.2207 38.5293 103.677C38.5293 114.971 41.6322 124.53 47.8234 132.368C56.2205 142.927 69.2058 148.206 86.7352 148.206H135.426C140.794 148.206 145.147 145.015 145.147 141.088V131.485C145.147 129.044 147.118 127.074 149.559 127.074H163.22C180.765 127.074 193.735 121.794 202.132 111.235C208.323 103.397 211.426 93.8383 211.426 82.5442C211.426 78.0883 210.691 73.3972 209.22 68.4854H209.25ZM121.618 126.662C121.618 130.412 117.456 133.456 112.323 133.456H99.2352C87.794 133.456 71.4116 129.324 66.8822 121.074C64.4116 116.544 63.1764 111.147 63.1764 104.882C63.1764 96.2354 65.0146 89.603 68.6911 84.956C72.4264 80.353 88.1911 78.0442 99.2205 78.0442H112.309C117.441 78.0442 121.603 81.0883 121.603 84.8383V126.677L121.618 126.662ZM183.103 99.9413C178.588 108.206 170.603 112.324 159.147 112.324H154.47C149.338 112.324 145.162 109.28 145.162 105.515V63.706C145.162 59.9413 149.323 56.8972 154.47 56.8972H159.147C170.176 56.8972 177.559 59.206 181.279 63.8089C184.956 68.456 186.794 75.103 186.794 83.7354C186.794 90.0001 185.559 95.3972 183.088 99.9266L183.103 99.9413Z" fill="#002C2A"/>
</svg>
