<svg width="50" height="50" viewBox="0 0 50 50" fill="none" xmlns="http://www.w3.org/2000/svg">
<path d="M10.5481 42.5554V35.4851H12.9504C14.6106 35.4851 15.3625 36.4031 15.3625 37.6628C15.3625 38.5955 14.9426 39.3328 14.0442 39.6453L15.636 42.5554H14.6106L13.136 39.8015C13.0774 39.8113 13.0188 39.8113 12.9602 39.8113H11.427V42.5554H10.5481ZM11.427 39.0105H12.9211C14.0442 39.0105 14.4934 38.5027 14.4934 37.6628C14.4934 36.8132 14.0442 36.2664 12.9114 36.2664H11.427V39.0105ZM18.6926 42.6628C17.1594 42.6628 16.2121 41.5789 16.2121 39.948C16.2121 38.3171 17.1692 37.1843 18.6145 37.1843C19.7278 37.1843 20.8996 37.8679 20.8996 39.8308V40.1824H17.052C17.091 41.3054 17.7453 41.9207 18.6926 41.9207C19.3274 41.9207 19.7278 41.6472 19.9231 41.3152H20.8215C20.5676 42.116 19.7864 42.6628 18.6926 42.6628ZM17.0617 39.4695H20.05C20.05 38.5808 19.4836 37.9265 18.6145 37.9265C17.6965 37.9265 17.1106 38.6492 17.0617 39.4695ZM21.9934 44.5476V37.2527H22.8039V38.0925H22.9016C23.0774 37.8093 23.4094 37.1843 24.4348 37.1843C25.7629 37.1843 26.6906 38.239 26.6906 39.9187C26.6906 41.5984 25.7629 42.6628 24.4446 42.6628C23.4289 42.6628 23.0774 42.0378 22.9016 41.7449H22.8332V44.5476H21.9934ZM22.8137 39.8992C22.8137 41.0906 23.3508 41.9109 24.3274 41.9109C25.3332 41.9109 25.8508 41.032 25.8508 39.8992C25.8508 38.7957 25.343 37.9363 24.3274 37.9363C23.3313 37.9363 22.8137 38.7273 22.8137 39.8992ZM29.9524 42.6628C28.5071 42.6628 27.5305 41.5789 27.5305 39.9285C27.5305 38.2781 28.5071 37.1843 29.9524 37.1843C31.3879 37.1843 32.3547 38.2781 32.3547 39.9285C32.3547 41.5789 31.3879 42.6628 29.9524 42.6628ZM29.9524 41.9207C31.0168 41.9207 31.5149 40.9832 31.5149 39.9285C31.5149 38.8738 31.0168 37.9265 29.9524 37.9265C28.8684 37.9265 28.3703 38.8738 28.3703 39.9285C28.3703 40.9832 28.8684 41.9207 29.9524 41.9207ZM33.4582 42.5554V37.2527H34.2688V38.0632H34.3274C34.5227 37.5261 35.0696 37.1648 35.6946 37.1648C35.8215 37.1648 36.0364 37.1746 36.134 37.1843V38.0339C36.0754 38.0144 35.841 37.9753 35.6262 37.9753C34.8645 37.9753 34.2981 38.5027 34.2981 39.2156V42.5554H33.4582ZM39.6008 37.2527V37.9558H38.4875V41.032C38.4875 41.7156 38.8196 41.823 39.1809 41.823C39.3371 41.823 39.552 41.8132 39.6789 41.8035V42.5847C39.552 42.6042 39.3371 42.6238 39.093 42.6238C38.3899 42.6238 37.6379 42.1843 37.6379 41.2468V37.9558H36.8371V37.2527H37.6379V35.9832H38.4875V37.2527H39.6008Z" fill="#00847E"/>
<path d="M18.75 26.95H30.25V24.25H18.75V26.95ZM18.75 22.9H30.25V20.2H18.75V22.9ZM24.5 17.905C26.0812 16.555 27.4349 15.3569 28.5609 14.3106C29.687 13.2644 30.25 12.1675 30.25 11.02C30.25 10.21 29.9385 9.5125 29.3156 8.9275C28.6927 8.3425 27.95 8.05 27.0875 8.05C26.5844 8.05 26.0992 8.14563 25.632 8.33688C25.1648 8.52813 24.7875 8.7925 24.5 9.13C24.2125 8.7925 23.8352 8.52813 23.368 8.33688C22.9008 8.14563 22.4156 8.05 21.9125 8.05C21.05 8.05 20.3073 8.3425 19.6844 8.9275C19.0615 9.5125 18.75 10.21 18.75 11.02C18.75 12.1675 19.2951 13.2475 20.3852 14.26C21.4753 15.2725 22.8469 16.4875 24.5 17.905ZM33.125 31H15.875C15.0844 31 14.4076 30.7356 13.8445 30.2069C13.2815 29.6781 13 29.0425 13 28.3V6.7C13 5.9575 13.2815 5.32188 13.8445 4.79313C14.4076 4.26437 15.0844 4 15.875 4H33.125C33.9156 4 34.5924 4.26437 35.1555 4.79313C35.7185 5.32188 36 5.9575 36 6.7V28.3C36 29.0425 35.7185 29.6781 35.1555 30.2069C34.5924 30.7356 33.9156 31 33.125 31ZM15.875 28.3H33.125V6.7H15.875V28.3Z" fill="#00847E"/>
</svg>
