<svg width="50" height="50" viewBox="0 0 50 50" fill="none" xmlns="http://www.w3.org/2000/svg">
<path d="M15.6667 30.3642C14.9333 30.3642 14.3056 30.1159 13.7833 29.6192C13.2611 29.1225 13 28.5253 13 27.8278V10.0728C13 9.37533 13.2611 8.77822 13.7833 8.2815C14.3056 7.78478 14.9333 7.53642 15.6667 7.53642H17V5H19.6667V7.53642H30.3333V5H33V7.53642H34.3333C35.0667 7.53642 35.6944 7.78478 36.2167 8.2815C36.7389 8.77822 37 9.37533 37 10.0728V27.8278C37 28.5253 36.7389 29.1225 36.2167 29.6192C35.6944 30.1159 35.0667 30.3642 34.3333 30.3642H15.6667ZM15.6667 27.8278H34.3333V15.1457H15.6667V27.8278ZM15.6667 12.6093H34.3333V10.0728H15.6667V12.6093Z" fill="#00847E"/>
<path d="M10.4492 37.1562C10.2441 36.1797 9.4043 35.6523 8.47656 35.6523C7.19727 35.6523 6.20117 36.6387 6.20117 38.4648C6.20117 40.291 7.19727 41.2773 8.47656 41.2773C9.4043 41.2773 10.2344 40.75 10.4492 39.7832H11.3281C11.0742 41.2285 9.91211 42.0977 8.47656 42.0977C6.66016 42.0977 5.35156 40.7012 5.35156 38.4648C5.35156 36.2285 6.66016 34.832 8.47656 34.832C9.90234 34.832 11.0645 35.6914 11.3281 37.1562H10.4492ZM12.1973 40.4961C12.1973 39.2754 13.2715 39.002 14.1895 38.9336C14.5264 38.9092 15.3857 38.8652 15.625 38.8555V38.4258C15.625 37.752 15.2246 37.3613 14.4238 37.3613C13.75 37.3613 13.3496 37.6738 13.2324 38.0742H12.3535C12.4609 37.2246 13.291 36.6289 14.4629 36.6289C15.1562 36.6289 16.4551 36.834 16.4551 38.5039V42H15.625V41.2773H15.5859C15.4102 41.6387 14.9219 42.127 14.0039 42.127C12.998 42.127 12.1973 41.5312 12.1973 40.4961ZM13.0371 40.5352C13.0371 41.0918 13.5059 41.375 14.1504 41.375C15.0977 41.375 15.625 40.7402 15.625 40.0762V39.5391C15.376 39.5586 14.541 39.6221 14.2871 39.6367C13.5254 39.6855 13.0371 39.959 13.0371 40.5352ZM18.6426 34.9297V42H17.8027V34.9297H18.6426ZM19.7266 40.4961C19.7266 39.2754 20.8008 39.002 21.7188 38.9336C22.0557 38.9092 22.915 38.8652 23.1543 38.8555V38.4258C23.1543 37.752 22.7539 37.3613 21.9531 37.3613C21.2793 37.3613 20.8789 37.6738 20.7617 38.0742H19.8828C19.9902 37.2246 20.8203 36.6289 21.9922 36.6289C22.6855 36.6289 23.9844 36.834 23.9844 38.5039V42H23.1543V41.2773H23.1152C22.9395 41.6387 22.4512 42.127 21.5332 42.127C20.5273 42.127 19.7266 41.5312 19.7266 40.4961ZM20.5664 40.5352C20.5664 41.0918 21.0352 41.375 21.6797 41.375C22.627 41.375 23.1543 40.7402 23.1543 40.0762V39.5391C22.9053 39.5586 22.0703 39.6221 21.8164 39.6367C21.0547 39.6855 20.5664 39.959 20.5664 40.5352ZM26.1719 38.8164V42H25.332V36.6973H26.1426V37.5273H26.2109C26.4648 36.9902 26.9531 36.6289 27.7637 36.6289C28.8379 36.6289 29.5508 37.2832 29.5508 38.6309V42H28.7109V38.6895C28.7109 37.8691 28.2617 37.3809 27.5098 37.3809C26.7383 37.3809 26.1719 37.8984 26.1719 38.8164ZM32.9004 42.1074C31.582 42.1074 30.6445 41.043 30.6445 39.3633C30.6445 37.6836 31.582 36.6289 32.9102 36.6289C33.9355 36.6289 34.2676 37.2539 34.4434 37.5371H34.502V34.9297H35.3516V42H34.5312V41.1895H34.4434C34.2578 41.4824 33.916 42.1074 32.9004 42.1074ZM33.0176 41.3555C33.9844 41.3555 34.5312 40.5352 34.5312 39.3438C34.5312 38.1719 34.0039 37.3809 33.0176 37.3809C32.002 37.3809 31.4941 38.2402 31.4941 39.3438C31.4941 40.4766 32.0117 41.3555 33.0176 41.3555ZM39.0332 42.1074C37.5 42.1074 36.5527 41.0234 36.5527 39.3926C36.5527 37.7617 37.5098 36.6289 38.9551 36.6289C40.0684 36.6289 41.2402 37.3125 41.2402 39.2754V39.627H37.3926C37.4316 40.75 38.0859 41.3652 39.0332 41.3652C39.668 41.3652 40.0684 41.0918 40.2637 40.7598H41.1621C40.9082 41.5605 40.127 42.1074 39.0332 42.1074ZM37.4023 38.9141H40.3906C40.3906 38.0254 39.8242 37.3711 38.9551 37.3711C38.0371 37.3711 37.4512 38.0938 37.4023 38.9141ZM42.334 42V36.6973H43.1445V37.5078H43.2031C43.3984 36.9707 43.9453 36.6094 44.5703 36.6094C44.6973 36.6094 44.9121 36.6191 45.0098 36.6289V37.4785C44.9512 37.459 44.7168 37.4199 44.502 37.4199C43.7402 37.4199 43.1738 37.9473 43.1738 38.6602V42H42.334Z" fill="#00847E"/>
</svg>
