<svg width="36" height="36" viewBox="0 0 36 36" fill="none" xmlns="http://www.w3.org/2000/svg">
<path d="M27 8C26.299 8 25.623 8.106 24.985 8.298C24.99 8.198 25 8.101 25 8C25 4.687 22.313 2 19 2C16.231 2 13.907 3.878 13.215 6.427C12.529 6.154 11.783 6 11 6C7.686 6 5 8.686 5 12C5 15.312 7.686 18 11 18C13.769 18 16.093 16.122 16.785 13.572C17.471 13.845 18.217 14 19 14C19.375 14 19.74 13.961 20.096 13.896C20.038 14.256 20 14.623 20 15C20 18.865 23.135 22 27 22C30.865 22 34 18.865 34 15C34 11.134 30.865 8 27 8Z" fill="#CCD6DD"/>
<path d="M31 22C30.533 22 30.09 22.085 29.661 22.204C29.877 21.678 30 21.104 30 20.5C30 18.015 27.985 16 25.5 16C24.481 16 23.553 16.351 22.799 16.921C22.093 14.096 19.544 12 16.5 12C13.662 12 11.255 13.822 10.369 16.357C9.621 16.125 8.825 16 8 16C3.582 16 0 19.582 0 24C0 28.419 3.582 32 8 32H31C33.762 32 36 29.762 36 27C36 24.238 33.762 22 31 22Z" fill="#E1E8ED"/>
</svg>
