<svg width="36" height="36" viewBox="0 0 36 36" fill="none" xmlns="http://www.w3.org/2000/svg">
<g clip-path="url(#clip0_214_44061)">
<path d="M14 2C14 2 14 0 16 0C18 0 18 2 18 2V4C18 4 18 6 16 6C14 6 14 4 14 4V2ZM30 14C30 14 32 14 32 16C32 18 30 18 30 18H28C28 18 26 18 26 16C26 14 28 14 28 14H30ZM4 14C4 14 6 14 6 16C6 18 4 18 4 18H2C2 18 0 18 0 16C0 14 2 14 2 14H4ZM7.872 6.043C7.872 6.043 9.286 7.457 7.872 8.871C6.458 10.285 5.044 8.871 5.044 8.871L3.629 7.458C3.629 7.458 2.215 6.044 3.629 4.629C5.044 3.215 6.458 4.629 6.458 4.629L7.872 6.043ZM26.957 8.871C26.957 8.871 25.543 10.285 24.129 8.871C22.715 7.457 24.129 6.043 24.129 6.043L25.543 4.629C25.543 4.629 26.957 3.215 28.371 4.629C29.785 6.043 28.371 7.457 28.371 7.457L26.957 8.871Z" fill="#FFAC33"/>
<path d="M16 25C20.9706 25 25 20.9706 25 16C25 11.0294 20.9706 7 16 7C11.0294 7 7 11.0294 7 16C7 20.9706 11.0294 25 16 25Z" fill="#FFAC33"/>
<path d="M28 20C27.175 20 26.38 20.125 25.631 20.357C24.744 17.822 22.338 16 19.5 16C16.456 16 13.908 18.096 13.201 20.921C12.447 20.351 11.519 20 10.5 20C8.015 20 6 22.015 6 24.5C6 25.104 6.123 25.678 6.339 26.204C5.91 26.085 5.467 26 5 26C2.238 26 0 28.238 0 31C0 33.762 2.238 36 5 36H28C32.418 36 36 32.419 36 28C36 23.582 32.418 20 28 20Z" fill="#E1E8ED"/>
</g>
<defs>
<clipPath id="clip0_214_44061">
<rect width="36" height="36" fill="white"/>
</clipPath>
</defs>
</svg>
