<svg width="36" height="36" viewBox="0 0 36 36" fill="none" xmlns="http://www.w3.org/2000/svg">
<g clip-path="url(#clip0_214_44056)">
<path d="M16 2C16 2 16 0 18 0C20 0 20 2 20 2V4C20 4 20 6 18 6C16 6 16 4 16 4V2ZM34 16C34 16 36 16 36 18C36 20 34 20 34 20H32C32 20 30 20 30 18C30 16 32 16 32 16H34ZM4 16C4 16 6 16 6 18C6 20 4 20 4 20H2C2 20 0 20 0 18C0 16 2 16 2 16H4ZM9.121 7.293C9.121 7.293 10.535 8.707 9.121 10.121C7.707 11.535 6.293 10.121 6.293 10.121L4.878 8.708C4.878 8.708 3.464 7.294 4.878 5.879C6.293 4.465 7.707 5.879 7.707 5.879L9.121 7.293ZM29.708 10.121C29.708 10.121 28.294 11.535 26.88 10.121C25.466 8.707 26.88 7.293 26.88 7.293L28.294 5.879C28.294 5.879 29.708 4.465 31.122 5.879C32.536 7.293 31.122 8.707 31.122 8.707L29.708 10.121ZM8.708 31.121C8.708 31.121 7.294 32.535 5.88 31.121C4.466 29.707 5.88 28.293 5.88 28.293L7.294 26.879C7.294 26.879 8.708 25.465 10.122 26.879C11.536 28.293 10.122 29.707 10.122 29.707L8.708 31.121Z" fill="#FFAC33"/>
<path d="M18 28C23.5228 28 28 23.5228 28 18C28 12.4772 23.5228 8 18 8C12.4772 8 8 12.4772 8 18C8 23.5228 12.4772 28 18 28Z" fill="#FFAC33"/>
<path d="M29.777 23.2C29.135 23.2 28.517 23.3 27.934 23.485C27.246 21.457 25.374 20 23.167 20C20.799 20 18.817 21.678 18.268 23.937C17.682 23.481 16.959 23.201 16.167 23.201C14.234 23.201 12.667 24.812 12.667 26.801C12.667 27.284 12.763 27.742 12.931 28.164C12.597 28.067 12.252 28 11.889 28C9.741 28 8 29.791 8 32C8 34.209 9.741 36 11.889 36H29.778C33.214 36 36 33.136 36 29.6C36 26.065 33.214 23.2 29.777 23.2Z" fill="#E1E8ED"/>
</g>
<defs>
<clipPath id="clip0_214_44056">
<rect width="36" height="36" fill="white"/>
</clipPath>
</defs>
</svg>
