<svg width="36" height="36" viewBox="0 0 36 36" fill="none" xmlns="http://www.w3.org/2000/svg">
<path d="M13 6C13 6 13 4 15 4C17 4 17 6 17 6V8C17 8 17 10 15 10C13 10 13 8 13 8V6ZM4 17C4 17 6 17 6 19C6 21 4 21 4 21H2C2 21 0 21 0 19C0 17 2 17 2 17H4ZM7.872 10.043C7.872 10.043 9.286 11.457 7.872 12.871C6.458 14.285 5.044 12.871 5.044 12.871L3.629 11.457C3.629 11.457 2.215 10.043 3.629 8.628C5.044 7.214 6.458 8.628 6.458 8.628L7.872 10.043ZM24.957 12.871C24.957 12.871 23.543 14.285 22.129 12.871C20.715 11.457 22.129 10.043 22.129 10.043L23.543 8.629C23.543 8.629 24.957 7.215 26.371 8.629C27.785 10.043 26.371 11.457 26.371 11.457L24.957 12.871Z" fill="#FFAC33"/>
<path d="M15 27C19.4183 27 23 23.4183 23 19C23 14.5817 19.4183 11 15 11C10.5817 11 7 14.5817 7 19C7 23.4183 10.5817 27 15 27Z" fill="#FFAC33"/>
<path d="M28.223 16.8C27.42 16.8 26.648 16.919 25.919 17.14C25.057 14.731 22.718 13 19.958 13C16.999 13 14.521 14.991 13.835 17.675C13.102 17.133 12.199 16.8 11.209 16.8C8.792 16.8 6.834 18.714 6.834 21.075C6.834 21.648 6.954 22.193 7.163 22.693C6.746 22.58 6.315 22.5 5.861 22.5C3.176 22.5 1 24.626 1 27.25C1 29.874 3.176 32 5.861 32H28.222C32.518 32 36 28.598 36 24.4C36 20.202 32.518 16.8 28.223 16.8Z" fill="#E1E8ED"/>
</svg>
