<svg width="20" height="20" viewBox="0 0 20 20" fill="none" xmlns="http://www.w3.org/2000/svg">
<g clip-path="url(#clip0_1278_13256)">
<path d="M16.6669 13.2378C16.4497 13.4556 16.0986 13.4556 15.8813 13.2378L15.0958 12.4522C14.878 12.235 14.878 11.8833 15.0958 11.6667L16.6669 10.0956C16.8841 9.87833 17.2352 9.87833 17.4525 10.0956L18.238 10.8811C18.4558 11.0983 18.4558 11.45 18.238 11.6667L16.6669 13.2378ZM8.33357 4.90444C8.11634 5.12222 7.76523 5.12222 7.54801 4.90444L6.76245 4.11889C6.54468 3.90167 6.54468 3.55055 6.76245 3.33333L8.33357 1.76222C8.55079 1.545 8.9019 1.545 9.11912 1.76222L9.90468 2.54778C10.1225 2.765 10.1225 3.11611 9.90468 3.33333L8.33357 4.90444Z" fill="#66757F"/>
<path d="M1.1109 12.2222C2.22202 12.2222 7.22202 12.7778 7.22202 12.7778C7.22202 12.7778 7.77757 17.7778 7.77757 18.8889C7.77757 20 6.66646 20 6.1109 19.4444C5.55535 18.8889 3.88868 16.1111 3.88868 16.1111C3.88868 16.1111 1.1109 14.4444 0.555349 13.8889C-0.000206843 13.3333 -0.000206843 12.2222 1.1109 12.2222ZM2.22202 3.35499C3.88868 3.33332 16.1109 3.88888 16.1109 3.88888C16.1109 3.88888 16.6242 16.1111 16.6453 17.7778C16.6665 19.4444 15.1103 20.0011 14.4998 17.7783C13.8892 15.5555 11.6665 8.33332 11.6665 8.33332C11.6665 8.33332 3.91368 5.87943 2.21924 5.49888C-0.000206903 4.99999 0.554793 3.3761 2.22202 3.35499Z" fill="#55ACEE"/>
<path d="M14.9998 1.66664C16.1109 0.555533 18.8887 -2.29776e-05 19.4443 0.555533C19.9998 1.11109 19.4443 3.88887 18.3332 4.99998C17.222 6.11109 7.7776 15 7.7776 15C7.7776 15 4.16649 17.5 3.33315 16.6666C2.49982 15.8333 4.99982 12.2222 4.99982 12.2222C4.99982 12.2222 13.8887 2.77776 14.9998 1.66664Z" fill="#CCD6DD"/>
<path d="M7.77774 12.2222C7.77774 12.2222 8.05552 12.5 5.55552 15C3.05552 17.5 2.77774 17.2222 2.77774 17.2222C2.77774 17.2222 2.49996 16.9445 4.99996 14.4445C7.49996 11.9445 7.77774 12.2222 7.77774 12.2222ZM16.1111 2.22224C17.0316 2.22224 17.7777 2.96835 17.7777 3.88891H18.225C18.2883 3.71391 18.3333 3.53058 18.3333 3.33335C18.3333 2.4128 17.5872 1.66669 16.6666 1.66669C16.4694 1.66669 16.2861 1.71169 16.1111 1.77502V2.22224Z" fill="#66757F"/>
</g>
<defs>
<clipPath id="clip0_1278_13256">
<rect width="20" height="20" fill="white"/>
</clipPath>
</defs>
</svg>
