<svg width="20" height="21" viewBox="0 0 20 21" fill="none" xmlns="http://www.w3.org/2000/svg">
<g clip-path="url(#clip0_1672_3801)">
<path d="M16.0083 2.72223H17.1172V3.27778H16.0083V2.72223Z" fill="#66757F"/>
<path d="M1.11133 7.16669V18.2778C1.11133 19.505 2.10633 20.5 3.33355 20.5H16.6669C17.8941 20.5 18.8891 19.505 18.8891 18.2778V7.16669H1.11133Z" fill="#CCD6DD"/>
<path d="M16.6669 2.72223H3.33355C2.10633 2.72223 1.11133 3.71723 1.11133 4.94445V7.72223H18.8891V4.94445C18.8891 3.71723 17.8941 2.72223 16.6669 2.72223Z" fill="#DD2E44"/>
<path d="M4.90875 5.35055C4.51875 5.35055 4.20264 4.98055 4.20264 4.52333C4.20264 4.06666 4.51875 3.69611 4.90875 3.69611C5.29819 3.69611 5.6143 4.06666 5.6143 4.52333C5.6143 4.97999 5.29819 5.35055 4.90875 5.35055ZM8.24208 5.35055C7.85208 5.35055 7.53597 4.98055 7.53597 4.52333C7.53597 4.06666 7.85208 3.69611 8.24208 3.69611C8.63153 3.69611 8.94764 4.06666 8.94764 4.52333C8.94764 4.97999 8.63153 5.35055 8.24208 5.35055V5.35055ZM11.5754 5.35055C11.1854 5.35055 10.8693 4.98055 10.8693 4.52333C10.8693 4.06666 11.1854 3.69611 11.5754 3.69611C11.9649 3.69611 12.2815 4.06666 12.2815 4.52333C12.281 4.97999 11.9649 5.35055 11.5754 5.35055ZM14.9087 5.35055C14.5187 5.35055 14.2026 4.98055 14.2026 4.52333C14.2026 4.06666 14.5187 3.69611 14.9087 3.69611C15.2982 3.69611 15.6149 4.06666 15.6149 4.52333C15.6143 4.97999 15.2982 5.35055 14.9087 5.35055Z" fill="#292F33"/>
<path d="M15.1749 0.599426C14.4655 0.599426 13.851 1.04498 13.5116 1.69387C13.1749 1.05887 12.5577 0.599426 11.8416 0.599426C11.1321 0.599426 10.5177 1.04498 10.1782 1.69387C9.84158 1.05887 9.22436 0.599426 8.50825 0.599426C7.7988 0.599426 7.18436 1.04498 6.84491 1.69387C6.50825 1.05887 5.89102 0.599426 5.17491 0.599426C4.10047 0.599426 3.23047 1.60998 3.23047 2.82443C3.23047 3.85443 3.81102 4.6972 4.65769 5.00554C5.07936 5.15832 5.33769 4.7572 5.30158 4.43554C5.27102 4.16887 5.0938 3.99498 4.89658 3.86998C4.62714 3.69943 4.34102 3.30998 4.34102 2.8272C4.34102 2.21387 4.7138 1.66332 5.17436 1.66332C5.63491 1.66332 6.00769 2.16609 6.00769 2.72165H6.57214C6.57047 2.75609 6.56325 2.78887 6.56325 2.82387C6.56325 3.85387 7.1438 4.69665 7.99047 5.00498C8.41214 5.15776 8.67047 4.75665 8.63436 4.43498C8.6038 4.16887 8.42658 3.99498 8.22936 3.86998C7.95991 3.69943 7.6738 3.30998 7.6738 2.8272C7.6738 2.21387 8.04658 1.66332 8.50713 1.66332C8.96769 1.66332 9.34158 2.16665 9.34158 2.7222H9.90602C9.90436 2.75665 9.89714 2.78943 9.89714 2.82443C9.89714 3.85443 10.4777 4.6972 11.3244 5.00554C11.746 5.15832 12.0044 4.7572 11.9682 4.43554C11.9377 4.16943 11.7605 3.99554 11.5632 3.87054C11.2938 3.69998 11.0077 3.31054 11.0077 2.82776C11.0077 2.21443 11.3805 1.66387 11.841 1.66387C12.3016 1.66387 12.6749 2.16665 12.6749 2.7222H13.2394C13.2377 2.75665 13.2305 2.78943 13.2305 2.82443C13.2305 3.85443 13.811 4.6972 14.6577 5.00554C15.0794 5.15832 15.3377 4.7572 15.3016 4.43554C15.271 4.16943 15.0938 3.99554 14.8966 3.87054C14.6271 3.69998 14.341 3.31054 14.341 2.82776C14.341 2.21443 14.7138 1.66387 15.1744 1.66387C15.6349 1.66387 16.0082 2.16665 16.0082 2.7222H17.1171C17.1055 1.61109 16.2416 0.599426 15.1749 0.599426Z" fill="#66757F"/>
<path d="M6.11127 8.83331H8.3335V11.0555H6.11127V8.83331ZM8.88905 8.83331H11.1113V11.0555H8.88905V8.83331ZM11.6668 8.83331H13.8891V11.0555H11.6668V8.83331ZM14.4446 8.83331H16.6668V11.0555H14.4446V8.83331ZM3.3335 11.6111H5.55572V13.8333H3.3335V11.6111ZM6.11127 11.6111H8.3335V13.8333H6.11127V11.6111ZM8.88905 11.6111H11.1113V13.8333H8.88905V11.6111ZM11.6668 11.6111H13.8891V13.8333H11.6668V11.6111ZM14.4446 11.6111H16.6668V13.8333H14.4446V11.6111ZM3.3335 14.3889H5.55572V16.6111H3.3335V14.3889ZM6.11127 14.3889H8.3335V16.6111H6.11127V14.3889ZM8.88905 14.3889H11.1113V16.6111H8.88905V14.3889ZM11.6668 14.3889H13.8891V16.6111H11.6668V14.3889ZM14.4446 14.3889H16.6668V16.6111H14.4446V14.3889ZM3.3335 17.1666H5.55572V19.3889H3.3335V17.1666ZM6.11127 17.1666H8.3335V19.3889H6.11127V17.1666ZM8.88905 17.1666H11.1113V19.3889H8.88905V17.1666Z" fill="white"/>
</g>
<defs>
<clipPath id="clip0_1672_3801">
<rect width="20" height="20" fill="white" transform="translate(0 0.5)"/>
</clipPath>
</defs>
</svg>
