<svg width="auto" height="auto" viewBox="0 0 28 28" fill="none" xmlns="http://www.w3.org/2000/svg">
<g clip-path="url(#clip0_1546_3259)">
<path d="M11.6667 17.1111C11.6667 17.1111 10.7723 19.2492 9.9945 20.8048C9.21672 22.3603 8.69872 24.8702 10.2473 25.662C12.6063 26.8699 16.9191 26.1084 19.4445 24.8889C21.5632 23.8653 23.4726 22.4894 24.8889 20.2222C26.2469 18.0491 27.2223 15.5556 27.2223 14C27.2223 12.4444 27.1079 11.207 26.5518 9.55889C26.1396 8.33778 25.4692 6.86544 24.2652 5.61011C22.8504 4.13544 22.2157 2.65067 21.4792 1.59833C20.8492 0.696889 20.2223 0 18.6667 0C17.1112 0 13.2223 2.33333 10.8889 3.11111C8.55561 3.88889 5.4445 4.66667 3.11117 7.77778C0.777832 10.8889 0.777832 14 0.777832 15.5556C0.777832 17.1111 0.826054 19.355 2.33339 20.2222C4.12617 21.2543 6.6695 18.9513 8.59061 18.3898C10.4161 17.8562 11.6667 17.1111 11.6667 17.1111Z" fill="#FCAB40"/>
<path d="M26.2241 16.5931C26.2241 16.5931 24.1918 19.3573 23.0757 20.076C22.4737 20.4633 21.8157 20.8616 20.9733 21.2543C20.4335 21.5063 18.024 22.4599 17.3792 22.6582C16.2841 22.995 14.8242 23.3038 14.0659 23.3318C13.3075 23.3598 12.662 23.3287 11.5591 23.471C10.8809 23.5581 9.88221 23.9493 9.85421 24.3989C9.82621 24.8484 10.6405 25.6628 12.2692 25.7468C13.8979 25.8308 16.9335 25.6091 18.7831 24.7924C21.3661 23.6514 22.9108 22.2374 23.6691 21.3391C24.4267 20.44 25.7745 18.2218 26.2241 16.5931Z" fill="#F4900C"/>
<path d="M26.2241 16.5931C26.2241 16.5931 24.8763 18.2778 23.7749 19.201C23.0469 19.8116 21.4906 20.8973 20.3558 21.4511C19.2047 22.0127 16.9997 22.7352 15.4418 22.967C14.1219 23.1638 12.0624 23.3761 11.3702 23.5286C10.702 23.6756 10.3692 23.8848 10.5558 24.1181C10.8374 24.4697 11.5172 24.3826 12.5493 24.2519C14.9713 23.9454 17.163 23.4834 19.0336 22.7142C20.9446 21.9279 22.826 20.9456 23.5844 20.0464C24.3427 19.1473 25.4121 18.137 26.2241 16.5931Z" fill="#BF6952"/>
<path d="M17.7723 3.087C17.2427 4.14478 15.6622 6.60022 14.7779 8.085C13.7256 9.85133 12.3536 11.9879 11.6092 14C11.3798 14.6207 10.882 16.9307 10.9722 17.4736C11.4078 17.2628 11.6668 17.1111 11.6668 17.1111C11.6668 17.1111 12.5783 15.3572 13.3639 14.1501C14.1502 12.943 16.7892 8.33778 17.7723 6.70911C18.7555 5.08044 19.1436 3.47355 19.0075 2.65067C18.8115 1.45678 18.1628 2.30767 17.7723 3.087Z" fill="#F4900C"/>
<path d="M17.8001 4.4629C17.2448 5.62101 15.6916 8.08501 14.9714 9.4609C14.2511 10.8368 12.3114 14.2427 11.539 16.1996C11.4014 16.5488 11.2598 16.9595 11.2046 17.3577C11.5258 17.1967 11.6666 17.1111 11.6666 17.1111C11.6666 17.1111 12.5781 15.3572 13.3637 14.1501C14.15 12.943 16.789 8.33779 17.7721 6.70912C18.5297 5.45379 18.9303 4.21556 19.0135 3.3359C18.7903 2.31545 18.1665 3.69912 17.8001 4.4629Z" fill="#BF6952"/>
<path d="M22.6092 20.0783C21.8882 20.5816 21.0451 21.1143 20.3552 21.4503C19.5774 21.8299 18.3213 22.2787 17.1064 22.6046L17.1072 22.6069C17.1072 22.6069 19.0447 26.9057 21.7498 27.8717L26.4693 23.3178C26.4693 23.3178 23.4694 21.2551 22.6092 20.0783Z" fill="#CCD6DD"/>
<path d="M19.7976 21.7C19.6817 21.7482 19.5603 21.7972 19.4343 21.8462C19.3394 21.8836 19.2422 21.9201 19.1434 21.9567C19.047 21.9924 18.9498 22.0282 18.8494 22.064C18.7359 22.1044 18.6216 22.1433 18.5041 22.183L18.3913 22.2203C17.9713 22.3596 17.5389 22.4894 17.1064 22.6053L17.1072 22.6077C17.1072 22.6077 17.2247 22.8674 17.4401 23.2711C17.9923 23.1047 18.5267 22.9227 19.0338 22.7142C20.5839 22.0764 22.1029 21.3103 23.0308 20.5637C22.8628 20.3918 22.7189 20.2277 22.6092 20.0783L22.6077 20.0799C22.4428 20.195 22.2717 20.3109 22.0967 20.4268L21.9761 20.5053C21.8392 20.5948 21.7023 20.6819 21.5639 20.7682L21.4021 20.8686C21.2722 20.9471 21.1454 21.0218 21.0187 21.0949L20.8592 21.1867C20.6858 21.2831 20.5162 21.3741 20.356 21.4519C20.23 21.5133 20.0869 21.5771 19.9376 21.6417L19.7976 21.7Z" fill="#9AAAB4"/>
</g>
<defs>
<clipPath id="clip0_1546_3259">
<rect width="28" height="28" fill="white"/>
</clipPath>
</defs>
</svg>
