<svg width="26" height="26" viewBox="0 0 26 26" fill="none" xmlns="http://www.w3.org/2000/svg">
<g id="calendar_today_FILL0_wght400_GRAD0_opsz24 1">
<path id="Vector" d="M5.2778 23.2222C4.69724 23.2222 4.20025 23.0155 3.78683 22.6021C3.3734 22.1886 3.16669 21.6916 3.16669 21.1111V6.33331C3.16669 5.75275 3.3734 5.25576 3.78683 4.84233C4.20025 4.42891 4.69724 4.2222 5.2778 4.2222H6.33335V2.11108H8.44446V4.2222H16.8889V2.11108H19V4.2222H20.0556C20.6361 4.2222 21.1331 4.42891 21.5465 4.84233C21.96 5.25576 22.1667 5.75275 22.1667 6.33331V21.1111C22.1667 21.6916 21.96 22.1886 21.5465 22.6021C21.1331 23.0155 20.6361 23.2222 20.0556 23.2222H5.2778ZM5.2778 21.1111H20.0556V10.5555H5.2778V21.1111ZM5.2778 8.44442H20.0556V6.33331H5.2778V8.44442Z" fill="black"/>
</g>
</svg>
