<svg width="18" height="18" viewBox="0 0 18 18" fill="none" xmlns="http://www.w3.org/2000/svg">
<circle cx="9" cy="9" r="9" fill="#2C9577"/>
<path d="M15.0632 7.04949C14.9574 6.69601 14.7584 6.36687 14.4674 6.06313C14.1044 5.68743 13.6302 5.4292 13.0439 5.28738C12.7 5.20483 12.2692 5.16038 11.7517 5.15509H9.45619C9.0699 5.15509 8.75664 5.38475 8.75664 5.66732V6.35841C8.75664 6.53409 8.61482 6.6759 8.43914 6.6759H6.24735C5.72983 6.6812 5.29909 6.72565 4.95513 6.80819C4.36882 6.94895 3.89469 7.20718 3.53169 7.58395C3.24065 7.88769 3.04274 8.21683 2.93585 8.57031C2.83002 8.92379 2.7771 9.26139 2.7771 9.58207C2.7771 10.3949 3.00041 11.0828 3.44596 11.6469C4.05027 12.4067 4.98477 12.7867 6.24629 12.7867H9.75041C10.1367 12.7867 10.45 12.557 10.45 12.2744V11.5834C10.45 11.4077 10.5918 11.2659 10.7675 11.2659H11.7506C13.0132 11.2659 13.9467 10.8859 14.551 10.126C14.9965 9.56196 15.2198 8.87405 15.2198 8.06125C15.2198 7.74058 15.1669 7.40297 15.0611 7.04949H15.0632ZM8.75664 11.2362C8.75664 11.5061 8.45713 11.7252 8.08778 11.7252H7.14587C6.32249 11.7252 5.14352 11.4278 4.81755 10.8341C4.63975 10.5081 4.55085 10.1197 4.55085 9.66885C4.55085 9.04655 4.68314 8.56925 4.94773 8.23482C5.21654 7.90356 6.35107 7.7374 7.14481 7.7374H8.08672C8.45607 7.7374 8.75558 7.95648 8.75558 8.22635V11.2373L8.75664 11.2362ZM13.1815 9.31325C12.8566 9.90803 12.2819 10.2044 11.4575 10.2044H11.1209C10.7516 10.2044 10.451 9.98529 10.451 9.71436V6.70554C10.451 6.43461 10.7505 6.21553 11.1209 6.21553H11.4575C12.2512 6.21553 12.7825 6.38169 13.0503 6.71295C13.3148 7.04738 13.4471 7.52574 13.4471 8.14698C13.4471 8.59782 13.3582 8.98623 13.1804 9.31219L13.1815 9.31325Z" fill="white"/>
</svg>
