<svg width="108" height="48" viewBox="0 0 108 48" fill="none" xmlns="http://www.w3.org/2000/svg">
    <rect width="108" height="48" rx="8" fill="#6366F1"/>
    <path d="M15.8008 18.6914C16.9219 18.6914 17.8516 19.2998 18.4189 20.373H21.1465V17.8164H22.8691V30.2852H21.1465V25.623H18.5488C17.9951 26.8535 17.0039 27.5645 15.8008 27.5645C13.9141 27.5645 12.5605 25.8555 12.5742 23.1211C12.5605 20.4072 13.9141 18.6914 15.8008 18.6914ZM14.2422 23.1211C14.2354 24.9736 14.8711 25.9854 15.8008 25.9785C16.7373 25.9854 17.3594 24.9736 17.3594 23.1211C17.3594 21.2754 16.7373 20.2637 15.8008 20.2637C14.8711 20.2637 14.2354 21.2754 14.2422 23.1211ZM18.9043 21.7812C18.9863 22.1914 19.0273 22.6426 19.0273 23.1211C19.0273 23.5107 19 23.8799 18.9453 24.2285H21.1465V21.7812H18.9043Z" fill="white"/>
    <path d="M92.6663 19L83.4997 28.1667L79.333 24" stroke="white" stroke-width="2" stroke-linecap="round" stroke-linejoin="round"/>
</svg>
