<svg width="24" height="24" viewBox="0 0 24 24" fill="none" xmlns="http://www.w3.org/2000/svg">
<path fill-rule="evenodd" clip-rule="evenodd" d="M22 12C22 17.5228 17.5228 22 12 22C6.47715 22 2 17.5228 2 12C2 6.47715 6.47715 2 12 2C17.5228 2 22 6.47715 22 12ZM12.2393 11.1621C11.3779 11.6885 10.8857 12.2217 10.8721 13.9648V14.0879H12.4717V13.9648C12.4854 12.9395 12.8135 12.4678 13.6064 11.9824C14.4951 11.4561 15.0488 10.7314 15.0557 9.61719C15.0488 7.99023 13.7842 6.96484 11.9385 6.96484C10.25 6.96484 8.88281 7.90137 8.83496 9.74023H10.5439C10.5918 8.82422 11.248 8.38672 11.9248 8.38672C12.6699 8.38672 13.2715 8.87891 13.2646 9.64453C13.2715 10.3281 12.8203 10.7861 12.2393 11.1621ZM11.7197 14.9902C11.1318 14.9971 10.6465 15.4688 10.6533 16.043C10.6465 16.6309 11.1318 17.1094 11.7197 17.1094C12.2871 17.1094 12.7725 16.6309 12.7725 16.043C12.7725 15.4688 12.2871 14.9971 11.7197 14.9902Z" fill="#A5B4FC"/>
</svg>
