<svg width="32" height="32" viewBox="0 0 32 32" fill="none" xmlns="http://www.w3.org/2000/svg">
    <circle cx="16" cy="16" r="16" fill="#FEE500"/>
    <path d="M16.0461 7.72205C11.0682 7.72205 7.05371 10.9336 7.05371 14.8324C7.05371 17.3631 8.72373 19.5791 11.2288 20.8445L10.3809 24.0111C10.3649 24.0586 10.3625 24.1095 10.3738 24.1583C10.3851 24.2071 10.4098 24.2517 10.4451 24.2873C10.4966 24.3327 10.5628 24.3578 10.6314 24.3579C10.6883 24.3534 10.7423 24.3309 10.7856 24.2937L14.4339 21.8337C14.9724 21.908 15.5153 21.9466 16.059 21.9492C21.0305 21.9492 25.0514 18.7377 25.0514 14.8324C25.0514 10.9272 21.0176 7.72205 16.0461 7.72205Z" fill="#392020"/>
    <path d="M10.2007 13.7084H9.218C9.0962 13.7119 8.9759 13.6807 8.87115 13.6184C8.82465 13.5893 8.78467 13.5509 8.75372 13.5055C8.72277 13.4602 8.70152 13.409 8.69131 13.3551C8.68818 13.3209 8.68818 13.2865 8.69131 13.2524C8.68825 13.1884 8.70067 13.1246 8.72751 13.0665C8.75434 13.0083 8.7948 12.9575 8.84546 12.9183C8.95744 12.8372 9.0926 12.7944 9.23085 12.7963H12.1919C12.3147 12.792 12.4358 12.8256 12.5388 12.8926C12.5864 12.9205 12.6272 12.9586 12.6583 13.0041C12.6894 13.0497 12.71 13.1015 12.7186 13.156C12.7217 13.188 12.7217 13.2203 12.7186 13.2524C12.7216 13.3173 12.7093 13.3819 12.6825 13.4411C12.6557 13.5003 12.6152 13.5522 12.5645 13.5927C12.4552 13.6737 12.3214 13.7146 12.1855 13.7084H11.2349V17.087C11.2387 17.1589 11.2276 17.2309 11.2022 17.2983C11.1767 17.3658 11.1376 17.4273 11.0871 17.4788C11.0388 17.528 10.9807 17.5666 10.9165 17.5921C10.8523 17.6175 10.7836 17.6292 10.7146 17.6265C10.594 17.6299 10.4759 17.5914 10.3806 17.5173C10.2899 17.445 10.2283 17.3423 10.2072 17.2283C10.2008 17.1814 10.2008 17.1338 10.2072 17.087L10.2007 13.7084Z" fill="#FEE500"/>
    <path d="M13.0022 13.0468C13.0304 12.9411 13.0968 12.8495 13.1884 12.7898C13.2861 12.7345 13.3974 12.7078 13.5096 12.7128H13.7537C13.8727 12.7085 13.9906 12.7374 14.0941 12.7963C14.2038 12.87 14.2818 12.9824 14.3125 13.111L15.5971 16.7401C15.6304 16.8348 15.6583 16.9313 15.6806 17.0292C15.6828 17.0698 15.6828 17.1105 15.6806 17.1512C15.6828 17.2138 15.6713 17.2761 15.6469 17.3338C15.6224 17.3915 15.5857 17.4431 15.5393 17.4852C15.4943 17.5313 15.4403 17.5677 15.3806 17.592C15.3209 17.6163 15.2569 17.628 15.1924 17.6265C15.0934 17.6363 14.9939 17.6126 14.91 17.559C14.8261 17.5054 14.7627 17.4251 14.73 17.331L14.4602 16.541H12.7709L12.5012 17.331C12.4692 17.4269 12.4051 17.5088 12.3196 17.5626C12.2341 17.6165 12.1325 17.6391 12.0323 17.6265C11.9236 17.6293 11.8173 17.5953 11.7304 17.5301C11.6457 17.4628 11.5886 17.3669 11.5698 17.2604C11.5664 17.2241 11.5664 17.1875 11.5698 17.1512C11.5588 17.0874 11.5588 17.0223 11.5698 16.9585C11.5698 16.8879 11.6148 16.8107 11.6405 16.7401L13.0022 13.0468ZM13.6445 13.8882L13.0343 15.8152H14.2482L13.6445 13.8882Z" fill="#FEE500"/>
    <path d="M15.8277 13.2524C15.8212 13.1083 15.872 12.9674 15.969 12.8606C16.0183 12.8109 16.0776 12.772 16.1428 12.7465C16.2081 12.7211 16.278 12.7096 16.348 12.7128C16.4683 12.7114 16.5857 12.7498 16.682 12.822C16.7712 12.8974 16.8304 13.0022 16.849 13.1175C16.8553 13.1622 16.8553 13.2077 16.849 13.2524V16.631H18.6153C18.7378 16.6294 18.8581 16.6628 18.9622 16.7273C19.009 16.7561 19.0491 16.7945 19.0801 16.8399C19.1111 16.8852 19.1322 16.9366 19.142 16.9907C19.142 16.9907 19.142 17.0549 19.142 17.087C19.1451 17.151 19.1327 17.2147 19.1058 17.2728C19.079 17.331 19.0385 17.3819 18.9879 17.421C18.8759 17.5021 18.7408 17.5449 18.6025 17.543H16.4315C16.2932 17.5519 16.1558 17.5159 16.0397 17.4403C15.9358 17.3627 15.8666 17.2473 15.847 17.1192C15.8423 17.0486 15.8423 16.9777 15.847 16.9071L15.8277 13.2524Z" fill="#FEE500"/>
    <path d="M19.2577 13.2524C19.2538 13.1087 19.3043 12.9688 19.399 12.8606C19.4952 12.7732 19.6187 12.7215 19.7486 12.7145C19.8785 12.7075 20.0068 12.7455 20.1119 12.8221C20.2031 12.8968 20.2646 13.0015 20.2854 13.1175C20.2885 13.1624 20.2885 13.2075 20.2854 13.2524V14.8261L21.9104 12.9505C21.973 12.8865 22.0395 12.8265 22.1095 12.7707C22.1755 12.7314 22.2511 12.7113 22.3279 12.7128C22.4402 12.7122 22.55 12.7459 22.6426 12.8092C22.6863 12.8386 22.7236 12.8766 22.7523 12.9207C22.781 12.9648 22.8005 13.0143 22.8097 13.0662C22.8122 13.0789 22.8122 13.092 22.8097 13.1047C22.8065 13.1196 22.8065 13.1348 22.8097 13.1497C22.8094 13.2172 22.7917 13.2837 22.7583 13.3424C22.7242 13.4046 22.6832 13.4627 22.6362 13.5157L21.57 14.6848L22.8546 16.676V16.7402C22.9213 16.8322 22.9733 16.9341 23.0088 17.0421V17.0742C23.0162 17.1486 23.0055 17.2237 22.9775 17.2931C22.9495 17.3625 22.9052 17.424 22.8482 17.4724C22.741 17.5534 22.6099 17.5964 22.4757 17.5945C22.3864 17.5982 22.2978 17.5782 22.2187 17.5366C22.1332 17.4793 22.0627 17.4022 22.0132 17.3118L20.8185 15.3849L20.2468 15.9823V17.0549C20.2507 17.1986 20.2002 17.3385 20.1055 17.4467C20.0547 17.4963 19.9944 17.5351 19.9281 17.5605C19.8618 17.5859 19.791 17.5975 19.7201 17.5945C19.6016 17.597 19.4859 17.5584 19.3925 17.4853C19.3018 17.413 19.2402 17.3104 19.2191 17.1963C19.2128 17.1494 19.2128 17.1018 19.2191 17.0549L19.2577 13.2524Z" fill="#FEE500"/>
</svg>
