<svg width="152" height="31" viewBox="0 0 152 31" fill="none" xmlns="http://www.w3.org/2000/svg">
    <rect width="152" height="31" rx="8" fill="#EEF2FF"/>
    <path d="M17.8242 11.6211C17.8184 14.627 16.793 17.3809 13.043 19.2266L12.5273 18.5234C14.4844 17.5684 15.6621 16.3613 16.2949 14.9609L12.7266 15.3008L12.5742 14.4922L16.5762 14.2227C16.7637 13.6367 16.8691 13.0215 16.9102 12.3828H13.1016V11.6211H17.8242ZM19.5703 20.9492V10.5312H20.4844V14.7734H22.1719V15.5469H20.4844V20.9492H19.5703ZM28.1953 11.6211C28.1895 14.627 27.1641 17.3809 23.4141 19.2266L22.8984 18.5234C24.8555 17.5684 26.0332 16.3613 26.666 14.9609L23.0977 15.3008L22.9453 14.4922L26.9473 14.2227C27.1348 13.6367 27.2402 13.0215 27.2812 12.3828H23.4727V11.6211H28.1953ZM29.9414 20.9492V10.5312H30.8555V14.7734H32.543V15.5469H30.8555V20.9492H29.9414ZM37.9102 11.2109C40.125 11.2227 41.7188 12.3008 41.7188 13.9414C41.7188 15.4941 40.3359 16.5195 38.3555 16.6543V18.8398H42.7031V19.6133H33.1641V18.8398H37.4531V16.6543C35.4844 16.5137 34.1016 15.4883 34.1016 13.9414C34.1016 12.3008 35.7012 11.2227 37.9102 11.2109ZM34.9922 13.9414C34.9863 15.1426 36.2227 15.9219 37.9102 15.9336C39.5977 15.9219 40.8281 15.1426 40.8281 13.9414C40.8281 12.7637 39.5977 11.9668 37.9102 11.9727C36.2227 11.9668 34.9863 12.7637 34.9922 13.9414ZM46.582 13.7305C46.5879 15.3945 47.4375 17.1055 48.8672 17.8672L48.3281 18.5586C47.291 17.9902 46.541 16.918 46.1602 15.6641C45.791 17 45.041 18.1602 44.0039 18.7695L43.4531 18.0898C44.8594 17.2637 45.709 15.4531 45.7148 13.7305V13.25H43.6992V12.4883H45.7148V10.918H46.5938V12.4883H48.5859V13.25H46.582V13.7305ZM49.3008 20.4219V10.7539H50.1797V14.75H51.5977V10.5312H52.4883V20.9492H51.5977V15.5352H50.1797V20.4219H49.3008ZM55.4531 11.0469V14.7031C57.0762 14.6973 58.459 14.6152 59.9766 14.3164L60.1172 15.0781C58.4707 15.3945 57.0586 15.4824 55.3242 15.4766H54.5273V11.0469H55.4531ZM55.793 17.1641V16.4141H62.543V18.9102H56.7305V20.0586H62.918V20.8086H55.8164V18.1953H61.6172V17.1641H55.793ZM58.6172 13.0391V12.2891H61.6172V10.5312H62.543V15.9336H61.6172V13.0391H58.6172ZM73.8164 18.8867V19.6602H64.2773V18.8867H68.5664V16.918H65.4727V13.707H71.707V12.0664H65.4492V11.3047H72.6094V14.457H66.3867V16.1562H72.8555V16.918H69.4688V18.8867H73.8164ZM87.1875 15.8633V16.625H82.9453V18.7578H82.0312V16.625H77.6484V15.8633H87.1875ZM78.8672 20.7266V17.7266H79.793V19.9531H86.1211V20.7266H78.8672ZM78.8906 14.668V11.0469H85.9453V14.668H78.8906ZM79.793 13.9297H85.0312V11.7734H79.793V13.9297ZM91.4414 11.293C93.0762 11.2988 94.2363 12.2949 94.2422 13.7422C94.2363 15.1953 93.0762 16.1855 91.4414 16.1914C89.7949 16.1855 88.623 15.1953 88.6289 13.7422C88.623 12.2949 89.7949 11.2988 91.4414 11.293ZM88.0898 17.8906C90.0117 17.8965 92.666 17.8789 94.9688 17.5391L95.0391 18.2188C92.6543 18.6641 90.0938 18.6758 88.2188 18.6758L88.0898 17.8906ZM89.5312 13.7422C89.5254 14.7148 90.3281 15.3828 91.4414 15.3828C92.543 15.3828 93.3457 14.7148 93.3398 13.7422C93.3457 12.7754 92.543 12.1016 91.4414 12.1016C90.3281 12.1016 89.5254 12.7754 89.5312 13.7422ZM95.6602 20.9727V10.5312H96.5742V20.9727H95.6602ZM106.465 10.5312V14.832H108.211V15.5938H106.465V20.9492H105.551V10.5312H106.465ZM98.3438 12.9688V12.207H101.027V10.6602H101.941V12.207H104.543V12.9688H98.3438ZM98.9414 16.2266C98.9355 14.8203 100.014 13.8359 101.496 13.8359C102.967 13.8359 104.039 14.8203 104.051 16.2266C104.039 17.6387 102.967 18.6172 101.496 18.6172C100.014 18.6172 98.9355 17.6387 98.9414 16.2266ZM99.8203 16.2266C99.8145 17.1758 100.523 17.8438 101.496 17.832C102.457 17.8438 103.16 17.1758 103.172 16.2266C103.16 15.2832 102.457 14.6035 101.496 14.6094C100.523 14.6035 99.8145 15.2832 99.8203 16.2266ZM117.398 10.5312V20.9727H116.484V15.3125H114.457V14.5391H116.484V10.5312H117.398ZM109.137 12.2656V11.5039H113.824V15.1484H110.086V17.6797C111.885 17.6797 113.186 17.6211 114.703 17.3398L114.773 18.1133C113.209 18.3945 111.855 18.459 109.969 18.4648H109.172V14.3867H112.934V12.2656H109.137ZM127.207 10.5312V14.7734H128.895V15.5469H127.207V20.9492H126.293V10.5312H127.207ZM119.215 18.2422C121.904 16.9062 123.369 14.8965 123.58 12.4297H119.695V11.6562H124.512C124.506 14.6035 123.123 17.293 119.73 18.9688L119.215 18.2422ZM138.129 10.5312V20.9492H137.203V10.5312H138.129ZM129.645 18.2422C132.463 16.9062 133.904 14.9082 134.109 12.418H130.125V11.668H135.047C135.035 14.6621 133.641 17.3164 130.148 18.9922L129.645 18.2422Z" fill="#6366F1"/>
</svg>
