<svg width="54" height="97" viewBox="0 0 54 97" fill="none" xmlns="http://www.w3.org/2000/svg">
    <rect width="54" height="97" rx="8" fill="#EEF2FF"/>
    <path d="M30.2031 69.4141C30.0566 68.0273 28.7676 67.2266 27.0781 67.2266C25.2031 67.2266 23.9824 68.2031 23.9727 69.5508C23.9824 71.0352 25.6328 71.5918 26.707 71.8555L28.1133 72.2461C29.627 72.6367 32.1172 73.5059 32.1172 76.1523C32.1172 78.457 30.2617 80.2441 26.9805 80.2539C23.9336 80.2441 22.0488 78.6719 21.8828 76.3281H23.6797C23.8262 77.9102 25.3008 78.6621 26.9805 78.6523C28.9336 78.6621 30.3984 77.6562 30.3984 76.1133C30.3984 74.7363 29.0898 74.209 27.6055 73.7891L25.8672 73.3203C23.6504 72.6758 22.2637 71.543 22.2734 69.6289C22.2637 67.2363 24.3926 65.6641 27.1367 65.6641C29.8809 65.6641 31.8535 67.2656 31.9219 69.4141H30.2031Z" fill="#9CA3AF"/>
    <rect width="54" height="48" rx="8" fill="#6366F1"/>
    <path d="M32.8984 16.8594V31H30.3594L24.1484 22.0156H24.0312V31H21.1016V16.8594H23.6797L29.8516 25.8438H29.9883V16.8594H32.8984Z" fill="white"/>
</svg>
