<svg width="350" height="40" viewBox="0 0 350 40" fill="none" xmlns="http://www.w3.org/2000/svg">
    <rect width="350" height="40" rx="8" fill="#4B5563"/>
    <path d="M21.0586 15.043V22.7539H20.1328V19.9531H17.6719V20.9727H12.9492V15.7344H13.8633V17.5859H16.7695V15.7344H17.6719V16.9531H20.1328V15.043H21.0586ZM13.8633 20.2109H16.7695V18.3125H13.8633V20.2109ZM14.3203 25.2266V21.9922H15.2461V24.4531H21.293V25.2266H14.3203ZM17.6719 19.1914H20.1328V17.7266H17.6719V19.1914ZM31.4297 15.043V21.3008H30.5039V19.8945H27.7383V19.1328H30.5039V17.7266H27.8438C27.1582 19.4023 25.5527 20.6152 23.3203 21.2773L22.9336 20.5508C25.4473 19.8066 27.0234 18.3945 27.2051 16.5898H23.4609V15.8164H28.207C28.207 16.2266 28.1602 16.6191 28.0723 16.9883H30.5039V15.043H31.4297ZM24.5391 23.3984C24.5332 22.1562 25.8867 21.4062 28.0195 21.4062C30.1289 21.4062 31.4883 22.1562 31.4883 23.3984C31.4883 24.6465 30.1289 25.4023 28.0195 25.4023C25.8867 25.4023 24.5332 24.6465 24.5391 23.3984ZM25.4414 23.3984C25.4473 24.1836 26.4492 24.6582 28.0195 24.6523C29.5664 24.6582 30.5684 24.1836 30.5742 23.3984C30.5684 22.6133 29.5664 22.1387 28.0195 22.1445C26.4492 22.1387 25.4473 22.6133 25.4414 23.3984ZM36.6562 17.832C36.6562 19.666 37.8691 21.5586 39.3516 22.2852L38.7891 23.0234C37.6406 22.4258 36.6797 21.1895 36.2168 19.7422C35.7539 21.2773 34.7695 22.5957 33.5977 23.2227L33.0117 22.4844C34.5352 21.7344 35.7422 19.7363 35.7539 17.832V15.9336H36.6562V17.832ZM40.3125 25.4492V15.0312H41.2266V19.2617H42.9727V20.0586H41.2266V25.4492H40.3125ZM51.6797 15.0312V17.9375H53.25V18.7227H51.6797V21.7578H50.7656V15.0312H51.6797ZM43.5586 16.9531V16.2266H46.207V14.9492H47.1211V16.2266H49.7695V16.9531H43.5586ZM44.1562 19.332C44.1504 18.2188 45.1523 17.498 46.6641 17.4922C48.1582 17.498 49.1602 18.2188 49.1719 19.332C49.1602 20.457 48.1582 21.1777 46.6641 21.1719C45.1523 21.1777 44.1504 20.457 44.1562 19.332ZM44.9766 23.6328C44.9707 22.4961 46.2598 21.834 48.3867 21.8281C50.5078 21.834 51.7969 22.4961 51.7969 23.6328C51.7969 24.7637 50.5078 25.4258 48.3867 25.4258C46.2598 25.4258 44.9707 24.7637 44.9766 23.6328ZM45.0352 19.332C45.0293 20.0176 45.6797 20.457 46.6641 20.457C47.6367 20.457 48.293 20.0176 48.3047 19.332C48.293 18.6465 47.6367 18.1953 46.6641 18.1836C45.6797 18.1953 45.0293 18.6465 45.0352 19.332ZM45.8906 23.6328C45.8789 24.3066 46.8281 24.7168 48.3867 24.7109C49.9395 24.7168 50.8887 24.3066 50.8828 23.6328C50.8887 22.9414 49.9395 22.5547 48.3867 22.5547C46.8281 22.5547 45.8789 22.9414 45.8906 23.6328ZM62.4961 15.0312V25.4727H61.5703V15.0312H62.4961ZM54.293 19.4727C54.2988 17.2578 55.4004 15.8457 56.9531 15.8398C58.5 15.8457 59.6191 17.2578 59.6133 19.4727C59.6191 21.6934 58.5 23.0996 56.9531 23.0938C55.4004 23.0996 54.2988 21.6934 54.293 19.4727ZM55.1836 19.4727C55.1836 21.166 55.9102 22.2793 56.9531 22.2734C58.002 22.2793 58.7227 21.166 58.7227 19.4727C58.7227 17.7793 58.002 16.666 56.9531 16.6602C55.9102 16.666 55.1836 17.7793 55.1836 19.4727ZM75.4336 15.043V18.1953H77.0039V18.9688H75.4336V22.6953H74.5195V15.043H75.4336ZM67.7344 20.9375V15.793H68.6367V17.5508H71.6719V15.793H72.5859V20.9375H67.7344ZM68.6367 20.1875H71.6719V18.2773H68.6367V20.1875ZM68.918 25.2266V21.9453H69.8203V24.4531H75.9141V25.2266H68.918ZM80.5312 15.6641C81.4102 15.6582 82.1543 15.9922 82.6406 16.543H85.3711V15.0312H86.2969V21.207H85.3711V19.7188H82.6406C82.1602 20.2695 81.4102 20.6035 80.5312 20.5977C78.9727 20.6035 77.8184 19.584 77.8242 18.1367C77.8184 16.6777 78.9727 15.6582 80.5312 15.6641ZM78.7031 18.1367C78.7031 19.1035 79.4648 19.8184 80.5312 19.8125C81.5625 19.8184 82.3359 19.1035 82.3359 18.1367C82.3359 17.1465 81.5625 16.4551 80.5312 16.4609C79.4648 16.4551 78.7031 17.1465 78.7031 18.1367ZM79.3477 23.4336C79.3418 22.1797 80.6777 21.4531 82.8398 21.4531C84.9961 21.4531 86.332 22.1797 86.332 23.4336C86.332 24.6992 84.9961 25.4258 82.8398 25.4258C80.6777 25.4258 79.3418 24.6992 79.3477 23.4336ZM80.25 23.4336C80.2441 24.2188 81.2402 24.6934 82.8398 24.6875C84.4395 24.6934 85.4355 24.2188 85.4297 23.4336C85.4355 22.6426 84.4395 22.1738 82.8398 22.168C81.2402 22.1738 80.2441 22.6426 80.25 23.4336ZM83.0801 17.293C83.1738 17.5508 83.2266 17.832 83.2266 18.1367C83.2266 18.4297 83.1738 18.7051 83.0859 18.957H85.3711V17.293H83.0801ZM94.2422 19.5312V20.293H91.957V22.3438C92.9766 22.3027 94.002 22.2324 94.9688 22.1211L95.0391 22.8125C92.7305 23.1465 90.2109 23.1934 88.2188 23.1875L88.0898 22.4141C88.998 22.4141 90.0059 22.4082 91.043 22.3789V20.293H88.8867V16.0273H94.1953V16.7773H89.7891V19.5312H94.2422ZM95.6602 25.4727V15.0312H96.5742V25.4727H95.6602ZM101.988 22.0156C101.982 22.9531 102.48 23.9316 103.471 24.5059C104.473 23.8789 104.982 22.8184 104.988 22.0156V21.3828H105.891V22.0156C105.885 23.0938 106.664 24.1777 108.023 24.6289L107.543 25.3203C106.506 24.9395 105.779 24.2129 105.428 23.334C105.1 24.1836 104.461 24.9922 103.488 25.4023C102.492 25.0156 101.848 24.248 101.531 23.3691C101.156 24.207 100.441 24.9395 99.4453 25.3203L98.9883 24.6289C100.307 24.1543 101.098 23.0234 101.109 22.0156V21.3828H101.988V22.0156ZM98.5781 18.0664C98.5781 16.6367 99.7148 15.623 101.273 15.6289C102.645 15.623 103.717 16.4492 103.922 17.6562H106.113V15.0312H107.039V20.9844H106.113V18.418H103.928C103.752 19.6602 102.668 20.5039 101.273 20.5039C99.7148 20.5039 98.5781 19.502 98.5781 18.0664ZM99.4688 18.0664C99.457 19.0332 100.225 19.7363 101.273 19.7422C102.299 19.7363 103.066 19.0332 103.066 18.0664C103.066 17.0996 102.299 16.4023 101.273 16.4141C100.225 16.4023 99.457 17.0996 99.4688 18.0664ZM111.574 15.8398C112.992 15.8457 114.018 17.0645 114.158 19.0156H116.496V15.0312H117.41V25.4727H116.496V19.7773H114.17C114.07 21.8223 113.027 23.0996 111.574 23.0938C110.033 23.0996 108.955 21.6934 108.961 19.4727C108.955 17.2578 110.033 15.8457 111.574 15.8398ZM109.84 19.4727C109.846 21.166 110.549 22.2793 111.574 22.2734C112.594 22.2793 113.309 21.166 113.309 19.4727C113.309 17.7793 112.594 16.666 111.574 16.6602C110.549 16.666 109.846 17.7793 109.84 19.4727ZM128.684 23.3398V24.1133H119.145V23.3398H121.512V20.5332C120.621 20.0703 120.082 19.3203 120.082 18.3711C120.082 16.7598 121.664 15.6992 123.891 15.6875C126.117 15.6992 127.699 16.7598 127.699 18.3711C127.699 19.3027 127.178 20.041 126.316 20.5039V23.3398H128.684ZM120.973 18.3711C120.967 19.5371 122.18 20.3164 123.891 20.3164C125.584 20.3164 126.809 19.5371 126.809 18.3711C126.809 17.2051 125.584 16.4375 123.891 16.4492C122.18 16.4375 120.967 17.2051 120.973 18.3711ZM122.414 23.3398H125.391V20.8613C124.939 20.9785 124.436 21.043 123.891 21.043C123.357 21.043 122.859 20.9844 122.414 20.8672V23.3398ZM131.203 16.0156L131.121 22.1094H130.137L130.055 16.0156H131.203ZM129.879 23.8086C129.867 23.3984 130.219 23.0586 130.629 23.0586C131.045 23.0586 131.385 23.3984 131.379 23.8086C131.385 24.2246 131.045 24.5645 130.629 24.5703C130.219 24.5645 129.867 24.2246 129.879 23.8086Z" fill="white"/>
    <path d="M332 14L320 26" stroke="white" stroke-linecap="round" stroke-linejoin="round"/>
    <path d="M320 14L332 26" stroke="white" stroke-linecap="round" stroke-linejoin="round"/>
</svg>
