<svg width="54" height="97" viewBox="0 0 54 97" fill="none" xmlns="http://www.w3.org/2000/svg">
    <rect width="54" height="97" rx="8" fill="#EEF2FF"/>
    <path d="M32.6152 16.8594V31H30.9355L23.2793 19.9844H23.1426V31H21.3848V16.8594H23.084L30.7402 27.8945H30.877V16.8594H32.6152Z" fill="#9CA3AF"/>
    <rect y="49" width="54" height="48" rx="8" fill="#6366F1"/>
    <path d="M29.5684 69.9023C29.4512 68.7793 28.5625 68.125 27.127 68.125C25.6426 68.125 24.8125 68.8086 24.8027 69.7461C24.793 70.7715 25.8477 71.2305 27.0684 71.5039L28.3379 71.8164C30.7598 72.373 32.5664 73.6035 32.5762 75.957C32.5664 78.5449 30.5547 80.2051 27.1074 80.1953C23.6895 80.2051 21.5117 78.623 21.4238 75.5859H24.2754C24.373 77.0117 25.5059 77.7344 27.0684 77.7344C28.6113 77.7344 29.6074 77.0117 29.6074 75.957C29.6074 74.9902 28.7285 74.541 27.1855 74.1602L25.6426 73.7891C23.2598 73.2031 21.7949 72.0117 21.7949 69.9414C21.7852 67.373 24.0508 65.6641 27.1465 65.6641C30.2812 65.6641 32.3418 67.4023 32.3809 69.9023H29.5684Z" fill="white"/>
</svg>
