<svg width="54" height="97" viewBox="0 0 54 97" fill="none" xmlns="http://www.w3.org/2000/svg">
    <rect width="54" height="97" rx="8" fill="#EEF2FF"/>
    <path d="M28.8164 16.8594H30.5938V26.957C30.584 29.6719 29.002 31.1953 26.5312 31.1953C24.1875 31.1953 22.4883 29.8574 22.4883 27.6602H24.2266C24.2363 28.8613 25.2031 29.6328 26.5312 29.6328C27.9863 29.6328 28.8164 28.7051 28.8164 26.957V16.8594Z" fill="#9CA3AF"/>
    <rect y="49" width="54" height="48" rx="8" fill="#6366F1"/>
    <path d="M21.9609 80V65.8594H27.5078C30.7207 65.8594 32.5664 67.8418 32.5664 70.625C32.5664 73.4473 30.6914 75.3906 27.4297 75.3906H24.8906V80H21.9609ZM24.8906 73.0273H26.9609C28.6992 73.0273 29.5488 72.0508 29.5391 70.625C29.5488 69.2188 28.6992 68.2715 26.9609 68.2617H24.8906V73.0273Z" fill="white"/>
</svg>
