<svg width="350" height="48" viewBox="0 0 350 48" fill="none" xmlns="http://www.w3.org/2000/svg">
    <rect width="350" height="48" rx="12" fill="#E5E7EB"/>
    <path d="M129.922 17.3438V27.6875H128.438V24.0469H125.375V25.3594H118.922V18.2656H120.406V20.6406H123.906V18.2656H125.375V19.8281H128.438V17.3438H129.922ZM120.406 24.1562H123.906V21.7812H120.406V24.1562ZM120.781 31.0312V26.6719H122.281V29.8281H130.234V31.0312H120.781ZM125.375 22.8438H128.438V21.0469H125.375V22.8438ZM143.75 17.3438V25.625H142.266V23.9219H138.734V22.7031H142.266V21H138.883C137.977 23.25 135.875 24.8359 132.844 25.7031L132.25 24.5469C135.562 23.6016 137.5 21.8203 137.766 19.5625H132.969V18.3438H139.375C139.375 18.8594 139.32 19.3594 139.227 19.8281H142.266V17.3438H143.75ZM134.422 28.5156C134.422 26.8203 136.266 25.7891 139.141 25.7812C141.977 25.7891 143.836 26.8203 143.844 28.5156C143.836 30.2188 141.977 31.2656 139.141 31.2656C136.266 31.2656 134.422 30.2188 134.422 28.5156ZM135.891 28.5156C135.891 29.5 137.141 30.0703 139.141 30.0781C141.102 30.0703 142.352 29.5 142.359 28.5156C142.352 27.5156 141.102 26.9453 139.141 26.9531C137.141 26.9453 135.891 27.5156 135.891 28.5156ZM150.766 20.8906C150.75 23.3672 152.195 25.9062 154.281 26.9219L153.359 28.1094C151.836 27.3125 150.656 25.75 150.039 23.8828C149.414 25.8672 148.188 27.5469 146.594 28.375L145.672 27.1719C147.82 26.1406 149.273 23.4531 149.281 20.8906V18.5H150.766V20.8906ZM155.328 31.3281V17.3281H156.812V22.9062H159.062V24.1719H156.812V31.3281H155.328ZM170.734 17.3281V21.125H172.766V22.375H170.734V26.3125H169.25V17.3281H170.734ZM159.75 20V18.8281H163.188V17.2188H164.672V18.8281H168.094V20H159.75ZM160.516 23.1406C160.508 21.6328 161.883 20.6484 163.922 20.6406C165.938 20.6484 167.312 21.6328 167.312 23.1406C167.312 24.6406 165.938 25.6172 163.922 25.6094C161.883 25.6172 160.508 24.6406 160.516 23.1406ZM161.625 28.875C161.609 27.3281 163.375 26.4219 166.266 26.4219C169.117 26.4219 170.891 27.3281 170.891 28.875C170.891 30.3984 169.117 31.3047 166.266 31.2969C163.375 31.3047 161.609 30.3984 161.625 28.875ZM161.953 23.1406C161.938 23.9688 162.734 24.4844 163.922 24.4844C165.109 24.4844 165.906 23.9688 165.922 23.1406C165.906 22.2891 165.109 21.75 163.922 21.75C162.734 21.75 161.938 22.2891 161.953 23.1406ZM163.094 28.875C163.086 29.6953 164.25 30.1719 166.266 30.1719C168.25 30.1719 169.414 29.6953 169.422 28.875C169.414 28.0234 168.25 27.5703 166.266 27.5625C164.25 27.5703 163.086 28.0234 163.094 28.875ZM189.156 17.3281V31.3594H187.672V23.5781H184.781V22.3594H187.672V17.3281H189.156ZM177.312 27.4531C179.453 26.4297 180.961 23.7812 180.969 21.2656V19.9531H177.875V18.7344H185.578V19.9531H182.469V21.2656C182.469 23.6328 183.961 26.1875 186.109 27.1406L185.219 28.3281C183.602 27.5469 182.359 25.9141 181.734 24.0078C181.109 26.0391 179.836 27.7812 178.219 28.6094L177.312 27.4531ZM196.188 19.9062C196.18 21.6875 197.422 23.3125 199.547 23.9844L198.844 25.1406C197.25 24.6328 196.086 23.5781 195.469 22.25C194.859 23.7812 193.633 24.9922 191.953 25.5781L191.188 24.3906C193.375 23.6719 194.695 21.8672 194.703 19.9219V19.5312H191.625V18.3281H199.203V19.5312H196.188V19.9062ZM193.078 28.6719C193.078 27.0312 194.867 26.0703 197.781 26.0781C200.664 26.0703 202.422 27.0312 202.422 28.6719C202.422 30.3359 200.664 31.3047 197.781 31.2969C194.867 31.3047 193.078 30.3359 193.078 28.6719ZM194.562 28.6719C194.555 29.6094 195.758 30.1328 197.781 30.125C199.789 30.1328 200.977 29.6094 200.969 28.6719C200.977 27.7578 199.789 27.2422 197.781 27.25C195.758 27.2422 194.555 27.7578 194.562 28.6719ZM200.812 25.7344V17.3281H202.297V20.7969H204.328V22.0156H202.297V25.7344H200.812ZM216.031 17.3281V23H218.281V24.2344H216.031V31.3281H214.562V17.3281H216.031ZM205.047 20.7344V19.5156H208.5V17.5156H209.984V19.5156H213.344V20.7344H205.047ZM205.766 25.0156C205.766 23.1094 207.234 21.7656 209.25 21.7656C211.258 21.7656 212.727 23.1094 212.734 25.0156C212.727 26.9375 211.258 28.2734 209.25 28.2812C207.234 28.2734 205.766 26.9375 205.766 25.0156ZM207.188 25.0156C207.18 26.2344 208.055 27.0469 209.25 27.0312C210.438 27.0469 211.305 26.2344 211.312 25.0156C211.305 23.8203 210.438 22.9922 209.25 22.9844C208.055 22.9922 207.18 23.8203 207.188 25.0156ZM230.594 17.3281V31.3281H229.094V17.3281H230.594ZM219.094 27.5781C222.812 25.8047 224.633 23.2812 224.922 20.0156H219.766V18.8281H226.422C226.422 22.9297 224.68 26.4766 219.875 28.7812L219.094 27.5781Z" fill="#9CA3AF"/>
</svg>
