<svg width="350" height="48" viewBox="0 0 350 48" fill="none" xmlns="http://www.w3.org/2000/svg">
    <rect width="350" height="48" rx="12" fill="#9398FF"/>
    <path d="M129.922 17.3438V27.6875H128.438V24.0469H125.375V25.3594H118.922V18.2656H120.406V20.6406H123.906V18.2656H125.375V19.8281H128.438V17.3438H129.922ZM130.234 29.8281V31.0312H120.781V26.6719H122.281V29.8281H130.234ZM120.406 24.1562H123.906V21.7812H120.406V24.1562ZM125.375 22.8438H128.438V21.0469H125.375V22.8438ZM143.75 17.3438V25.625H142.266V23.9219H138.734V22.7031H142.266V21H138.875C137.977 23.25 135.875 24.8359 132.844 25.7031L132.25 24.5469C135.562 23.5938 137.5 21.8203 137.766 19.5625H132.969V18.3438H139.375C139.375 18.8594 139.32 19.3594 139.234 19.8281H142.266V17.3438H143.75ZM139.141 25.7812C141.969 25.7812 143.828 26.8125 143.844 28.5156C143.828 30.2188 141.969 31.2656 139.141 31.2656C136.266 31.2656 134.422 30.2188 134.422 28.5156C134.422 26.8125 136.266 25.7812 139.141 25.7812ZM139.141 26.9531C137.141 26.9531 135.891 27.5156 135.891 28.5156C135.891 29.5 137.141 30.0781 139.141 30.0781C141.109 30.0781 142.344 29.5 142.359 28.5156C142.344 27.5156 141.109 26.9531 139.141 26.9531ZM150.766 20.8906C150.75 23.375 152.188 25.9062 154.281 26.9219L153.359 28.1094C151.836 27.3203 150.656 25.75 150.047 23.875C149.414 25.875 148.188 27.5469 146.594 28.375L145.672 27.1719C147.828 26.1406 149.281 23.4531 149.281 20.8906V18.5H150.766V20.8906ZM156.812 17.3281V22.9062H159.062V24.1719H156.812V31.3281H155.328V17.3281H156.812ZM170.734 17.3281V21.125H172.766V22.375H170.734V26.3125H169.25V17.3281H170.734ZM166.266 26.4219C169.125 26.4219 170.891 27.3281 170.891 28.875C170.891 30.3906 169.125 31.3125 166.266 31.2969C163.375 31.3125 161.609 30.3906 161.625 28.875C161.609 27.3281 163.375 26.4219 166.266 26.4219ZM166.266 27.5625C164.25 27.5625 163.078 28.0156 163.094 28.875C163.078 29.6875 164.25 30.1719 166.266 30.1719C168.25 30.1719 169.422 29.6875 169.422 28.875C169.422 28.0156 168.25 27.5625 166.266 27.5625ZM168.094 18.8281V20H159.75V18.8281H163.188V17.2188H164.672V18.8281H168.094ZM163.922 20.6406C165.938 20.6406 167.312 21.6406 167.312 23.1406C167.312 24.6406 165.938 25.625 163.922 25.6094C161.875 25.625 160.516 24.6406 160.516 23.1406C160.516 21.6406 161.875 20.6406 163.922 20.6406ZM163.922 21.75C162.734 21.75 161.938 22.2812 161.953 23.1406C161.938 23.9688 162.734 24.4844 163.922 24.4844C165.109 24.4844 165.906 23.9688 165.922 23.1406C165.906 22.2812 165.109 21.75 163.922 21.75ZM189.156 17.3281V31.3594H187.672V23.5781H184.781V22.3594H187.672V17.3281H189.156ZM182.469 21.2656C182.469 23.6406 183.953 26.1875 186.109 27.1406L185.219 28.3281C183.602 27.5469 182.352 25.9141 181.734 24C181.109 26.0391 179.836 27.7812 178.219 28.6094L177.312 27.4531C179.453 26.4375 180.953 23.7812 180.969 21.2656V19.9531H177.875V18.7344H185.578V19.9531H182.469V21.2656ZM196.188 19.9062C196.188 21.6875 197.422 23.3125 199.547 23.9844L198.844 25.1406C197.25 24.6328 196.086 23.5781 195.469 22.25C194.859 23.7812 193.633 24.9922 191.953 25.5781L191.188 24.3906C193.375 23.6719 194.688 21.8594 194.703 19.9219V19.5312H191.625V18.3281H199.203V19.5312H196.188V19.9062ZM202.297 17.3281V20.7969H204.328V22.0156H202.297V25.7344H200.812V17.3281H202.297ZM197.781 26.0781C200.672 26.0781 202.422 27.0312 202.422 28.6719C202.422 30.3281 200.672 31.3125 197.781 31.2969C194.859 31.3125 193.078 30.3281 193.078 28.6719C193.078 27.0312 194.859 26.0781 197.781 26.0781ZM197.781 27.25C195.75 27.25 194.547 27.7656 194.562 28.6719C194.547 29.6094 195.75 30.125 197.781 30.125C199.797 30.125 200.969 29.6094 200.969 28.6719C200.969 27.7656 199.797 27.25 197.781 27.25ZM216.031 17.3281V23H218.281V24.2344H216.031V31.3281H214.562V17.3281H216.031ZM213.344 19.5156V20.7344H205.047V19.5156H208.5V17.5156H209.984V19.5156H213.344ZM209.25 21.7656C211.25 21.7656 212.719 23.1094 212.734 25.0156C212.719 26.9375 211.25 28.2656 209.25 28.2812C207.234 28.2656 205.766 26.9375 205.766 25.0156C205.766 23.1094 207.234 21.7656 209.25 21.7656ZM209.25 22.9844C208.062 22.9844 207.172 23.8125 207.188 25.0156C207.172 26.2344 208.062 27.0469 209.25 27.0312C210.438 27.0469 211.312 26.2344 211.312 25.0156C211.312 23.8125 210.438 22.9844 209.25 22.9844ZM230.594 17.3281V31.3281H229.094V17.3281H230.594ZM226.422 18.8281C226.422 22.9219 224.672 26.4844 219.875 28.7812L219.094 27.5781C222.82 25.8047 224.633 23.2812 224.922 20.0156H219.766V18.8281H226.422Z" fill="white"/>
</svg>
