<svg width="124" height="31" viewBox="0 0 124 31" fill="none" xmlns="http://www.w3.org/2000/svg">
    <rect width="124" height="31" rx="8" fill="white"/>
    <path d="M45.9609 18.8281V19.6133H36.4219V18.8281H45.9609ZM45.0469 11.5859V12.3477H43.3945V15.9922H45.0234V16.7422H37.2891V15.9922H38.918V12.3477H37.2656V11.5859H45.0469ZM39.832 15.9922H42.4922V12.3477H39.832V15.9922ZM56.332 18.8867V19.6602H46.793V18.8867H51.082V16.918H47.9883V13.707H54.2227V12.0664H47.9648V11.3047H55.125V14.457H48.9023V16.1562H55.3711V16.918H51.9844V18.8867H56.332ZM65.7773 10.5312V15.9453H64.8516V10.5312H65.7773ZM65.7773 16.4492V18.9336H59.8945V20.082H66.1758V20.832H58.9922V18.2422H64.8633V17.1875H58.957V16.4492H65.7773ZM63.2695 11.2461V11.9844H62.2148V14.6445C62.7539 14.6152 63.2871 14.5625 63.7852 14.5039L63.832 15.1836C61.7461 15.4883 59.2969 15.5703 57.457 15.5703L57.3398 14.8086C57.7559 14.8086 58.207 14.8086 58.6758 14.7969V11.9844H57.6328V11.2461H63.2695ZM59.5664 14.7734C60.1406 14.7617 60.7324 14.7441 61.3242 14.7031V11.9844H59.5664V14.7734ZM79.1836 10.5312V18.2891H78.2578V15.2656H76.4766V14.4922H78.2578V13.2852H76.4766V12.5234H78.2578V10.5312H79.1836ZM76.3945 11.3867V12.1367H75.3281V15.7812C75.8145 15.752 76.2832 15.7168 76.7344 15.6641L76.7812 16.3555C74.7539 16.6719 72.375 16.707 70.6875 16.707L70.5703 15.9219C70.9863 15.9219 71.4375 15.916 71.918 15.9102V12.1367H70.8633V11.3867H76.3945ZM79.4648 19.9531V20.7266H72.4688V17.6445H73.3945V19.9531H79.4648ZM72.8086 15.8867C73.3418 15.8809 73.8926 15.8633 74.4375 15.8398V12.1367H72.8086V15.8867ZM84.668 12.2539C84.668 13.6133 85.8047 14.8203 87.3516 15.2891L86.8828 16.0156C85.6641 15.6289 84.6855 14.791 84.2109 13.7188C83.7539 14.8672 82.7695 15.7637 81.5273 16.1914L81.0469 15.4648C82.6172 14.9727 83.7422 13.6836 83.7422 12.2539V11.9844H81.3047V11.2344H87.0703V11.9844H84.668V12.2539ZM89.5195 10.5312V16.168H88.6055V10.5312H89.5195ZM83.6836 16.6836V17.9492H88.6055V16.6836H89.5195V20.8086H82.7695V16.6836H83.6836ZM83.6836 20.0586H88.6055V18.6875H83.6836V20.0586ZM99.3516 10.5312V14.832H101.098V15.5938H99.3516V20.9492H98.4375V10.5312H99.3516ZM97.4297 12.207V12.9688H91.2305V12.207H93.9141V10.6602H94.8281V12.207H97.4297ZM94.3828 13.8359C95.8594 13.8359 96.9258 14.8203 96.9375 16.2266C96.9258 17.6328 95.8594 18.6172 94.3828 18.6172C92.8945 18.6172 91.8164 17.6328 91.8281 16.2266C91.8164 14.8203 92.8945 13.8359 94.3828 13.8359ZM94.3828 14.6094C93.4102 14.6094 92.6953 15.2891 92.707 16.2266C92.6953 17.1758 93.4102 17.8438 94.3828 17.832C95.3438 17.8438 96.0469 17.1758 96.0586 16.2266C96.0469 15.2891 95.3438 14.6094 94.3828 14.6094ZM110.273 10.5312V20.9492H109.348V10.5312H110.273ZM107.191 11.668C107.18 14.668 105.785 17.3164 102.293 18.9922L101.789 18.2422C104.607 16.9062 106.043 14.9082 106.254 12.418H102.27V11.668H107.191Z" fill="#6366F1"/>
    <path d="M22.167 8.49999C22.3859 8.28112 22.6457 8.1075 22.9317 7.98905C23.2176 7.8706 23.5241 7.80963 23.8337 7.80963C24.1432 7.80963 24.4497 7.8706 24.7357 7.98905C25.0216 8.1075 25.2815 8.28112 25.5003 8.49999C25.7192 8.71886 25.8928 8.97869 26.0113 9.26466C26.1297 9.55063 26.1907 9.85713 26.1907 10.1667C26.1907 10.4762 26.1297 10.7827 26.0113 11.0686C25.8928 11.3546 25.7192 11.6145 25.5003 11.8333L14.2503 23.0833L9.66699 24.3333L10.917 19.75L22.167 8.49999Z" fill="#6366F1"/>
</svg>
