<svg width="28" height="28" viewBox="0 0 28 28" fill="none" xmlns="http://www.w3.org/2000/svg">
<circle cx="14" cy="14" r="14" fill="url(#paint0_linear_214_57276)"/>
<path d="M10.7165 16.6827C10.3988 17.0105 10.0783 17.2787 9.7601 17.4959C10.4198 17.943 11.2641 18.3357 12.1885 18.3357C12.8935 18.3357 13.7519 18.0938 14.5093 17.6612C14.1973 17.419 13.9107 17.0945 13.5935 16.6827C12.697 15.5185 13.0627 13.6307 14.499 13.4746C15.9353 13.3184 16.4866 14.3236 16.3833 15.2134C16.2614 16.2645 15.4659 17.1149 14.5093 17.6612C15.1496 18.1582 15.8968 18.3086 17.2342 18.1563C17.8778 18.083 18.6988 17.1903 19.4469 16.004C19.2015 14.1729 19.6637 9.29866 20.8917 9.51647C22.2562 9.75849 21.0111 13.5233 19.4469 16.004C18.6988 17.1903 17.8778 18.083 17.2342 18.1563C15.8968 18.3086 15.1496 18.1582 14.5093 17.6612C13.7519 18.0938 12.8935 18.3357 12.1885 18.3357C11.2641 18.3357 10.4198 17.943 9.7601 17.4959C9.13692 17.0736 8.67847 16.6028 8.47291 16.3687C7.72296 15.5145 8.07753 13.9871 9.22227 13.4746C10.5688 12.8717 12.7154 14.6203 10.7165 16.6827Z" fill="url(#paint1_linear_214_57276)"/>
<path d="M5.196 9.51647C4.57002 11.3105 4.22657 13.8995 4.22656 15.0161C4.22656 16.2244 4.57002 16.6827 5.19599 17.5368C5.69241 18.2142 8.28625 19.1902 10.7165 16.6827C12.7154 14.6203 10.5688 12.8717 9.22227 13.4746C8.07753 13.9871 7.72296 15.5145 8.47291 16.3687C8.89608 16.8506 10.391 18.3357 12.1885 18.3357C13.784 18.3357 16.1648 17.0967 16.3833 15.2134C16.4866 14.3236 15.9353 13.3184 14.499 13.4746C13.0627 13.6307 12.697 15.5185 13.5935 16.6827C14.5614 17.9397 15.245 18.3829 17.2342 18.1563C19.2234 17.9298 22.9088 9.87423 20.8917 9.51647C19.3984 9.25161 19.0376 16.516 19.7043 16.6827C20.2376 16.816 20.975 14.7662 22.6832 15.0161C23.1554 15.2939 22.8272 15.6036 21.694 15.8703C20.2774 16.2036 20.0376 16.7865 20.0376 17.391C20.0376 18.6617 23.9748 18.5159 24.3915 17.3077" stroke="white" stroke-width="0.811802" stroke-linecap="round"/>
<defs>
<linearGradient id="paint0_linear_214_57276" x1="23.7288" y1="1.89831" x2="14" y2="28" gradientUnits="userSpaceOnUse">
<stop stop-color="#A78BFA"/>
<stop offset="1" stop-color="#A5B4FC"/>
</linearGradient>
<linearGradient id="paint1_linear_214_57276" x1="21.3155" y1="10.1078" x2="19.8263" y2="19.2358" gradientUnits="userSpaceOnUse">
<stop stop-color="#A78BFA"/>
<stop offset="1" stop-color="#A5B4FC"/>
</linearGradient>
</defs>
</svg>
