<svg width="36" height="36" viewBox="0 0 36 36" fill="none" xmlns="http://www.w3.org/2000/svg">
    <path d="M15.087 24.8557L13.359 21.2627C12.931 21.4957 11.102 22.5157 10.009 23.4997C9.374 24.0717 9.46 24.5017 9.649 25.4437L9.666 25.5287C9.855 26.4807 11.871 32.8797 12.136 33.7157L13.481 33.3817C13.492 32.9357 13.538 30.6147 13.305 29.1487C13.232 28.6857 13.158 28.1237 13.091 27.6267C13.02 27.0837 12.957 26.6147 12.911 26.3787C12.847 26.0447 12.944 25.8487 13.248 25.7017C14.11 25.2857 14.834 24.9667 15.087 24.8557ZM23.808 26.6727C23.262 26.6057 22.789 26.5467 22.55 26.5317C22.211 26.5107 22.046 26.3667 21.98 26.0357C21.792 25.0967 21.667 24.3147 21.624 24.0427L17.712 24.8097C17.83 25.2827 18.356 27.3097 19.034 28.6157C19.427 29.3727 19.865 29.3977 20.824 29.4537L20.911 29.4587C21.886 29.5157 28.58 29.1747 29.456 29.1297L29.471 27.7447C29.041 27.6207 26.808 26.9927 25.329 26.8487C24.864 26.8037 24.303 26.7337 23.808 26.6727Z" fill="#FFDC5D"/>
    <path d="M27.805 29.6824L27.627 29.3544C27.605 29.3014 27.631 29.2414 27.685 29.2224C27.856 29.1634 28.203 29.0054 28.324 28.9414C28.219 29.1814 28.099 29.5654 27.965 29.6814C27.913 29.7244 27.831 29.7444 27.805 29.6824Z" fill="#8899A6"/>
    <path d="M30.398 27.1385C30.259 27.0275 29.941 26.9725 29.741 26.9535C29.603 26.9405 29.243 26.9295 28.942 26.9455C28.806 26.9535 28.651 26.9695 28.587 26.9885C28.389 27.0455 28.302 27.1295 28.255 27.1865C28.198 27.2555 28.193 27.3305 28.206 27.3675C28.258 27.5205 28.51 27.7855 28.62 28.0375C28.657 28.1215 28.678 28.2035 28.67 28.2805C28.643 28.5565 28.291 28.9585 28.027 29.2565C27.869 29.4355 27.742 29.5765 27.737 29.6315C27.731 29.6905 27.748 29.7405 27.774 29.7895V29.7915C27.846 29.9235 28.003 30.0605 28.111 30.4205C28.18 30.6525 28.506 31.7115 28.506 31.7115C28.584 31.9815 28.688 32.0475 28.732 32.1925C28.823 32.4895 28.983 33.2864 29.063 33.5384C29.143 33.7904 29.334 33.8984 29.481 33.9194C29.628 33.9404 29.713 33.9054 29.713 33.9054C29.713 33.9054 30.058 33.7505 30.287 32.4565C30.452 31.5215 30.306 31.3775 30.182 29.9735C30.058 28.5695 30.398 27.1385 30.398 27.1385Z" fill="#1C6399"/>
    <path d="M30.109 29.2255C29.874 29.1295 29.338 28.7755 29.187 28.3945C29.051 28.0505 28.958 27.1215 28.941 26.9455C29.229 26.9195 29.672 26.9385 29.814 26.9525C30.002 26.9705 30.218 26.9855 30.348 27.0955L30.398 27.1385C30.398 27.1375 30.169 28.6115 30.109 29.2255Z" fill="#3B94D9"/>
    <path d="M28.048 30.2698C27.975 30.2698 27.906 30.2288 27.873 30.1588C27.827 30.0618 27.868 29.9458 27.965 29.9008L28.307 29.7388C28.404 29.6928 28.519 29.7338 28.566 29.8308C28.612 29.9278 28.571 30.0438 28.474 30.0888L28.132 30.2508C28.104 30.2638 28.076 30.2698 28.048 30.2698ZM28.266 30.8948C28.184 30.8948 28.108 30.8418 28.081 30.7598C28.049 30.6578 28.105 30.5488 28.207 30.5158L28.587 30.3948C28.684 30.3618 28.797 30.4178 28.83 30.5208C28.862 30.6228 28.806 30.7318 28.704 30.7648L28.324 30.8858C28.306 30.8928 28.286 30.8948 28.266 30.8948ZM28.45 31.5318C28.359 31.5318 28.279 31.4688 28.26 31.3768C28.239 31.2718 28.306 31.1698 28.412 31.1478L28.768 31.0758C28.879 31.0528 28.975 31.1228 28.997 31.2278C29.018 31.3328 28.951 31.4348 28.845 31.4568L28.489 31.5288L28.45 31.5318ZM31.226 27.4018C31.22 27.3738 31.199 27.2648 31.125 27.1318C31.1 27.0868 31.043 27.0728 30.985 27.0658C30.913 27.0568 30.385 26.9808 30.375 27.0878C30.375 27.0878 30.372 27.2468 30.298 27.3558C30.223 27.4648 30.171 27.7328 30.152 27.9328C30.133 28.1318 30.047 28.8838 30.067 29.4108C30.087 29.9388 30.25 30.8928 30.257 31.2108C30.265 31.5288 30.257 32.0248 30.189 32.3908C30.121 32.7568 30.049 33.0828 29.993 33.2838C29.921 33.5428 29.825 33.7548 29.714 33.9028C29.714 33.9028 30.131 33.8748 30.45 33.2578C30.702 32.7708 30.843 32.3028 30.896 31.8468C30.9 31.8118 31.009 30.5948 31.061 29.9868C31.099 29.5418 31.163 28.8318 31.163 28.8318C31.244 27.9908 31.263 27.5628 31.226 27.4018Z" fill="#CCD6DD"/>
    <path d="M11.211 32.283L11.48 32.024C11.525 31.988 11.59 31.997 11.623 32.045C11.725 32.194 11.971 32.486 12.064 32.586C11.804 32.549 11.403 32.535 11.255 32.437C11.199 32.399 11.159 32.325 11.211 32.283Z" fill="#8899A6"/>
    <path d="M14.355 34.1042C14.425 33.9412 14.393 33.6192 14.358 33.4212C14.334 33.2852 14.249 32.9352 14.152 32.6492C14.109 32.5202 14.051 32.3752 14.016 32.3192C13.908 32.1432 13.804 32.0822 13.736 32.0522C13.654 32.0162 13.581 32.0302 13.548 32.0532C13.414 32.1442 13.226 32.4582 13.013 32.6312C12.942 32.6892 12.869 32.7312 12.793 32.7442C12.52 32.7922 12.038 32.5602 11.681 32.3852C11.467 32.2802 11.296 32.1962 11.243 32.2052C11.184 32.2152 11.141 32.2442 11.1 32.2832L11.098 32.2842H11.099C10.991 32.3882 10.9 32.5772 10.583 32.7762C10.377 32.9042 9.443 33.5002 9.443 33.5002C9.203 33.6472 9.168 33.7652 9.04 33.8462C8.778 34.0132 8.053 34.3802 7.831 34.5242C7.609 34.6682 7.556 34.8812 7.576 35.0292C7.596 35.1772 7.652 35.2492 7.652 35.2492C7.652 35.2492 7.894 35.5402 9.201 35.4152C10.146 35.3252 10.246 35.1462 11.566 34.6522C12.886 34.1592 14.355 34.1042 14.355 34.1042Z" fill="#1C6399"/>
    <path d="M12.266 34.3824C12.296 34.1304 12.494 33.5194 12.821 33.2724C13.116 33.0504 13.987 32.7124 14.152 32.6484C14.254 32.9194 14.354 33.3514 14.378 33.4914C14.411 33.6774 14.454 33.8894 14.382 34.0444L14.354 34.1034C14.355 34.1044 12.873 34.2764 12.266 34.3824Z" fill="#3B94D9"/>
    <path d="M11.144 33.1029C11.09 33.1029 11.035 33.0799 10.997 33.0359L10.75 32.7489C10.68 32.6679 10.689 32.5449 10.77 32.4749C10.851 32.4049 10.975 32.4139 11.044 32.4949L11.291 32.7819C11.361 32.8629 11.352 32.9859 11.271 33.0559C11.233 33.0879 11.188 33.1029 11.144 33.1029ZM10.569 33.5279C10.506 33.5279 10.444 33.4969 10.406 33.4399L10.188 33.1059C10.13 33.0159 10.155 32.8959 10.245 32.8369C10.335 32.7789 10.454 32.8029 10.514 32.8929L10.732 33.2269C10.79 33.3169 10.765 33.4369 10.675 33.4959C10.642 33.5179 10.606 33.5279 10.569 33.5279ZM9.952 33.8649C9.882 33.8649 9.814 33.8259 9.779 33.7589L9.614 33.4349C9.566 33.3399 9.604 33.2229 9.699 33.1739C9.794 33.1249 9.91 33.1629 9.96 33.2589L10.125 33.5829C10.173 33.6789 10.135 33.7949 10.04 33.8439C10.012 33.8589 9.981 33.8649 9.952 33.8649ZM14.321 34.9729C14.347 34.9589 14.446 34.9109 14.555 34.8029C14.591 34.7669 14.59 34.7079 14.581 34.6499C14.571 34.5779 14.503 34.0489 14.397 34.0679C14.397 34.0679 14.243 34.1079 14.118 34.0649C13.993 34.0219 13.72 34.0439 13.523 34.0779C13.326 34.1129 12.579 34.2299 12.076 34.3899C11.573 34.5499 10.697 34.9609 10.392 35.0539C10.087 35.1459 9.608 35.2709 9.236 35.3029C8.865 35.3349 8.531 35.3529 8.323 35.3519C8.054 35.3519 7.825 35.3159 7.652 35.2489C7.652 35.2489 7.79 35.6429 8.47 35.7859C9.007 35.8989 9.495 35.9099 9.949 35.8389C9.983 35.8339 11.186 35.6139 11.785 35.5019C12.224 35.4199 12.925 35.2919 12.925 35.2919C13.758 35.1459 14.175 35.0509 14.321 34.9729Z" fill="#CCD6DD"/>
    <path d="M12.654 21.2438C13.405 20.8458 15.889 19.5908 17.601 19.4398C17.757 19.4258 17.899 19.5278 17.953 19.6748L19.281 23.3098C19.349 23.4958 19.254 23.7008 19.065 23.7608C18.284 24.0108 16.325 24.6758 14.845 25.4798C14.688 25.5648 14.498 25.5208 14.397 25.3738C13.941 24.7098 12.755 22.8968 12.474 21.6138C12.442 21.4638 12.519 21.3158 12.654 21.2438Z" fill="#1C6399"/>
    <path d="M17.514 25.4884C17.318 24.6614 16.729 21.9414 17.013 20.2464C17.039 20.0914 17.173 19.9804 17.329 19.9654L21.182 19.5954C21.38 19.5764 21.553 19.7204 21.564 19.9184C21.61 20.7364 21.76 22.8004 22.165 24.4354C22.208 24.6084 22.117 24.7814 21.949 24.8424C21.191 25.1164 19.138 25.8074 17.826 25.7564C17.673 25.7494 17.55 25.6384 17.514 25.4884Z" fill="#357BAA"/>
    <path d="M15.015 10.6178C14.93 11.2298 15.065 12.1638 16.481 12.4048C17.897 12.6458 19.293 12.4638 19.892 12.2968C20.491 12.1298 20.461 13.1808 20.639 14.1688C20.818 15.1608 20.94 15.9368 20.891 16.1418C20.809 16.4888 20.082 17.1528 20.374 17.7538C20.666 18.3548 21.131 18.9328 21.706 18.7158C22.281 18.4988 22.756 18.2408 22.909 17.9188C23.062 17.5968 22.384 16.6238 22.357 16.3448C22.33 16.0668 22.584 12.4568 22.551 12.0468C22.511 11.5458 22.473 10.8598 21.655 10.5768C20.837 10.2928 17.561 9.65676 16.74 9.49776C15.798 9.31276 15.128 9.80676 15.015 10.6178Z" fill="#FFDC5D"/>
    <path d="M16.217 6.2407C16.502 5.8447 16.715 5.3827 16.806 4.8167C17.132 2.7957 15.906 0.916703 14.068 0.620703C12.23 0.324703 9.781 1.7607 9.906 3.8047C10.031 5.8337 11.262 8.7907 12.946 8.2277C13.39 8.0787 13.835 7.9167 14.256 7.7257C14.446 7.9347 14.605 8.7567 14.554 9.4677C14.423 11.2777 16.917 11.3807 17.046 9.5677C17.15 8.1327 16.227 7.2557 16.217 6.2407Z" fill="#FFDC5D"/>
    <path d="M10.637 1.20582C13.067 -0.400175 14.736 -0.192175 16.151 0.879825C17.556 1.94482 17.677 4.02782 17.329 5.36482C16.981 6.70282 16.593 6.63982 16.593 6.63982C16.593 6.63982 14.769 7.10482 14.588 5.40682C14.531 4.86982 15.122 4.56382 14.45 3.79182C14.018 3.29482 13.092 3.57282 13.106 4.30582C13.121 5.03782 12.743 4.91082 12.743 4.91082L11.59 3.00082C11.59 3.00082 10.639 2.97082 10.134 3.85682C9.817 4.41182 8.514 2.60882 10.637 1.20582Z" fill="#FFAC33"/>
    <path d="M19.459 10.0571C18.689 8.41306 17.475 7.57806 16.075 8.10006C11.694 9.73506 13.715 13.7801 15.294 20.3521C15.294 20.3521 18.403 20.8011 21.61 20.7121C21.61 20.7131 21.312 14.0141 19.459 10.0571Z" fill="#4289C1"/>
    <path d="M16.94 10.2676C16.363 9.92257 15.369 9.66257 14.527 10.9796C13.685 12.2966 13.276 13.7736 13.189 14.4456C13.102 15.1176 12.062 14.6416 10.995 14.4006C9.925 14.1586 8.566 13.7466 8.381 13.6106C8.068 13.3816 8.182 12.7366 7.456 12.7736C6.73 12.8106 6.373 12.7266 6.346 13.3956C6.32 14.0646 6.311 14.7346 6.568 15.0246C6.826 15.3146 7.695 15.0646 8.084 15.2016C8.371 15.3026 11.887 17.0776 12.312 17.2186C12.831 17.3906 13.535 17.6436 14.166 16.9436C14.797 16.2436 16.824 13.2296 17.333 12.4736C17.917 11.6066 17.706 10.7256 16.94 10.2676Z" fill="#FFDC5D"/>
</svg>
