<svg width="350" height="155" viewBox="0 0 350 155" fill="none" xmlns="http://www.w3.org/2000/svg">
    <rect width="350" height="155" rx="12" fill="white"/>
    <path d="M29.957 22.6211V32.1133H27.7246V28.334H25.2285V26.5234H27.7246V22.6211H29.957ZM16.3691 30.3555C18.9883 29.4766 20.1836 27.3848 20.2363 25.3809H17.0195V23.5879H25.7031V25.3809H22.5215C22.5654 27.2441 23.708 29.125 26.1953 29.9512L25.0879 31.709C23.3301 31.1377 22.1084 29.9775 21.4141 28.5449C20.7109 30.1709 19.4277 31.4805 17.5293 32.1309L16.3691 30.3555ZM18.9883 35.5586C18.9883 33.6162 21.0801 32.4736 24.4902 32.4648C27.9092 32.4736 30.001 33.6162 30.0098 35.5586C30.001 37.501 27.9092 38.6348 24.4902 38.6348C21.0801 38.6348 18.9883 37.501 18.9883 35.5586ZM21.2207 35.5586C21.2207 36.4727 22.3721 36.9297 24.4902 36.9297C26.6172 36.9297 27.7686 36.4727 27.7773 35.5586C27.7686 34.6357 26.6172 34.1787 24.4902 34.1875C22.3721 34.1787 21.2207 34.6357 21.2207 35.5586ZM44.7227 22.6211V25.7148H46.8848V27.5605H44.7227V30.6191H42.4727V22.6211H44.7227ZM32.5059 30.0215V23.377H40.1875V30.0215H32.5059ZM34.1055 32.9746V31.252H44.7227V35.6113H36.3379V36.6836H45.1797V38.4414H34.1406V33.9941H42.4902V32.9746H34.1055ZM34.7207 28.2461H37.9727V25.1348H34.7207V28.2461ZM59.8926 23.2539V25.0293H54.6016V26.0312H59.5586V27.7188H54.6016V28.8262C57.2822 28.8086 58.917 28.7471 60.8594 28.4746L61.0527 30.1973C58.8818 30.54 56.9746 30.584 53.6699 30.584H52.334V23.2539H59.8926ZM53.8105 33.2383V31.498H64.4277V35.7695H56.043V36.7891H64.8848V38.5117H53.8457V34.1523H62.1953V33.2383H53.8105ZM62.1777 30.8477V22.6211H64.4277V25.7676H66.5898V27.5781H64.4277V30.8477H62.1777ZM76.873 29.9863V31.7441H73.709V33.748C75.0273 33.6689 76.3457 33.5547 77.5938 33.3789L77.7695 34.9961C74.2188 35.6992 70.4219 35.6992 67.627 35.7344L67.3633 33.9062C68.5674 33.9062 69.9824 33.8975 71.4766 33.8447V31.7441H68.4883V23.9219H76.8203V25.7148H70.7559V26.9805H76.5039V28.6855H70.7559V29.9863H76.873ZM78.5078 38.6523V22.6211H80.7402V38.6523H78.5078ZM95.4707 22.6211V28.8789H97.8262V30.7246H95.4707V38.6172H93.2559V22.6211H95.4707ZM82.7617 26.8047V25.0117H86.3828V22.8672H88.6328V25.0117H92.166V26.8047H82.7617ZM83.4121 31.5156C83.4033 29.2832 85.1436 27.6924 87.5078 27.7012C89.8369 27.6924 91.5859 29.2832 91.5859 31.5156C91.5859 33.748 89.8369 35.3213 87.5078 35.3301C85.1436 35.3213 83.4033 33.748 83.4121 31.5156ZM85.5566 31.5156C85.5566 32.7549 86.374 33.4932 87.5078 33.4844C88.624 33.4932 89.4414 32.7549 89.4414 31.5156C89.4414 30.2852 88.624 29.5293 87.5078 29.5117C86.374 29.5293 85.5566 30.2852 85.5566 31.5156ZM104.629 26.2422C104.62 29.1777 105.956 32.1221 108.672 33.2734L107.354 35.0664C105.525 34.2402 104.26 32.6406 103.53 30.6631C102.81 32.8252 101.5 34.5654 99.5488 35.4531L98.1953 33.5898C100.99 32.4121 102.353 29.3447 102.361 26.2422V23.8516H104.629V26.2422ZM109.533 38.6523V22.6211H111.801V38.6523H109.533ZM121.047 23.7285C121.047 24.8535 120.906 25.873 120.607 26.8047H122.277V22.9375H124.387V31.5156H122.277V28.5801H119.772C118.797 30.0918 117.25 31.2783 115.07 32.1836L113.98 30.5312C116.916 29.3887 118.375 27.7451 118.709 25.5215H114.789V23.7285H121.047ZM114.684 36.8594C116.802 36.1475 117.733 34.5303 117.742 32.9746V32.2188H119.869V32.9746C119.869 34.2578 120.414 35.585 121.706 36.4727C123.024 35.5234 123.596 34.126 123.596 32.9746V32.2188H125.811V32.9746C125.802 34.6182 126.698 36.209 128.834 36.8594L127.744 38.4941C126.206 37.9756 125.204 36.9824 124.65 35.7344C124.132 36.9736 123.2 38.0459 121.75 38.6172C120.256 38.0811 119.324 37.0264 118.806 35.7871C118.252 36.9824 117.268 37.9668 115.809 38.4941L114.684 36.8594ZM125.582 31.7266V22.6387H127.709V31.7266H125.582ZM133.932 23.7461C136.094 23.7461 137.711 25.5215 138.027 28.4043H140.805V22.6211H143.02V38.6523H140.805V30.1973H138.054C137.816 33.2734 136.164 35.1543 133.932 35.1543C131.506 35.1543 129.766 32.957 129.783 29.4414C129.766 25.9521 131.506 23.7461 133.932 23.7461ZM131.928 29.4414C131.919 31.8232 132.736 33.124 133.932 33.1152C135.136 33.124 135.936 31.8232 135.936 29.4414C135.936 27.0684 135.136 25.7676 133.932 25.7676C132.736 25.7676 131.919 27.0684 131.928 29.4414ZM159.719 34.9082V36.7539H145.076V34.9082H148.346V30.9883C147.106 30.2412 146.359 29.1074 146.359 27.7012C146.359 25.1084 148.891 23.4033 152.371 23.3945C155.834 23.4033 158.392 25.1084 158.4 27.7012C158.392 29.0811 157.671 30.1973 156.467 30.9443V34.9082H159.719ZM148.574 27.7012C148.574 29.2656 150.077 30.2324 152.371 30.2324C154.63 30.2324 156.177 29.2656 156.186 27.7012C156.177 26.0928 154.63 25.1611 152.371 25.1699C150.077 25.1611 148.574 26.0928 148.574 27.7012ZM150.561 34.9082H154.199V31.7969C153.628 31.9111 153.013 31.9727 152.371 31.9727C151.729 31.9727 151.123 31.9111 150.561 31.8057V34.9082ZM163.428 32.9922C163.437 30.8037 164.025 30.1357 165.08 29.4766C165.836 28.9844 166.425 28.4395 166.416 27.6309C166.425 26.752 165.739 26.1807 164.887 26.1719C164.069 26.1807 163.305 26.7256 163.27 27.7539H160.773C160.817 25.2842 162.654 24.0977 164.904 24.0977C167.356 24.0977 169.088 25.3721 169.088 27.543C169.088 28.9932 168.341 29.9072 167.189 30.6016C166.196 31.1904 165.757 31.7617 165.748 32.9922V33.1855H163.428V32.9922ZM163.164 35.6816C163.146 34.873 163.814 34.2139 164.641 34.2227C165.423 34.2139 166.1 34.873 166.1 35.6816C166.1 36.499 165.423 37.1582 164.641 37.1582C163.814 37.1582 163.146 36.499 163.164 35.6816Z" fill="#374151"/>
    <path d="M22.6582 50.5684V51.4434H18.1328V52.7559H22.4258V53.5898H18.1328V54.998C20.5527 54.998 21.8721 54.9502 23.4922 54.6836L23.6016 55.5449C21.9062 55.8252 20.5254 55.873 17.9824 55.873H17.0664V50.5684H22.6582ZM18.2422 57.7598V56.8984H25.9941V59.7559H19.3223V61.1094H26.4453V61.9707H18.2695V58.9355H24.9277V57.7598H18.2422ZM24.9277 56.3105V49.9531H25.9941V52.6191H27.8262V53.5078H25.9941V56.3105H24.9277ZM35.9609 55.8184V56.6934H33.2129V58.6621C34.3818 58.6074 35.5713 58.5117 36.6855 58.3477L36.7676 59.1406C33.9854 59.6465 30.998 59.6465 28.8105 59.6602L28.6602 58.7578C29.6787 58.751 30.8818 58.7441 32.1465 58.7031V56.6934H29.5898V51.0605H35.9062V51.9355H30.6699V53.4258H35.6465V54.2734H30.6699V55.8184H35.9609ZM37.4922 62.1348V49.9531H38.5586V62.1348H37.4922ZM50.0977 49.9531V54.9707H52.1348V55.8594H50.0977V62.1074H49.0312V49.9531H50.0977ZM40.623 52.7969V51.9082H43.7539V50.1035H44.8203V51.9082H47.8555V52.7969H40.623ZM41.3203 56.5977C41.3135 54.957 42.5713 53.8086 44.3008 53.8086C46.0166 53.8086 47.2676 54.957 47.2812 56.5977C47.2676 58.2451 46.0166 59.3867 44.3008 59.3867C42.5713 59.3867 41.3135 58.2451 41.3203 56.5977ZM42.3457 56.5977C42.3389 57.7051 43.166 58.4844 44.3008 58.4707C45.4219 58.4844 46.2422 57.7051 46.2559 56.5977C46.2422 55.4971 45.4219 54.7041 44.3008 54.7109C43.166 54.7041 42.3389 55.4971 42.3457 56.5977ZM57.1113 53.2207C57.1045 55.4424 58.6152 57.6709 60.4062 58.4844L59.75 59.332C58.3623 58.6621 57.166 57.2197 56.585 55.4902C56.0244 57.3223 54.8281 58.8604 53.4062 59.5781L52.7227 58.6758C54.5342 57.8486 56.0312 55.5244 56.0449 53.2207V51.0059H57.1113V53.2207ZM61.7324 62.1348V49.9531H62.8125V62.1348H61.7324ZM71.043 51.0195V52.0996H73.8867V49.9668H74.9668V58.8398H73.8867V55.5996H71.043V56.6934H65.4648V51.0195H71.043ZM66.5312 55.832H69.9902V51.9082H66.5312V55.832ZM67.1055 61.8477V58.0469H68.1855V60.9453H75.2402V61.8477H67.1055ZM71.043 54.7109H73.8867V53.002H71.043V54.7109ZM91.5918 55.7363V56.6387H80.5039V55.7363H91.5918ZM81.8438 59.8926C81.8369 58.498 83.416 57.7051 86.041 57.7051C88.6455 57.7051 90.2109 58.498 90.2246 59.8926C90.2109 61.3008 88.6455 62.0801 86.041 62.0801C83.416 62.0801 81.8369 61.3008 81.8438 59.8926ZM81.9121 54.5742V50.4453H90.2109V51.3477H82.9648V53.6992H90.293V54.5742H81.9121ZM82.9375 59.8926C82.9238 60.7471 84.0928 61.2324 86.041 61.2324C87.9688 61.2324 89.1377 60.7471 89.1445 59.8926C89.1377 59.0449 87.9688 58.5527 86.041 58.5391C84.0928 58.5527 82.9238 59.0449 82.9375 59.8926ZM103.719 56.6523V57.541H92.5898V56.6523H97.6211V55.3672H94.0391V52.4004H101.203V51.1426H93.998V50.2676H102.283V53.207H95.1055V54.5059H102.543V55.3672H98.6738V56.6523H103.719ZM93.834 59.3457V58.4707H102.352V61.998H101.271V59.3457H93.834ZM111.771 53.9453V54.8203H109.311V56.5156C110.445 56.4678 111.58 56.3857 112.633 56.2695L112.715 57.0625C110.097 57.4248 107.205 57.5 104.922 57.5L104.758 56.625C105.824 56.6182 107.021 56.6045 108.244 56.5635V54.8203H105.865V50.7461H111.676V51.6348H106.945V53.9453H111.771ZM106.836 61.8477V58.4297H107.902V60.9453H115.121V61.8477H106.836ZM113.645 59.0586V49.9668H114.725V59.0586H113.645ZM130.393 49.9531V57.1992H129.312V54.0137H126.865V53.125H129.312V49.9531H130.393ZM120.371 56.2285C122.176 55.5791 123.461 53.9316 123.461 52.1953V51.7441H120.713V50.8418H127.262V51.7441H124.541V52.1816C124.541 53.7676 125.758 55.2783 127.535 55.8867L126.975 56.748C125.614 56.2559 124.555 55.2305 124.028 53.9795C123.509 55.4014 122.381 56.5361 120.932 57.0898L120.371 56.2285ZM122.285 59.8379C122.278 58.4092 123.83 57.5752 126.359 57.582C128.882 57.5752 130.434 58.4092 130.434 59.8379C130.434 61.2734 128.882 62.0938 126.359 62.1074C123.83 62.0938 122.278 61.2734 122.285 59.8379ZM123.352 59.8379C123.345 60.7197 124.493 61.2529 126.359 61.2461C128.219 61.2529 129.367 60.7197 129.367 59.8379C129.367 58.9492 128.219 58.416 126.359 58.416C124.493 58.416 123.345 58.9492 123.352 59.8379ZM143.545 59.6602V60.5488H132.416V59.6602H137.42V57.0352H133.729V50.8145H134.809V53.0156H141.125V50.8145H142.178V57.0352H138.473V59.6602H143.545ZM134.809 56.1602H141.125V53.8906H134.809V56.1602ZM148.18 50.7461C150.046 50.7598 151.413 51.9082 151.42 53.6035C151.413 55.1279 150.306 56.208 148.727 56.4131V58.4775C149.861 58.4297 151.003 58.3477 152.062 58.2109L152.131 59.0176C149.554 59.4551 146.683 59.4824 144.543 59.4688L144.365 58.5664C145.343 58.5596 146.471 58.5527 147.646 58.5186V56.4131C146.033 56.2217 144.933 55.1348 144.939 53.6035C144.933 51.9082 146.279 50.7598 148.18 50.7461ZM145.992 53.6035C145.979 54.7451 146.901 55.5381 148.18 55.5312C149.438 55.5381 150.354 54.7451 150.367 53.6035C150.354 52.4619 149.438 51.6826 148.18 51.6758C146.901 51.6826 145.979 52.4619 145.992 53.6035ZM152.842 62.1074V49.9531H153.908V54.9707H155.891V55.9004H153.908V62.1074H152.842ZM170.178 49.9531V62.1074H169.098V49.9531H170.178ZM160.279 58.9492C163.567 57.3906 165.249 55.0596 165.488 52.1543H160.84V51.2793H166.582C166.568 54.7725 164.941 57.8691 160.867 59.8242L160.279 58.9492ZM183.344 56.6523V57.541H172.215V56.6523H177.246V55.3672H173.664V52.4004H180.828V51.1426H173.623V50.2676H181.908V53.207H174.73V54.5059H182.168V55.3672H178.299V56.6523H183.344ZM173.459 59.3457V58.4707H181.977V61.998H180.896V59.3457H173.459ZM194.35 49.9531V62.1348H193.27V49.9531H194.35ZM184.779 55.1348C184.786 52.5508 186.071 50.9033 187.883 50.8965C189.688 50.9033 190.993 52.5508 190.986 55.1348C190.993 57.7256 189.688 59.3662 187.883 59.3594C186.071 59.3662 184.786 57.7256 184.779 55.1348ZM185.818 55.1348C185.818 57.1104 186.666 58.4092 187.883 58.4023C189.106 58.4092 189.947 57.1104 189.947 55.1348C189.947 53.1592 189.106 51.8604 187.883 51.8535C186.666 51.8604 185.818 53.1592 185.818 55.1348ZM211.07 59.6465V60.5488H199.941V59.6465H204.945V56.6797H201.254V50.9785H209.689V56.6797H205.998V59.6465H211.07ZM202.307 55.8184H208.65V51.8398H202.307V55.8184ZM221.734 54.5059V55.3672H213.572V50.6777H221.57V51.5664H214.666V54.5059H221.734ZM212.027 57.8555V56.9805H223.156V57.8555H218.084V62.0664H217.031V57.8555H212.027ZM231.742 51.9082C231.735 53.5625 232.993 55.0801 234.777 55.6953L234.217 56.543C232.836 56.0576 231.763 55.0322 231.236 53.7471C230.724 55.1621 229.63 56.2559 228.188 56.7891L227.627 55.9277C229.466 55.2783 230.683 53.6787 230.689 51.8398V50.582H231.742V51.9082ZM229.199 58.7988V57.9238H237.156V62.1074H236.09V58.7988H229.199ZM236.09 57.3223V49.9531H237.156V53.1797H238.988V54.0957H237.156V57.3223H236.09ZM250.145 49.9531V62.1074H249.119V49.9531H250.145ZM239.604 58.8672C241.299 57.8555 242.29 55.6338 242.283 53.4258V52.2773H239.945V51.3887H245.551V52.2773H243.322V53.4258C243.322 55.5244 244.272 57.623 245.947 58.5938L245.291 59.3867C244.095 58.6689 243.247 57.3564 242.823 55.8115C242.386 57.4863 241.504 58.915 240.287 59.6738L239.604 58.8672ZM244.621 55.2168V54.3418H246.672V50.2539H247.684V61.4785H246.672V55.2168H244.621ZM251.703 58.5664C252.482 58.5664 253.46 58.5596 254.479 58.5254V56.0918H252.359V51.1973H257.527V52.0859H253.412V55.2031H257.637V56.0918H255.518V58.4912C256.413 58.4502 257.302 58.3818 258.074 58.293L258.129 59.0723C256.119 59.4141 253.515 59.4756 251.867 59.4688L251.703 58.5664ZM258.635 61.4648V50.2266H259.633V55.0254H261.15V49.9531H262.189V62.1074H261.15V55.9004H259.633V61.4648H258.635ZM275.082 59.6465V60.5488H263.953V59.6465H266.715V56.3721C265.676 55.832 265.047 54.957 265.047 53.8496C265.047 51.9697 266.893 50.7324 269.49 50.7188C272.088 50.7324 273.934 51.9697 273.934 53.8496C273.934 54.9365 273.325 55.7979 272.32 56.3379V59.6465H275.082ZM266.086 53.8496C266.079 55.21 267.494 56.1191 269.49 56.1191C271.466 56.1191 272.895 55.21 272.895 53.8496C272.895 52.4893 271.466 51.5938 269.49 51.6074C267.494 51.5938 266.079 52.4893 266.086 53.8496ZM267.768 59.6465H271.24V56.7549C270.714 56.8916 270.126 56.9668 269.49 56.9668C268.868 56.9668 268.287 56.8984 267.768 56.7617V59.6465ZM277.338 61.082C276.859 61.0752 276.449 60.6787 276.463 60.1934C276.449 59.7148 276.859 59.3184 277.338 59.3184C277.823 59.3184 278.22 59.7148 278.213 60.1934C278.22 60.6787 277.823 61.0752 277.338 61.082Z" fill="#9CA3AF"/>
    <path d="M132.141 111C132.148 112.406 133.523 113.594 135.5 114.031L135 115.016C133.398 114.617 132.164 113.773 131.555 112.648C130.961 113.867 129.711 114.797 128.062 115.203L127.531 114.219C129.539 113.773 130.922 112.484 130.922 111V110.938H127.828V109.969H130.922V108.422H132.141V109.969H135.234V110.938H132.141V111ZM126.875 116.188C129.539 116.18 133.062 116.164 136.141 115.766L136.219 116.656C134.891 116.875 133.516 117.008 132.172 117.094V121.859H130.953V117.156C129.547 117.211 128.211 117.219 127.047 117.219L126.875 116.188ZM137.156 122.281V108.391H138.359V122.281H137.156ZM153.453 119.438V120.453H140.734V119.438H146.422V116.031H147.625V119.438H153.453ZM141.234 115.172C143.664 114.758 146.367 112.727 146.375 110.391V109.328H147.656V110.391C147.664 112.711 150.406 114.758 152.828 115.172L152.281 116.188C150.164 115.75 147.93 114.32 147.031 112.32C146.117 114.312 143.906 115.75 141.781 116.188L141.234 115.172ZM165.312 108.375V114.109H167.641V115.125H165.312V122.266H164.094V108.375H165.312ZM154.484 111.625V110.609H158.062V108.547H159.281V110.609H162.75V111.625H154.484ZM155.281 115.969C155.273 114.094 156.711 112.781 158.688 112.781C160.648 112.781 162.078 114.094 162.094 115.969C162.078 117.852 160.648 119.156 158.688 119.156C156.711 119.156 155.273 117.852 155.281 115.969ZM156.453 115.969C156.445 117.234 157.391 118.125 158.688 118.109C159.969 118.125 160.906 117.234 160.922 115.969C160.906 114.711 159.969 113.805 158.688 113.812C157.391 113.805 156.445 114.711 156.453 115.969ZM179.875 108.375V122.266H178.641V108.375H179.875ZM168.562 118.656C172.32 116.875 174.242 114.211 174.516 110.891H169.203V109.891H175.766C175.75 113.883 173.891 117.422 169.234 119.656L168.562 118.656Z" fill="#9CA3AF"/>
    <rect x="222" y="91" width="112" height="48" rx="12" fill="#9398FF"/>
    <path d="M257.969 108.984V110.172H252.953V111.469H257.703V112.609H252.953V114C255.586 113.992 257.086 113.945 258.891 113.656L259.031 114.828C257.102 115.148 255.484 115.195 252.562 115.203H251.469V108.984H257.969ZM252.812 117.422V116.25H261.859V119.688H254.297V121.031H262.344V122.188H252.844V118.594H260.391V117.422H252.812ZM260.375 115.609V108.328H261.859V111.281H263.891V112.5H261.859V115.609H260.375ZM273.141 114.969V116.156H270.109V118.258C271.391 118.188 272.688 118.078 273.906 117.906L274.016 118.984C270.852 119.586 267.453 119.586 264.953 119.609L264.766 118.375C265.898 118.375 267.234 118.367 268.641 118.32V116.156H265.797V109.547H273.078V110.75H267.297V112.25H272.797V113.406H267.297V114.969H273.141ZM274.781 122.359V108.328H276.266V122.359H274.781ZM289.422 108.328V114H291.672V115.234H289.422V122.328H287.953V108.328H289.422ZM278.438 111.734V110.516H281.891V108.516H283.375V110.516H286.734V111.734H278.438ZM279.156 116.016C279.156 114.109 280.625 112.766 282.641 112.766C284.648 112.766 286.117 114.109 286.125 116.016C286.117 117.938 284.648 119.273 282.641 119.281C280.625 119.273 279.156 117.938 279.156 116.016ZM280.578 116.016C280.57 117.234 281.445 118.047 282.641 118.031C283.828 118.047 284.695 117.234 284.703 116.016C284.695 114.82 283.828 113.992 282.641 113.984C281.445 113.992 280.57 114.82 280.578 116.016ZM303.984 108.328V122.328H302.484V108.328H303.984ZM292.484 118.578C296.203 116.805 298.023 114.281 298.312 111.016H293.156V109.828H299.812C299.812 113.93 298.07 117.477 293.266 119.781L292.484 118.578Z" fill="white"/>
</svg>
