<svg width="350" height="43" viewBox="20 0 350 43" fill="none" xmlns="http://www.w3.org/2000/svg">
    <path d="M58.25 13.3906V23.5781H57.0156V18.25H54.1562V17.2344H57.0156V13.3906H58.25ZM58.6406 25.9375V26.9688H49.3281V22.6562H50.5625V25.9375H58.6406ZM51.5625 16.25C51.5625 18.0469 52.9531 19.7969 54.9844 20.4844L54.3438 21.4688C52.7734 20.9062 51.5625 19.7344 50.9688 18.2969C50.3672 19.8984 49.0859 21.1797 47.4375 21.7969L46.7969 20.7969C48.8438 20.0781 50.3281 18.25 50.3281 16.25V15.5312H47.1875V14.5156H54.6719V15.5312H51.5625V16.25ZM64.625 17.6562C64.625 19.8906 65.7656 22.1719 67.6562 23.1875L66.9531 24.1094C65.5703 23.3594 64.5703 21.9219 64.0625 20.25C63.5625 22.0312 62.5703 23.5781 61.1875 24.4219L60.4531 23.4844C62.3438 22.3906 63.4531 19.9531 63.4688 17.6562V16.9688H60.8281V15.9531H63.4688V13.8906H64.6406V15.9531H67.2344V16.9688H64.625V17.6562ZM72.4375 13.375V27.2656H71.2656V13.375H72.4375ZM69.625 13.7188V26.5469H68.4688V19.9062H66.2812V18.8594H68.4688V13.7188H69.625Z" fill="#9CA3AF"/>
    <path d="M149.367 14.0625V14.4375C149.359 15.1719 149.359 16.7109 148.828 18.8438H153.164C153.562 17.1562 153.633 15.9141 153.648 15.0625H150.414V14.0625H154.836V14.5781C154.828 15.4062 154.828 16.8516 154.398 18.8438H156.352V19.8438H150.555V22.2031H154.727V27.0781H145.227V22.2031H149.352V19.8438H143.648V18.8438H147.609C148.031 17.1562 148.125 15.8984 148.156 15.0625H144.883V14.0625H149.367ZM146.43 26.0781H153.508V23.1875H146.43V26.0781Z" fill="#9CA3AF"/>
    <path d="M230.656 13.7969C232.766 13.8125 234.32 15.1016 234.328 16.9375C234.32 18.7812 232.766 20.0625 230.656 20.0625C228.523 20.0625 226.977 18.7812 226.969 16.9375C226.977 15.1016 228.523 13.8125 230.656 13.7969ZM228.422 16.9375C228.414 18.0938 229.367 18.8594 230.656 18.8594C231.938 18.8594 232.891 18.0938 232.891 16.9375C232.891 15.7969 231.938 15.0312 230.656 15.0469C229.367 15.0312 228.414 15.7969 228.422 16.9375ZM229.094 22.2812V21.0938H238.297V24.625H230.578V25.9688H238.766V27.1562H229.141V23.5156H236.828V22.2812H229.094ZM236.812 20.4531V13.3281H238.297V20.4531H236.812ZM252.156 13.3281V27.3281H250.656V13.3281H252.156ZM240.656 23.5781C244.375 21.8047 246.195 19.2812 246.484 16.0156H241.328V14.8281H247.984C247.984 18.9297 246.242 22.4766 241.438 24.7812L240.656 23.5781Z" fill="#4F46E5"/>
    <path d="M322.562 15V18.625H324.672V13.6719H325.844V26.5625H324.672V19.6406H322.562V23.5312H317.25V15H322.562ZM318.406 22.5469H321.406V15.9844H318.406V22.5469ZM327.453 27.2656V13.375H328.641V27.2656H327.453ZM343.281 24.4531V25.4844H330.562V24.4531H336.281V21.0625H332.062V14.5469H341.703V21.0625H337.484V24.4531H343.281ZM333.266 20.0781H340.516V15.5312H333.266V20.0781Z" fill="#9CA3AF"/>
    <rect x="232" width="16" height="4" rx="2" fill="#6366F1"/>
</svg>
