<svg width="350" height="43" viewBox="20 0 350 43" fill="none" xmlns="http://www.w3.org/2000/svg">
    <path d="M58.25 13.3906V23.5781H57.0156V18.25H54.1562V17.2344H57.0156V13.3906H58.25ZM46.7969 20.7969C48.8438 20.0781 50.3281 18.2422 50.3281 16.25V15.5312H47.1875V14.5156H54.6719V15.5312H51.5625V16.25C51.5625 18.0469 52.9531 19.7891 54.9844 20.4844L54.3438 21.4688C52.7812 20.8984 51.5703 19.7344 50.9688 18.2969C50.3672 19.9062 49.0859 21.1797 47.4375 21.7969L46.7969 20.7969ZM49.3281 26.9688V22.6562H50.5625V25.9375H58.6406V26.9688H49.3281ZM64.625 17.6562C64.6328 19.8906 65.7656 22.1797 67.6562 23.1875L66.9531 24.1094C65.5703 23.3516 64.5703 21.9141 64.0625 20.2422C63.5703 22.0234 62.5781 23.5859 61.1875 24.4219L60.4531 23.4844C62.3438 22.3906 63.4609 19.9531 63.4688 17.6562V16.9688H60.8281V15.9531H63.4688V13.8906H64.6406V15.9531H67.2344V16.9688H64.625V17.6562ZM66.2812 19.9062V18.8594H68.4688V13.7188H69.625V26.5469H68.4688V19.9062H66.2812ZM71.2656 27.2656V13.375H72.4375V27.2656H71.2656Z" fill="#9CA3AF"/>
    <path d="M149.367 14.0625V14.4375C149.359 15.1719 149.359 16.7109 148.828 18.8438H153.164C153.562 17.1562 153.633 15.9141 153.648 15.0625H150.414V14.0625H154.836V14.5781C154.828 15.4062 154.828 16.8516 154.398 18.8438H156.352V19.8438H150.555V22.2031H154.727V27.0781H145.227V22.2031H149.352V19.8438H143.648V18.8438H147.609C148.031 17.1562 148.125 15.8984 148.156 15.0625H144.883V14.0625H149.367ZM146.43 26.0781H153.508V23.1875H146.43V26.0781Z" fill="#9CA3AF"/>
    <path d="M230.672 13.8906C232.75 13.9062 234.266 15.1562 234.266 16.9688C234.266 18.7812 232.75 20.0312 230.672 20.0312C228.562 20.0312 227.062 18.7812 227.062 16.9688C227.062 15.1562 228.562 13.9062 230.672 13.8906ZM230.672 14.9219C229.281 14.9219 228.25 15.7656 228.266 16.9688C228.25 18.1875 229.281 19.0312 230.672 19.0312C232.047 19.0312 233.078 18.1875 233.078 16.9688C233.078 15.7656 232.047 14.9219 230.672 14.9219ZM238.203 13.375V20.5156H236.984V13.375H238.203ZM238.203 21.1875V24.5312H230.406V26.0938H238.703V27.0781H229.203V23.6094H236.984V22.1719H229.172V21.1875H238.203ZM252.047 13.375V27.2656H250.812V13.375H252.047ZM247.938 14.8906C247.922 18.8906 246.062 22.4219 241.406 24.6562L240.734 23.6562C244.492 21.875 246.406 19.2109 246.688 15.8906H241.375V14.8906H247.938Z" fill="#9CA3AF"/>
    <path d="M322.594 14.9062V18.5469H324.469V13.5938H325.891V26.6406H324.469V19.7656H322.594V23.6406H317.156V14.9062H322.594ZM318.562 22.4531H321.203V16.0781H318.562V22.4531ZM327.312 27.3281V13.3281H328.734V27.3281H327.312ZM343.328 24.3438V25.5781H330.516V24.3438H336.156V21.1094H331.984V14.4531H341.797V21.1094H337.625V24.3438H343.328ZM333.422 19.9375H340.344V15.6406H333.422V19.9375Z" fill="#4F46E5"/>
    <rect x="322" width="16" height="4" rx="2" fill="#6366F1"/>
</svg>
