<svg width="45" height="32" viewBox="0 0 45 32" fill="none" xmlns="http://www.w3.org/2000/svg">
    <rect width="45" height="32" rx="8" fill="#EDE9FE"/>
    <path d="M15.3516 11.2305C16.9746 11.2246 18.1934 12.2441 18.1992 13.668C18.1934 15.0801 16.9746 16.0879 15.3516 16.0938C13.7051 16.0879 12.4805 15.0801 12.4805 13.668C12.4805 12.2441 13.7051 11.2246 15.3516 11.2305ZM13.9336 13.668C13.9219 14.4297 14.5254 14.8809 15.3516 14.8867C16.1602 14.8809 16.752 14.4297 16.7578 13.668C16.752 12.9004 16.1602 12.4492 15.3516 12.4492C14.5312 12.4492 13.9219 12.9004 13.9336 13.668ZM14.0859 17.8516V16.7031H21.2461V19.5977H15.5742V20.2891H21.5391V21.4609H14.1094V18.5078H19.7578V17.8516H14.0859ZM19.7461 16.2578V10.9141H21.2461V16.2578H19.7461ZM31.6523 10.9141V21.5781H30.1406V10.9141H31.6523ZM22.7227 18.5547C25.4766 17.2539 26.6895 15.5664 26.9297 13.1992H23.2969V12.0273H28.4531C28.4473 15.2617 27.3164 17.9512 23.5078 19.75L22.7227 18.5547Z" fill="#8B5CF6"/>
</svg>
