<svg width="350" height="43" viewBox="20 0 350 43" fill="none" xmlns="http://www.w3.org/2000/svg">
    <path d="M58.3594 13.3438V23.5938H56.875V18.3281H54.2031V17.125H56.875V13.3438H58.3594ZM46.7031 20.6719C48.8516 19.9453 50.1953 18.1016 50.1875 16.1719V15.625H47.1562V14.4062H54.7031V15.625H51.7031V16.1719C51.6953 17.9141 52.9609 19.6719 55.0781 20.375L54.3125 21.5625C52.7422 21.0156 51.5781 19.8906 50.9688 18.5C50.3594 20.0469 49.1328 21.2812 47.4688 21.875L46.7031 20.6719ZM49.2656 27.0312V22.6719H50.75V25.8281H58.7344V27.0312H49.2656ZM64.7031 17.625C64.7031 19.8281 65.7266 22.0703 67.6562 23.1094L66.8281 24.2031C65.4688 23.4844 64.5312 22.1484 64.0234 20.5625C63.5234 22.2578 62.5859 23.7188 61.2344 24.5312L60.3594 23.4062C62.2969 22.2812 63.2969 19.8828 63.3125 17.625V17.0625H60.7812V15.8438H63.3125V13.8281H64.7031V15.8438H67.1875V17.0625H64.7031V17.625ZM66.2656 20.0156V18.7812H68.2812V13.625H69.6875V26.625H68.2812V20.0156H66.2656ZM71.1094 27.3281V13.3281H72.5312V27.3281H71.1094Z" fill="#4F46E5"/>
    <path d="M149.367 14.0625V14.4375C149.359 15.1719 149.359 16.7109 148.828 18.8438H153.164C153.562 17.1562 153.633 15.9141 153.648 15.0625H150.414V14.0625H154.836V14.5781C154.828 15.4062 154.828 16.8516 154.398 18.8438H156.352V19.8438H150.555V22.2031H154.727V27.0781H145.227V22.2031H149.352V19.8438H143.648V18.8438H147.609C148.031 17.1562 148.125 15.8984 148.156 15.0625H144.883V14.0625H149.367ZM146.43 26.0781H153.508V23.1875H146.43V26.0781Z" fill="#9CA3AF"/>
    <path d="M230.672 13.8906C232.75 13.8984 234.258 15.1641 234.266 16.9688C234.258 18.7812 232.75 20.0312 230.672 20.0312C228.57 20.0312 227.055 18.7812 227.062 16.9688C227.055 15.1641 228.57 13.8984 230.672 13.8906ZM228.266 16.9688C228.25 18.1875 229.273 19.0312 230.672 19.0312C232.047 19.0312 233.078 18.1875 233.078 16.9688C233.078 15.7656 232.047 14.9141 230.672 14.9219C229.273 14.9141 228.25 15.7656 228.266 16.9688ZM229.172 22.1719V21.1875H238.203V24.5312H230.406V26.0938H238.703V27.0781H229.203V23.6094H236.984V22.1719H229.172ZM236.984 20.5156V13.375H238.203V20.5156H236.984ZM252.047 13.375V27.2656H250.812V13.375H252.047ZM240.734 23.6562C244.492 21.875 246.414 19.2109 246.688 15.8906H241.375V14.8906H247.938C247.922 18.8828 246.062 22.4219 241.406 24.6562L240.734 23.6562Z" fill="#9CA3AF"/>
    <path d="M322.562 15V18.625H324.672V13.6719H325.844V26.5625H324.672V19.6406H322.562V23.5312H317.25V15H322.562ZM318.406 22.5469H321.406V15.9844H318.406V22.5469ZM327.453 27.2656V13.375H328.641V27.2656H327.453ZM343.281 24.4531V25.4844H330.562V24.4531H336.281V21.0625H332.062V14.5469H341.703V21.0625H337.484V24.4531H343.281ZM333.266 20.0781H340.516V15.5312H333.266V20.0781Z" fill="#9CA3AF"/>
    <rect x="52" width="16" height="4" rx="2" fill="#6366F1"/>
</svg>
