<svg width="108" height="48" viewBox="0 0 108 48" fill="none" xmlns="http://www.w3.org/2000/svg">
    <rect width="108" height="48" rx="8" fill="#EEF2FF"/>
    <path d="M16.6484 20.25C16.6484 21.9453 17.8789 23.5449 19.6562 24.1875L19.0547 25.0215C17.7217 24.4883 16.6621 23.4287 16.1426 22.1094C15.623 23.5791 14.5156 24.748 13.0801 25.3223L12.5059 24.4473C14.3242 23.7773 15.582 22.082 15.5957 20.209V18.7051H16.6484V20.25ZM22.5684 17.9668V27.0723H21.4883V21.7266H18.7812V20.8242H21.4883V17.9668H22.5684ZM22.8418 28.9453V29.8477H14.707V26.0332H15.7871V28.9453H22.8418ZM29.8555 18.8418V19.7441H26.1641V21.2617H29.7188V22.1094H26.1641V23.791C27.9346 23.7842 29.042 23.7227 30.3477 23.4629L30.457 24.3516C29.0352 24.625 27.8867 24.6934 25.9043 24.6934H25.1387V18.8418H29.8555ZM34.9141 17.9668V25.3359H33.8887V22.0137H32.1797V25.2539H31.1816V18.1992H32.1797V21.1387H33.8887V17.9668H34.9141ZM34.9141 25.9648V30.1074H33.8613V26.8398H26.7246V25.9648H34.9141ZM49.707 17.9531V21.6582H51.5391V22.5605H49.707V26.9219H48.6406V17.9531H49.707ZM50.2676 28.9453V29.8477H42.1055V25.9922H43.1582V28.9453H50.2676ZM43.623 18.8145C45.4414 18.8145 46.8086 20.0449 46.8223 21.8086C46.8086 23.5723 45.4414 24.8027 43.623 24.8027C41.8047 24.8027 40.4238 23.5723 40.4375 21.8086C40.4238 20.0449 41.8047 18.8145 43.623 18.8145ZM43.623 19.7578C42.4199 19.7578 41.4766 20.6055 41.4902 21.8086C41.4766 23.0117 42.4199 23.8594 43.623 23.8594C44.8535 23.8594 45.7695 23.0117 45.7695 21.8086C45.7695 20.6055 44.8535 19.7578 43.623 19.7578ZM65.3203 17.9531V21.1934H67.1523V22.1094H65.3203V25.2812H64.2539V17.9531H65.3203ZM65.3203 25.9785V29.9434H57.6504V25.9785H65.3203ZM58.7031 26.8398V29.0684H64.2539V26.8398H58.7031ZM63.0918 19.252V20.1406H55.8457V19.252H58.9355V17.8574H60.002V19.252H63.0918ZM59.4688 20.7422C61.2188 20.7422 62.3809 21.6035 62.3945 22.9023C62.3809 24.2285 61.2188 25.0762 59.4688 25.0762C57.7051 25.0762 56.5293 24.2285 56.543 22.9023C56.5293 21.6035 57.7051 20.7422 59.4688 20.7422ZM59.4688 21.5762C58.3203 21.5762 57.5547 22.1094 57.5684 22.9023C57.5547 23.7363 58.3203 24.2422 59.4688 24.2559C60.6035 24.2422 61.3691 23.7363 61.3828 22.9023C61.3691 22.1094 60.6035 21.5762 59.4688 21.5762Z" fill="#6366F1"/>
</svg>
