<svg width="108" height="48" viewBox="0 0 108 48" fill="none" xmlns="http://www.w3.org/2000/svg">
    <rect width="108" height="48" rx="8" fill="#6366F1"/>
    <path d="M17.0312 19.9492C17.0312 21.5557 17.8926 23.1553 19.875 23.8184L18.9316 25.1855C17.6123 24.7002 16.7031 23.7842 16.1768 22.6289C15.6436 23.9346 14.6729 24.9531 13.2305 25.4727L12.2871 24.1055C14.3652 23.4219 15.2607 21.7197 15.2676 19.9355V18.582H17.0312V19.9492ZM14.5703 30.0391V26.0469H16.334V28.6445H23.1152V30.0391H14.5703ZM18.7812 21.877V20.4688H21.1191V17.8301H22.8555V27.0176H21.1191V21.877H18.7812ZM29.8281 18.6504V20.0449H26.5742V21.0703H29.7051V22.3965H26.5742V23.4971C27.9551 23.4834 28.9736 23.4287 30.1289 23.2305L30.3066 24.625C28.8506 24.8848 27.6338 24.9326 25.7539 24.9258H24.9062V18.6504H29.8281ZM26.5605 27.332V25.9375H35.1602V30.2578H33.4238V27.332H26.5605ZM30.7988 25.3223V18.0488H32.4258V20.8652H33.5059V17.8301H35.1602V25.418H33.5059V22.2598H32.4258V25.3223H30.7988ZM49.666 17.8164V21.3848H51.3477V22.834H49.666V26.8809H47.916V17.8164H49.666ZM39.877 21.7812C39.8701 19.9287 41.3809 18.6162 43.2949 18.623C45.2021 18.6162 46.6855 19.9287 46.6855 21.7812C46.6855 23.6064 45.2021 24.9395 43.2949 24.9395C41.3809 24.9395 39.8701 23.6064 39.877 21.7812ZM41.5996 30.0391V25.9238H43.3359V28.6445H50.1172V30.0391H41.5996ZM41.5996 21.7812C41.5859 22.793 42.3447 23.4219 43.2949 23.4219C44.252 23.4219 44.9834 22.793 44.9902 21.7812C44.9834 20.7422 44.252 20.1338 43.2949 20.1406C42.3447 20.1338 41.5859 20.7422 41.5996 21.7812ZM64.9922 17.8164V20.8789H66.6738V22.3418H64.9922V25.3223H63.2422V17.8164H64.9922ZM55.1211 20.3184V18.9375H57.9512V17.748H59.6875V18.9375H62.5039V20.3184H55.1211ZM55.7227 22.9297C55.7227 21.6172 56.9805 20.7012 58.8125 20.7012C60.624 20.7012 61.875 21.6172 61.875 22.9297C61.875 24.2764 60.624 25.1787 58.8125 25.1855C56.9805 25.1787 55.7227 24.2764 55.7227 22.9297ZM56.8574 30.1211V25.8691H64.9922V30.1211H56.8574ZM57.4316 22.9297C57.4248 23.5654 57.9785 23.8936 58.8125 23.9004C59.6533 23.8936 60.2207 23.5654 60.2207 22.9297C60.2207 22.335 59.6533 22.0068 58.8125 22.0137C57.9785 22.0068 57.4248 22.335 57.4316 22.9297ZM58.5801 28.7266H63.2695V27.2363H58.5801V28.7266Z" fill="white"/>
    <path d="M92.6663 19L83.4997 28.1667L79.333 24" stroke="white" stroke-width="2" stroke-linecap="round" stroke-linejoin="round"/>
</svg>
