<svg width="288" height="170" viewBox="0 0 288 170" fill="none" xmlns="http://www.w3.org/2000/svg">
<g filter="url(#filter0_dddddd_710_3198)">
<circle cx="91" cy="60" r="55" fill="url(#paint0_linear_710_3198)"/>
</g>
<g filter="url(#filter1_dddddd_710_3198)">
<circle cx="195" cy="110" r="55" fill="url(#paint1_linear_710_3198)"/>
</g>
<path d="M12.6875 42.2188V56.4375H10.7656V49.3281H9.4375V55.75H7.5625V42.4531H9.4375V47.7188H10.7656V42.2188H12.6875ZM3 43.7969V51.2188C4.14062 51.1953 5.39062 51.0938 6.76562 50.8281L6.96875 52.5469C5.0625 52.875 3.4375 52.9688 1.96875 52.9688H1V43.7969H3ZM27.375 44.2969V45.9062H25.5312V47.3594H27.375V48.9844H25.5312V51.25H23.5312V42.2188H25.5312V44.2969H27.375ZM20.8906 51.375C23.8125 51.375 25.6875 52.3281 25.6875 53.9219C25.6875 55.4844 23.8125 56.4375 20.8906 56.4375C17.9062 56.4375 16.0625 55.4844 16.0781 53.9219C16.0625 52.3281 17.9062 51.375 20.8906 51.375ZM20.8906 52.8906C19.0312 52.8906 18.0312 53.2188 18.0469 53.9219C18.0312 54.5938 19.0312 54.9531 20.8906 54.9531C22.7031 54.9531 23.6875 54.5938 23.6875 53.9219C23.6875 53.2188 22.7031 52.8906 20.8906 52.8906ZM22.6875 43.5781V45.125H14.25V43.5781H17.4844V42.1406H19.4688V43.5781H22.6875ZM18.4688 45.6094C20.5312 45.6094 21.9688 46.6562 21.9688 48.1719C21.9688 49.7031 20.5312 50.7188 18.4688 50.7188C16.375 50.7188 14.9375 49.7031 14.9375 48.1719C14.9375 46.6562 16.375 45.6094 18.4688 45.6094ZM18.4688 47.0625C17.5156 47.0625 16.875 47.4531 16.8906 48.1719C16.875 48.875 17.5156 49.25 18.4688 49.2344C19.4219 49.25 20.0781 48.875 20.0781 48.1719C20.0781 47.4531 19.4219 47.0625 18.4688 47.0625Z" fill="black" fill-opacity="0.95"/>
<path d="M4.80273 75.1172C3.0332 75.1172 1.74414 74.0742 1.70898 72.6094H3.41992C3.45508 73.2773 4.06445 73.7227 4.80273 73.7227C5.68164 73.7227 6.30273 73.1016 6.30273 72.2227C6.30273 71.3203 5.66992 70.6992 4.7793 70.6875C4.14648 70.6875 3.70117 70.9219 3.44336 71.4023H1.84961L2.30664 66.5156H7.5332V67.957H3.75977L3.52539 70.1016H3.5957C3.91211 69.6797 4.54492 69.3867 5.29492 69.3867C6.85352 69.3867 8.01367 70.5469 8.01367 72.1758C8.01367 73.8867 6.71289 75.1172 4.80273 75.1172ZM12.502 75.1172C10.3809 75.1172 9.0918 73.5352 9.0918 70.7578C9.0918 67.9805 10.3809 66.3984 12.502 66.3984C14.623 66.3984 15.9121 67.9922 15.9121 70.7578C15.9121 73.5469 14.623 75.1172 12.502 75.1172ZM12.502 73.6641C13.4863 73.6641 14.1191 72.7148 14.1074 70.7578C14.1074 68.8242 13.4863 67.8398 12.502 67.8398C11.5176 67.8398 10.8965 68.8242 10.8965 70.7578C10.8848 72.7148 11.5176 73.6641 12.502 73.6641ZM19.3574 70.7578C18.0918 70.7578 17.4004 69.832 17.4004 68.4961C17.4004 67.1484 18.1152 66.2227 19.3574 66.2227C20.6348 66.2227 21.3027 67.1484 21.3145 68.4961C21.3027 69.8438 20.6113 70.7578 19.3574 70.7578ZM19.3574 69.7148C19.8613 69.7148 20.1074 69.2227 20.1191 68.4961C20.1074 67.7695 19.8848 67.2656 19.3574 67.2656C18.8535 67.2656 18.5957 67.7812 18.5957 68.4961C18.5957 69.2227 18.8652 69.7148 19.3574 69.7148ZM25.0762 75.2812C23.8223 75.2812 23.1309 74.3555 23.1309 73.0195C23.1309 71.6719 23.8457 70.7461 25.0762 70.7461C26.3535 70.7461 27.0332 71.6719 27.0449 73.0195C27.0332 74.3672 26.3418 75.2812 25.0762 75.2812ZM25.0762 74.2383C25.5918 74.2383 25.8379 73.7578 25.8496 73.0195C25.8379 72.293 25.6152 71.7891 25.0762 71.8008C24.584 71.8008 24.3262 72.3047 24.3262 73.0195C24.3262 73.7578 24.5957 74.2383 25.0762 74.2383ZM18.6191 75L24.4551 66.5156H25.7676L19.9316 75H18.6191Z" fill="black" fill-opacity="0.95"/>
<path d="M265.031 69.0625C267.281 69.0625 268.969 70.5 268.969 72.5469C268.969 74.2812 267.758 75.5781 266.016 75.9375V77.8438C267.219 77.7812 268.43 77.6719 269.578 77.5156L269.734 78.9531C266.578 79.5469 263.203 79.5781 260.719 79.5781L260.484 77.9688C261.531 77.9688 262.75 77.9609 264.031 77.9219V75.9219C262.297 75.5703 261.078 74.2734 261.078 72.5469C261.078 70.5 262.781 69.0625 265.031 69.0625ZM265.031 70.7656C263.906 70.7656 263.047 71.4062 263.062 72.5469C263.047 73.6562 263.906 74.3281 265.031 74.3281C266.172 74.3281 267.016 73.6562 267.031 72.5469C267.016 71.4062 266.156 70.7656 265.031 70.7656ZM272.375 68.2188V82.4688H270.391V68.2188H272.375ZM287.375 70.2969V71.9062H285.531V73.3594H287.375V74.9844H285.531V77.25H283.531V68.2188H285.531V70.2969H287.375ZM280.891 77.375C283.812 77.375 285.688 78.3281 285.688 79.9219C285.688 81.4844 283.812 82.4375 280.891 82.4375C277.906 82.4375 276.062 81.4844 276.078 79.9219C276.062 78.3281 277.906 77.375 280.891 77.375ZM280.891 78.8906C279.031 78.8906 278.031 79.2188 278.047 79.9219C278.031 80.5938 279.031 80.9531 280.891 80.9531C282.703 80.9531 283.688 80.5938 283.688 79.9219C283.688 79.2188 282.703 78.8906 280.891 78.8906ZM282.688 69.5781V71.125H274.25V69.5781H277.484V68.1406H279.469V69.5781H282.688ZM278.469 71.6094C280.531 71.6094 281.969 72.6562 281.969 74.1719C281.969 75.7031 280.531 76.7188 278.469 76.7188C276.375 76.7188 274.938 75.7031 274.938 74.1719C274.938 72.6562 276.375 71.6094 278.469 71.6094ZM278.469 73.0625C277.516 73.0625 276.875 73.4531 276.891 74.1719C276.875 74.875 277.516 75.25 278.469 75.2344C279.422 75.25 280.078 74.875 280.078 74.1719C280.078 73.4531 279.422 73.0625 278.469 73.0625Z" fill="black" fill-opacity="0.95"/>
<path d="M264.785 101.117C263.016 101.117 261.727 100.074 261.691 98.6094H263.402C263.438 99.2773 264.047 99.7227 264.785 99.7227C265.664 99.7227 266.285 99.1016 266.285 98.2227C266.285 97.3203 265.652 96.6992 264.762 96.6875C264.129 96.6875 263.684 96.9219 263.426 97.4023H261.832L262.289 92.5156H267.516V93.957H263.742L263.508 96.1016H263.578C263.895 95.6797 264.527 95.3867 265.277 95.3867C266.836 95.3867 267.996 96.5469 267.996 98.1758C267.996 99.8867 266.695 101.117 264.785 101.117ZM272.484 101.117C270.363 101.117 269.074 99.5352 269.074 96.7578C269.074 93.9805 270.363 92.3984 272.484 92.3984C274.605 92.3984 275.895 93.9922 275.895 96.7578C275.895 99.5469 274.605 101.117 272.484 101.117ZM272.484 99.6641C273.469 99.6641 274.102 98.7148 274.09 96.7578C274.09 94.8242 273.469 93.8398 272.484 93.8398C271.5 93.8398 270.879 94.8242 270.879 96.7578C270.867 98.7148 271.5 99.6641 272.484 99.6641ZM279.34 96.7578C278.074 96.7578 277.383 95.832 277.383 94.4961C277.383 93.1484 278.098 92.2227 279.34 92.2227C280.617 92.2227 281.285 93.1484 281.297 94.4961C281.285 95.8438 280.594 96.7578 279.34 96.7578ZM279.34 95.7148C279.844 95.7148 280.09 95.2227 280.102 94.4961C280.09 93.7695 279.867 93.2656 279.34 93.2656C278.836 93.2656 278.578 93.7812 278.578 94.4961C278.578 95.2227 278.848 95.7148 279.34 95.7148ZM285.059 101.281C283.805 101.281 283.113 100.355 283.113 99.0195C283.113 97.6719 283.828 96.7461 285.059 96.7461C286.336 96.7461 287.016 97.6719 287.027 99.0195C287.016 100.367 286.324 101.281 285.059 101.281ZM285.059 100.238C285.574 100.238 285.82 99.7578 285.832 99.0195C285.82 98.293 285.598 97.7891 285.059 97.8008C284.566 97.8008 284.309 98.3047 284.309 99.0195C284.309 99.7578 284.578 100.238 285.059 100.238ZM278.602 101L284.438 92.5156H285.75L279.914 101H278.602Z" fill="black" fill-opacity="0.95"/>
<defs>
<filter id="filter0_dddddd_710_3198" x="31.0029" y="0.00291872" width="119.994" height="119.994" filterUnits="userSpaceOnUse" color-interpolation-filters="sRGB">
<feFlood flood-opacity="0" result="BackgroundImageFix"/>
<feColorMatrix in="SourceAlpha" type="matrix" values="0 0 0 0 0 0 0 0 0 0 0 0 0 0 0 0 0 0 127 0" result="hardAlpha"/>
<feOffset/>
<feGaussianBlur stdDeviation="0.0594891"/>
<feColorMatrix type="matrix" values="0 0 0 0 0.396078 0 0 0 0 0.396078 0 0 0 0 0.396078 0 0 0 0.81 0"/>
<feBlend mode="normal" in2="BackgroundImageFix" result="effect1_dropShadow_710_3198"/>
<feColorMatrix in="SourceAlpha" type="matrix" values="0 0 0 0 0 0 0 0 0 0 0 0 0 0 0 0 0 0 127 0" result="hardAlpha"/>
<feOffset/>
<feGaussianBlur stdDeviation="0.118978"/>
<feColorMatrix type="matrix" values="0 0 0 0 0.396078 0 0 0 0 0.396078 0 0 0 0 0.396078 0 0 0 0.81 0"/>
<feBlend mode="normal" in2="effect1_dropShadow_710_3198" result="effect2_dropShadow_710_3198"/>
<feColorMatrix in="SourceAlpha" type="matrix" values="0 0 0 0 0 0 0 0 0 0 0 0 0 0 0 0 0 0 127 0" result="hardAlpha"/>
<feOffset/>
<feGaussianBlur stdDeviation="0.416423"/>
<feColorMatrix type="matrix" values="0 0 0 0 0.396078 0 0 0 0 0.396078 0 0 0 0 0.396078 0 0 0 0.81 0"/>
<feBlend mode="normal" in2="effect2_dropShadow_710_3198" result="effect3_dropShadow_710_3198"/>
<feColorMatrix in="SourceAlpha" type="matrix" values="0 0 0 0 0 0 0 0 0 0 0 0 0 0 0 0 0 0 127 0" result="hardAlpha"/>
<feOffset/>
<feGaussianBlur stdDeviation="0.832847"/>
<feColorMatrix type="matrix" values="0 0 0 0 0.396078 0 0 0 0 0.396078 0 0 0 0 0.396078 0 0 0 0.81 0"/>
<feBlend mode="normal" in2="effect3_dropShadow_710_3198" result="effect4_dropShadow_710_3198"/>
<feColorMatrix in="SourceAlpha" type="matrix" values="0 0 0 0 0 0 0 0 0 0 0 0 0 0 0 0 0 0 127 0" result="hardAlpha"/>
<feOffset/>
<feGaussianBlur stdDeviation="1.42774"/>
<feColorMatrix type="matrix" values="0 0 0 0 0.396078 0 0 0 0 0.396078 0 0 0 0 0.396078 0 0 0 0.81 0"/>
<feBlend mode="normal" in2="effect4_dropShadow_710_3198" result="effect5_dropShadow_710_3198"/>
<feColorMatrix in="SourceAlpha" type="matrix" values="0 0 0 0 0 0 0 0 0 0 0 0 0 0 0 0 0 0 127 0" result="hardAlpha"/>
<feOffset/>
<feGaussianBlur stdDeviation="2.49854"/>
<feColorMatrix type="matrix" values="0 0 0 0 0.396078 0 0 0 0 0.396078 0 0 0 0 0.396078 0 0 0 0.81 0"/>
<feBlend mode="normal" in2="effect5_dropShadow_710_3198" result="effect6_dropShadow_710_3198"/>
<feBlend mode="normal" in="SourceGraphic" in2="effect6_dropShadow_710_3198" result="shape"/>
</filter>
<filter id="filter1_dddddd_710_3198" x="135.003" y="50.0029" width="119.994" height="119.994" filterUnits="userSpaceOnUse" color-interpolation-filters="sRGB">
<feFlood flood-opacity="0" result="BackgroundImageFix"/>
<feColorMatrix in="SourceAlpha" type="matrix" values="0 0 0 0 0 0 0 0 0 0 0 0 0 0 0 0 0 0 127 0" result="hardAlpha"/>
<feOffset/>
<feGaussianBlur stdDeviation="0.0594891"/>
<feColorMatrix type="matrix" values="0 0 0 0 0.396078 0 0 0 0 0.396078 0 0 0 0 0.396078 0 0 0 0.81 0"/>
<feBlend mode="normal" in2="BackgroundImageFix" result="effect1_dropShadow_710_3198"/>
<feColorMatrix in="SourceAlpha" type="matrix" values="0 0 0 0 0 0 0 0 0 0 0 0 0 0 0 0 0 0 127 0" result="hardAlpha"/>
<feOffset/>
<feGaussianBlur stdDeviation="0.118978"/>
<feColorMatrix type="matrix" values="0 0 0 0 0.396078 0 0 0 0 0.396078 0 0 0 0 0.396078 0 0 0 0.81 0"/>
<feBlend mode="normal" in2="effect1_dropShadow_710_3198" result="effect2_dropShadow_710_3198"/>
<feColorMatrix in="SourceAlpha" type="matrix" values="0 0 0 0 0 0 0 0 0 0 0 0 0 0 0 0 0 0 127 0" result="hardAlpha"/>
<feOffset/>
<feGaussianBlur stdDeviation="0.416423"/>
<feColorMatrix type="matrix" values="0 0 0 0 0.396078 0 0 0 0 0.396078 0 0 0 0 0.396078 0 0 0 0.81 0"/>
<feBlend mode="normal" in2="effect2_dropShadow_710_3198" result="effect3_dropShadow_710_3198"/>
<feColorMatrix in="SourceAlpha" type="matrix" values="0 0 0 0 0 0 0 0 0 0 0 0 0 0 0 0 0 0 127 0" result="hardAlpha"/>
<feOffset/>
<feGaussianBlur stdDeviation="0.832847"/>
<feColorMatrix type="matrix" values="0 0 0 0 0.396078 0 0 0 0 0.396078 0 0 0 0 0.396078 0 0 0 0.81 0"/>
<feBlend mode="normal" in2="effect3_dropShadow_710_3198" result="effect4_dropShadow_710_3198"/>
<feColorMatrix in="SourceAlpha" type="matrix" values="0 0 0 0 0 0 0 0 0 0 0 0 0 0 0 0 0 0 127 0" result="hardAlpha"/>
<feOffset/>
<feGaussianBlur stdDeviation="1.42774"/>
<feColorMatrix type="matrix" values="0 0 0 0 0.396078 0 0 0 0 0.396078 0 0 0 0 0.396078 0 0 0 0.81 0"/>
<feBlend mode="normal" in2="effect4_dropShadow_710_3198" result="effect5_dropShadow_710_3198"/>
<feColorMatrix in="SourceAlpha" type="matrix" values="0 0 0 0 0 0 0 0 0 0 0 0 0 0 0 0 0 0 127 0" result="hardAlpha"/>
<feOffset/>
<feGaussianBlur stdDeviation="2.49854"/>
<feColorMatrix type="matrix" values="0 0 0 0 0.396078 0 0 0 0 0.396078 0 0 0 0 0.396078 0 0 0 0.81 0"/>
<feBlend mode="normal" in2="effect5_dropShadow_710_3198" result="effect6_dropShadow_710_3198"/>
<feBlend mode="normal" in="SourceGraphic" in2="effect6_dropShadow_710_3198" result="shape"/>
</filter>
<linearGradient id="paint0_linear_710_3198" x1="91" y1="5" x2="91" y2="115" gradientUnits="userSpaceOnUse">
<stop stop-color="#2C9577"/>
<stop offset="1" stop-color="#2C9577" stop-opacity="0"/>
</linearGradient>
<linearGradient id="paint1_linear_710_3198" x1="195" y1="55" x2="195" y2="165" gradientUnits="userSpaceOnUse">
<stop stop-color="#B2BBDA"/>
<stop offset="1" stop-color="#B2BBDA" stop-opacity="0"/>
</linearGradient>
</defs>
</svg>
