<svg width="42" height="42" viewBox="0 0 42 42" fill="none" xmlns="http://www.w3.org/2000/svg">
<path d="M35.1473 16.4489C34.9004 15.6241 34.4361 14.8561 33.7571 14.1473C32.91 13.2707 31.8037 12.6682 30.4357 12.3373C29.6331 12.1446 28.6281 12.0409 27.4205 12.0286H22.0643C21.163 12.0286 20.432 12.5644 20.432 13.2238V14.8363C20.432 15.2462 20.1011 15.5771 19.6912 15.5771H14.577C13.3695 15.5895 12.3644 15.6932 11.5619 15.8858C10.1938 16.2143 9.08749 16.8168 8.24048 17.6959C7.56138 18.4046 7.0996 19.1726 6.85019 19.9974C6.60325 20.8222 6.47977 21.61 6.47977 22.3582C6.47977 24.2547 7.00082 25.8598 8.04045 27.176C9.45049 28.9491 11.631 29.8356 14.5746 29.8356H22.7508C23.6522 29.8356 24.3831 29.2997 24.3831 28.6404V27.0279C24.3831 26.6179 24.714 26.287 25.1239 26.287H27.418C30.3641 26.287 32.5421 25.4005 33.9521 23.6275C34.9918 22.3113 35.5128 20.7061 35.5128 18.8096C35.5128 18.0614 35.3893 17.2736 35.1424 16.4489H35.1473ZM20.432 26.2179C20.432 26.8476 19.7332 27.3588 18.8714 27.3588H16.6736C14.7524 27.3588 12.0014 26.6649 11.2408 25.2795C10.826 24.5189 10.6185 23.6127 10.6185 22.5607C10.6185 21.1087 10.9272 19.9949 11.5446 19.2146C12.1718 18.4417 14.819 18.054 16.6711 18.054H18.8689C19.7307 18.054 20.4296 18.5652 20.4296 19.1949V26.2204L20.432 26.2179ZM30.7567 21.731C29.9986 23.1188 28.6577 23.8102 26.734 23.8102H25.9487C25.0869 23.8102 24.3856 23.299 24.3856 22.6669V15.6463C24.3856 15.0141 25.0844 14.5029 25.9487 14.5029H26.734C28.5861 14.5029 29.8257 14.8906 30.4505 15.6636C31.0679 16.4439 31.3765 17.5601 31.3765 19.0096C31.3765 20.0616 31.1691 20.9679 30.7542 21.7285L30.7567 21.731Z" fill="#2C9577"/>
</svg>
