<svg width="73" height="52" viewBox="0 0 73 52" fill="none" xmlns="http://www.w3.org/2000/svg">
    <path d="M48.5 5H24.5C23.9477 5 23.5 5.44772 23.5 6V8C23.5 8.55228 23.9477 9 24.5 9H48.5C49.0523 9 49.5 8.55228 49.5 8V6C49.5 5.44772 49.0523 5 48.5 5Z" fill="#C7D2FE"/>
    <path fill-rule="evenodd" clip-rule="evenodd" d="M46.5096 27C47.0619 27 47.5096 26.5523 47.5096 26V11.4858C47.5096 10.9336 47.0619 10.4858 46.5096 10.4858H26.4907C25.9384 10.4858 25.4907 10.9336 25.4907 11.4858V26C25.4907 26.5523 25.9384 27 26.4907 27H46.5096ZM34.0537 14.5671C33.5015 14.5671 33.0537 15.0149 33.0537 15.5671C33.0537 16.1194 33.5015 16.5671 34.0537 16.5671H38.9468C39.4991 16.5671 39.9468 16.1194 39.9468 15.5671C39.9468 15.0149 39.4991 14.5671 38.9468 14.5671H34.0537Z" fill="#C7D2FE"/>
    <path d="M13.2109 37.2988V40.3926H14.6074V41.2412H13.2109V44.4961H12.1904V37.2988H13.2109ZM5.65918 39.2432V38.416H8.02246V37.2881H9.04297V38.416H11.3955V39.2432H5.65918ZM6.18555 41.5205C6.18018 40.4194 7.13086 39.6997 8.52734 39.7051C9.90771 39.6997 10.8584 40.4194 10.8584 41.5205C10.8584 42.6108 9.90771 43.3198 8.52734 43.3252C7.13086 43.3198 6.18018 42.6108 6.18555 41.5205ZM7.10938 46.709V43.9268H8.12988V45.8818H13.6191V46.709H7.10938ZM7.17383 41.5205C7.16309 42.1489 7.71094 42.5356 8.52734 42.5303C9.34375 42.5356 9.8916 42.1489 9.90234 41.5205C9.8916 40.8867 9.34375 40.4946 8.52734 40.4893C7.71094 40.4946 7.16309 40.8867 7.17383 41.5205ZM26.6172 42.7129V43.54H22.707V46.9023H21.708V43.54H17.8408V42.7129H26.6172ZM18.335 41.1768C20.1289 40.9297 21.6221 39.8608 21.6543 38.6738H18.6572V37.8574H25.79V38.6738H22.8145C22.8306 39.8608 24.313 40.9297 26.1338 41.1768L25.7578 41.9824C24.1787 41.7354 22.8145 40.9565 22.229 39.8608C21.6382 40.9565 20.2793 41.7354 18.7217 41.9824L18.335 41.1768ZM37.7783 39.748V40.5645H34.9316V41.3916H38.8096V42.208H30.0332V41.3916H33.9111V40.5645H31.1826V37.6426H37.6816V38.4697H32.2031V39.748H37.7783ZM31.0859 43.6904V42.9277H37.7031V45.1729H32.0957V46.0215H37.9717V46.8164H31.0967V44.4424H36.6934V43.6904H31.0859ZM42.1182 38.0078C43.5576 38.0132 44.5835 39.3237 44.5889 41.3809C44.5835 43.4595 43.5576 44.77 42.1182 44.7646C40.6787 44.77 39.6528 43.4595 39.6582 41.3809C39.6528 39.3237 40.6787 38.0132 42.1182 38.0078ZM40.6357 41.3809C40.6304 42.9116 41.2427 43.8516 42.1182 43.8516C43.0098 43.8516 43.6113 42.9116 43.6113 41.3809C43.6113 39.8716 43.0098 38.9263 42.1182 38.9209C41.2427 38.9263 40.6304 39.8716 40.6357 41.3809ZM46.0176 46.9131V37.2881H47.0381V41.0586H48.585V41.918H47.0381V46.9131H46.0176ZM57.8555 44.8721V45.7207H49.0469V44.8721H52.9248V42.8955H50.0566V37.9434H51.0771V39.5977H55.8037V37.9434H56.8135V42.8955H53.9346V44.8721H57.8555ZM51.0771 42.0684H55.8037V40.4248H51.0771V42.0684ZM66.5566 37.2881V46.9131H65.5254V37.2881H66.5566ZM58.6504 44.335C61.207 43.1157 62.4585 41.3809 62.6572 39.1357H59.1123V38.3193H63.6885C63.6885 41.1392 62.4907 43.5776 59.1875 45.1621L58.6504 44.335Z" fill="#A5B4FC"/>
</svg>
