<svg width="50" height="50" viewBox="0 0 50 50" fill="none" xmlns="http://www.w3.org/2000/svg">
<path d="M17.5333 30.3333C16.8367 30.3333 16.2403 30.0853 15.7442 29.5892C15.2481 29.0931 15 28.4967 15 27.8V7.53333C15 6.83667 15.2481 6.24028 15.7442 5.74417C16.2403 5.24806 16.8367 5 17.5333 5H32.7333C33.43 5 34.0264 5.24806 34.5225 5.74417C35.0186 6.24028 35.2667 6.83667 35.2667 7.53333V27.8C35.2667 28.4967 35.0186 29.0931 34.5225 29.5892C34.0264 30.0853 33.43 30.3333 32.7333 30.3333H17.5333ZM17.5333 27.8H32.7333V7.53333H30.2V16.4L27.0333 14.5L23.8667 16.4V7.53333H17.5333V27.8Z" fill="black"/>
<path d="M15.0537 38.1367C14.751 37.2285 14.0576 36.6523 13.0518 36.6523C11.8018 36.6523 10.8057 37.6387 10.8057 39.4648C10.8057 41.291 11.8018 42.2773 13.1104 42.2773C14.3066 42.2773 15.1221 41.4766 15.1416 40.2266H13.2959V39.4551H16.001V40.2168C16.001 41.9746 14.79 43.0977 13.1104 43.0977C11.2256 43.0977 9.95605 41.7012 9.95605 39.4648C9.95605 37.2285 11.2354 35.832 13.0518 35.832C14.5459 35.832 15.6982 36.7695 15.9619 38.1367H15.0537ZM16.958 41.4961C16.958 40.2754 18.0322 40.002 18.9502 39.9336C19.2871 39.9092 20.1465 39.8652 20.3857 39.8555V39.4258C20.3857 38.752 19.9854 38.3613 19.1846 38.3613C18.5107 38.3613 18.1104 38.6738 17.9932 39.0742H17.1143C17.2217 38.2246 18.0518 37.6289 19.2236 37.6289C19.917 37.6289 21.2158 37.834 21.2158 39.5039V43H20.3857V42.2773H20.3467C20.1709 42.6387 19.6826 43.127 18.7646 43.127C17.7588 43.127 16.958 42.5312 16.958 41.4961ZM17.7979 41.5352C17.7979 42.0918 18.2666 42.375 18.9111 42.375C19.8584 42.375 20.3857 41.7402 20.3857 41.0762V40.5391C20.1367 40.5586 19.3018 40.6221 19.0479 40.6367C18.2861 40.6855 17.7979 40.959 17.7979 41.5352ZM23.4033 35.9297V43H22.5635V35.9297H23.4033ZM25.5811 35.9297V43H24.7412V35.9297H25.5811ZM26.665 41.4961C26.665 40.2754 27.7393 40.002 28.6572 39.9336C28.9941 39.9092 29.8535 39.8652 30.0928 39.8555V39.4258C30.0928 38.752 29.6924 38.3613 28.8916 38.3613C28.2178 38.3613 27.8174 38.6738 27.7002 39.0742H26.8213C26.9287 38.2246 27.7588 37.6289 28.9307 37.6289C29.624 37.6289 30.9229 37.834 30.9229 39.5039V43H30.0928V42.2773H30.0537C29.8779 42.6387 29.3896 43.127 28.4717 43.127C27.4658 43.127 26.665 42.5312 26.665 41.4961ZM27.5049 41.5352C27.5049 42.0918 27.9736 42.375 28.6182 42.375C29.5654 42.375 30.0928 41.7402 30.0928 41.0762V40.5391C29.8438 40.5586 29.0088 40.6221 28.7549 40.6367C27.9932 40.6855 27.5049 40.959 27.5049 41.5352ZM32.2705 43V37.6973H33.0811V38.5078H33.1396C33.335 37.9707 33.8818 37.6094 34.5068 37.6094C34.6338 37.6094 34.8486 37.6191 34.9463 37.6289V38.4785C34.8877 38.459 34.6533 38.4199 34.4385 38.4199C33.6768 38.4199 33.1104 38.9473 33.1104 39.6602V43H32.2705ZM36.4697 44.9922C36.2842 44.9922 36.1084 44.9824 36.001 44.9727V44.2207C36.0889 44.2305 36.2842 44.2402 36.4111 44.2402C36.7529 44.2402 37.0361 44.2109 37.3193 43.4395L37.4756 43.0391L35.5127 37.6973H36.4307L37.876 41.9062H37.9346L39.3799 37.6973H40.2979L38.0518 43.7617C37.7393 44.5918 37.2217 44.9922 36.4697 44.9922Z" fill="#505050"/>
</svg>
