<svg width="73" height="52" viewBox="0 0 73 52" fill="none" xmlns="http://www.w3.org/2000/svg">
    <path fill-rule="evenodd" clip-rule="evenodd" d="M43.5004 4C44.0526 4 44.5004 4.44772 44.5004 5V8H45.8333C47.3061 8 48.5 8.99492 48.5 10.2222V25.7778C48.5 27.0051 47.3061 28 45.8333 28H27.1667C25.6939 28 24.5 27.0051 24.5 25.7778V10.2222C24.5 8.99492 25.6939 8 27.1667 8H28.4996V5C28.4996 4.44772 28.9474 4 29.4996 4C30.0519 4 30.4996 4.44772 30.4996 5V8H42.5004V5C42.5004 4.44772 42.9481 4 43.5004 4Z" fill="#6366F1"/>
    <path d="M26.8696 37.75C26.8643 40.1831 25.7524 41.7891 23.1313 42.7451L22.5298 41.8105C23.5825 41.4346 24.3184 40.9727 24.8018 40.4194L22.7446 40.6504L22.5835 39.5654L25.3765 39.4258C25.4409 39.2378 25.4839 39.0444 25.5161 38.8457H22.9917V37.75H26.8696ZM24.2378 43.6582V42.5947H30.9302V45.2051H25.6128V45.8281H31.2632V46.8809H24.2485V44.2168H29.5767V43.6582H24.2378ZM27.4604 42.1973V37.3955H28.7495V39.2324H29.6304V37.2236H30.9302V42.251H29.6304V40.3389H28.7495V42.1973H27.4604ZM40.2114 37.2236V44.4209H38.8472V37.2236H40.2114ZM32.5415 38.9531V37.8574H37.0747V40.9727H33.895V42.0576C35.646 42.0522 36.7524 41.9985 38.02 41.7568L38.1704 42.8525C36.7471 43.1211 35.4795 43.1748 33.4116 43.1748H32.5522V39.9629H35.7104V38.9531H32.5415ZM33.6372 46.8164V43.8193H35.0015V45.7207H40.4692V46.8164H33.6372ZM46.4634 38.0723V39.1895H43.3911V43.5293C44.8145 43.5132 45.8403 43.4487 46.9897 43.2393L47.1294 44.3457C45.7866 44.6035 44.605 44.6572 42.8003 44.6465H42.0054V38.0723H46.4634ZM45.98 41.7139V40.5967H48.4399V37.2129H49.8042V47.0098H48.4399V41.7139H45.98Z" fill="#6366F1"/>
</svg>
