<svg width="73" height="52" viewBox="0 0 73 52" fill="none" xmlns="http://www.w3.org/2000/svg">
    <path d="M25.5 13.8L35.2506 5.99951C35.981 5.41516 37.019 5.41516 37.7494 5.99951L47.5 13.8V24.8C47.5 25.3835 47.2425 25.9431 46.784 26.3556C46.3256 26.7682 45.7039 27 45.0556 27H27.9444C27.2961 27 26.6744 26.7682 26.216 26.3556C25.7575 25.9431 25.5 25.3835 25.5 24.8V13.8Z" fill="#6366F1"/>
    <path d="M39.8892 44.0127V46.8809H33.0679V44.0127H39.8892ZM32.0366 43.5186V42.4443H35.8071V41.9663C34.1313 41.8696 33.1968 41.4023 33.2075 40.5859C33.1968 39.6621 34.3892 39.1948 36.4946 39.1895C38.6108 39.1948 39.7764 39.6621 39.7817 40.5859C39.7764 41.4023 38.8633 41.8696 37.1821 41.9663V42.4443H40.9526V43.5186H32.0366ZM32.4663 38.9424V37.9111H35.8071V37.127H37.1821V37.9111H40.4907V38.9424H32.4663ZM34.4214 45.8604H38.5464V45.0332H34.4214V45.8604ZM34.6685 40.5859C34.6685 40.9136 35.2593 41.0586 36.4946 41.0586C37.7407 41.0586 38.3101 40.9136 38.3101 40.5859C38.3101 40.2422 37.7407 40.1187 36.4946 40.1133C35.2593 40.1187 34.6685 40.2422 34.6685 40.5859Z" fill="#6366F1"/>
</svg>
