<svg width="50" height="50" viewBox="0 0 50 50" fill="none" xmlns="http://www.w3.org/2000/svg">
<path d="M16.8148 27.5185H21.037V19.0741H29.4815V27.5185H33.7037V14.8519L25.2593 8.51852L16.8148 14.8519V27.5185ZM14 30.3333V13.4444L25.2593 5L36.5185 13.4444V30.3333H26.6667V21.8889H23.8519V30.3333H14Z" fill="#00847E"/>
<path d="M12.9805 43.3335V36.2632H13.8594V39.4077H17.5996V36.2632H18.4883V43.3335H17.5996V40.1792H13.8594V43.3335H12.9805ZM22.1016 43.4409C20.6562 43.4409 19.6797 42.3569 19.6797 40.7065C19.6797 39.0562 20.6562 37.9624 22.1016 37.9624C23.5371 37.9624 24.5039 39.0562 24.5039 40.7065C24.5039 42.3569 23.5371 43.4409 22.1016 43.4409ZM22.1016 42.6987C23.166 42.6987 23.6641 41.7612 23.6641 40.7065C23.6641 39.6519 23.166 38.7046 22.1016 38.7046C21.0176 38.7046 20.5195 39.6519 20.5195 40.7065C20.5195 41.7612 21.0176 42.6987 22.1016 42.6987ZM25.6074 43.3335V38.0308H26.418V38.8608H26.4863C26.7109 38.2944 27.2188 37.9624 27.9121 37.9624C28.6055 37.9624 29.0742 38.2944 29.3281 38.8608H29.3867C29.6602 38.314 30.2168 37.9624 30.9785 37.9624C31.9258 37.9624 32.5996 38.5386 32.5996 39.7886V43.3335H31.7598V39.7983C31.7598 39.0171 31.2617 38.7144 30.6855 38.7144C29.9434 38.7144 29.5234 39.2124 29.5234 39.8862V43.3335H28.6738V39.7104C28.6738 39.1147 28.2441 38.7144 27.6387 38.7144C27.0039 38.7144 26.4473 39.2515 26.4473 40.0229V43.3335H25.6074ZM36.1738 43.4409C34.6406 43.4409 33.6934 42.3569 33.6934 40.7261C33.6934 39.0952 34.6504 37.9624 36.0957 37.9624C37.209 37.9624 38.3809 38.646 38.3809 40.6089V40.9604H34.5332C34.5723 42.0835 35.2266 42.6987 36.1738 42.6987C36.8086 42.6987 37.209 42.4253 37.4043 42.0933H38.3027C38.0488 42.894 37.2676 43.4409 36.1738 43.4409ZM34.543 40.2476H37.5312C37.5312 39.3589 36.9648 38.7046 36.0957 38.7046C35.1777 38.7046 34.5918 39.4272 34.543 40.2476Z" fill="#00847E"/>
</svg>
