<svg width="73" height="52" viewBox="0 0 73 52" fill="none" xmlns="http://www.w3.org/2000/svg">
    <path d="M25.5 13.8L35.2506 5.99951C35.981 5.41516 37.019 5.41516 37.7494 5.99951L47.5 13.8V24.8C47.5 25.3835 47.2425 25.9431 46.784 26.3556C46.3256 26.7682 45.7039 27 45.0556 27H27.9444C27.2961 27 26.6744 26.7682 26.216 26.3556C25.7575 25.9431 25.5 25.3835 25.5 24.8V13.8Z" fill="#C7D2FE"/>
    <path d="M39.8032 44.0127V46.7949H33.1538V44.0127H39.8032ZM32.1011 43.3574V42.5518H35.979V41.8965C34.2764 41.8267 33.3203 41.3701 33.3257 40.543C33.3203 39.646 34.4644 39.1841 36.4839 39.1787C38.5142 39.1841 39.6475 39.646 39.6421 40.543C39.6475 41.3701 38.7075 41.8267 36.9995 41.8965V42.5518H40.8774V43.3574H32.1011ZM32.5522 38.835V38.0508H35.979V37.1592H36.9995V38.0508H40.3833V38.835H32.5522ZM34.1636 46.0107H38.8149V44.7969H34.1636V46.0107ZM34.4106 40.543C34.4053 40.978 35.1411 41.209 36.4839 41.209C37.8374 41.209 38.5571 40.978 38.5571 40.543C38.5571 40.1025 37.8374 39.8877 36.4839 39.877C35.1411 39.8877 34.4053 40.1025 34.4106 40.543Z" fill="#A5B4FC"/>
</svg>
