<svg width="73" height="52" viewBox="0 0 73 52" fill="none" xmlns="http://www.w3.org/2000/svg">
    <path d="M23.5 5H30.5C31.773 5 33.5998 5.08316 34.5 6C35.4002 6.91684 35.5 8.70339 35.5 10V27C35.5 26.0275 35.1751 24.6876 34.5 24C33.8249 23.3124 32.4548 23 31.5 23H23.5V5Z" fill="#6366F1"/>
    <path d="M49.5 5H42.5C41.227 5 39.4002 5.08316 38.5 6C37.5998 6.91684 37.5 8.70339 37.5 10V27C37.5 26.0275 37.8249 24.6876 38.5 24C39.1751 23.3124 40.5452 23 41.5 23H49.5V5Z" fill="#6366F1"/>
    <path d="M18.0288 38.1367V44.6035H13.3345V38.1367H18.0288ZM14.688 43.5186H16.6646V39.2109H14.688V43.5186ZM19.3608 46.9883V37.2129H20.7358V40.8975H22.1753V42.0361H20.7358V46.9883H19.3608ZM30.7153 37.2129V47.0098H29.3296V37.2129H30.7153ZM22.8198 41.3809C22.8145 39.2485 23.9048 37.9004 25.4087 37.9004C26.8804 37.9004 27.9761 39.2485 27.9761 41.3809C27.9761 43.5293 26.8804 44.8721 25.4087 44.8721C23.9048 44.8721 22.8145 43.5293 22.8198 41.3809ZM24.1411 41.3809C24.1357 42.8364 24.646 43.6313 25.4087 43.626C26.1499 43.6313 26.6494 42.8364 26.6548 41.3809C26.6494 39.9307 26.1499 39.1357 25.4087 39.1357C24.646 39.1357 24.1357 39.9307 24.1411 41.3809ZM40.5874 37.2129V46.9883H39.2661V37.2129H40.5874ZM31.9292 43.626H32.7456V39.4258H32.1118V38.3193H36.5913V39.4258H35.9683V43.4917C36.2422 43.4648 36.5054 43.438 36.7524 43.4004L36.8491 44.3887C35.3022 44.7163 33.3042 44.7539 32.0796 44.7539L31.9292 43.626ZM33.9595 43.6045C34.2119 43.5991 34.4644 43.5884 34.7222 43.5776V39.4258H33.9595V43.6045ZM36.3657 41.9932V40.7686H37.311V37.4062H38.6108V46.5264H37.311V41.9932H36.3657ZM49.729 37.2129V47.0098H48.3433V37.2129H49.729ZM41.8335 41.3809C41.8281 39.2485 42.9185 37.9004 44.4224 37.9004C45.894 37.9004 46.9897 39.2485 46.9897 41.3809C46.9897 43.5293 45.894 44.8721 44.4224 44.8721C42.9185 44.8721 41.8281 43.5293 41.8335 41.3809ZM43.1548 41.3809C43.1494 42.8364 43.6597 43.6313 44.4224 43.626C45.1636 43.6313 45.6631 42.8364 45.6685 41.3809C45.6631 39.9307 45.1636 39.1357 44.4224 39.1357C43.6597 39.1357 43.1494 39.9307 43.1548 41.3809ZM54.8423 39.877C54.8369 41.4561 55.6533 43.1479 57.2915 43.8301L56.5503 44.9043C55.4009 44.4155 54.606 43.4434 54.1655 42.2617C53.7251 43.5454 52.9141 44.6196 51.7593 45.1514L50.9751 44.0664C52.5972 43.3413 53.4351 41.5312 53.4351 39.877V39.2754H51.3618V38.1582H56.8833V39.2754H54.8423V39.877ZM57.8501 46.9883V37.2129H59.2358V46.9883H57.8501Z" fill="#6366F1"/>
</svg>
