<svg width="73" height="52" viewBox="0 0 73 52" fill="none" xmlns="http://www.w3.org/2000/svg">
    <path fill-rule="evenodd" clip-rule="evenodd" d="M43.5004 4C44.0526 4 44.5004 4.44772 44.5004 5V8H45.8333C47.3061 8 48.5 8.99492 48.5 10.2222V25.7778C48.5 27.0051 47.3061 28 45.8333 28H27.1667C25.6939 28 24.5 27.0051 24.5 25.7778V10.2222C24.5 8.99492 25.6939 8 27.1667 8H28.4996V5C28.4996 4.44772 28.9474 4 29.4996 4C30.0519 4 30.4996 4.44772 30.4996 5V8H42.5004V5C42.5004 4.44772 42.9481 4 43.5004 4Z" fill="#C7D2FE"/>
    <path d="M26.8911 37.8359C26.8857 40.1348 25.731 41.7837 23.1421 42.7451L22.6909 42.0254C23.9424 41.5742 24.791 40.978 25.3013 40.2368L22.8091 40.5107L22.6587 39.6836L25.6826 39.501C25.7793 39.2324 25.8438 38.9531 25.876 38.6631H23.0991V37.8359H26.8911ZM24.3452 43.5293V42.7236H30.8013V45.0762H25.3765V45.9893H31.1665V46.7949H24.3667V44.3242H29.8022V43.5293H24.3452ZM27.7075 42.251V37.4707H28.6743V39.4258H29.8345V37.2988H30.8013V42.3154H29.8345V40.2637H28.6743V42.251H27.7075ZM40.0718 37.2988V44.3779H39.062V37.2988H40.0718ZM32.5845 38.7812V37.9648H37.0103V40.833H33.605V42.2188C35.3721 42.208 36.5806 42.1543 38.0093 41.8965L38.1167 42.7344C36.6021 42.9976 35.3237 43.0513 33.4116 43.0566H32.606V40.0596H36.0005V38.7812H32.5845ZM33.7124 46.709V43.8193H34.7329V45.8818H40.3403V46.709H33.7124ZM46.4956 38.1797V39.0283H43.1118V43.7227C44.7285 43.7119 45.8296 43.6528 47.0972 43.4111L47.2153 44.249C45.8296 44.5122 44.6587 44.5713 42.8433 44.5713H42.0806V38.1797H46.4956ZM45.9478 41.5742V40.7256H48.6226V37.2881H49.6431V46.9346H48.6226V41.5742H45.9478Z" fill="#A5B4FC"/>
</svg>
