<svg width="73" height="52" viewBox="0 0 73 52" fill="none" xmlns="http://www.w3.org/2000/svg">
    <path d="M48.5 5H24.5C23.9477 5 23.5 5.44772 23.5 6V8C23.5 8.55228 23.9477 9 24.5 9H48.5C49.0523 9 49.5 8.55228 49.5 8V6C49.5 5.44772 49.0523 5 48.5 5Z" fill="#6366F1"/>
    <path fill-rule="evenodd" clip-rule="evenodd" d="M46.5096 27C47.0619 27 47.5096 26.5523 47.5096 26V11.4858C47.5096 10.9336 47.0619 10.4858 46.5096 10.4858H26.4907C25.9384 10.4858 25.4907 10.9336 25.4907 11.4858V26C25.4907 26.5523 25.9384 27 26.4907 27H46.5096ZM34.0537 14.5671C33.5015 14.5671 33.0537 15.0149 33.0537 15.5671C33.0537 16.1194 33.5015 16.5671 34.0537 16.5671H38.9468C39.4991 16.5671 39.9468 16.1194 39.9468 15.5671C39.9468 15.0149 39.4991 14.5671 38.9468 14.5671H34.0537Z" fill="#6366F1"/>
    <path d="M13.4902 37.2236V40.2207H14.8115V41.3379H13.4902V44.5176H12.1152V37.2236H13.4902ZM5.73438 39.3291V38.2441H7.95801V37.2021H9.32227V38.2441H11.5352V39.3291H5.73438ZM6.20703 41.5635C6.20703 40.4302 7.21143 39.6729 8.63477 39.6729C10.0527 39.6729 11.041 40.4302 11.041 41.5635C11.041 42.6914 10.0527 43.4326 8.63477 43.4326C7.21143 43.4326 6.20703 42.6914 6.20703 41.5635ZM7.15234 46.8164V43.959H8.5166V45.7207H13.8447V46.8164H7.15234ZM7.5498 41.5635C7.54443 42.1006 7.97949 42.3906 8.63477 42.3906C9.29541 42.3906 9.74121 42.1006 9.74121 41.5635C9.74121 41.021 9.29541 40.7202 8.63477 40.7148C7.97949 40.7202 7.54443 41.021 7.5498 41.5635ZM26.6924 42.6055V43.7012H22.8896V46.9883H21.5361V43.7012H17.7764V42.6055H26.6924ZM18.2168 40.9619C20.1934 40.7202 21.2891 39.7642 21.4341 38.8027H18.582V37.7285H25.8975V38.8027H23.0454C23.1851 39.7642 24.2646 40.7202 26.2734 40.9619L25.7793 42.0361C24.0605 41.8052 22.8306 41.0747 22.2397 40.0703C21.6436 41.0747 20.4243 41.8052 18.7217 42.0361L18.2168 40.9619ZM37.6924 39.4688V40.543H34.9639V41.1875H38.7344V42.2725H29.8184V41.1875H33.5889V40.543H30.9355V37.5352H37.6172V38.6309H32.2998V39.4688H37.6924ZM30.8496 43.8086V42.7988H37.6494V45.291H32.2031V45.8711H37.9072V46.9131H30.8604V44.335H36.2959V43.8086H30.8496ZM41.957 37.9004C43.4502 37.9004 44.5298 39.2485 44.5352 41.3809C44.5298 43.5293 43.4502 44.8721 41.957 44.8721C40.4585 44.8721 39.3735 43.5293 39.3789 41.3809C39.3735 39.2485 40.4585 37.9004 41.957 37.9004ZM40.7002 41.3809C40.7002 42.8364 41.2104 43.6313 41.957 43.626C42.7197 43.6313 43.2192 42.8364 43.2246 41.3809C43.2192 39.9307 42.7197 39.1357 41.957 39.1357C41.2104 39.1357 40.7002 39.9307 40.7002 41.3809ZM45.6631 46.9883V37.2129H47.0381V40.8975H48.4775V42.0361H47.0381V46.9883H45.6631ZM57.7803 44.7324V45.8496H48.832V44.7324H52.6025V42.9277H49.7773V37.8359H51.1523V39.3506H55.417V37.8359H56.7812V42.9277H53.9668V44.7324H57.7803ZM51.1523 41.832H55.417V40.4463H51.1523V41.832ZM66.5566 37.2129V46.9883H65.1709V37.2129H66.5566ZM58.3711 44.2168C60.8955 43.0244 62.0073 41.4775 62.2275 39.3076H58.8975V38.2334H63.624C63.6187 41.1982 62.582 43.6636 59.0908 45.3125L58.3711 44.2168Z" fill="#6366F1"/>
</svg>
