<svg width="132" height="36" viewBox="0 0 132 36" fill="none" xmlns="http://www.w3.org/2000/svg">
<rect width="132" height="36" rx="8" fill="url(#paint0_linear_523_10310)"/>
<path d="M48.9414 12.7422V15.918H42.9766V16.8086H49.1875V18.0039H41.4648V14.793H47.4062V13.9492H41.4297V12.7422H48.9414ZM40.3047 19.9961V18.8008H50.0664V19.9961H45.918V23.1016H44.418V19.9961H40.3047ZM56.5117 13.4336C56.5 16.7148 55.5977 19.5098 51.5664 21.4844L50.7812 20.3359C52.5391 19.4629 53.6406 18.4668 54.2852 17.2715L51.0508 17.5586L50.8633 16.293L54.7656 16.0586C54.8945 15.6133 54.9707 15.1328 55.0176 14.6289H51.4141V13.4336H56.5117ZM58.1406 23.0781V12.4141H59.6523V23.0781H58.1406ZM64.5156 13.1289C66.209 13.123 67.4629 14.2129 67.4688 15.7422C67.4629 17.2773 66.209 18.3613 64.5156 18.3672C62.834 18.3613 61.5449 17.2773 61.5508 15.7422C61.5449 14.2129 62.834 13.123 64.5156 13.1289ZM61.1055 19.7031C63.0098 19.709 65.6465 19.6855 67.9258 19.3633L68.043 20.4414C65.6758 20.9043 63.1445 20.9219 61.2812 20.9219L61.1055 19.7031ZM63.0391 15.7422C63.0332 16.5859 63.6719 17.0723 64.5156 17.0664C65.3652 17.0723 66.0098 16.5859 66.0156 15.7422C66.0098 14.9102 65.3652 14.418 64.5156 14.418C63.6719 14.418 63.0332 14.9102 63.0391 15.7422ZM68.5352 23.1016V12.4141H70.0234V23.1016H68.5352ZM79.8555 13.2461C79.8496 14.5059 81.1387 15.8945 83.582 16.1992L82.9961 17.4062C81.1328 17.1367 79.7676 16.2754 79.0703 15.1211C78.3672 16.2695 77.0078 17.1367 75.168 17.4062L74.5703 16.1992C76.9961 15.8945 78.2793 14.5059 78.2852 13.2461V12.7305H79.8555V13.2461ZM74.1953 19.4336V18.2148H83.9219V19.4336H79.7734V23.0781H78.2969V19.4336H74.1953ZM90.7656 13.3516V14.5586H89.7227V19.2754C90.168 19.2461 90.6016 19.2051 91.0234 19.1523L91.1172 20.2305C88.9492 20.6113 86.4883 20.6465 84.6602 20.6523L84.5195 19.4219C84.8945 19.4219 85.3047 19.416 85.7266 19.416V14.5586H84.8125V13.3516H90.7656ZM87.1797 19.3926C87.543 19.3867 87.9121 19.375 88.2812 19.3574V14.5586H87.1797V19.3926ZM90.4492 17.4883V16.293H92.0898V12.4141H93.5664V23.0781H92.0898V17.4883H90.4492ZM103.562 12.7422V15.918H97.5977V16.8086H103.809V18.0039H96.0859V14.793H102.027V13.9492H96.0508V12.7422H103.562ZM94.9258 19.9961V18.8008H104.688V19.9961H100.539V23.1016H99.0391V19.9961H94.9258ZM111.133 13.4336C111.121 16.7148 110.219 19.5098 106.188 21.4844L105.402 20.3359C107.16 19.4629 108.262 18.4668 108.906 17.2715L105.672 17.5586L105.484 16.293L109.387 16.0586C109.516 15.6133 109.592 15.1328 109.639 14.6289H106.035V13.4336H111.133ZM112.762 23.0781V12.4141H114.273V23.0781H112.762Z" fill="white"/>
<g clip-path="url(#clip0_523_10310)">
<path d="M11.2407 12.0984C11.8673 11.6604 12.812 11.7444 13.3747 12.2091L12.7293 11.2711C12.21 10.5304 12.396 9.72906 13.1373 9.20906C13.8787 8.69106 15.9793 10.0837 15.9793 10.0837C15.4553 9.33573 15.5533 8.38773 16.3013 7.86306C17.0493 7.3404 18.0813 7.52106 18.6053 8.2704L25.552 18.0837L24.6667 26.6671L17.278 23.9724L10.8333 14.4171C10.3047 13.6644 10.4873 12.6264 11.2407 12.0984Z" fill="#EF9645"/>
<path d="M9.79656 17.5574C9.79656 17.5574 9.0419 16.4574 10.1426 15.7034C11.2419 14.9494 11.9959 16.0487 11.9959 16.0487L15.4966 21.1541C15.6172 20.9527 15.7492 20.7541 15.8966 20.5581L11.0379 13.4734C11.0379 13.4734 10.2839 12.3741 11.3839 11.6201C12.4832 10.8661 13.2372 11.9654 13.2372 11.9654L17.8072 18.6301C17.9772 18.4914 18.1512 18.3521 18.3306 18.2154L13.0326 10.4881C13.0326 10.4881 12.2786 9.38872 13.3786 8.63472C14.4779 7.88072 15.2319 8.98005 15.2319 8.98005L20.5299 16.7061C20.7246 16.5867 20.9172 16.4834 21.1106 16.3741L16.1586 9.15272C16.1586 9.15272 15.4046 8.05339 16.5039 7.29939C17.6032 6.54539 18.3572 7.64472 18.3572 7.64472L23.5932 15.2807L24.3892 16.4421C21.0906 18.7047 20.7766 22.9614 22.6612 25.7101C23.0379 26.2601 23.5879 25.8834 23.5879 25.8834C21.3259 22.5841 22.0166 18.8767 25.3159 16.6147L24.3432 11.7467C24.3432 11.7467 23.9799 10.4641 25.2619 10.1001C26.5446 9.73672 26.9086 11.0194 26.9086 11.0194L28.0319 14.3554C28.4772 15.6781 28.9512 16.9961 29.5786 18.2427C31.3499 21.7627 30.2919 26.1374 26.9519 28.4287C23.3086 30.9267 18.3279 29.9981 15.8292 26.3554L9.79656 17.5574Z" fill="#FFDC5D"/>
<path d="M16.0001 27.362C13.3334 27.362 10.6388 24.6673 10.6388 22.0007C10.6388 21.632 10.3688 21.334 10.0001 21.334C9.63142 21.334 9.30542 21.632 9.30542 22.0007C9.30542 26.0007 12.0001 28.6953 16.0001 28.6953C16.3688 28.6953 16.6668 28.3693 16.6668 28.0007C16.6668 27.632 16.3688 27.362 16.0001 27.362Z" fill="#5DADEC"/>
<path d="M12.6667 28.6673C10.6667 28.6673 9.33333 27.334 9.33333 25.334C9.33333 24.9653 9.03533 24.6673 8.66667 24.6673C8.298 24.6673 8 24.9653 8 25.334C8 28.0007 10 30.0007 12.6667 30.0007C13.0353 30.0007 13.3333 29.7027 13.3333 29.334C13.3333 28.9653 13.0353 28.6673 12.6667 28.6673ZM24 7.33398C23.632 7.33398 23.3333 7.63265 23.3333 8.00065C23.3333 8.36865 23.632 8.66732 24 8.66732C26.6667 8.66732 29.3333 11.06 29.3333 14.0007C29.3333 14.3687 29.632 14.6673 30 14.6673C30.368 14.6673 30.6667 14.3687 30.6667 14.0007C30.6667 10.3247 28 7.33398 24 7.33398Z" fill="#5DADEC"/>
<path d="M27.3334 6.02832C26.9654 6.02832 26.6667 6.29899 26.6667 6.66699C26.6667 7.03499 26.9654 7.36165 27.3334 7.36165C29.3334 7.36165 30.6387 8.84499 30.6387 10.667C30.6387 11.035 30.9647 11.3337 31.3334 11.3337C31.7021 11.3337 31.9721 11.035 31.9721 10.667C31.9721 8.10899 30.0001 6.02832 27.3334 6.02832Z" fill="#5DADEC"/>
</g>
<defs>
<linearGradient id="paint0_linear_523_10310" x1="-21.5" y1="28" x2="6.52477" y2="96.4055" gradientUnits="userSpaceOnUse">
<stop stop-color="#95ACFF"/>
<stop offset="1" stop-color="#CBDDFF"/>
</linearGradient>
<clipPath id="clip0_523_10310">
<rect width="24" height="24" fill="white" transform="translate(8 6)"/>
</clipPath>
</defs>
</svg>
