<svg width="110" height="36" viewBox="0 0 110 36" fill="none" xmlns="http://www.w3.org/2000/svg">
<rect width="110" height="36" rx="8" fill="#F87171" fill-opacity="0.2"/>
<path d="M49.0117 17.0078V18.2148H45.9414V20.6641H50.0781V21.8594H40.3164V20.6641H44.4297V18.2148H41.4062V13.2344H42.9414V17.0078H49.0117ZM59.3828 17.9219V19.1055H51.8359V13.1992H59.3008V14.4062H53.3594V15.5312H59.0547V16.7031H53.3594V17.9219H59.3828ZM50.6875 21.8359V20.6172H60.4492V21.8359H50.6875ZM64.5156 13.1289C66.209 13.123 67.4629 14.2129 67.4688 15.7422C67.4629 17.2773 66.209 18.3613 64.5156 18.3672C62.834 18.3613 61.5449 17.2773 61.5508 15.7422C61.5449 14.2129 62.834 13.123 64.5156 13.1289ZM61.1055 19.7031C63.0098 19.709 65.6465 19.6855 67.9258 19.3633L68.043 20.4414C65.6758 20.9043 63.1445 20.9219 61.2812 20.9219L61.1055 19.7031ZM63.0391 15.7422C63.0332 16.5859 63.6719 17.0723 64.5156 17.0664C65.3652 17.0723 66.0098 16.5859 66.0156 15.7422C66.0098 14.9102 65.3652 14.418 64.5156 14.418C63.6719 14.418 63.0332 14.9102 63.0391 15.7422ZM68.5352 23.1016V12.4141H70.0234V23.1016H68.5352ZM82.9844 13.3398V14.3477C82.9785 15.6836 82.9785 17.1836 82.5508 19.4453L81.0508 19.293C81.4609 17.2773 81.4785 15.7773 81.4844 14.5234H75.2031V13.3398H82.9844ZM74.1953 21.7773V20.5586H77.6758V16.8906H79.1641V20.5586H83.9219V21.7773H74.1953ZM90.2266 13.2461C90.2207 14.5059 91.5098 15.8945 93.9531 16.1992L93.3672 17.4062C91.5039 17.1367 90.1387 16.2754 89.4414 15.1211C88.7383 16.2695 87.3789 17.1367 85.5391 17.4062L84.9414 16.1992C87.3672 15.8945 88.6504 14.5059 88.6562 13.2461V12.7305H90.2266V13.2461ZM84.5664 19.4336V18.2148H94.293V19.4336H90.1445V23.0781H88.668V19.4336H84.5664Z" fill="#F87171"/>
<g clip-path="url(#clip0_523_10313)">
<path d="M26.5432 8.66699H27.8739V10.261H26.5432V8.66699Z" fill="#66757F"/>
<path d="M27.3333 8.66699H13.9999C12.5273 8.66699 11.3333 9.86099 11.3333 11.3337V27.3337C11.3333 28.8063 12.5273 30.0003 13.9999 30.0003H27.3333C28.8059 30.0003 29.9999 28.8063 29.9999 27.3337V11.3337C29.9999 9.86099 28.8059 8.66699 27.3333 8.66699Z" fill="#55ACEE"/>
<path d="M26 8.66699H12.6667C11.194 8.66699 10 9.86099 10 11.3337V27.3337C10 28.8063 11.194 30.0003 12.6667 30.0003H26C27.4727 30.0003 28.6667 28.8063 28.6667 27.3337V11.3337C28.6667 9.86099 27.4727 8.66699 26 8.66699Z" fill="#CCD6DD"/>
<path d="M26.6667 15.9997C26.6667 16.3683 26.3687 16.6663 26 16.6663H12.6667C12.2987 16.6663 12 16.3683 12 15.9997C12 15.6317 12.2987 15.333 12.6667 15.333H26C26.3687 15.333 26.6667 15.6317 26.6667 15.9997ZM26.6667 19.333C26.6667 19.7017 26.3687 19.9997 26 19.9997H12.6667C12.2987 19.9997 12 19.7017 12 19.333C12 18.9643 12.2987 18.6663 12.6667 18.6663H26C26.3687 18.6663 26.6667 18.9643 26.6667 19.333ZM26.6667 22.6663C26.6667 23.035 26.3687 23.333 26 23.333H12.6667C12.2987 23.333 12 23.035 12 22.6663C12 22.2977 12.2987 21.9997 12.6667 21.9997H26C26.3687 21.9997 26.6667 22.2977 26.6667 22.6663ZM21.3333 25.9997C21.3333 26.3683 21.0353 26.6663 20.6667 26.6663H12.6667C12.2987 26.6663 12 26.3683 12 25.9997C12 25.631 12.2987 25.333 12.6667 25.333H20.6667C21.0353 25.333 21.3333 25.631 21.3333 25.9997Z" fill="#99AAB5"/>
<path d="M13.224 11.8203C12.756 11.8203 12.3767 11.3763 12.3767 10.8276C12.3767 10.2796 12.756 9.83496 13.224 9.83496C13.6914 9.83496 14.0707 10.2796 14.0707 10.8276C14.0707 11.3756 13.6914 11.8203 13.224 11.8203Z" fill="#292F33"/>
<path d="M13.6952 10.7225C13.6586 10.4025 13.4459 10.1945 13.2092 10.0445C12.8859 9.83981 12.5426 9.37247 12.5426 8.79314C12.5426 8.05714 12.9899 7.39647 13.5426 7.39647C14.0952 7.39647 14.5426 7.99981 14.5426 8.66647H15.8732C15.8592 7.33314 14.8232 6.11914 13.5426 6.11914C12.2532 6.11914 11.2092 7.33181 11.2092 8.78914C11.2092 10.0245 11.9059 11.0365 12.9219 11.4065C13.4286 11.5905 13.7379 11.1085 13.6952 10.7225Z" fill="#66757F"/>
<path d="M17.224 11.8203C16.756 11.8203 16.3767 11.3763 16.3767 10.8276C16.3767 10.2796 16.756 9.83496 17.224 9.83496C17.6914 9.83496 18.0707 10.2796 18.0707 10.8276C18.0707 11.3756 17.6914 11.8203 17.224 11.8203Z" fill="#292F33"/>
<path d="M17.6952 10.7225C17.6586 10.4025 17.4459 10.1945 17.2092 10.0445C16.8859 9.83981 16.5426 9.37247 16.5426 8.79314C16.5426 8.05714 16.9899 7.39647 17.5426 7.39647C18.0952 7.39647 18.5426 7.99981 18.5426 8.66647H19.8732C19.8599 7.33314 18.8232 6.11914 17.5426 6.11914C16.2532 6.11914 15.2092 7.33181 15.2092 8.78914C15.2092 10.0245 15.9059 11.0365 16.9219 11.4065C17.4286 11.5905 17.7379 11.1085 17.6952 10.7225Z" fill="#66757F"/>
<path d="M21.224 11.8203C20.756 11.8203 20.3767 11.3763 20.3767 10.8276C20.3767 10.2796 20.756 9.83496 21.224 9.83496C21.6914 9.83496 22.0714 10.2796 22.0714 10.8276C22.0707 11.3756 21.6914 11.8203 21.224 11.8203Z" fill="#292F33"/>
<path d="M21.6953 10.7225C21.6586 10.4025 21.446 10.1945 21.21 10.0445C20.8866 9.83981 20.5433 9.37247 20.5433 8.79314C20.5433 8.05714 20.9906 7.39647 21.5433 7.39647C22.096 7.39647 22.5433 7.99981 22.5433 8.66647H23.874C23.8606 7.33314 22.824 6.11914 21.5433 6.11914C20.254 6.11914 19.21 7.33181 19.21 8.78914C19.21 10.0245 19.9066 11.0365 20.9226 11.4065C21.4286 11.5905 21.738 11.1085 21.6953 10.7225Z" fill="#66757F"/>
<path d="M25.224 11.8203C24.756 11.8203 24.3767 11.3763 24.3767 10.8276C24.3767 10.2796 24.756 9.83496 25.224 9.83496C25.6914 9.83496 26.0714 10.2796 26.0714 10.8276C26.0707 11.3756 25.6914 11.8203 25.224 11.8203Z" fill="#292F33"/>
<path d="M25.6953 10.7225C25.6586 10.4025 25.446 10.1945 25.21 10.0445C24.8866 9.83981 24.5433 9.37247 24.5433 8.79314C24.5433 8.05714 24.9906 7.39647 25.5433 7.39647C26.096 7.39647 26.5433 7.99981 26.5433 8.66647H27.874C27.8606 7.33314 26.824 6.11914 25.5433 6.11914C24.254 6.11914 23.21 7.33181 23.21 8.78914C23.21 10.0245 23.9066 11.0365 24.9226 11.4065C25.4286 11.5905 25.738 11.1085 25.6953 10.7225Z" fill="#66757F"/>
</g>
<defs>
<clipPath id="clip0_523_10313">
<rect width="24" height="24" fill="white" transform="translate(8 6)"/>
</clipPath>
</defs>
</svg>
