<svg width="144" height="36" viewBox="0 0 144 36" fill="none" xmlns="http://www.w3.org/2000/svg">
<rect width="144" height="36" rx="8" fill="#8B5CF6" fill-opacity="0.2"/>
<path d="M50.0781 20.6055V21.8359H40.3164V20.6055H44.4297V18.4258H41.3477V13.1992H48.9883V18.4258H45.918V20.6055H50.0781ZM42.8242 17.2539H47.5117V14.3945H42.8242V17.2539ZM60.4375 17.6758V18.8711H50.6875V17.6758H60.4375ZM51.8594 22.8789V19.7031H53.3359V21.6836H59.4297V22.8789H51.8594ZM51.8711 16.8086V12.8008H59.2656V13.9961H53.3594V15.6133H59.3711V16.8086H51.8711ZM69.4609 13.0352C69.4609 14.2246 70.7148 15.543 73.0586 15.8594L72.4961 17.043C70.6973 16.7734 69.373 15.9473 68.6934 14.8516C68.0078 15.9648 66.6777 16.7969 64.8789 17.0664L64.3281 15.8945C66.6602 15.5605 67.9141 14.2656 67.9258 13.0352V12.6836H69.4609V13.0352ZM63.8125 18.8477V17.6523H73.5742V18.8477H69.5547V20.6875H68.0781V18.8477H63.8125ZM64.9609 22.8906V19.7617H66.4492V21.6953H72.4961V22.8906H64.9609ZM82.6562 12.4141V15.4023H84.0977V16.6328H82.6562V20.0547H81.1445V12.4141H82.6562ZM74.125 17.8281C76.5156 17.166 77.8691 15.9297 78.1035 14.4297H74.5938V13.2109H79.75C79.7441 16.0938 77.9453 18.1094 74.7461 19.0117L74.125 17.8281ZM75.7188 22.8906V19.2695H77.2305V21.6953H83.0195V22.8906H75.7188ZM89.4297 12.5664C91.8848 12.5664 93.3027 13.2109 93.3086 14.3828C93.3027 15.5723 91.8848 16.2109 89.4297 16.2109C86.9688 16.2109 85.5391 15.5723 85.5391 14.3828C85.5391 13.2109 86.9688 12.5664 89.4297 12.5664ZM84.5664 17.8984V16.7148H94.293V17.8984H84.5664ZM85.6914 19.6094V18.5195H93.1094V21.2383H87.168V21.8828H93.3906V23.0078H85.7031V20.1953H91.6328V19.6094H85.6914ZM87.1094 14.3828C87.1035 14.9043 87.8652 15.1094 89.4297 15.1094C91.0059 15.1094 91.7617 14.9043 91.7617 14.3828C91.7617 13.9082 91.0059 13.6562 89.4297 13.6562C87.8652 13.6562 87.1035 13.9082 87.1094 14.3828ZM107.465 20.6055V21.8008H97.7031V20.6055H101.781V18.1914H103.27V20.6055H107.465ZM97.9375 17.2891C100.352 16.9141 101.711 15.291 101.723 13.7852V13.0234H103.316V13.7852C103.311 15.3086 104.688 16.9141 107.125 17.2891L106.492 18.5312C104.617 18.1914 103.223 17.1895 102.52 15.8594C101.822 17.1836 100.434 18.1973 98.5703 18.5312L97.9375 17.2891ZM117.801 17.2539V18.4609H113.676V19.252C115.527 19.3867 116.629 20.0547 116.641 21.1562C116.629 22.3926 115.229 23.084 112.926 23.0781C110.588 23.084 109.188 22.3926 109.188 21.1562C109.188 20.0488 110.295 19.3809 112.188 19.2461V18.4609H108.074V17.2539H117.801ZM108.508 15.6836C110.482 15.5078 111.572 14.7812 111.842 14.043H108.965V12.8711H116.922V14.043H114.021C114.279 14.7871 115.363 15.5078 117.391 15.6836L116.863 16.8555C114.848 16.6621 113.494 15.9062 112.926 14.8691C112.363 15.9004 111.021 16.668 109 16.8555L108.508 15.6836ZM110.711 21.1562C110.705 21.6719 111.449 21.9531 112.926 21.9531C114.373 21.9531 115.135 21.6719 115.141 21.1562C115.135 20.6172 114.373 20.3594 112.926 20.3477C111.449 20.3594 110.705 20.6172 110.711 21.1562ZM127.375 12.4141V23.0781H125.863V12.4141H127.375ZM118.668 15.2148V14.0195H121.094V12.5547H122.617V14.0195H125.043V15.2148H118.668ZM119.125 18.3438C119.125 16.8555 120.297 15.7949 121.879 15.8008C123.455 15.7949 124.621 16.8555 124.621 18.3438C124.621 19.832 123.455 20.8809 121.879 20.8867C120.297 20.8809 119.125 19.832 119.125 18.3438ZM120.555 18.3438C120.549 19.1699 121.1 19.6621 121.879 19.6562C122.646 19.6621 123.191 19.1699 123.191 18.3438C123.191 17.5234 122.646 17.0195 121.879 17.0078C121.1 17.0195 120.549 17.5234 120.555 18.3438Z" fill="#8B5CF6"/>
<g clip-path="url(#clip0_523_10312)">
<path d="M10.778 27.8193C10.9726 27.9307 11.1953 28 11.436 28C12.1726 28 12.7693 27.4027 12.7693 26.6667C12.7693 25.9307 12.1726 25.3333 11.436 25.3333C10.6993 25.3333 10.1026 25.9307 10.1026 26.6667C10.1026 26.9073 10.1713 27.13 10.2826 27.3247L8.1853 29.422L8.7693 24.6667L14.7693 20L18.1026 23.3333L13.436 29.3333L8.67997 29.9173L10.778 27.8193Z" fill="#99AAB5"/>
<path d="M23.0074 9.53905C22.2401 10.3064 22.2401 11.5497 23.0074 12.317L25.7854 15.0957C26.5527 15.8624 27.7974 15.8624 28.5634 15.0957L31.3414 12.317C32.1081 11.5497 32.1081 10.3064 31.3414 9.53905L28.5634 6.76105C27.7967 5.99371 26.5527 5.99371 25.7854 6.76105L23.0074 9.53905Z" fill="#66757F"/>
<path d="M14.3406 18.2057L25.8086 6.73633L31.364 12.293L19.8966 23.7617C19.13 24.5283 17.886 24.5283 17.118 23.7617L14.3406 20.983C13.5733 20.2157 13.5733 18.9723 14.3406 18.2057Z" fill="#31373D"/>
<path d="M19.646 12.9001L21.0627 11.4834L26.6187 17.0394L25.202 18.4561L19.646 12.9001Z" fill="#66757F"/>
</g>
<defs>
<clipPath id="clip0_523_10312">
<rect width="24" height="24" fill="white" transform="translate(8 6)"/>
</clipPath>
</defs>
</svg>
