<svg width="171" height="36" viewBox="0 0 171 36" fill="none" xmlns="http://www.w3.org/2000/svg">
<rect width="171" height="36" rx="8" fill="url(#paint0_linear_523_10309)"/>
<path d="M50.0781 20.6055V21.8359H40.3164V20.6055H44.4297V18.4258H41.3477V13.1992H48.9883V18.4258H45.918V20.6055H50.0781ZM42.8242 14.3945V17.2539H47.5117V14.3945H42.8242ZM59.2891 16.2109V17.3828H51.918V12.9766H59.1836V14.1719H53.4531V16.2109H59.2891ZM60.4375 18.4609V19.6445H56.2656V23.0664H54.7891V19.6445H50.6758V18.4609H60.4375ZM72.6484 18.7305V19.8438H64.7031V18.7305H67.9258V17.9805H69.4258V18.7305H72.6484ZM72.5078 14.5469V15.707H69.4844V16.4805H73.5742V17.6641H63.8125V16.4805H67.9961V15.707H65.0781V12.5781H66.5664V14.5469H72.5078ZM68.6641 20.1484C70.7266 20.1484 71.957 20.6758 71.957 21.6133C71.957 22.5625 70.7266 23.0781 68.6641 23.0781C66.6016 23.0781 65.3945 22.5625 65.3945 21.6133C65.3945 20.6758 66.6016 20.1484 68.6641 20.1484ZM68.6641 21.168C67.5391 21.1797 66.9766 21.2852 66.9766 21.6133C66.9766 21.9414 67.5391 22.0586 68.6641 22.0586C69.7773 22.0586 70.3633 21.9414 70.375 21.6133C70.3633 21.2852 69.7773 21.1797 68.6641 21.168ZM83.1133 12.4141V23.0781H81.6133V12.4141H83.1133ZM78.3672 15.7539C78.3672 17.3008 79.2461 19.0469 81.0156 19.7734L80.207 20.9219C78.9941 20.4238 78.127 19.4043 77.6406 18.1797C77.166 19.4805 76.293 20.5703 75.0508 21.0859L74.2539 19.9375C76.0117 19.1758 76.8789 17.3828 76.8789 15.7539V15.3438H74.6055V14.1484H76.8672V12.6484H78.3555V14.1484H80.582V15.3438H78.3672V15.7539ZM88.7031 15.3203C88.7031 17.043 89.582 18.8828 91.375 19.6328L90.5664 20.8047C89.3066 20.2715 88.4395 19.2109 87.9648 17.9102C87.4785 19.3223 86.5938 20.4941 85.3398 21.0742L84.4844 19.8906C86.2539 19.1055 87.168 17.125 87.168 15.3203V14.6641H84.9062V13.4453H90.9297V14.6641H88.7031V15.3203ZM93.4961 12.4141V23.0781H91.9844V12.4141H93.4961ZM100.645 12.9297C102.285 12.9297 103.504 13.9727 103.504 15.4141C103.504 16.8789 102.285 17.9102 100.645 17.9102C99.0156 17.9102 97.7734 16.8789 97.7734 15.4141C97.7734 13.9727 99.0156 12.9297 100.645 12.9297ZM100.645 14.1602C99.8359 14.1484 99.2266 14.6406 99.2383 15.4141C99.2266 16.1992 99.8359 16.6914 100.645 16.6914C101.453 16.6914 102.051 16.1992 102.051 15.4141C102.051 14.6406 101.453 14.1484 100.645 14.1602ZM106.164 12.4141V14.6289H107.605V15.8594H106.164V17.6758H104.664V12.4141H106.164ZM100.117 18.707V21.5781C100.709 21.543 101.266 21.4551 101.816 21.2734L102.027 22.4336C101.125 22.7617 100.27 22.7969 99.25 22.7969H98.6641V18.707H100.117ZM107.031 18.7188V19.8203H101.664V18.7188H103.633V17.9688H105.086V18.7188H107.031ZM104.336 20.0664C105.555 20.0664 106.41 20.6641 106.41 21.5781C106.41 22.5039 105.555 23.0781 104.336 23.0781C103.105 23.0781 102.273 22.5039 102.285 21.5781C102.273 20.6641 103.105 20.0664 104.336 20.0664ZM104.336 21.0977C103.914 21.1094 103.598 21.2734 103.609 21.5781C103.598 21.8945 103.914 22.0586 104.336 22.0586C104.758 22.0586 105.074 21.8945 105.074 21.5781C105.074 21.2734 104.758 21.1094 104.336 21.0977ZM112.938 12.5664C115.387 12.5664 116.805 13.2109 116.816 14.3828C116.805 15.5664 115.387 16.2109 112.938 16.2109C110.477 16.2109 109.047 15.5664 109.047 14.3828C109.047 13.2109 110.477 12.5664 112.938 12.5664ZM112.938 13.6562C111.367 13.6562 110.605 13.9141 110.617 14.3828C110.605 14.9102 111.367 15.1094 112.938 15.1094C114.52 15.1094 115.27 14.9102 115.27 14.3828C115.27 13.9141 114.52 13.6562 112.938 13.6562ZM117.801 16.7148V17.8984H108.074V16.7148H117.801ZM116.617 18.5195V21.2383H110.676V21.8828H116.898V23.0078H109.211V20.1953H115.141V19.6094H109.199V18.5195H116.617ZM130.199 12.4141V23.0781H128.711V17.7344H126.59V16.5156H128.711V12.4141H130.199ZM126.648 13.5273C126.648 16.75 125.605 19.375 121.879 21.2266L121.105 20.0547C123.801 18.7246 124.914 17.0312 125.148 14.6992H121.609V13.5273H126.648ZM140.828 12.4141V23.0781H139.398V12.4141H140.828ZM138.648 12.5664V22.5859H137.242V19.2812H135.988C135.59 20.3184 134.893 20.9102 133.996 20.9102C132.59 20.9102 131.676 19.4336 131.676 17.0312C131.676 14.6406 132.59 13.1758 133.996 13.1758C134.887 13.1758 135.584 13.7559 135.988 14.7812H137.242V12.5664H138.648ZM133.996 14.582C133.375 14.582 133.023 15.4023 133.035 17.0312C133.023 18.6719 133.375 19.4805 133.996 19.4688C134.617 19.4805 134.992 18.6719 134.992 17.0312C134.992 15.4023 134.605 14.582 133.996 14.582ZM136.281 15.9766C136.328 16.3047 136.352 16.6562 136.352 17.0312C136.352 17.4004 136.328 17.752 136.281 18.0742H137.242V15.9766H136.281ZM151.715 20.6055V21.8359H141.953V20.6055H144.133V17.9922C143.307 17.5 142.809 16.7441 142.809 15.8008C142.809 14.0781 144.496 12.9297 146.816 12.9297C149.125 12.9297 150.824 14.0781 150.836 15.8008C150.83 16.7207 150.344 17.4707 149.547 17.9688V20.6055H151.715ZM146.816 14.1133C145.293 14.1133 144.285 14.7227 144.285 15.8008C144.285 16.8438 145.293 17.4883 146.816 17.4883C148.328 17.4883 149.348 16.8438 149.359 15.8008C149.348 14.7227 148.328 14.1133 146.816 14.1133ZM145.609 20.6055H148.035V18.5312C147.654 18.6074 147.244 18.6484 146.816 18.6484C146.389 18.6484 145.984 18.6133 145.609 18.5312V20.6055ZM154.75 13.5156L154.598 19.457H153.098L152.945 13.5156H154.75ZM153.859 22.1055C153.309 22.1055 152.863 21.6602 152.875 21.1211C152.863 20.582 153.309 20.1484 153.859 20.1484C154.375 20.1484 154.832 20.582 154.832 21.1211C154.832 21.6602 154.375 22.1055 153.859 22.1055Z" fill="white"/>
<g clip-path="url(#clip0_523_10309)">
<path d="M27.2266 17.7583C26.5686 18.4543 26.138 19.803 26.268 20.7537L26.8626 25.0477C26.994 25.999 26.3953 26.439 25.532 26.027L21.6313 24.163C20.768 23.7497 19.3593 23.7557 18.498 24.175L14.614 26.0697C13.7533 26.489 13.152 26.0523 13.276 25.1017L13.838 20.8023C13.962 19.851 13.5213 18.5063 12.858 17.815L9.86198 14.6897C9.19798 13.9983 9.42531 13.2883 10.3653 13.113L14.612 12.321C15.552 12.1457 16.6893 11.309 17.1406 10.4617L19.1746 6.637C19.6246 5.78967 20.3673 5.78767 20.8233 6.631L22.8866 10.4397C23.344 11.283 24.4866 12.111 25.4293 12.2783L29.6813 13.039C30.6226 13.207 30.8553 13.915 30.1973 14.6117L27.2266 17.7583Z" fill="#FFAC33"/>
<path d="M14.5219 7.45378C15.2039 8.39578 16.1526 10.7318 15.6666 11.0851C15.1813 11.4391 13.2619 9.81178 12.5799 8.86978C11.8986 7.92778 11.9566 7.09112 12.4926 6.70045C13.0286 6.30912 13.8393 6.51245 14.5219 7.45378ZM27.4206 8.86978C26.7393 9.81178 24.8199 11.4398 24.3333 11.0845C23.8473 10.7311 24.7966 8.39578 25.4793 7.45445C26.1613 6.51178 26.9713 6.30845 27.5079 6.70045C28.0433 7.09112 28.1013 7.92778 27.4206 8.86978ZM19.0833 28.1938C19.0826 27.0298 19.6819 24.5798 20.2839 24.5798C20.8819 24.5798 21.4826 27.0298 21.4819 28.1931C21.4819 29.3578 20.9459 30.0011 20.2819 29.9998C19.6193 30.0011 19.0833 29.3585 19.0833 28.1938ZM29.8693 22.0191C28.7659 21.6598 26.6306 20.3305 26.8166 19.7558C27.0013 19.1838 29.5079 19.3685 30.6099 19.7285C31.7133 20.0885 32.1573 20.7985 31.9519 21.4325C31.7466 22.0658 30.9726 22.3791 29.8693 22.0191ZM9.38859 19.7291C10.4919 19.3691 12.9979 19.1845 13.1846 19.7585C13.3686 20.3298 11.2326 21.6611 10.1306 22.0198C9.02792 22.3798 8.25192 22.0665 8.04859 21.4331C7.84326 20.7998 8.28459 20.0898 9.38859 19.7291Z" fill="#FFD983"/>
</g>
<defs>
<linearGradient id="paint0_linear_523_10309" x1="121" y1="-72.5" x2="165.607" y2="-3.76855" gradientUnits="userSpaceOnUse">
<stop stop-color="#A78BFA"/>
<stop offset="1" stop-color="#A5B4FC"/>
</linearGradient>
<clipPath id="clip0_523_10309">
<rect width="24" height="24" fill="white" transform="translate(8 6)"/>
</clipPath>
</defs>
</svg>
