<svg width="36" height="36" viewBox="0 0 36 36" fill="none" xmlns="http://www.w3.org/2000/svg">
<g clip-path="url(#clip0_214_44090)">
<path d="M13.917 35.9998C13.826 35.9998 13.735 35.9708 13.659 35.9108C13.502 35.7868 13.455 35.5698 13.546 35.3928L17 28.9998H11.922C11.748 28.9998 11.484 28.9688 11.36 28.7028C11.246 28.4598 11.303 28.2288 11.407 27.9998L15 18.9998C15.078 18.9328 21.902 19.3928 22 19.3928C22.09 19.3928 22.182 19.4218 22.257 19.4818C22.414 19.6058 22.461 19.8228 22.369 20.0008L18.552 26.0008H23.584C23.758 26.0008 23.913 26.1088 23.975 26.2718C24.035 26.4348 23.988 26.6188 23.856 26.7328L14.19 35.8988C14.111 35.9658 14.014 35.9998 13.917 35.9998Z" fill="#F4900C"/>
<path d="M28 4C27.175 4 26.38 4.125 25.631 4.357C24.744 1.822 22.338 0 19.5 0C16.456 0 13.908 2.096 13.201 4.921C12.447 4.351 11.519 4 10.5 4C8.015 4 6 6.015 6 8.5C6 9.104 6.123 9.678 6.339 10.204C5.91 10.085 5.467 10 5 10C2.238 10 0 12.238 0 15C0 17.762 2.238 20 5 20H28C32.418 20 36 16.419 36 12C36 7.582 32.418 4 28 4Z" fill="#E1E8ED"/>
</g>
<defs>
<clipPath id="clip0_214_44090">
<rect width="36" height="36" fill="white"/>
</clipPath>
</defs>
</svg>
