<svg width="36" height="36" viewBox="0 0 36 36" fill="none" xmlns="http://www.w3.org/2000/svg">
<g clip-path="url(#clip0_214_44081)">
<path d="M28 4C27.175 4 26.38 4.125 25.631 4.357C24.744 1.822 22.338 0 19.5 0C16.456 0 13.908 2.096 13.201 4.921C12.447 4.351 11.519 4 10.5 4C8.015 4 6 6.015 6 8.5C6 9.104 6.123 9.678 6.339 10.204C5.91 10.085 5.467 10 5 10C2.238 10 0 12.238 0 15C0 17.762 2.238 20 5 20H28C32.418 20 36 16.419 36 12C36 7.582 32.418 4 28 4Z" fill="#E1E8ED"/>
<path d="M11.999 24.961L11.886 21.54L9.016 23.248C8.378 23.593 7.954 24.272 7.98 25.047C8.017 26.15 8.946 27.023 10.056 27C11.165 26.977 12.036 26.063 11.999 24.961ZM10.02 32.421L9.907 29L7.037 30.708C6.399 31.053 5.975 31.732 6.001 32.507C6.038 33.61 6.967 34.483 8.077 34.46C9.187 34.437 10.057 33.523 10.02 32.421ZM5.02 27.961L4.907 24.54L2.037 26.248C1.399 26.593 0.975003 27.272 1.001 28.047C1.038 29.149 1.967 30.022 3.077 30C4.187 29.977 5.057 29.063 5.02 27.961ZM23.02 24.961L22.907 21.54L20.038 23.248C19.399 23.593 18.976 24.272 19.002 25.047C19.039 26.15 19.968 27.023 21.078 27C22.187 26.977 23.057 26.063 23.02 24.961ZM16.999 28.961L16.886 25.54L14.017 27.248C13.378 27.593 12.955 28.272 12.981 29.047C13.018 30.15 13.947 31.023 15.057 31C16.166 30.977 17.036 30.063 16.999 28.961ZM22.02 33.421L21.906 30L19.037 31.708C18.398 32.053 17.975 32.732 18.001 33.507C18.038 34.61 18.967 35.483 20.077 35.46C21.187 35.437 22.057 34.523 22.02 33.421ZM28.999 27.961L28.886 24.54L26.017 26.248C25.378 26.593 24.955 27.272 24.981 28.047C25.018 29.15 25.947 30.023 27.057 30C28.166 29.977 29.036 29.063 28.999 27.961Z" fill="#5DADEC"/>
</g>
<defs>
<clipPath id="clip0_214_44081">
<rect width="36" height="36" fill="white"/>
</clipPath>
</defs>
</svg>
