<svg width="36" height="36" viewBox="0 0 36 36" fill="none" xmlns="http://www.w3.org/2000/svg">
<g clip-path="url(#clip0_214_44098)">
<path d="M36 15C36 10.845 32.831 7.432 28.779 7.04C27.884 3.013 24.297 0 20 0C15.029 0 11 3.56 11 8.531C11 9.687 11.25 11.437 12.121 12.316C8.859 12.5 4.094 12.6 0 12.015C0 12.015 4.816 15.846 15.357 16C15.206 16.313 15.103 17.43 15.051 17.786C14.802 17.789 14.456 17.795 14 17.795C6 17.795 0 17 0 17C0 17 3 20.234 15.406 21.106C15 21.234 15 23 15 23C7 23 0 22 0 22C3.362 24.802 6.724 26.033 9.03 26.574C9.019 26.716 9 26.855 9 27C9 30.313 11.686 32 15 32C15.487 32 15.958 31.936 16.412 31.826C18.009 34.333 20.807 36 24 36C28.971 36 33 31.971 33 27C33 25.212 32.473 23.551 31.573 22.149C34.195 20.837 36 18.132 36 15Z" fill="#BDDDF4"/>
</g>
<defs>
<clipPath id="clip0_214_44098">
<rect width="36" height="36" fill="white"/>
</clipPath>
</defs>
</svg>
