<svg width="36" height="36" viewBox="0 0 36 36" fill="none" xmlns="http://www.w3.org/2000/svg">
<g clip-path="url(#clip0_214_44071)">
<path d="M13 2C13 2 13 0 15 0C17 0 17 2 17 2V4C17 4 17 6 15 6C13 6 13 4 13 4V2ZM4 13C4 13 6 13 6 15C6 17 4 17 4 17H2C2 17 0 17 0 15C0 13 2 13 2 13H4ZM7.872 6.043C7.872 6.043 9.286 7.457 7.872 8.871C6.458 10.285 5.044 8.871 5.044 8.871L3.629 7.458C3.629 7.458 2.215 6.044 3.629 4.629C5.044 3.215 6.458 4.629 6.458 4.629L7.872 6.043ZM24.957 8.871C24.957 8.871 23.543 10.285 22.129 8.871C20.715 7.457 22.129 6.043 22.129 6.043L23.543 4.629C23.543 4.629 24.957 3.215 26.371 4.629C27.785 6.043 26.371 7.457 26.371 7.457L24.957 8.871Z" fill="#FFAC33"/>
<path d="M15 23C19.4183 23 23 19.4183 23 15C23 10.5817 19.4183 7 15 7C10.5817 7 7 10.5817 7 15C7 19.4183 10.5817 23 15 23Z" fill="#FFAC33"/>
<path d="M28.223 12.8C27.42 12.8 26.648 12.919 25.919 13.14C25.057 10.731 22.718 9 19.958 9C16.999 9 14.521 10.991 13.835 13.675C13.102 13.133 12.199 12.8 11.209 12.8C8.792 12.8 6.834 14.714 6.834 17.075C6.834 17.648 6.954 18.194 7.163 18.694C6.746 18.581 6.315 18.5 5.861 18.5C3.176 18.5 1 20.626 1 23.25C1 25.874 3.176 28 5.861 28H28.222C32.518 28 36 24.598 36 20.4C36 16.202 32.518 12.8 28.223 12.8Z" fill="#E1E8ED"/>
<path d="M11.999 33.961L11.886 30.54L9.017 32.248C8.37801 32.593 7.95501 33.272 7.98101 34.047C8.01801 35.149 8.947 36.023 10.057 36C11.166 35.977 12.036 35.063 11.999 33.961ZM5.02001 32.421L4.90601 29L2.037 30.708C1.398 31.053 0.974005 31.732 1.00101 32.507C1.03801 33.61 1.967 34.483 3.077 34.46C4.18701 34.437 5.05701 33.523 5.02001 32.421ZM19.02 32.961L18.907 29.54L16.038 31.248C15.399 31.593 14.976 32.272 15.002 33.047C15.039 34.149 15.968 35.023 17.078 35C18.187 34.977 19.057 34.063 19.02 32.961ZM24.998 33.961L24.885 30.54L22.016 32.248C21.377 32.593 20.954 33.272 20.981 34.047C21.018 35.149 21.946 36.023 23.057 36C24.166 35.977 25.035 35.063 24.998 33.961ZM31.019 32.421L30.905 29L28.036 30.708C27.397 31.053 26.974 31.732 27.001 32.507C27.038 33.61 27.966 34.483 29.077 34.46C30.187 34.437 31.056 33.523 31.019 32.421Z" fill="#5DADEC"/>
</g>
<defs>
<clipPath id="clip0_214_44071">
<rect width="36" height="36" fill="white"/>
</clipPath>
</defs>
</svg>
