<svg width="36" height="36" viewBox="0 0 36 36" fill="none" xmlns="http://www.w3.org/2000/svg">
<g clip-path="url(#clip0_214_44085)">
<path d="M13.917 35.9998C13.826 35.9998 13.735 35.9708 13.659 35.9108C13.502 35.7868 13.455 35.5698 13.546 35.3928L17 28.9998H11.922C11.748 28.9998 11.484 28.9688 11.36 28.7028C11.246 28.4598 11.303 28.2288 11.407 27.9998L15 18.9998C15.078 18.9328 21.902 19.3928 22 19.3928C22.09 19.3928 22.182 19.4218 22.257 19.4818C22.414 19.6058 22.461 19.8228 22.369 20.0008L18.552 26.0008H23.584C23.758 26.0008 23.913 26.1088 23.975 26.2718C24.035 26.4348 23.988 26.6188 23.856 26.7328L14.19 35.8988C14.111 35.9658 14.014 35.9998 13.917 35.9998Z" fill="#F4900C"/>
<path d="M28 4C27.175 4 26.38 4.125 25.631 4.357C24.744 1.822 22.338 0 19.5 0C16.456 0 13.908 2.096 13.201 4.921C12.447 4.351 11.519 4 10.5 4C8.015 4 6 6.015 6 8.5C6 9.104 6.123 9.678 6.339 10.204C5.91 10.085 5.467 10 5 10C2.238 10 0 12.238 0 15C0 17.762 2.238 20 5 20H28C32.418 20 36 16.419 36 12C36 7.582 32.418 4 28 4Z" fill="#E1E8ED"/>
<path d="M10.999 24.961L10.886 21.54L8.016 23.248C7.378 23.593 6.954 24.272 6.98 25.047C7.017 26.149 7.946 27.022 9.056 27C10.165 26.977 11.036 26.063 10.999 24.961ZM8.999 32.961L8.886 29.54L6.016 31.248C5.378 31.593 4.954 32.272 4.98 33.047C5.017 34.149 5.946 35.022 7.056 35C8.166 34.977 9.036 34.063 8.999 32.961ZM4.02 27.421L3.907 24L1.037 25.708C0.399001 26.053 -0.0249992 26.732 0.00100082 27.507C0.0380008 28.61 0.967001 29.483 2.077 29.46C3.187 29.437 4.057 28.523 4.02 27.421ZM29.02 24.961L28.907 21.54L26.038 23.248C25.399 23.593 24.976 24.272 25.002 25.047C25.039 26.15 25.968 27.023 27.078 27C28.187 26.977 29.057 26.063 29.02 24.961ZM27.02 33.961L26.907 30.54L24.038 32.248C23.399 32.593 22.976 33.272 23.002 34.047C23.039 35.149 23.968 36.023 25.078 36C26.187 35.977 27.057 35.063 27.02 33.961ZM33.02 29.961L32.907 26.54L30.038 28.248C29.399 28.593 28.976 29.272 29.002 30.047C29.039 31.15 29.968 32.023 31.078 32C32.187 31.977 33.057 31.063 33.02 29.961Z" fill="#5DADEC"/>
</g>
<defs>
<clipPath id="clip0_214_44085">
<rect width="36" height="36" fill="white"/>
</clipPath>
</defs>
</svg>
