<svg width="108" height="48" viewBox="0 0 108 48" fill="none" xmlns="http://www.w3.org/2000/svg">
    <rect width="108" height="48" rx="8" fill="#EEF2FF"/>
    <path d="M15.7598 18.8965C16.874 18.9033 17.7832 19.5527 18.3096 20.6738H21.502V17.9531H22.5684V30.1348H21.502V25.418H18.3848C17.8789 26.6484 16.9355 27.3662 15.7598 27.3594C13.9619 27.3662 12.7041 25.7256 12.7109 23.1348C12.7041 20.5508 13.9619 18.9033 15.7598 18.8965ZM13.7363 23.1348C13.7432 25.1104 14.5635 26.4092 15.7598 26.4023C16.9492 26.4092 17.7832 25.1104 17.7832 23.1348C17.7832 21.1592 16.9492 19.8604 15.7598 19.8535C14.5635 19.8604 13.7432 21.1592 13.7363 23.1348ZM18.6172 21.5762C18.7334 22.0479 18.7949 22.5674 18.7949 23.1348C18.7949 23.6338 18.7471 24.1055 18.6582 24.5293H21.502V21.5762H18.6172Z" fill="#6366F1"/>
</svg>
