<svg width="54" height="97" viewBox="0 0 54 97" fill="none" xmlns="http://www.w3.org/2000/svg">
    <rect width="54" height="97" rx="8" fill="#EEF2FF"/>
    <path d="M22.5176 80V65.8594H27.3223C30.6426 65.8594 32.1465 67.832 32.1465 70.3516C32.1465 72.8516 30.6426 74.8633 27.3418 74.8633H24.2754V80H22.5176ZM24.2754 73.3008H27.2637C29.5098 73.3008 30.4082 72.0312 30.4082 70.3516C30.4082 68.6523 29.5098 67.4219 27.2441 67.4219H24.2754V73.3008Z" fill="#9CA3AF"/>
    <rect width="54" height="48" rx="8" fill="#6366F1"/>
    <path d="M28.3672 16.8594H31.2773V26.7227C31.2773 29.4766 29.3438 31.1953 26.4922 31.1953C23.9336 31.1953 21.9219 29.8477 21.9414 27.0547H24.8711C24.8906 28.168 25.5742 28.832 26.6289 28.832C27.7422 28.832 28.3672 28.1094 28.3672 26.7227V16.8594Z" fill="white"/>
</svg>
