<svg width="242" height="48" viewBox="0 0 242 48" fill="none" xmlns="http://www.w3.org/2000/svg">
    <rect width="242" height="48" rx="12" fill="#9398FF"/>
    <path d="M52.2266 30V18.6875H53.9453V28.5156H59.0547V30H52.2266ZM64.2734 30.1719C61.8672 30.1719 60.2969 28.4219 60.3047 25.7969C60.2969 23.1562 61.8672 21.4062 64.2734 21.4062C66.6641 21.4062 68.2266 23.1562 68.2266 25.7969C68.2266 28.4219 66.6641 30.1719 64.2734 30.1719ZM61.9766 25.7969C61.9766 27.4141 62.7188 28.7812 64.2734 28.7812C65.8047 28.7812 66.5391 27.4141 66.5391 25.7969C66.5391 24.1719 65.8047 22.7891 64.2734 22.7812C62.7188 22.7891 61.9766 24.1719 61.9766 25.7969ZM73.4609 30.1719C71.0547 30.1719 69.4844 28.4219 69.4922 25.7969C69.4844 23.1562 71.0547 21.4062 73.4609 21.4062C75.8516 21.4062 77.4141 23.1562 77.4141 25.7969C77.4141 28.4219 75.8516 30.1719 73.4609 30.1719ZM71.1641 25.7969C71.1641 27.4141 71.9062 28.7812 73.4609 28.7812C74.9922 28.7812 75.7266 27.4141 75.7266 25.7969C75.7266 24.1719 74.9922 22.7891 73.4609 22.7812C71.9062 22.7891 71.1641 24.1719 71.1641 25.7969ZM79.0547 30V18.6875H80.7266V25.0938H80.8672L84.2266 21.5156H86.2266L82.7969 25.1562L86.4609 30H84.4141L81.5312 26.1875L80.7266 26.9844V30H79.0547ZM87.5391 30V21.5156H89.2109V30H87.5391ZM87.3203 19.2188C87.3281 18.6719 87.8047 18.2344 88.3828 18.2344C88.9531 18.2344 89.4297 18.6719 89.4297 19.2188C89.4297 19.7656 88.9531 20.2109 88.3828 20.2031C87.8047 20.2109 87.3281 19.7656 87.3203 19.2188ZM94.9453 18.2188C97.1016 18.2188 98.7031 19.5781 98.7109 21.5469C98.7031 23.2812 97.4609 24.5391 95.6953 24.8203V27.0391C96.9375 26.9766 98.1797 26.8828 99.3359 26.7344L99.4453 27.8438C96.4844 28.3594 93.2266 28.3828 90.8047 28.3594L90.5703 27.1406C91.6562 27.1328 92.9062 27.125 94.2109 27.0938V24.8203C92.4062 24.5547 91.1719 23.2891 91.1797 21.5469C91.1719 19.5781 92.75 18.2188 94.9453 18.2188ZM92.6172 21.5469C92.6094 22.7891 93.6016 23.6172 94.9453 23.6094C96.2734 23.6172 97.25 22.7891 97.2578 21.5469C97.25 20.2969 96.2734 19.4844 94.9453 19.4688C93.6016 19.4844 92.6094 20.2969 92.6172 21.5469ZM100.18 31.3281V17.3281H101.664V23.0156H103.82V24.2656H101.664V31.3281H100.18ZM120.492 17.3281V31.3281H119.07V24.0938H117.258V30.6094H115.898V17.6094H117.258V22.875H119.07V17.3281H120.492ZM108.945 27.9688V19.0156H114.195V20.2188H110.43V26.7031C112.148 26.6953 113.445 26.6172 114.945 26.3281L115.055 27.5469C113.375 27.8984 111.922 27.9531 109.883 27.9688H108.945ZM133.273 17.3281V23.1875H135.383V24.4375H133.273V31.3281H131.789V17.3281H133.273ZM122.133 27.5156C123.234 27.5156 124.516 27.5156 125.852 27.4766V26.0547C124.273 25.8203 123.242 24.8672 123.258 23.5156C123.242 21.9375 124.609 20.8984 126.602 20.8906C128.586 20.8984 129.969 21.9375 129.977 23.5156C129.969 24.8672 128.922 25.8281 127.336 26.0547V27.4219C128.578 27.3594 129.828 27.2578 130.992 27.0938L131.086 28.1875C128.055 28.7266 124.781 28.7578 122.367 28.75L122.133 27.5156ZM122.398 20.1719V18.9844H125.852V17.3594H127.336V18.9844H130.789V20.1719H122.398ZM124.648 23.5156C124.648 24.4062 125.43 24.9609 126.602 24.9531C127.773 24.9609 128.547 24.4062 128.555 23.5156C128.547 22.6172 127.773 22.0469 126.602 22.0469C125.43 22.0469 124.648 22.6172 124.648 23.5156ZM147.039 17.3281V23H149.289V24.2344H147.039V31.3281H145.57V17.3281H147.039ZM136.055 20.7344V19.5156H139.508V17.5156H140.992V19.5156H144.352V20.7344H136.055ZM136.773 25.0156C136.773 23.1094 138.242 21.7656 140.258 21.7656C142.266 21.7656 143.734 23.1094 143.742 25.0156C143.734 26.9375 142.266 28.2734 140.258 28.2812C138.242 28.2734 136.773 26.9375 136.773 25.0156ZM138.195 25.0156C138.188 26.2344 139.062 27.0469 140.258 27.0312C141.445 27.0469 142.312 26.2344 142.32 25.0156C142.312 23.8203 141.445 22.9922 140.258 22.9844C139.062 22.9922 138.188 23.8203 138.195 25.0156ZM161.617 17.3281V31.3594H160.148V23.8281H157.586V22.5938H160.148V17.3281H161.617ZM150.445 19.7969V18.5938H156.758V23.5938H151.961V26.7812C154.195 26.7656 155.914 26.6953 157.867 26.3438L157.992 27.5625C155.898 27.9297 154.055 28.0156 151.586 28.0312H150.477V22.3906H155.32V19.7969H150.445ZM174.695 17.3281V22.9062H176.867V24.1406H174.695V31.3125H173.211V17.3281H174.695ZM163.805 27.5781C167.312 25.8281 169.219 23.2969 169.523 20.0312H164.508V18.7969H171.039C171.023 22.8438 169.242 26.4609 164.633 28.7344L163.805 27.5781ZM189.258 17.3281V31.3281H187.758V17.3281H189.258ZM177.758 27.5781C181.477 25.8047 183.297 23.2812 183.586 20.0156H178.43V18.8281H185.086C185.086 22.9297 183.344 26.4766 178.539 28.7812L177.758 27.5781Z" fill="white"/>
</svg>
