<svg width="350" height="155" viewBox="0 0 350 155" fill="none" xmlns="http://www.w3.org/2000/svg">
    <rect width="350" height="155" rx="12" fill="white"/>
    <path d="M31.1172 34.8906V36.7539H16.4746V34.8906H31.1172ZM17.6172 25.8203V24.0273H29.8867V25.8203H27.6367V30.6719H29.8164V32.4297H17.6875V30.6719H19.832V25.8203H17.6172ZM22.082 30.6719H25.4219V25.8203H22.082V30.6719ZM46.6738 34.9961V36.8418H32.0312V34.9961H38.2012V32.5879H33.7188V27.209H42.7715V25.4512H33.7012V23.6582H44.9863V28.9668H35.9688V30.7598H45.3555V32.5879H40.4336V34.9961H46.6738ZM61.0176 22.6211V30.8301H58.7676V22.6211H61.0176ZM47.8516 28.7559C48.3965 28.7559 48.9766 28.7471 49.5742 28.7383V25.3105H48.2734V23.6055H56.9746V25.3105H55.6562V28.501C56.3154 28.4482 56.9658 28.3867 57.5898 28.3164L57.6953 29.916C54.5137 30.4258 50.875 30.5137 48.0977 30.5137L47.8516 28.7559ZM50.1367 33.2031V31.4629H61.0176V35.7344H52.3867V36.7363H61.457V38.5117H50.1719V34.1348H58.8027V33.2031H50.1367ZM51.7188 28.6943C52.3076 28.6768 52.8965 28.6592 53.4941 28.6328V25.3105H51.7188V28.6943ZM80.7754 22.6211V34.3984H78.543V30.4609H76.5039V28.6152H78.543V27.2266H76.5039V25.4336H78.543V22.6211H80.7754ZM67.293 30.6367C67.8203 30.6367 68.4004 30.6367 68.998 30.6279V25.5566H67.6973V23.7637H76.2227V25.5566H74.9043V30.417C75.4404 30.373 75.9678 30.3203 76.4688 30.2676L76.5566 31.9023C73.5596 32.3945 70.0615 32.4648 67.5215 32.4648L67.293 30.6367ZM70.1406 38.3359V33.5195H72.3906V36.543H81.1621V38.3359H70.1406ZM71.1602 30.5928L72.7598 30.54V25.5566H71.1602V30.5928ZM92.3066 23.5V25.293H89.0986C89.2041 26.9893 90.4258 28.668 92.9219 29.3535L91.7969 31.0938C89.9688 30.5664 88.6943 29.4678 87.9648 28.0791C87.2441 29.5908 85.9258 30.7949 84.0273 31.375L82.9023 29.6172C85.4512 28.8877 86.6904 27.1035 86.7959 25.293H83.5176V23.5H92.3066ZM85.5391 38.4414V31.9727H87.7539V33.4668H94.0117V31.9727H96.2441V38.4414H85.5391ZM87.7539 36.6484H94.0117V35.207H87.7539V36.6484ZM93.9941 31.3047V22.6211H96.2441V31.3047H93.9941ZM105.701 22.8496C109.384 22.8496 111.511 23.8164 111.52 25.5742C111.511 27.3584 109.384 28.3164 105.701 28.3164C102.01 28.3164 99.8652 27.3584 99.8652 25.5742C99.8652 23.8164 102.01 22.8496 105.701 22.8496ZM98.4062 30.8477V29.0723H112.996V30.8477H98.4062ZM100.094 33.4141V31.7793H111.221V35.8574H102.309V36.8242H111.643V38.5117H100.111V34.293H109.006V33.4141H100.094ZM102.221 25.5742C102.212 26.3564 103.354 26.6641 105.701 26.6641C108.065 26.6641 109.199 26.3564 109.199 25.5742C109.199 24.8623 108.065 24.4844 105.701 24.4844C103.354 24.4844 102.212 24.8623 102.221 25.5742ZM127.727 24.2207V25.9609H124.562C124.615 27.2178 125.749 28.3691 128.113 28.8086L127.234 30.5312C125.424 30.1797 124.176 29.3799 123.464 28.3076C122.761 29.4854 121.486 30.3818 119.605 30.7598L118.691 29.0195C121.108 28.5625 122.233 27.3057 122.295 25.9609H119.113V24.2207H122.312V22.6562H124.562V24.2207H127.727ZM118.146 31.4453C121.1 31.4453 125.037 31.4189 128.412 30.9883L128.553 32.6055C127.234 32.834 125.881 32.9834 124.545 33.0801V38.125H122.312V33.2031C120.924 33.2559 119.597 33.2559 118.428 33.2559L118.146 31.4453ZM129.379 38.6172V22.6387H131.594V38.6172H129.379ZM148.311 34.9082V36.7012H133.668V34.9082H139.785V31.2871H142.018V34.9082H148.311ZM134.02 29.9336C137.641 29.3711 139.68 26.9365 139.697 24.6777V23.5352H142.088V24.6777C142.079 26.9629 144.145 29.3711 147.801 29.9336L146.852 31.7969C144.039 31.2871 141.947 29.7842 140.893 27.7891C139.847 29.7754 137.764 31.2959 134.969 31.7969L134.02 29.9336ZM161.846 22.6211V28.8789H164.201V30.7246H161.846V38.6172H159.631V22.6211H161.846ZM149.137 26.8047V25.0117H152.758V22.8672H155.008V25.0117H158.541V26.8047H149.137ZM149.787 31.5156C149.778 29.2832 151.519 27.6924 153.883 27.7012C156.212 27.6924 157.961 29.2832 157.961 31.5156C157.961 33.748 156.212 35.3213 153.883 35.3301C151.519 35.3213 149.778 33.748 149.787 31.5156ZM151.932 31.5156C151.932 32.7549 152.749 33.4932 153.883 33.4844C154.999 33.4932 155.816 32.7549 155.816 31.5156C155.816 30.2852 154.999 29.5293 153.883 29.5117C152.749 29.5293 151.932 30.2852 151.932 31.5156ZM171.004 26.2422C170.995 29.1777 172.331 32.1221 175.047 33.2734L173.729 35.0664C171.9 34.2402 170.635 32.6406 169.905 30.6631C169.185 32.8252 167.875 34.5654 165.924 35.4531L164.57 33.5898C167.365 32.4121 168.728 29.3447 168.736 26.2422V23.8516H171.004V26.2422ZM175.908 38.6523V22.6211H178.176V38.6523H175.908ZM187.422 23.7285C187.422 24.8535 187.281 25.873 186.982 26.8047H188.652V22.9375H190.762V31.5156H188.652V28.5801H186.147C185.172 30.0918 183.625 31.2783 181.445 32.1836L180.355 30.5312C183.291 29.3887 184.75 27.7451 185.084 25.5215H181.164V23.7285H187.422ZM181.059 36.8594C183.177 36.1475 184.108 34.5303 184.117 32.9746V32.2188H186.244V32.9746C186.244 34.2578 186.789 35.585 188.081 36.4727C189.399 35.5234 189.971 34.126 189.971 32.9746V32.2188H192.186V32.9746C192.177 34.6182 193.073 36.209 195.209 36.8594L194.119 38.4941C192.581 37.9756 191.579 36.9824 191.025 35.7344C190.507 36.9736 189.575 38.0459 188.125 38.6172C186.631 38.0811 185.699 37.0264 185.181 35.7871C184.627 36.9824 183.643 37.9668 182.184 38.4941L181.059 36.8594ZM191.957 31.7266V22.6387H194.084V31.7266H191.957ZM200.307 23.7461C202.469 23.7461 204.086 25.5215 204.402 28.4043H207.18V22.6211H209.395V38.6523H207.18V30.1973H204.429C204.191 33.2734 202.539 35.1543 200.307 35.1543C197.881 35.1543 196.141 32.957 196.158 29.4414C196.141 25.9521 197.881 23.7461 200.307 23.7461ZM198.303 29.4414C198.294 31.8232 199.111 33.124 200.307 33.1152C201.511 33.124 202.311 31.8232 202.311 29.4414C202.311 27.0684 201.511 25.7676 200.307 25.7676C199.111 25.7676 198.294 27.0684 198.303 29.4414ZM226.094 34.9082V36.7539H211.451V34.9082H214.721V30.9883C213.481 30.2412 212.734 29.1074 212.734 27.7012C212.734 25.1084 215.266 23.4033 218.746 23.3945C222.209 23.4033 224.767 25.1084 224.775 27.7012C224.767 29.0811 224.046 30.1973 222.842 30.9443V34.9082H226.094ZM214.949 27.7012C214.949 29.2656 216.452 30.2324 218.746 30.2324C221.005 30.2324 222.552 29.2656 222.561 27.7012C222.552 26.0928 221.005 25.1611 218.746 25.1699C216.452 25.1611 214.949 26.0928 214.949 27.7012ZM216.936 34.9082H220.574V31.7969C220.003 31.9111 219.388 31.9727 218.746 31.9727C218.104 31.9727 217.498 31.9111 216.936 31.8057V34.9082ZM229.803 32.9922C229.812 30.8037 230.4 30.1357 231.455 29.4766C232.211 28.9844 232.8 28.4395 232.791 27.6309C232.8 26.752 232.114 26.1807 231.262 26.1719C230.444 26.1807 229.68 26.7256 229.645 27.7539H227.148C227.192 25.2842 229.029 24.0977 231.279 24.0977C233.731 24.0977 235.463 25.3721 235.463 27.543C235.463 28.9932 234.716 29.9072 233.564 30.6016C232.571 31.1904 232.132 31.7617 232.123 32.9922V33.1855H229.803V32.9922ZM229.539 35.6816C229.521 34.873 230.189 34.2139 231.016 34.2227C231.798 34.2139 232.475 34.873 232.475 35.6816C232.475 36.499 231.798 37.1582 231.016 37.1582C230.189 37.1582 229.521 36.499 229.539 35.6816Z" fill="#374151"/>
    <path d="M26.5684 49.9531V62.1348H25.4883V55.2715H22.8223V54.3828H25.4883V49.9531H26.5684ZM16.3828 58.8672C18.1465 58.0127 19.6162 55.7227 19.623 53.5625V52.0996H16.8477V51.2109H23.4922V52.0996H20.7031V53.5625C20.71 55.5859 22.1592 57.7871 23.9297 58.5938L23.2871 59.4551C21.8994 58.7715 20.7305 57.3018 20.1768 55.6064C19.6299 57.4111 18.4268 58.9766 17.0391 59.7012L16.3828 58.8672ZM32.707 52.2637C32.7139 53.8564 33.9033 55.2783 35.6875 55.8594L35.1816 56.707C33.7803 56.2422 32.7207 55.2783 32.1943 54.0547C31.6748 55.4492 30.5537 56.5361 29.0977 57.0625L28.5508 56.2012C30.3691 55.5859 31.6406 54.0205 31.6543 52.2637V51.7441H28.8789V50.8555H35.4414V51.7441H32.707V52.2637ZM30.1641 59.8379C30.1709 58.4365 31.6953 57.623 34.1973 57.623C36.6924 57.623 38.2031 58.4365 38.2031 59.8379C38.2031 61.2598 36.6924 62.0801 34.1973 62.0801C31.6953 62.0801 30.1709 61.2598 30.1641 59.8379ZM31.2441 59.8379C31.2305 60.7129 32.3652 61.2256 34.1973 61.2188C36.0361 61.2256 37.1572 60.7129 37.1641 59.8379C37.1572 58.9902 36.0361 58.4844 34.1973 58.4844C32.3652 58.4844 31.2305 58.9902 31.2441 59.8379ZM37.0273 57.2949V49.9531H38.0938V53.0566H39.9258V53.959H38.0938V57.2949H37.0273ZM50.0977 49.9531V54.9707H52.1348V55.8594H50.0977V62.1074H49.0312V49.9531H50.0977ZM40.623 52.7969V51.9082H43.7539V50.1035H44.8203V51.9082H47.8555V52.7969H40.623ZM41.3203 56.5977C41.3135 54.957 42.5713 53.8086 44.3008 53.8086C46.0166 53.8086 47.2676 54.957 47.2812 56.5977C47.2676 58.2451 46.0166 59.3867 44.3008 59.3867C42.5713 59.3867 41.3135 58.2451 41.3203 56.5977ZM42.3457 56.5977C42.3389 57.7051 43.166 58.4844 44.3008 58.4707C45.4219 58.4844 46.2422 57.7051 46.2559 56.5977C46.2422 55.4971 45.4219 54.7041 44.3008 54.7109C43.166 54.7041 42.3389 55.4971 42.3457 56.5977ZM57.1387 53.6855C57.1455 55.75 58.6426 57.8486 60.4336 58.6211L59.832 59.4688C58.4102 58.8262 57.1865 57.4248 56.6191 55.7432C56.0518 57.5273 54.8213 59.0723 53.4336 59.7695L52.791 58.9219C54.5342 58.0879 56.0518 55.791 56.0586 53.6855V52.0996H53.1875V51.2109H60.0371V52.0996H57.1387V53.6855ZM61.7324 62.1074V49.9531H62.8125V62.1074H61.7324ZM71.7949 50.6504C73.6133 50.6572 74.9531 51.8125 74.9531 53.4531C74.9531 55.1143 73.6133 56.2627 71.7949 56.2695C69.9834 56.2627 68.6299 55.1143 68.6367 53.4531C68.6299 51.8125 69.9834 50.6572 71.7949 50.6504ZM69.6895 53.4531C69.6826 54.5674 70.5986 55.3809 71.7949 55.3809C72.998 55.3809 73.9072 54.5674 73.9004 53.4531C73.9072 52.3594 72.998 51.5527 71.7949 51.5527C70.5986 51.5527 69.6826 52.3594 69.6895 53.4531ZM69.7031 61.7793V57.3496H70.7422V60.8975C71.4463 60.8701 72.3828 60.7676 73.2441 60.4805L73.4082 61.3418C72.2256 61.7314 71.0703 61.7861 70.2773 61.7793H69.7031ZM72.9844 58.2383V57.4043H75.541V56.3242H76.5938V57.4043H79.123V58.2383H72.9844ZM73.791 60.3711C73.7842 59.3184 74.707 58.6484 76.0469 58.6484C77.3799 58.6484 78.3164 59.3184 78.3301 60.3711C78.3164 61.4238 77.3799 62.0801 76.0469 62.0801C74.707 62.0801 73.7842 61.4238 73.791 60.3711ZM74.748 60.3711C74.748 60.9453 75.2881 61.3076 76.0469 61.3145C76.8057 61.3076 77.3457 60.9453 77.3457 60.3711C77.3457 59.8105 76.8057 59.4346 76.0469 59.4277C75.2881 59.4346 74.748 59.8105 74.748 60.3711ZM76.8398 56.0371V49.9531H77.9062V52.7012H79.7383V53.5898H77.9062V56.0371H76.8398ZM91.5781 56.3652V57.2402H80.5039V56.3652H91.5781ZM81.7344 52.7969C81.7344 51.2725 83.4023 50.377 86.041 50.3906C88.6523 50.377 90.3271 51.2725 90.334 52.7969C90.3271 54.3076 88.6523 55.2168 86.041 55.2168C83.4023 55.2168 81.7344 54.3076 81.7344 52.7969ZM81.9395 61.8477V58.3066H83.0195V60.9453H90.3477V61.8477H81.9395ZM82.8418 52.7969C82.835 53.7607 84.0791 54.3418 86.041 54.3418C87.9893 54.3418 89.2334 53.7607 89.2402 52.7969C89.2334 51.8467 87.9893 51.252 86.041 51.252C84.0791 51.252 82.835 51.8467 82.8418 52.7969ZM106.193 49.9668V58.9629H105.113V55.6953H102.242V56.8848H96.7324V50.7734H97.7988V52.9336H101.189V50.7734H102.242V52.1953H105.113V49.9668H106.193ZM97.7988 55.9961H101.189V53.7812H97.7988V55.9961ZM98.332 61.8477V58.0742H99.4121V60.9453H106.467V61.8477H98.332ZM102.242 54.8066H105.113V53.0977H102.242V54.8066ZM118.293 49.9668V57.2676H117.213V55.627H113.986V54.7383H117.213V53.0977H114.109C113.31 55.0527 111.437 56.4678 108.832 57.2402L108.381 56.3926C111.313 55.5244 113.152 53.877 113.364 51.7715H108.996V50.8691H114.533C114.533 51.3477 114.479 51.8057 114.376 52.2363H117.213V49.9668H118.293ZM110.254 59.7148C110.247 58.2656 111.826 57.3906 114.314 57.3906C116.775 57.3906 118.361 58.2656 118.361 59.7148C118.361 61.1709 116.775 62.0527 114.314 62.0527C111.826 62.0527 110.247 61.1709 110.254 59.7148ZM111.307 59.7148C111.313 60.6309 112.482 61.1846 114.314 61.1777C116.119 61.1846 117.288 60.6309 117.295 59.7148C117.288 58.7988 116.119 58.2451 114.314 58.252C112.482 58.2451 111.313 58.7988 111.307 59.7148ZM124.391 53.2207C124.391 55.3604 125.806 57.5684 127.535 58.416L126.879 59.2773C125.539 58.5801 124.418 57.1377 123.878 55.4492C123.338 57.2402 122.189 58.7783 120.822 59.5098L120.139 58.6484C121.916 57.7734 123.324 55.4424 123.338 53.2207V51.0059H124.391V53.2207ZM128.656 62.1074V49.9531H129.723V54.8887H131.76V55.8184H129.723V62.1074H128.656ZM141.918 49.9531V53.3438H143.75V54.2598H141.918V57.8008H140.852V49.9531H141.918ZM132.443 52.1953V51.3477H135.533V49.8574H136.6V51.3477H139.689V52.1953H132.443ZM133.141 54.9707C133.134 53.6719 134.303 52.8311 136.066 52.8242C137.81 52.8311 138.979 53.6719 138.992 54.9707C138.979 56.2832 137.81 57.124 136.066 57.1172C134.303 57.124 133.134 56.2832 133.141 54.9707ZM134.098 59.9883C134.091 58.6621 135.595 57.8896 138.076 57.8828C140.551 57.8896 142.055 58.6621 142.055 59.9883C142.055 61.3076 140.551 62.0801 138.076 62.0801C135.595 62.0801 134.091 61.3076 134.098 59.9883ZM134.166 54.9707C134.159 55.7705 134.918 56.2832 136.066 56.2832C137.201 56.2832 137.967 55.7705 137.98 54.9707C137.967 54.1709 137.201 53.6445 136.066 53.6309C134.918 53.6445 134.159 54.1709 134.166 54.9707ZM135.164 59.9883C135.15 60.7744 136.258 61.2529 138.076 61.2461C139.888 61.2529 140.995 60.7744 140.988 59.9883C140.995 59.1816 139.888 58.7305 138.076 58.7305C136.258 58.7305 135.15 59.1816 135.164 59.9883ZM154.537 49.9531V62.1348H153.457V49.9531H154.537ZM144.967 55.1348C144.974 52.5508 146.259 50.9033 148.07 50.8965C149.875 50.9033 151.181 52.5508 151.174 55.1348C151.181 57.7256 149.875 59.3662 148.07 59.3594C146.259 59.3662 144.974 57.7256 144.967 55.1348ZM146.006 55.1348C146.006 57.1104 146.854 58.4092 148.07 58.4023C149.294 58.4092 150.135 57.1104 150.135 55.1348C150.135 53.1592 149.294 51.8604 148.07 51.8535C146.854 51.8604 146.006 53.1592 146.006 55.1348ZM164.244 58.1152C164.237 59.1885 164.818 60.3301 165.974 60.9863C167.136 60.2686 167.751 59.0518 167.744 58.1152V57.4453H168.797V58.1152C168.79 59.3662 169.713 60.6104 171.271 61.1504L170.738 61.9434C169.521 61.5127 168.674 60.665 168.25 59.6465C167.874 60.6309 167.129 61.5674 166.008 62.0391C164.825 61.5879 164.073 60.6992 163.711 59.6807C163.273 60.6582 162.439 61.5059 161.277 61.9434L160.73 61.1504C162.269 60.5762 163.191 59.2773 163.205 58.1152V57.4453H164.244V58.1152ZM160.416 53.5215C160.409 51.8262 161.756 50.6709 163.602 50.6777C165.447 50.6709 166.78 51.8262 166.787 53.5215C166.78 55.1895 165.447 56.3379 163.602 56.3379C161.756 56.3379 160.409 55.1895 160.416 53.5215ZM161.469 53.5215C161.455 54.6494 162.351 55.4424 163.602 55.4492C164.839 55.4424 165.734 54.6494 165.734 53.5215C165.734 52.3867 164.839 51.5801 163.602 51.5938C162.351 51.5801 161.455 52.3867 161.469 53.5215ZM169.098 56.9121V49.9668H170.164V56.9121H169.098ZM175.496 50.8965C177.15 50.9033 178.347 52.3252 178.511 54.6016H181.238V49.9531H182.305V62.1348H181.238V55.4902H178.524C178.408 57.876 177.191 59.3662 175.496 59.3594C173.698 59.3662 172.44 57.7256 172.447 55.1348C172.44 52.5508 173.698 50.9033 175.496 50.8965ZM173.473 55.1348C173.479 57.1104 174.3 58.4092 175.496 58.4023C176.686 58.4092 177.52 57.1104 177.52 55.1348C177.52 53.1592 176.686 51.8604 175.496 51.8535C174.3 51.8604 173.479 53.1592 173.473 55.1348ZM195.457 59.6465V60.5488H184.328V59.6465H187.09V56.3721C186.051 55.832 185.422 54.957 185.422 53.8496C185.422 51.9697 187.268 50.7324 189.865 50.7188C192.463 50.7324 194.309 51.9697 194.309 53.8496C194.309 54.9365 193.7 55.7979 192.695 56.3379V59.6465H195.457ZM186.461 53.8496C186.454 55.21 187.869 56.1191 189.865 56.1191C191.841 56.1191 193.27 55.21 193.27 53.8496C193.27 52.4893 191.841 51.5938 189.865 51.6074C187.869 51.5938 186.454 52.4893 186.461 53.8496ZM188.143 59.6465H191.615V56.7549C191.089 56.8916 190.501 56.9668 189.865 56.9668C189.243 56.9668 188.662 56.8984 188.143 56.7617V59.6465ZM198.396 51.1016L198.301 58.2109H197.152L197.057 51.1016H198.396ZM196.852 60.1934C196.838 59.7148 197.248 59.3184 197.727 59.3184C198.212 59.3184 198.608 59.7148 198.602 60.1934C198.608 60.6787 198.212 61.0752 197.727 61.082C197.248 61.0752 196.838 60.6787 196.852 60.1934ZM213.121 51.252V52.4688C213.121 54 213.121 55.7295 212.67 58.375L211.576 58.2656C212.068 55.7773 212.068 53.959 212.068 52.4688V52.1406H204.74V51.252H213.121ZM203.537 60.3164V59.4277H214.611V60.3164H203.537ZM226.027 49.9531V62.1074H225.002V55.7363H223.211V61.4785H222.227V50.2266H223.211V54.8477H225.002V49.9531H226.027ZM216.088 59.0996V51.4434H220.641V52.332H217.154V58.1836C218.829 58.1768 219.984 58.1152 221.338 57.8418L221.434 58.7441C219.971 59.0449 218.733 59.0928 216.867 59.0996H216.088ZM238.865 59.7012V60.6035H227.736V59.7012H232.74V57.4043H229.131V53.6582H236.404V51.7441H229.104V50.8555H237.457V54.5332H230.197V56.5156H237.744V57.4043H233.793V59.7012H238.865ZM254.725 54.8066V55.709H252.756V62.1074H251.689V49.9531H252.756V54.8066H254.725ZM243.855 59.0176V51.1562H244.922V58.1152C246.699 58.1152 248.511 57.9785 250.514 57.5547L250.65 58.4707C248.552 58.8945 246.665 59.0176 244.826 59.0176H243.855ZM264.855 49.9531V54.9023H266.824V55.8047H264.855V62.1074H263.789V49.9531H264.855ZM255.531 58.9492C258.669 57.3906 260.378 55.0459 260.624 52.168H256.092V51.2656H261.711C261.704 54.7041 260.091 57.8418 256.133 59.7969L255.531 58.9492ZM277.57 49.9531V56.2559H276.518V49.9531H277.57ZM267.631 55.2852C269.463 54.6494 270.762 53.0225 270.762 51.2383V50.3086H271.855V51.2383C271.842 52.9541 273.154 54.4717 274.959 55.0664L274.426 55.9004C272.997 55.415 271.869 54.3965 271.322 53.084C270.775 54.499 269.634 55.6133 268.191 56.1328L267.631 55.2852ZM269.682 57.7324V56.8711H277.584V59.7832H270.762V61.0957H278.021V61.9707H269.709V58.9492H276.518V57.7324H269.682ZM289.725 49.9668V58.9492H288.645V54.6152H285.951V53.7129H288.645V49.9668H289.725ZM279.84 56.666C282.636 55.7432 284.584 53.9932 284.83 51.7988H280.455V50.8965H286.006C285.992 54.0205 283.757 56.3994 280.305 57.5273L279.84 56.666ZM281.986 61.8477V58.0332H283.08V60.9453H290.039V61.8477H281.986ZM301.154 49.9531V54.9023H303.123V55.8047H301.154V62.1074H300.088V49.9531H301.154ZM291.83 58.9492C294.968 57.3906 296.677 55.0459 296.923 52.168H292.391V51.2656H298.01C298.003 54.7041 296.39 57.8418 292.432 59.7969L291.83 58.9492ZM314.977 59.6465V60.5488H303.848V59.6465H306.609V56.3721C305.57 55.832 304.941 54.957 304.941 53.8496C304.941 51.9697 306.787 50.7324 309.385 50.7188C311.982 50.7324 313.828 51.9697 313.828 53.8496C313.828 54.9365 313.22 55.7979 312.215 56.3379V59.6465H314.977ZM305.98 53.8496C305.974 55.21 307.389 56.1191 309.385 56.1191C311.36 56.1191 312.789 55.21 312.789 53.8496C312.789 52.4893 311.36 51.5938 309.385 51.6074C307.389 51.5938 305.974 52.4893 305.98 53.8496ZM307.662 59.6465H311.135V56.7549C310.608 56.8916 310.021 56.9668 309.385 56.9668C308.763 56.9668 308.182 56.8984 307.662 56.7617V59.6465ZM317.889 58.1426C317.902 56.3105 318.463 55.75 319.406 55.1758C319.974 54.834 320.404 54.2871 320.404 53.5215C320.404 52.5918 319.68 51.9971 318.777 52.0039C317.998 51.9971 317.212 52.4619 317.137 53.5898H315.893C315.961 51.9287 317.212 50.9648 318.777 50.9648C320.493 50.9648 321.607 52.0654 321.607 53.5762C321.607 54.6494 321.102 55.3945 320.254 55.9141C319.399 56.4336 319.092 56.96 319.064 58.1426V58.2109H317.889V58.1426ZM317.643 60.1934C317.629 59.7148 318.039 59.3184 318.518 59.3184C319.003 59.3184 319.399 59.7148 319.393 60.1934C319.399 60.6787 319.003 61.0752 318.518 61.082C318.039 61.0752 317.629 60.6787 317.643 60.1934Z" fill="#9CA3AF"/>
    <path d="M116.109 108.375V122.297H114.875V108.375H116.109ZM105.172 114.297C105.18 111.344 106.648 109.461 108.719 109.453C110.781 109.461 112.273 111.344 112.266 114.297C112.273 117.258 110.781 119.133 108.719 119.125C106.648 119.133 105.18 117.258 105.172 114.297ZM106.359 114.297C106.359 116.555 107.328 118.039 108.719 118.031C110.117 118.039 111.078 116.555 111.078 114.297C111.078 112.039 110.117 110.555 108.719 110.547C107.328 110.555 106.359 112.039 106.359 114.297ZM122.219 109.453C124.109 109.461 125.477 111.086 125.664 113.688H128.781V108.375H130V122.297H128.781V114.703H125.68C125.547 117.43 124.156 119.133 122.219 119.125C120.164 119.133 118.727 117.258 118.734 114.297C118.727 111.344 120.164 109.461 122.219 109.453ZM119.906 114.297C119.914 116.555 120.852 118.039 122.219 118.031C123.578 118.039 124.531 116.555 124.531 114.297C124.531 112.039 123.578 110.555 122.219 110.547C120.852 110.555 119.914 112.039 119.906 114.297ZM137.203 112.109C137.195 114.625 138.812 117.156 140.828 118.078L140.094 119.078C138.516 118.266 137.211 116.609 136.594 114.633C135.977 116.711 134.672 118.492 133.094 119.328L132.297 118.344C134.336 117.344 135.945 114.672 135.953 112.109V109.578H137.203V112.109ZM139.312 114.125V113.125H142.609V108.375H143.828V122.297H142.609V114.125H139.312ZM161.672 108.375V118.719H160.438V114.688H158.062V113.656H160.438V112.047H158.062V111.031H160.438V108.375H161.672ZM150.188 115.562C150.742 115.562 151.344 115.555 151.984 115.547V110.516H150.578V109.516H157.953V110.516H156.531V115.383C157.172 115.344 157.805 115.289 158.406 115.219L158.469 116.141C155.773 116.555 152.602 116.602 150.344 116.609L150.188 115.562ZM152.719 121.969V117.859H153.953V120.938H162.047V121.969H152.719ZM153.172 115.523C153.883 115.508 154.617 115.484 155.344 115.453V110.516H153.172V115.523ZM168.984 110.672C168.992 112.484 170.492 114.094 172.562 114.719L171.938 115.688C170.312 115.172 169.008 114.055 168.383 112.617C167.766 114.156 166.453 115.359 164.797 115.922L164.156 114.953C166.25 114.289 167.742 112.578 167.75 110.672V110.312H164.5V109.312H172.188V110.312H168.984V110.672ZM166.453 122.078V116.578H167.672V118.266H174.234V116.578H175.453V122.078H166.453ZM167.672 121.078H174.234V119.25H167.672V121.078ZM174.234 115.891V108.375H175.453V115.891H174.234ZM188.562 108.375V114.109H190.891V115.125H188.562V122.266H187.344V108.375H188.562ZM177.734 111.625V110.609H181.312V108.547H182.531V110.609H186V111.625H177.734ZM178.531 115.969C178.523 114.094 179.961 112.781 181.938 112.781C183.898 112.781 185.328 114.094 185.344 115.969C185.328 117.852 183.898 119.156 181.938 119.156C179.961 119.156 178.523 117.852 178.531 115.969ZM179.703 115.969C179.695 117.234 180.641 118.125 181.938 118.109C183.219 118.125 184.156 117.234 184.172 115.969C184.156 114.711 183.219 113.805 181.938 113.812C180.641 113.805 179.695 114.711 179.703 115.969ZM203.125 108.375V122.266H201.891V108.375H203.125ZM191.812 118.656C195.57 116.875 197.492 114.211 197.766 110.891H192.453V109.891H199.016C199 113.883 197.141 117.422 192.484 119.656L191.812 118.656Z" fill="#9CA3AF"/>
    <rect x="222" y="91" width="112" height="48" rx="12" fill="#9398FF"/>
    <path d="M253.664 108.328V118.719H252.18V114.859H249.992V113.609H252.18V112.141H249.992V110.922H252.18V108.328H253.664ZM242.008 115.484C242.531 115.484 243.109 115.477 243.711 115.477V110.625H242.398V109.422H249.836V110.625H248.492V115.312C249.086 115.266 249.656 115.219 250.211 115.156L250.273 116.25C247.594 116.672 244.438 116.727 242.195 116.734L242.008 115.484ZM244.539 122.031V117.875H246.039V120.828H254.023V122.031H244.539ZM245.148 115.453C245.781 115.438 246.422 115.414 247.07 115.391V110.625H245.148V115.453ZM261.008 110.562C261.008 112.305 262.367 113.914 264.523 114.547L263.773 115.703C262.141 115.203 260.906 114.141 260.266 112.766C259.641 114.242 258.391 115.398 256.711 115.953L255.961 114.781C258.141 114.117 259.5 112.398 259.508 110.562V110.406H256.367V109.203H264.086V110.406H261.008V110.562ZM258.273 122.156V116.562H259.727V118.125H265.961V116.562H267.43V122.156H258.273ZM259.727 120.953H265.961V119.297H259.727V120.953ZM265.945 115.906V108.328H267.43V115.906H265.945ZM286.633 113.828V115.047H284.461V122.312H282.977V108.328H284.461V113.828H286.633ZM274.086 118.797V109.688H275.555V117.562C277.508 117.555 279.547 117.391 281.773 116.938L281.945 118.188C279.547 118.664 277.344 118.805 275.242 118.797H274.086ZM298.289 108.328V113.906H300.461V115.141H298.289V122.312H296.805V108.328H298.289ZM287.398 118.578C290.906 116.828 292.812 114.297 293.117 111.031H288.102V109.797H294.633C294.617 113.844 292.836 117.461 288.227 119.734L287.398 118.578ZM312.852 108.328V122.328H311.352V108.328H312.852ZM301.352 118.578C305.07 116.805 306.891 114.281 307.18 111.016H302.023V109.828H308.68C308.68 113.93 306.938 117.477 302.133 119.781L301.352 118.578Z" fill="white"/>
</svg>
