<svg width="118" height="36" viewBox="0 0 118 36" fill="none" xmlns="http://www.w3.org/2000/svg">
    <rect width="118" height="36" rx="8" fill="#9496FF" fill-opacity="0.25"/>
    <path d="M44.7227 12.8828V13.4688C44.7227 14.1484 44.7227 15.1445 44.3652 16.4688H47.1309C47.3945 15.4668 47.4531 14.6992 47.4707 14.0664H45.3789V12.8828H48.918V13.5273C48.9121 14.2656 48.9121 15.2207 48.6309 16.4688H50.043V17.6758H45.8945V19.0586H48.8359V22.9492H41.5V19.0586H44.418V17.6758H40.3164V16.4688H42.8594C43.1582 15.4492 43.2344 14.6758 43.2578 14.0664H41.1836V12.8828H44.7227ZM42.9648 21.7773H47.3477V20.2188H42.9648V21.7773ZM60.6133 16.457V17.6758H59.1016V23.0547H57.6016V12.4141H59.1016V16.457H60.6133ZM51.0273 20.4531V13.4336H52.5156V19.2168C53.8809 19.1934 55.3457 19.0645 56.8867 18.7539L57.0391 19.9961C55.252 20.3594 53.5234 20.4531 51.9531 20.4531H51.0273ZM69.4727 12.4141V16.4453H71.043V17.6758H69.4727V23.1016H67.9961V12.4141H69.4727ZM61.4922 14.5117V13.3047H66.4258V17.4414H62.9922V19.375C64.5449 19.3691 65.8281 19.2988 67.2461 19.0586L67.375 20.2539C65.7461 20.5527 64.2812 20.6172 62.4062 20.6172H61.5039V16.2578H64.9375V14.5117H61.4922ZM77.1367 13.1641C78.0977 13.1641 78.8945 13.6855 79.3809 14.6055H81.7188V12.4141H83.1953V23.1016H81.7188V19.1055H79.4922C79.0176 20.1602 78.168 20.7695 77.1367 20.7695C75.5195 20.7695 74.3594 19.3047 74.3711 16.9609C74.3594 14.6348 75.5195 13.1641 77.1367 13.1641ZM75.8008 16.9609C75.7949 18.5488 76.3398 19.416 77.1367 19.4102C77.9395 19.416 78.4727 18.5488 78.4727 16.9609C78.4727 15.3789 77.9395 14.5117 77.1367 14.5117C76.3398 14.5117 75.7949 15.3789 75.8008 16.9609ZM79.7969 15.8125C79.8672 16.1641 79.9023 16.5508 79.9023 16.9609C79.9023 17.2949 79.8789 17.6113 79.832 17.9102H81.7188V15.8125H79.7969ZM93.7305 12.4141V19.1055H92.3125V16.2695H91.457V18.7539H90.0625V12.6133H91.457V15.0508H92.3125V12.4141H93.7305ZM84.5078 14.6758V13.5156H86.3945V12.5078H87.8828V13.5156H89.7461V14.6758H84.5078ZM84.8359 16.8906C84.8301 15.7715 85.8086 15.0273 87.1445 15.0273C88.498 15.0273 89.4707 15.7715 89.4766 16.8906C89.4707 17.998 88.498 18.7363 87.1445 18.7422C85.8086 18.7363 84.8301 17.998 84.8359 16.8906ZM86.1719 16.8906C86.166 17.3828 86.5586 17.6816 87.1445 17.6758C87.7246 17.6816 88.123 17.3828 88.1289 16.8906C88.123 16.3926 87.7246 16.0996 87.1445 16.1055C86.5645 16.0996 86.166 16.3926 86.1719 16.8906ZM86.3945 21.1445C86.3887 19.9082 87.7891 19.2051 90.0859 19.1992C92.3887 19.2051 93.7773 19.9082 93.7891 21.1445C93.7773 22.375 92.3887 23.084 90.0859 23.0781C87.7891 23.084 86.3887 22.375 86.3945 21.1445ZM87.8945 21.1445C87.8828 21.6836 88.6387 21.9531 90.0859 21.9531C91.5391 21.9531 92.2773 21.6836 92.2773 21.1445C92.2773 20.582 91.5391 20.3184 90.0859 20.3242C88.6387 20.3184 87.8828 20.582 87.8945 21.1445ZM103.352 12.4141V16.5039H104.863V17.7344H103.352V23.0547H101.852V12.4141H103.352ZM94.8203 20.0664C97.3457 18.8008 98.7051 17.1016 98.9863 14.7227H95.4297V13.5039H100.504C100.492 16.6914 99.25 19.4512 95.6641 21.2148L94.8203 20.0664Z" fill="#6366F1"/>
    <g clip-path="url(#clip0_523_7113)">
        <path d="M28 21.8851C27.7394 22.1464 27.318 22.1464 27.0574 21.8851L26.1147 20.9424C25.8534 20.6818 25.8534 20.2598 26.1147 19.9998L28 18.1144C28.2607 17.8538 28.682 17.8538 28.9427 18.1144L29.8854 19.0571C30.1467 19.3178 30.1467 19.7398 29.8854 19.9998L28 21.8851ZM18 11.8851C17.7394 12.1464 17.318 12.1464 17.0574 11.8851L16.1147 10.9424C15.8534 10.6818 15.8534 10.2604 16.1147 9.99978L18 8.11445C18.2607 7.85378 18.682 7.85378 18.9427 8.11445L19.8854 9.05711C20.1467 9.31778 20.1467 9.73911 19.8854 9.99978L18 11.8851Z" fill="#66757F"/>
        <path d="M9.33333 20.6668C10.6667 20.6668 16.6667 21.3335 16.6667 21.3335C16.6667 21.3335 17.3333 27.3335 17.3333 28.6668C17.3333 30.0001 16 30.0001 15.3333 29.3335C14.6667 28.6668 12.6667 25.3335 12.6667 25.3335C12.6667 25.3335 9.33333 23.3335 8.66666 22.6668C8 22.0001 8 20.6668 9.33333 20.6668ZM10.6667 10.0261C12.6667 10.0001 27.3333 10.6668 27.3333 10.6668C27.3333 10.6668 27.9493 25.3335 27.9747 27.3335C28 29.3335 26.1327 30.0015 25.4 27.3341C24.6673 24.6668 22 16.0001 22 16.0001C22 16.0001 12.6967 13.0555 10.6633 12.5988C8 12.0001 8.666 10.0515 10.6667 10.0261Z" fill="#55ACEE"/>
        <path d="M26 8.00014C27.3333 6.66681 30.6666 6.00014 31.3333 6.66681C32 7.33348 31.3333 10.6668 30 12.0001C28.6666 13.3335 17.3333 24.0001 17.3333 24.0001C17.3333 24.0001 13 27.0001 12 26.0001C11 25.0001 14 20.6668 14 20.6668C14 20.6668 24.6666 9.33348 26 8.00014Z" fill="#CCD6DD"/>
        <path d="M17.3333 20.6667C17.3333 20.6667 17.6666 21 14.6666 24C11.6666 27 11.3333 26.6667 11.3333 26.6667C11.3333 26.6667 11 26.3333 14 23.3333C17 20.3333 17.3333 20.6667 17.3333 20.6667ZM27.3333 8.66667C28.438 8.66667 29.3333 9.562 29.3333 10.6667H29.87C29.946 10.4567 30 10.2367 30 10C30 8.89533 29.1046 8 28 8C27.7633 8 27.5433 8.054 27.3333 8.13V8.66667Z" fill="#66757F"/>
    </g>
    <defs>
        <clipPath id="clip0_523_7113">
            <rect width="24" height="24" fill="white" transform="translate(8 6)"/>
        </clipPath>
    </defs>
</svg>
