<svg width="171" height="36" viewBox="0 0 171 36" fill="none" xmlns="http://www.w3.org/2000/svg">
    <rect width="171" height="36" rx="8" fill="url(#paint0_linear_523_7393)"/>
    <path d="M50.0781 20.6055V21.8359H40.3164V20.6055H44.4297V18.4258H41.3477V13.1992H48.9883V18.4258H45.918V20.6055H50.0781ZM42.8242 17.2539H47.5117V14.3945H42.8242V17.2539ZM59.2891 16.2109V17.3828H51.918V12.9766H59.1836V14.1719H53.4531V16.2109H59.2891ZM50.6758 19.6445V18.4609H60.4375V19.6445H56.2656V23.0664H54.7891V19.6445H50.6758ZM72.6484 18.7305V19.8438H64.7031V18.7305H67.9258V17.9805H69.4258V18.7305H72.6484ZM63.8125 17.6641V16.4805H67.9961V15.707H65.0781V12.5781H66.5664V14.5469H72.5078V15.707H69.4844V16.4805H73.5742V17.6641H63.8125ZM65.3945 21.6133C65.3887 20.6758 66.5957 20.1543 68.6641 20.1484C70.7324 20.1543 71.9512 20.6758 71.957 21.6133C71.9512 22.5625 70.7324 23.084 68.6641 23.0781C66.5957 23.084 65.3887 22.5625 65.3945 21.6133ZM66.9766 21.6133C66.9766 21.9414 67.5449 22.0586 68.6641 22.0586C69.7773 22.0586 70.3691 21.9414 70.375 21.6133C70.3691 21.2793 69.7773 21.1738 68.6641 21.168C67.5449 21.1738 66.9766 21.2793 66.9766 21.6133ZM83.1133 12.4141V23.0781H81.6133V12.4141H83.1133ZM74.2539 19.9375C76.0059 19.1699 76.873 17.377 76.8789 15.7539V15.3438H74.6055V14.1484H76.8672V12.6484H78.3555V14.1484H80.582V15.3438H78.3672V15.7539C78.3672 17.3008 79.2402 19.041 81.0156 19.7734L80.207 20.9219C78.9941 20.4238 78.127 19.4043 77.6406 18.1797C77.166 19.4746 76.293 20.5645 75.0508 21.0859L74.2539 19.9375ZM88.7031 15.3203C88.6973 17.043 89.5879 18.8887 91.375 19.6328L90.5664 20.8047C89.3125 20.2715 88.4453 19.2109 87.9648 17.9219C87.4844 19.3223 86.5996 20.4941 85.3398 21.0742L84.4844 19.8906C86.2539 19.0996 87.168 17.125 87.168 15.3203V14.6641H84.9062V13.4453H90.9297V14.6641H88.7031V15.3203ZM91.9844 23.0781V12.4141H93.4961V23.0781H91.9844ZM100.645 12.9297C102.285 12.9238 103.504 13.9668 103.504 15.4141C103.504 16.873 102.285 17.9102 100.645 17.9102C99.0156 17.9102 97.7676 16.873 97.7734 15.4141C97.7676 13.9668 99.0156 12.9238 100.645 12.9297ZM98.6641 22.7969V18.707H100.117V21.5781C100.709 21.5371 101.266 21.4492 101.816 21.2734L102.027 22.4336C101.131 22.7559 100.27 22.7969 99.25 22.7969H98.6641ZM99.2383 15.4141C99.2266 16.1992 99.8359 16.6855 100.645 16.6914C101.453 16.6855 102.051 16.1992 102.051 15.4141C102.051 14.6348 101.453 14.1543 100.645 14.1602C99.8359 14.1543 99.2266 14.6348 99.2383 15.4141ZM101.664 19.8203V18.7188H103.633V17.9688H105.086V18.7188H107.031V19.8203H101.664ZM102.285 21.5781C102.273 20.6582 103.111 20.0664 104.336 20.0664C105.555 20.0664 106.404 20.6582 106.41 21.5781C106.404 22.5039 105.555 23.084 104.336 23.0781C103.105 23.084 102.273 22.5039 102.285 21.5781ZM103.609 21.5781C103.604 21.9004 103.914 22.0586 104.336 22.0586C104.764 22.0586 105.068 21.9004 105.074 21.5781C105.068 21.2734 104.764 21.1035 104.336 21.0977C103.914 21.1035 103.604 21.2734 103.609 21.5781ZM104.664 17.6758V12.4141H106.164V14.6289H107.605V15.8594H106.164V17.6758H104.664ZM112.938 12.5664C115.393 12.5664 116.811 13.2109 116.816 14.3828C116.811 15.5723 115.393 16.2109 112.938 16.2109C110.477 16.2109 109.047 15.5723 109.047 14.3828C109.047 13.2109 110.477 12.5664 112.938 12.5664ZM108.074 17.8984V16.7148H117.801V17.8984H108.074ZM109.199 19.6094V18.5195H116.617V21.2383H110.676V21.8828H116.898V23.0078H109.211V20.1953H115.141V19.6094H109.199ZM110.617 14.3828C110.611 14.9043 111.373 15.1094 112.938 15.1094C114.514 15.1094 115.27 14.9043 115.27 14.3828C115.27 13.9082 114.514 13.6562 112.938 13.6562C111.373 13.6562 110.611 13.9082 110.617 14.3828ZM127.434 12.4141V23.0781H125.945V17.7344H123.824V16.5156H125.945V12.4141H127.434ZM118.34 20.0547C121.035 18.7246 122.154 17.0371 122.377 14.6992H118.844V13.5273H123.883C123.877 16.7441 122.834 19.3809 119.113 21.2266L118.34 20.0547ZM138.062 12.4141V23.0781H136.633V12.4141H138.062ZM128.91 17.0312C128.91 14.6465 129.818 13.1699 131.23 13.1758C132.514 13.1699 133.393 14.3711 133.557 16.3633H134.43V12.5664H135.836V22.5859H134.43V17.5469H133.568C133.439 19.6387 132.543 20.9102 131.23 20.9102C129.818 20.9102 128.91 19.4277 128.91 17.0312ZM130.293 17.0312C130.281 18.6719 130.633 19.4805 131.23 19.4688C131.846 19.4805 132.209 18.6719 132.203 17.0312C132.209 15.3965 131.846 14.582 131.23 14.582C130.633 14.582 130.281 15.3965 130.293 17.0312ZM148.949 20.6055V21.8359H139.188V20.6055H141.367V17.9922C140.541 17.4941 140.043 16.7383 140.043 15.8008C140.043 14.0723 141.73 12.9355 144.051 12.9297C146.359 12.9355 148.064 14.0723 148.07 15.8008C148.064 16.7207 147.584 17.4648 146.781 17.9629V20.6055H148.949ZM141.52 15.8008C141.52 16.8438 142.521 17.4883 144.051 17.4883C145.557 17.4883 146.588 16.8438 146.594 15.8008C146.588 14.7285 145.557 14.1074 144.051 14.1133C142.521 14.1074 141.52 14.7285 141.52 15.8008ZM142.844 20.6055H145.27V18.5312C144.889 18.6074 144.479 18.6484 144.051 18.6484C143.623 18.6484 143.219 18.6074 142.844 18.5371V20.6055ZM151.984 13.5156L151.832 19.457H150.332L150.18 13.5156H151.984ZM150.109 21.1211C150.098 20.582 150.543 20.1426 151.094 20.1484C151.615 20.1426 152.066 20.582 152.066 21.1211C152.066 21.666 151.615 22.1055 151.094 22.1055C150.543 22.1055 150.098 21.666 150.109 21.1211Z" fill="white"/>
    <g clip-path="url(#clip0_523_7393)">
        <path d="M27.2266 17.7583C26.5686 18.4543 26.138 19.803 26.268 20.7537L26.8626 25.0477C26.994 25.999 26.3953 26.439 25.532 26.027L21.6313 24.163C20.768 23.7497 19.3593 23.7557 18.498 24.175L14.614 26.0697C13.7533 26.489 13.152 26.0523 13.276 25.1017L13.838 20.8023C13.962 19.851 13.5213 18.5063 12.858 17.815L9.86198 14.6897C9.19798 13.9983 9.42531 13.2883 10.3653 13.113L14.612 12.321C15.552 12.1457 16.6893 11.309 17.1406 10.4617L19.1746 6.637C19.6246 5.78967 20.3673 5.78767 20.8233 6.631L22.8866 10.4397C23.344 11.283 24.4866 12.111 25.4293 12.2783L29.6813 13.039C30.6226 13.207 30.8553 13.915 30.1973 14.6117L27.2266 17.7583Z" fill="#FFAC33"/>
        <path d="M14.5219 7.45378C15.2039 8.39578 16.1526 10.7318 15.6666 11.0851C15.1813 11.4391 13.2619 9.81178 12.5799 8.86978C11.8986 7.92778 11.9566 7.09112 12.4926 6.70045C13.0286 6.30912 13.8393 6.51245 14.5219 7.45378ZM27.4206 8.86978C26.7393 9.81178 24.8199 11.4398 24.3333 11.0845C23.8473 10.7311 24.7966 8.39578 25.4793 7.45445C26.1613 6.51178 26.9713 6.30845 27.5079 6.70045C28.0433 7.09112 28.1013 7.92778 27.4206 8.86978ZM19.0833 28.1938C19.0826 27.0298 19.6819 24.5798 20.2839 24.5798C20.8819 24.5798 21.4826 27.0298 21.4819 28.1931C21.4819 29.3578 20.9459 30.0011 20.2819 29.9998C19.6193 30.0011 19.0833 29.3585 19.0833 28.1938ZM29.8693 22.0191C28.7659 21.6598 26.6306 20.3305 26.8166 19.7558C27.0013 19.1838 29.5079 19.3685 30.6099 19.7285C31.7133 20.0885 32.1573 20.7985 31.9519 21.4325C31.7466 22.0658 30.9726 22.3791 29.8693 22.0191ZM9.38859 19.7291C10.4919 19.3691 12.9979 19.1845 13.1846 19.7585C13.3686 20.3298 11.2326 21.6611 10.1306 22.0198C9.02792 22.3798 8.25192 22.0665 8.04859 21.4331C7.84326 20.7998 8.28459 20.0898 9.38859 19.7291Z" fill="#FFD983"/>
    </g>
    <defs>
        <linearGradient id="paint0_linear_523_7393" x1="121" y1="-72.5" x2="165.607" y2="-3.76855" gradientUnits="userSpaceOnUse">
            <stop stop-color="#A78BFA"/>
            <stop offset="1" stop-color="#A5B4FC"/>
        </linearGradient>
        <clipPath id="clip0_523_7393">
            <rect width="24" height="24" fill="white" transform="translate(8 6)"/>
        </clipPath>
    </defs>
</svg>
