<svg width="350" height="43" viewBox="20 0 350 43" fill="none" xmlns="http://www.w3.org/2000/svg">
    <path d="M58.25 13.3906V23.5781H57.0156V18.25H54.1562V17.2344H57.0156V13.3906H58.25ZM58.6406 25.9375V26.9688H49.3281V22.6562H50.5625V25.9375H58.6406ZM51.5625 16.25C51.5625 18.0469 52.9531 19.7969 54.9844 20.4844L54.3438 21.4688C52.7734 20.9062 51.5625 19.7344 50.9688 18.2969C50.3672 19.8984 49.0859 21.1797 47.4375 21.7969L46.7969 20.7969C48.8438 20.0781 50.3281 18.25 50.3281 16.25V15.5312H47.1875V14.5156H54.6719V15.5312H51.5625V16.25ZM64.625 17.6562C64.625 19.8906 65.7656 22.1719 67.6562 23.1875L66.9531 24.1094C65.5703 23.3594 64.5703 21.9219 64.0625 20.25C63.5625 22.0312 62.5703 23.5781 61.1875 24.4219L60.4531 23.4844C62.3438 22.3906 63.4531 19.9531 63.4688 17.6562V16.9688H60.8281V15.9531H63.4688V13.8906H64.6406V15.9531H67.2344V16.9688H64.625V17.6562ZM72.4375 13.375V27.2656H71.2656V13.375H72.4375ZM69.625 13.7188V26.5469H68.4688V19.9062H66.2812V18.8594H68.4688V13.7188H69.625Z" fill="#9CA3AF"/>
    <path d="M149.367 13.9844V14.5C149.367 15.2969 149.367 16.7656 148.859 18.7656H152.977C153.359 17.2031 153.438 16.0391 153.445 15.1875H150.367V13.9844H154.883V14.625C154.875 15.5 154.875 16.8828 154.461 18.7656H156.398V19.9688H150.68V22.1719H154.773V27.1406H145.18V22.1719H149.227V19.9688H143.602V18.7656H147.367C147.789 17.1953 147.891 16.0234 147.914 15.1875H144.805V13.9844H149.367ZM146.633 25.9531H153.305V23.3438H146.633V25.9531Z" fill="#4F46E5"/>
    <path d="M230.672 13.8906C232.75 13.8984 234.258 15.1641 234.266 16.9688C234.258 18.7812 232.75 20.0312 230.672 20.0312C228.57 20.0312 227.055 18.7812 227.062 16.9688C227.055 15.1641 228.57 13.8984 230.672 13.8906ZM228.266 16.9688C228.25 18.1875 229.273 19.0312 230.672 19.0312C232.047 19.0312 233.078 18.1875 233.078 16.9688C233.078 15.7656 232.047 14.9141 230.672 14.9219C229.273 14.9141 228.25 15.7656 228.266 16.9688ZM229.172 22.1719V21.1875H238.203V24.5312H230.406V26.0938H238.703V27.0781H229.203V23.6094H236.984V22.1719H229.172ZM236.984 20.5156V13.375H238.203V20.5156H236.984ZM252.047 13.375V27.2656H250.812V13.375H252.047ZM240.734 23.6562C244.492 21.875 246.414 19.2109 246.688 15.8906H241.375V14.8906H247.938C247.922 18.8828 246.062 22.4219 241.406 24.6562L240.734 23.6562Z" fill="#9CA3AF"/>
    <path d="M322.562 15V18.625H324.672V13.6719H325.844V26.5625H324.672V19.6406H322.562V23.5312H317.25V15H322.562ZM318.406 22.5469H321.406V15.9844H318.406V22.5469ZM327.453 27.2656V13.375H328.641V27.2656H327.453ZM343.281 24.4531V25.4844H330.562V24.4531H336.281V21.0625H332.062V14.5469H341.703V21.0625H337.484V24.4531H343.281ZM333.266 20.0781H340.516V15.5312H333.266V20.0781Z" fill="#9CA3AF"/>
    <rect x="142" width="16" height="4" rx="2" fill="#6366F1"/>
</svg>
