<svg width="73" height="52" viewBox="0 0 73 52" fill="none" xmlns="http://www.w3.org/2000/svg">
    <path d="M23.5 5H30.5C31.773 5 33.5998 5.08316 34.5 6C35.4002 6.91684 35.5 8.70339 35.5 10V27C35.5 26.0275 35.1751 24.6876 34.5 24C33.8249 23.3124 32.4548 23 31.5 23H23.5V5Z" fill="#C7D2FE"/>
    <path d="M49.5 5H42.5C41.227 5 39.4002 5.08316 38.5 6C37.5998 6.91684 37.5 8.70339 37.5 10V27C37.5 26.0275 37.8249 24.6876 38.5 24C39.1751 23.3124 40.5452 23 41.5 23H49.5V5Z" fill="#C7D2FE"/>
    <path d="M17.9536 38.2441V44.4961H13.4526V38.2441H17.9536ZM14.4517 43.6689H16.9438V39.0498H14.4517V43.6689ZM19.5649 46.9131V37.2881H20.5854V41.0586H22.1323V41.918H20.5854V46.9131H19.5649ZM30.5649 37.2881V46.9346H29.5444V37.2881H30.5649ZM22.9272 41.3809C22.9272 39.3237 23.9639 38.0132 25.4194 38.0078C26.8481 38.0132 27.9009 39.3237 27.9009 41.3809C27.9009 43.4595 26.8481 44.77 25.4194 44.7646C23.9639 44.77 22.9272 43.4595 22.9272 41.3809ZM23.9155 41.3809C23.9102 42.9116 24.5225 43.8516 25.4194 43.8516C26.3003 43.8516 26.9126 42.9116 26.9126 41.3809C26.9126 39.8716 26.3003 38.9263 25.4194 38.9209C24.5225 38.9263 23.9102 39.8716 23.9155 41.3809ZM40.4263 37.2881V46.9131H39.4487V37.2881H40.4263ZM31.9937 43.7334C32.2729 43.7334 32.5952 43.7334 32.939 43.728V39.3076H32.1978V38.4697H36.6128V39.3076H35.8716V43.6099C36.1992 43.583 36.5161 43.5454 36.8062 43.5078L36.8813 44.249C35.356 44.5498 33.3579 44.5928 32.1118 44.5928L31.9937 43.7334ZM33.8628 43.7119C34.2119 43.7065 34.5718 43.6904 34.9263 43.6743V39.3076H33.8628V43.7119ZM36.355 41.8105V40.8975H37.5581V37.5029H38.5249V46.4189H37.5581V41.8105H36.355ZM49.5786 37.2881V46.9346H48.5581V37.2881H49.5786ZM41.9409 41.3809C41.9409 39.3237 42.9775 38.0132 44.4331 38.0078C45.8618 38.0132 46.9146 39.3237 46.9146 41.3809C46.9146 43.4595 45.8618 44.77 44.4331 44.7646C42.9775 44.77 41.9409 43.4595 41.9409 41.3809ZM42.9292 41.3809C42.9238 42.9116 43.5361 43.8516 44.4331 43.8516C45.314 43.8516 45.9263 42.9116 45.9263 41.3809C45.9263 39.8716 45.314 38.9263 44.4331 38.9209C43.5361 38.9263 42.9238 39.8716 42.9292 41.3809ZM54.6597 40.124C54.6543 41.7354 55.7124 43.4004 57.1948 44.0342L56.6362 44.8291C55.5029 44.3296 54.6006 43.2661 54.1548 41.9824C53.709 43.3574 52.8066 44.5283 51.6841 45.0762L51.0933 44.2705C52.5435 43.5884 53.6177 41.7837 53.6284 40.124V39.1035H51.4263V38.2549H56.8511V39.1035H54.6597V40.124ZM58.0649 46.9131V37.2881H59.0854V46.9131H58.0649Z" fill="#A5B4FC"/>
</svg>
