<svg width="24" height="24" viewBox="0 0 24 24" fill="none" xmlns="http://www.w3.org/2000/svg">
<g clip-path="url(#clip0_4062_8124)">
<path d="M20.2082 0.51709C21.3336 12.6664 13.3336 21.3331 0.517578 20.2078C5.98358 25.3524 14.5782 25.2664 19.9222 19.9218C25.2669 14.5778 25.3536 5.98309 20.2082 0.51709Z" fill="#FFD983"/>
<path d="M20.4696 10.6098C20.1676 10.9125 20.1676 11.4025 20.4696 11.7058C20.7723 12.0078 21.2623 12.0078 21.5649 11.7058C21.8676 11.4025 21.8683 10.9125 21.5649 10.6098C21.2629 10.3071 20.7723 10.3071 20.4696 10.6098ZM9.78827 20.1965C9.3336 20.6505 9.3336 21.3851 9.78827 21.8398C10.2416 22.2945 10.9776 22.2945 11.4309 21.8398C11.8849 21.3851 11.8849 20.6505 11.4309 20.1965C10.9776 19.7418 10.2416 19.7418 9.78827 20.1965ZM19.1003 18.7651C18.3436 19.5218 17.1176 19.5218 16.3616 18.7651C15.6049 18.0085 15.6049 16.7818 16.3616 16.0271C17.1183 15.2698 18.3443 15.2698 19.1003 16.0271C19.8569 16.7825 19.8569 18.0091 19.1003 18.7651Z" fill="#FFCC4D"/>
</g>
<defs>
<clipPath id="clip0_4062_8124">
<rect width="24" height="24" fill="white"/>
</clipPath>
</defs>
</svg>
