<svg width="24" height="24" viewBox="0 0 24 24" fill="none" xmlns="http://www.w3.org/2000/svg">
<g clip-path="url(#clip0_4062_19296)">
<path d="M18.543 2.6665H19.8736V4.2605H18.543V2.6665Z" fill="#66757F"/>
<path d="M19.334 2.6665H6.00065C4.52798 2.6665 3.33398 3.8605 3.33398 5.33317V21.3332C3.33398 22.8058 4.52798 23.9998 6.00065 23.9998H19.334C20.8067 23.9998 22.0007 22.8058 22.0007 21.3332V5.33317C22.0007 3.8605 20.8067 2.6665 19.334 2.6665Z" fill="#55ACEE"/>
<path d="M18 2.6665H4.66667C3.194 2.6665 2 3.8605 2 5.33317V21.3332C2 22.8058 3.194 23.9998 4.66667 23.9998H18C19.4727 23.9998 20.6667 22.8058 20.6667 21.3332V5.33317C20.6667 3.8605 19.4727 2.6665 18 2.6665Z" fill="#CCD6DD"/>
<path d="M18.6667 10.0002C18.6667 10.3688 18.3687 10.6668 18 10.6668H4.66667C4.29867 10.6668 4 10.3688 4 10.0002C4 9.63216 4.29867 9.3335 4.66667 9.3335H18C18.3687 9.3335 18.6667 9.63216 18.6667 10.0002ZM18.6667 13.3335C18.6667 13.7022 18.3687 14.0002 18 14.0002H4.66667C4.29867 14.0002 4 13.7022 4 13.3335C4 12.9648 4.29867 12.6668 4.66667 12.6668H18C18.3687 12.6668 18.6667 12.9648 18.6667 13.3335ZM18.6667 16.6668C18.6667 17.0355 18.3687 17.3335 18 17.3335H4.66667C4.29867 17.3335 4 17.0355 4 16.6668C4 16.2982 4.29867 16.0002 4.66667 16.0002H18C18.3687 16.0002 18.6667 16.2982 18.6667 16.6668ZM13.3333 20.0002C13.3333 20.3688 13.0353 20.6668 12.6667 20.6668H4.66667C4.29867 20.6668 4 20.3688 4 20.0002C4 19.6315 4.29867 19.3335 4.66667 19.3335H12.6667C13.0353 19.3335 13.3333 19.6315 13.3333 20.0002Z" fill="#99AAB5"/>
<path d="M5.22429 5.82078C4.75629 5.82078 4.37695 5.37678 4.37695 4.82812C4.37695 4.28012 4.75629 3.83545 5.22429 3.83545C5.69162 3.83545 6.07095 4.28012 6.07095 4.82812C6.07095 5.37612 5.69162 5.82078 5.22429 5.82078Z" fill="#292F33"/>
<path d="M5.69498 4.72199C5.65832 4.40199 5.44565 4.19399 5.20898 4.04399C4.88565 3.83932 4.54232 3.37199 4.54232 2.79265C4.54232 2.05665 4.98965 1.39599 5.54232 1.39599C6.09498 1.39599 6.54232 1.99932 6.54232 2.66599H7.87298C7.85898 1.33265 6.82298 0.118652 5.54232 0.118652C4.25298 0.118652 3.20898 1.33132 3.20898 2.78865C3.20898 4.02399 3.90565 5.03599 4.92165 5.40599C5.42832 5.58999 5.73765 5.10799 5.69498 4.72199Z" fill="#66757F"/>
<path d="M9.22429 5.82078C8.75629 5.82078 8.37695 5.37678 8.37695 4.82812C8.37695 4.28012 8.75629 3.83545 9.22429 3.83545C9.69162 3.83545 10.071 4.28012 10.071 4.82812C10.071 5.37612 9.69162 5.82078 9.22429 5.82078Z" fill="#292F33"/>
<path d="M9.69498 4.72199C9.65832 4.40199 9.44565 4.19399 9.20898 4.04399C8.88565 3.83932 8.54232 3.37199 8.54232 2.79265C8.54232 2.05665 8.98965 1.39599 9.54232 1.39599C10.095 1.39599 10.5423 1.99932 10.5423 2.66599H11.873C11.8597 1.33265 10.823 0.118652 9.54232 0.118652C8.25298 0.118652 7.20898 1.33132 7.20898 2.78865C7.20898 4.02399 7.90565 5.03599 8.92165 5.40599C9.42832 5.58999 9.73765 5.10799 9.69498 4.72199Z" fill="#66757F"/>
<path d="M13.2243 5.82078C12.7563 5.82078 12.377 5.37678 12.377 4.82812C12.377 4.28012 12.7563 3.83545 13.2243 3.83545C13.6916 3.83545 14.0716 4.28012 14.0716 4.82812C14.071 5.37612 13.6916 5.82078 13.2243 5.82078Z" fill="#292F33"/>
<path d="M13.6963 4.72199C13.6596 4.40199 13.4469 4.19399 13.2109 4.04399C12.8876 3.83932 12.5443 3.37199 12.5443 2.79265C12.5443 2.05665 12.9916 1.39599 13.5443 1.39599C14.0969 1.39599 14.5443 1.99932 14.5443 2.66599H15.8749C15.8616 1.33265 14.8249 0.118652 13.5443 0.118652C12.2549 0.118652 11.2109 1.33132 11.2109 2.78865C11.2109 4.02399 11.9076 5.03599 12.9236 5.40599C13.4296 5.58999 13.7389 5.10799 13.6963 4.72199Z" fill="#66757F"/>
<path d="M17.2243 5.82078C16.7563 5.82078 16.377 5.37678 16.377 4.82812C16.377 4.28012 16.7563 3.83545 17.2243 3.83545C17.6916 3.83545 18.0716 4.28012 18.0716 4.82812C18.071 5.37612 17.6916 5.82078 17.2243 5.82078Z" fill="#292F33"/>
<path d="M17.6963 4.72199C17.6596 4.40199 17.4469 4.19399 17.2109 4.04399C16.8876 3.83932 16.5443 3.37199 16.5443 2.79265C16.5443 2.05665 16.9916 1.39599 17.5443 1.39599C18.0969 1.39599 18.5443 1.99932 18.5443 2.66599H19.8749C19.8616 1.33265 18.8249 0.118652 17.5443 0.118652C16.2549 0.118652 15.2109 1.33132 15.2109 2.78865C15.2109 4.02399 15.9076 5.03599 16.9236 5.40599C17.4296 5.58999 17.7389 5.10799 17.6963 4.72199Z" fill="#66757F"/>
</g>
<defs>
<clipPath id="clip0_4062_19296">
<rect width="24" height="24" fill="white"/>
</clipPath>
</defs>
</svg>
