<svg width="24" height="24" viewBox="0 0 24 24" fill="none" xmlns="http://www.w3.org/2000/svg">
<g clip-path="url(#clip0_4062_16147)">
<path d="M23.4809 22.3986C23.0495 20.9979 22.3442 18.3592 21.9309 17.3546C21.5969 16.5439 21.2849 15.7292 20.9015 15.3452C20.5182 14.9619 19.8662 14.9919 19.4729 15.3839C19.4729 15.3839 17.8269 16.5006 17.2369 17.2392C16.4982 17.8272 15.3802 19.4772 15.3802 19.4772C14.9869 19.8706 14.9569 20.5219 15.3402 20.9059C15.7242 21.2892 16.5389 21.6012 17.3502 21.9352C18.3542 22.3486 20.9935 23.0526 22.3942 23.4852C22.6335 23.5586 23.5542 22.6379 23.4809 22.3986Z" fill="#D99E82"/>
<path d="M9.09521 3.53856C9.86255 4.30589 9.86255 5.54923 9.09521 6.31656L6.31721 9.09523C5.54988 9.86189 4.30521 9.86189 3.53921 9.09523L0.760547 6.31656C-0.00611982 5.54923 -0.00611982 4.30589 0.760547 3.53856L3.53855 0.760559C4.30521 -0.00677475 5.54921 -0.00677475 6.31655 0.760559L9.09521 3.53856Z" fill="#EA596E"/>
<path d="M20.9017 15.3456L18.1217 18.1256L15.3464 20.9022L4.92773 10.4842L10.4844 4.92822L20.9017 15.3456Z" fill="#FFCC4D"/>
<path d="M21.3848 23.1755C21.3848 23.1755 23.1908 24.1681 23.6788 23.6801C24.1668 23.1921 23.1688 21.3901 23.1688 21.3901C23.1688 21.3901 21.4581 21.4221 21.3848 23.1755Z" fill="#292F33"/>
<path d="M1.45508 7.01126L7.01174 1.45459L10.4837 4.92726L4.92774 10.4839L1.45508 7.01126Z" fill="#CCD6DD"/>
<path d="M2.15039 7.70541L7.70639 2.14941L8.40106 2.84408L2.84506 8.40008L2.15039 7.70541ZM3.53906 9.09608L9.09572 3.53941L9.79039 4.23408L4.23372 9.79008L3.53906 9.09608Z" fill="#99AAB5"/>
</g>
<defs>
<clipPath id="clip0_4062_16147">
<rect width="24" height="24" fill="white"/>
</clipPath>
</defs>
</svg>
