<svg width="28" height="28" viewBox="0 0 28 28" fill="none" xmlns="http://www.w3.org/2000/svg">
<path d="M14 16.2289C13.181 16.2289 12.4952 15.9306 11.9429 15.334C11.3905 14.7374 11.1143 14.0129 11.1143 13.1605V5.89474C11.1143 5.09064 11.3947 4.40716 11.9555 3.84431C12.5162 3.28144 13.1972 3 13.9983 3C14.7994 3 15.481 3.28144 16.0429 3.84431C16.6048 4.40716 16.8857 5.09064 16.8857 5.89474V13.1605C16.8857 14.0129 16.6095 14.7374 16.0571 15.334C15.5048 15.9306 14.819 16.2289 14 16.2289ZM13.1429 25V21.0632C11.1238 20.8509 9.42857 19.9921 8.05714 18.4868C6.68571 16.9816 6 15.2061 6 13.1605H7.71429C7.71429 14.9167 8.32655 16.393 9.55109 17.5895C10.7756 18.786 12.2566 19.3842 13.9939 19.3842C15.7313 19.3842 17.2143 18.786 18.4429 17.5895C19.6714 16.393 20.2857 14.9167 20.2857 13.1605H22C22 15.2061 21.3143 16.9816 19.9429 18.4868C18.5714 19.9921 16.8762 20.8509 14.8571 21.0632V25H13.1429Z" fill="url(#paint0_linear_435_755)"/>
<defs>
<linearGradient id="paint0_linear_435_755" x1="10.4308" y1="4.49882" x2="11.8821" y2="25.1489" gradientUnits="userSpaceOnUse">
<stop stop-color="#8A80FF"/>
<stop offset="1" stop-color="#B3C4FF"/>
</linearGradient>
</defs>
</svg>
