<svg width="304" height="411" viewBox="0 0 304 411" fill="none" xmlns="http://www.w3.org/2000/svg">
    <path d="M75.0308 311.858L75.0308 97.9004" stroke="url(#paint0_linear_6806_47303)" stroke-width="58.0761"/>
    <path d="M229.258 320.659C242.324 311.36 245.378 293.23 236.08 280.163C226.781 267.097 208.651 264.043 195.584 273.341L229.258 320.659ZM159.635 370.205L229.258 320.659L195.584 273.341L125.962 322.888L159.635 370.205Z" fill="white"/>
    <path d="M11.2076 200.286C-1.33731 210.277 -3.40771 228.546 6.58326 241.091C16.5742 253.636 34.8432 255.707 47.3881 245.716L11.2076 200.286ZM47.3881 245.716L162.711 153.871L126.53 108.442L11.2076 200.286L47.3881 245.716Z" fill="white"/>
    <circle cx="273.666" cy="248.868" r="29.8677" fill="white"/>
    <mask id="path-5-inside-1_6806_47303" fill="white">
        <path d="M45.9792 98.6234C45.8789 86.4318 48.8862 74.4155 54.7175 63.7084C60.5488 53.0013 69.0118 43.9563 79.308 37.4268C89.6043 30.8973 101.394 27.0986 113.566 26.389C125.737 25.6795 137.889 28.0825 148.874 33.3713C159.859 38.6602 169.316 46.6605 176.352 56.6175C183.388 66.5745 187.771 78.1599 189.088 90.2806C190.405 102.401 188.612 114.658 183.879 125.894C179.146 137.129 171.628 146.974 162.035 154.499L126.152 108.754C127.973 107.325 129.4 105.456 130.299 103.323C131.198 101.189 131.538 98.8623 131.288 96.561C131.038 94.2598 130.206 92.0601 128.87 90.1697C127.534 88.2792 125.739 86.7602 123.653 85.7561C121.567 84.7519 119.26 84.2957 116.949 84.4304C114.638 84.5651 112.4 85.2864 110.445 86.5261C108.49 87.7658 106.883 89.4831 105.776 91.516C104.669 93.5488 104.098 95.8303 104.117 98.145L45.9792 98.6234Z"/>
    </mask>
    <path d="M45.9792 98.6234C45.8789 86.4318 48.8862 74.4155 54.7175 63.7084C60.5488 53.0013 69.0118 43.9563 79.308 37.4268C89.6043 30.8973 101.394 27.0986 113.566 26.389C125.737 25.6795 137.889 28.0825 148.874 33.3713C159.859 38.6602 169.316 46.6605 176.352 56.6175C183.388 66.5745 187.771 78.1599 189.088 90.2806C190.405 102.401 188.612 114.658 183.879 125.894C179.146 137.129 171.628 146.974 162.035 154.499L126.152 108.754C127.973 107.325 129.4 105.456 130.299 103.323C131.198 101.189 131.538 98.8623 131.288 96.561C131.038 94.2598 130.206 92.0601 128.87 90.1697C127.534 88.2792 125.739 86.7602 123.653 85.7561C121.567 84.7519 119.26 84.2957 116.949 84.4304C114.638 84.5651 112.4 85.2864 110.445 86.5261C108.49 87.7658 106.883 89.4831 105.776 91.516C104.669 93.5488 104.098 95.8303 104.117 98.145L45.9792 98.6234Z" fill="white" stroke="white" stroke-width="116.152" mask="url(#path-5-inside-1_6806_47303)"/>
    <mask id="path-6-inside-2_6806_47303" fill="white">
        <path d="M45.9792 311.713C45.9522 325.114 49.678 338.255 56.7349 349.648C63.7917 361.041 73.8976 370.23 85.9081 376.175C97.9186 382.12 111.354 384.583 124.692 383.286C138.031 381.989 150.739 376.983 161.379 368.834L126.029 322.675C124.009 324.222 121.596 325.173 119.064 325.419C116.531 325.666 113.98 325.198 111.7 324.069C109.42 322.94 107.501 321.196 106.161 319.033C104.821 316.87 104.114 314.375 104.119 311.83L45.9792 311.713Z"/>
    </mask>
    <path d="M45.9792 311.713C45.9522 325.114 49.678 338.255 56.7349 349.648C63.7917 361.041 73.8976 370.23 85.9081 376.175C97.9186 382.12 111.354 384.583 124.692 383.286C138.031 381.989 150.739 376.983 161.379 368.834L126.029 322.675C124.009 324.222 121.596 325.173 119.064 325.419C116.531 325.666 113.98 325.198 111.7 324.069C109.42 322.94 107.501 321.196 106.161 319.033C104.821 316.87 104.114 314.375 104.119 311.83L45.9792 311.713Z" fill="white" stroke="white" stroke-width="116.152" mask="url(#path-6-inside-2_6806_47303)"/>
    <defs>
        <linearGradient id="paint0_linear_6806_47303" x1="75.0308" y1="97.9004" x2="75.0308" y2="311.523" gradientUnits="userSpaceOnUse">
            <stop stop-color="white"/>
            <stop offset="0.40659" stop-color="#C5C8FF"/>
            <stop offset="1" stop-color="white"/>
        </linearGradient>
    </defs>
</svg>