<svg width="192" height="192" viewBox="0 0 192 192" fill="none" xmlns="http://www.w3.org/2000/svg">
<rect width="192" height="192" fill="#9398FF"/>
<rect x="74.5" y="55" width="44" height="44" rx="8" fill="white" fill-opacity="0.1"/>
<path d="M96.4998 64.6252V89.3748" stroke="white" stroke-width="2" stroke-linecap="round" stroke-linejoin="round"/>
<path d="M84.125 77H108.875" stroke="white" stroke-width="2" stroke-linecap="round" stroke-linejoin="round"/>
<path d="M65.5469 117.219V131.438H63.5312V117.219H65.5469ZM53.6406 127.406C57.3125 125.672 58.9297 123.422 59.25 120.266H54.4062V118.703H61.2812C61.2734 123.016 59.7656 126.602 54.6875 129L53.6406 127.406ZM80.4219 124.844V126.438H67.4062V124.844H72.9219V123.812H69.0312V119.906H76.8438V119.031H69V117.484H78.8438V121.344H71.0156V122.281H79.1094V123.812H74.9062V124.844H80.4219ZM68.8594 128.812V127.25H78.9219V131.375H76.9062V128.812H68.8594ZM97.9062 125.734V127.359H92.3906V131.453H90.4219V127.359H84.9375V125.734H97.9062ZM85.5938 123.406C88.5469 123.078 90.1484 121.688 90.3906 120.422H86.1094V118.859H90.4219V117.234H92.3906V118.859H96.7188V120.422H92.4531C92.6719 121.672 94.2734 123.078 97.2188 123.406L96.5 124.969C94.0859 124.695 92.3438 123.703 91.4219 122.414C90.4922 123.719 88.7422 124.695 86.3125 124.969L85.5938 123.406ZM109.984 117.219V122.672H112V124.312H109.984V131.406H107.984V117.219H109.984ZM98.6094 127.422C101.977 125.734 103.789 123.469 104.164 120.297H99.4219V118.672H106.188C106.172 122.922 104.516 126.602 99.7344 128.953L98.6094 127.422ZM123.812 117.219V122.781H125.906V124.422H123.812V131.438H121.844V117.219H123.812ZM112.516 120.938V119.344H115.734V117.438H117.734V119.344H120.875V120.938H112.516ZM113.094 125.125C113.086 123.141 114.633 121.727 116.734 121.734C118.805 121.727 120.359 123.141 120.359 125.125C120.359 127.109 118.805 128.508 116.734 128.516C114.633 128.508 113.086 127.109 113.094 125.125ZM115 125.125C115 126.227 115.727 126.883 116.734 126.875C117.727 126.883 118.453 126.227 118.453 125.125C118.453 124.031 117.727 123.359 116.734 123.344C115.727 123.359 115 124.031 115 125.125ZM138.375 117.219V131.438H136.359V117.219H138.375ZM126.469 127.406C130.141 125.672 131.758 123.422 132.078 120.266H127.234V118.703H134.109C134.102 123.016 132.594 126.602 127.516 129L126.469 127.406Z" fill="white"/>
</svg>
