<svg width="350" height="350" viewBox="0 0 350 350" fill="none" xmlns="http://www.w3.org/2000/svg">
<rect width="350" height="350" rx="8" fill="url(#paint0_linear_1872_11564)"/>
<path d="M109.452 135.054C104.64 148.876 102 168.823 102 177.425C102 186.655 104.596 190.205 109.33 196.679L109.452 196.845C112.769 201.381 128.268 207.656 144.534 196.53M144.534 196.53C146.98 194.857 149.444 192.79 151.886 190.265C167.25 174.376 150.75 160.904 140.4 165.549C131.601 169.498 128.875 181.265 134.64 187.845C136.22 189.649 139.744 193.276 144.534 196.53ZM144.534 196.53C149.605 199.974 156.095 203 163.2 203C168.62 203 175.218 201.136 181.039 197.804M181.039 197.804C188.392 193.595 194.507 187.043 195.445 178.945C196.238 172.09 192 164.346 180.96 165.549C169.92 166.751 167.109 181.295 174 190.265C176.438 193.438 178.641 195.938 181.039 197.804ZM181.039 197.804C185.961 201.632 191.705 202.791 201.985 201.618C206.932 201.053 213.243 194.176 218.993 185.036M218.993 185.036C231.016 165.924 240.587 136.919 230.098 135.054C220.659 133.376 217.107 170.928 218.993 185.036ZM218.993 185.036C219.4 188.083 220.061 190.037 220.971 190.265C225.07 191.292 230.739 175.499 243.869 177.425C247.499 179.565 244.976 181.951 236.265 184.006C225.377 186.573 223.533 191.065 223.533 195.722C223.533 205.512 253.797 204.388 257 195.08" stroke="url(#paint1_linear_1872_11564)" stroke-opacity="0.2" stroke-width="10" stroke-linecap="round"/>
<defs>
<linearGradient id="paint0_linear_1872_11564" x1="139.551" y1="536.404" x2="139.551" y2="-71.5344" gradientUnits="userSpaceOnUse">
<stop offset="0.0364583" stop-color="#DED2FF"/>
<stop offset="0.124678" stop-color="#D2DAFF"/>
<stop offset="0.278625" stop-color="#DEE4FF"/>
<stop offset="0.985883" stop-color="white"/>
</linearGradient>
<linearGradient id="paint1_linear_1872_11564" x1="102" y1="123.115" x2="236.041" y2="207.284" gradientUnits="userSpaceOnUse">
<stop stop-color="#B17BFF"/>
<stop offset="1" stop-color="#8592FF"/>
</linearGradient>
</defs>
</svg>
