<svg width="350" height="350" viewBox="0 0 350 350" fill="none" xmlns="http://www.w3.org/2000/svg">
    <rect width="350" height="350" rx="8" fill="#C7D2FE"/>
    <g opacity="0.5">
        <path d="M132.821 227.249L132.821 122.795" stroke="white" stroke-width="28.3527"/>
        <path d="M208.115 231.545C214.494 227.006 215.985 218.154 211.445 211.775C206.906 205.396 198.054 203.905 191.675 208.445L208.115 231.545ZM174.125 255.734L208.115 231.545L191.675 208.445L157.686 232.634L174.125 255.734Z" fill="white"/>
        <path d="M101.663 172.78C95.5386 177.657 94.5278 186.576 99.4054 192.7C104.283 198.825 113.202 199.836 119.326 194.958L101.663 172.78ZM119.326 194.958L175.627 150.12L157.963 127.941L101.663 172.78L119.326 194.958Z" fill="white"/>
        <circle cx="229.795" cy="196.497" r="14.5814" fill="white"/>
        <mask id="path-6-inside-1_4861_48914" fill="white">
            <path d="M118.638 123.148C118.589 117.196 120.058 111.33 122.904 106.103C125.751 100.875 129.883 96.4597 134.91 93.272C139.936 90.0843 145.692 88.2298 151.634 87.8834C157.576 87.537 163.508 88.7102 168.871 91.2922C174.234 93.8742 178.851 97.7799 182.286 102.641C185.721 107.502 187.861 113.158 188.504 119.075C189.147 124.993 188.272 130.976 185.961 136.461C183.65 141.947 179.98 146.753 175.297 150.427L157.779 128.094C158.668 127.396 159.365 126.484 159.803 125.442C160.242 124.401 160.408 123.265 160.286 122.141C160.164 121.018 159.758 119.944 159.106 119.021C158.453 118.098 157.577 117.357 156.559 116.866C155.54 116.376 154.414 116.153 153.286 116.219C152.158 116.285 151.065 116.637 150.111 117.242C149.156 117.847 148.372 118.686 147.831 119.678C147.291 120.671 147.012 121.785 147.021 122.915L118.638 123.148Z"/>
        </mask>
        <path d="M118.638 123.148C118.589 117.196 120.058 111.33 122.904 106.103C125.751 100.875 129.883 96.4597 134.91 93.272C139.936 90.0843 145.692 88.2298 151.634 87.8834C157.576 87.537 163.508 88.7102 168.871 91.2922C174.234 93.8742 178.851 97.7799 182.286 102.641C185.721 107.502 187.861 113.158 188.504 119.075C189.147 124.993 188.272 130.976 185.961 136.461C183.65 141.947 179.98 146.753 175.297 150.427L157.779 128.094C158.668 127.396 159.365 126.484 159.803 125.442C160.242 124.401 160.408 123.265 160.286 122.141C160.164 121.018 159.758 119.944 159.106 119.021C158.453 118.098 157.577 117.357 156.559 116.866C155.54 116.376 154.414 116.153 153.286 116.219C152.158 116.285 151.065 116.637 150.111 117.242C149.156 117.847 148.372 118.686 147.831 119.678C147.291 120.671 147.012 121.785 147.021 122.915L118.638 123.148Z" fill="white" stroke="white" stroke-width="56.7054" mask="url(#path-6-inside-1_4861_48914)"/>
        <mask id="path-7-inside-2_4861_48914" fill="white">
            <path d="M118.639 227.178C118.625 233.721 120.444 240.136 123.89 245.698C127.335 251.26 132.268 255.746 138.132 258.649C143.995 261.551 150.554 262.754 157.066 262.12C163.578 261.487 169.782 259.043 174.977 255.065L157.719 232.53C156.733 233.285 155.555 233.749 154.318 233.87C153.082 233.99 151.837 233.762 150.724 233.211C149.61 232.659 148.674 231.808 148.019 230.752C147.365 229.696 147.02 228.478 147.022 227.235L118.639 227.178Z"/>
        </mask>
        <path d="M118.639 227.178C118.625 233.721 120.444 240.136 123.89 245.698C127.335 251.26 132.268 255.746 138.132 258.649C143.995 261.551 150.554 262.754 157.066 262.12C163.578 261.487 169.782 259.043 174.977 255.065L157.719 232.53C156.733 233.285 155.555 233.749 154.318 233.87C153.082 233.99 151.837 233.762 150.724 233.211C149.61 232.659 148.674 231.808 148.019 230.752C147.365 229.696 147.02 228.478 147.022 227.235L118.639 227.178Z" fill="white" stroke="white" stroke-width="56.7054" mask="url(#path-7-inside-2_4861_48914)"/>
    </g>
</svg>
