<svg width="350" height="350" viewBox="0 0 350 350" fill="none" xmlns="http://www.w3.org/2000/svg">
<rect width="350" height="350" rx="8" fill="url(#paint0_linear_2334_12623)"/>
<path d="M80.9997 129.073C74.5428 147.578 71.0001 174.284 71 185.802C70.9999 198.265 74.5427 202.992 80.9996 211.802C86.1201 218.789 112.875 228.856 137.943 202.992C158.561 181.719 136.419 163.681 122.53 169.9C110.722 175.188 107.065 190.943 114.801 199.753C119.166 204.724 134.586 220.043 153.127 220.043C169.585 220.043 194.142 207.263 196.397 187.836C197.462 178.658 191.774 168.29 176.959 169.9C162.144 171.511 158.372 190.983 167.62 202.992C177.604 215.958 184.655 220.529 205.173 218.192C225.692 215.855 263.706 132.763 242.9 129.073C227.497 126.341 223.775 201.273 230.652 202.992C236.153 204.367 243.759 183.223 261.38 185.802C266.25 188.667 262.865 191.861 251.175 194.612C236.563 198.05 234.09 204.063 234.09 210.298C234.09 223.406 274.702 221.902 279 209.439" stroke="#C7D2FE" stroke-width="8.3737" stroke-linecap="round"/>
<defs>
<linearGradient id="paint0_linear_2334_12623" x1="175" y1="-54" x2="175" y2="418" gradientUnits="userSpaceOnUse">
<stop offset="0.0364583" stop-color="#EFD2FF"/>
<stop offset="0.124678" stop-color="#D2DAFF"/>
<stop offset="0.377809" stop-color="#DEE4FF"/>
<stop offset="0.985883" stop-color="white"/>
</linearGradient>
</defs>
</svg>
