<svg width="115" height="31" viewBox="0 0 115 31" fill="none" xmlns="http://www.w3.org/2000/svg">
    <g clip-path="url(#clip0_4919_48901)">
        <rect width="115" height="31" rx="8" fill="#6366F1" fill-opacity="0.3"/>
        <path d="M42.4922 11.5156H43.5469V17.1289C43.5469 18.875 42.2461 20.1523 40.2422 20.1523C38.2383 20.1523 36.9375 18.875 36.9375 17.1289V11.5156H37.9922V17.0469C37.9922 18.2773 38.8477 19.168 40.2422 19.168C41.6484 19.168 42.4922 18.2773 42.4922 17.0469V11.5156ZM45.4219 20V11.5156H48.3047C50.2969 11.5156 51.1992 12.6172 51.1992 14.1289C51.1992 15.248 50.6953 16.1328 49.6172 16.5078L51.5273 20H50.2969L48.5273 16.6953C48.457 16.707 48.3867 16.707 48.3164 16.707H46.4766V20H45.4219ZM46.4766 15.7461H48.2695C49.6172 15.7461 50.1562 15.1367 50.1562 14.1289C50.1562 13.1094 49.6172 12.4531 48.2578 12.4531H46.4766V15.7461ZM52.7227 20V11.5156H53.7773V19.0625H57.7148V20H52.7227ZM66.3281 17.1172C68.5664 17.1172 69.9844 17.8203 69.9844 19.0273C69.9844 20.2227 68.5664 20.9258 66.3281 20.9258C64.1016 20.9258 62.6836 20.2227 62.6836 19.0273C62.6836 17.8203 64.1016 17.1172 66.3281 17.1172ZM66.3281 17.8203C64.6641 17.832 63.5859 18.2891 63.5977 19.0273C63.5859 19.7539 64.6641 20.1992 66.3281 20.1992C67.9922 20.1992 69.0586 19.7539 69.0703 19.0273C69.0586 18.2891 67.9922 17.832 66.3281 17.8203ZM69.9023 11.0703V11.9492C69.9023 12.793 69.9023 13.6367 69.6094 14.7148L68.707 14.6094C68.9883 13.5312 68.9883 12.7695 68.9883 11.9492V11.8203H62.7539V11.0703H69.9023ZM71.1094 15.3945V16.1445H61.6289V15.3945H65.5547V13.3789H66.457V15.3945H71.1094ZM81.5156 16.4727V17.2344H78.9961V20.9492H78.0703V17.2344H75.3984V20.9492H74.4492V17.2344H71.9766V16.4727H81.5156ZM76.7227 10.9531C78.9141 10.9531 80.3906 11.832 80.3906 13.2266C80.3906 14.6094 78.9141 15.4883 76.7227 15.4766C74.5312 15.4883 73.0547 14.6094 73.0547 13.2266C73.0547 11.832 74.5312 10.9531 76.7227 10.9531ZM76.7227 11.7031C75.0938 11.7031 73.9922 12.3008 74.0039 13.2266C73.9922 14.1523 75.0938 14.7383 76.7227 14.7383C78.3398 14.7383 79.4531 14.1523 79.4531 13.2266C79.4531 12.3008 78.3398 11.7031 76.7227 11.7031ZM90.4219 10.5312V14.832H92.168V15.5938H90.4219V20.9492H89.5078V10.5312H90.4219ZM88.5 12.207V12.9688H82.3008V12.207H84.9844V10.6602H85.8984V12.207H88.5ZM85.4531 13.8359C86.9297 13.8359 87.9961 14.8203 88.0078 16.2266C87.9961 17.6328 86.9297 18.6172 85.4531 18.6172C83.9648 18.6172 82.8867 17.6328 82.8984 16.2266C82.8867 14.8203 83.9648 13.8359 85.4531 13.8359ZM85.4531 14.6094C84.4805 14.6094 83.7656 15.2891 83.7773 16.2266C83.7656 17.1758 84.4805 17.8438 85.4531 17.832C86.4141 17.8438 87.1172 17.1758 87.1289 16.2266C87.1172 15.2891 86.4141 14.6094 85.4531 14.6094ZM101.344 10.5312V20.9492H100.418V10.5312H101.344ZM98.2617 11.668C98.25 14.668 96.8555 17.3164 93.3633 18.9922L92.8594 18.2422C95.6777 16.9062 97.1133 14.9082 97.3242 12.418H93.3398V11.668H98.2617Z" fill="#6366F1"/>
        <g clip-path="url(#clip1_4919_48901)">
            <path d="M16.3335 15.833C16.6914 16.3114 17.148 16.7073 17.6723 16.9938C18.1966 17.2802 18.7764 17.4506 19.3724 17.4933C19.9683 17.5359 20.5665 17.45 21.1263 17.2411C21.6861 17.0323 22.1944 16.7055 22.6168 16.283L25.1168 13.783C25.8758 12.9971 26.2958 11.9446 26.2863 10.8521C26.2768 9.75965 25.8386 8.7146 25.0661 7.94207C24.2935 7.16953 23.2485 6.73133 22.156 6.72184C21.0635 6.71234 20.011 7.13232 19.2252 7.89131L17.7918 9.31631" stroke="#6366F1" stroke-width="2" stroke-linecap="round" stroke-linejoin="round"/>
            <path d="M19.6668 14.167C19.309 13.6886 18.8524 13.2927 18.328 13.0062C17.8037 12.7198 17.2239 12.5494 16.628 12.5067C16.032 12.4641 15.4338 12.55 14.874 12.7589C14.3142 12.9677 13.8059 13.2945 13.3835 13.717L10.8835 16.217C10.1245 17.0029 9.70453 18.0554 9.71402 19.1479C9.72352 20.2403 10.1617 21.2854 10.9343 22.0579C11.7068 22.8305 12.7518 23.2687 13.8443 23.2782C14.9368 23.2877 15.9893 22.8677 16.7752 22.1087L18.2002 20.6837" stroke="#6366F1" stroke-width="2" stroke-linecap="round" stroke-linejoin="round"/>
        </g>
    </g>
    <defs>
        <clipPath id="clip0_4919_48901">
            <rect width="115" height="31" rx="8" fill="white"/>
        </clipPath>
        <clipPath id="clip1_4919_48901">
            <rect width="20" height="20" fill="white" transform="translate(8 5)"/>
        </clipPath>
    </defs>
</svg>

