<svg width="350" height="48" viewBox="0 0 350 48" fill="none" xmlns="http://www.w3.org/2000/svg">
<rect width="350" height="48" rx="12" fill="black"/>
<path d="M111.555 17.5385C112.638 17.5385 113.996 16.8061 114.805 15.8296C115.537 14.9447 116.071 13.7088 116.071 12.473C116.071 12.3051 116.056 12.1373 116.025 12C114.82 12.0458 113.37 12.8086 112.501 13.8309C111.814 14.609 111.188 15.8296 111.188 17.0807C111.188 17.2638 111.219 17.4469 111.234 17.5079C111.311 17.5232 111.433 17.5385 111.555 17.5385ZM107.74 36C109.22 36 109.876 35.0083 111.723 35.0083C113.599 35.0083 114.011 35.9695 115.659 35.9695C117.276 35.9695 118.36 34.4743 119.382 33.0095C120.526 31.3312 120.999 29.6834 121.03 29.6071C120.923 29.5766 117.825 28.3102 117.825 24.7552C117.825 21.6732 120.267 20.2848 120.404 20.178C118.787 17.8589 116.33 17.7978 115.659 17.7978C113.843 17.7978 112.363 18.8964 111.433 18.8964C110.426 18.8964 109.098 17.8589 107.527 17.8589C104.536 17.8589 101.5 20.3306 101.5 24.9994C101.5 27.8983 102.629 30.965 104.017 32.9485C105.208 34.6268 106.245 36 107.74 36Z" fill="white"/>
<path d="M137.492 30H135.664L139.727 18.6875H141.711L145.789 30H143.961L142.93 27.0156H138.523L137.492 30ZM139.023 25.5781H142.43L140.758 20.75H140.68L139.023 25.5781ZM147.086 33.1875V21.5156H148.711V22.8906H148.852C149.148 22.3594 149.727 21.4062 151.289 21.4062C153.336 21.4062 154.852 23.0156 154.852 25.7812C154.852 28.5156 153.367 30.1719 151.305 30.1719C149.758 30.1719 149.148 29.2344 148.852 28.6719H148.758V33.1875H147.086ZM148.727 25.75C148.727 27.5312 149.508 28.75 150.93 28.75C152.398 28.75 153.164 27.4531 153.164 25.75C153.164 24.0781 152.414 22.8281 150.93 22.8281C149.492 22.8281 148.727 23.9844 148.727 25.75ZM156.508 33.1875V21.5156H158.133V22.8906H158.273C158.57 22.3594 159.148 21.4062 160.711 21.4062C162.758 21.4062 164.273 23.0156 164.273 25.7812C164.273 28.5156 162.789 30.1719 160.727 30.1719C159.18 30.1719 158.57 29.2344 158.273 28.6719H158.18V33.1875H156.508ZM158.148 25.75C158.148 27.5312 158.93 28.75 160.352 28.75C161.82 28.75 162.586 27.4531 162.586 25.75C162.586 24.0781 161.836 22.8281 160.352 22.8281C158.914 22.8281 158.148 23.9844 158.148 25.75ZM167.602 18.6875V30H165.93V18.6875H167.602ZM173.289 30.1719C170.789 30.1719 169.258 28.4531 169.258 25.8125C169.258 23.2031 170.82 21.4062 173.18 21.4062C175.117 21.4062 176.945 22.6094 176.945 25.6719V26.2656H170.914C170.961 27.875 171.906 28.7969 173.305 28.7969C174.258 28.7969 174.867 28.3906 175.148 27.875H176.836C176.461 29.25 175.148 30.1719 173.289 30.1719ZM170.93 25.0156H175.305C175.305 23.7188 174.477 22.7812 173.195 22.7812C171.859 22.7812 170.992 23.8125 170.93 25.0156ZM190.914 28.4062V29.6562H178.102V28.4062H183.742V25.9531H179.664V21.5H187.883V19.5312H179.633V18.3125H189.352V22.6875H181.133V24.7344H189.68V25.9531H185.211V28.4062H190.914ZM207.867 17.3281V31.3281H206.461V17.3281H207.867ZM205.008 17.6875V30.6406H203.602V25.875H201.211V24.6562H203.602V22.375H201.445C200.766 24.7266 199.273 26.7656 196.633 28.3438L195.758 27.2812C198.727 25.5156 200.156 23.1641 200.414 20.2812H196.445V19.0625H201.883C201.883 19.7812 201.828 20.4766 201.711 21.1562H203.602V17.6875H205.008ZM222.461 24.2812V25.5H209.664V24.2812H215.305V22.2344H216.773V24.2812H222.461ZM216.789 18.1406C216.789 19.9219 218.977 21.4844 221.68 21.8281L221.102 23C218.875 22.6484 216.914 21.5625 216.039 20.0156C215.141 21.5625 213.18 22.6484 210.945 23L210.398 21.8281C213.086 21.4844 215.273 19.9062 215.289 18.1406V17.5469H216.789V18.1406ZM220.867 26.7344V31.3281H219.367V27.9062H211.086V26.7344H220.867ZM234.398 17.3281V23H236.648V24.2344H234.398V31.3281H232.93V17.3281H234.398ZM231.711 19.5156V20.7344H223.414V19.5156H226.867V17.5156H228.352V19.5156H231.711ZM227.617 21.7656C229.617 21.7656 231.086 23.1094 231.102 25.0156C231.086 26.9375 229.617 28.2656 227.617 28.2812C225.602 28.2656 224.133 26.9375 224.133 25.0156C224.133 23.1094 225.602 21.7656 227.617 21.7656ZM227.617 22.9844C226.43 22.9844 225.539 23.8125 225.555 25.0156C225.539 26.2344 226.43 27.0469 227.617 27.0312C228.805 27.0469 229.68 26.2344 229.68 25.0156C229.68 23.8125 228.805 22.9844 227.617 22.9844ZM248.961 17.3281V31.3281H247.461V17.3281H248.961ZM244.789 18.8281C244.789 22.9219 243.039 26.4844 238.242 28.7812L237.461 27.5781C241.188 25.8047 243 23.2812 243.289 20.0156H238.133V18.8281H244.789Z" fill="white"/>
</svg>
