<svg width="300" height="45" viewBox="0 0 300 45" fill="none" xmlns="http://www.w3.org/2000/svg">
<rect width="300" height="45" rx="6" fill="#FEE500"/>
<path d="M125.215 17.215H119.29V18.46H123.61C123.565 19.12 123.445 19.735 123.28 20.335L118.615 20.68L118.855 22.015L122.77 21.595C121.855 23.44 120.235 24.865 118.3 25.75L119.29 26.86C123.115 24.85 125.2 21.79 125.215 17.215ZM128.83 15.82H127.285V29.185H128.83V22.315H130.9V21.04H128.83V15.82ZM138.194 17.215H132.269V18.46H136.589C136.544 19.12 136.424 19.735 136.259 20.335L131.594 20.68L131.834 22.015L135.749 21.595C134.834 23.44 133.214 24.865 131.279 25.75L132.269 26.86C136.094 24.85 138.179 21.79 138.194 17.215ZM141.809 15.82H140.264V29.185H141.809V22.315H143.879V21.04H141.809V15.82ZM156.482 27.475V26.245H151.187V23.98C153.692 23.74 155.297 22.33 155.297 20.32C155.297 18.115 153.377 16.645 150.437 16.645C147.542 16.645 145.607 18.115 145.607 20.32C145.607 22.315 147.182 23.725 149.657 23.965V26.245H144.407V27.475H156.482ZM153.752 20.335C153.752 21.745 152.432 22.705 150.437 22.705C148.472 22.705 147.152 21.745 147.152 20.335C147.152 18.91 148.472 17.905 150.437 17.905C152.447 17.905 153.752 18.91 153.752 20.335ZM172.231 24.025V22.78H164.416V20.95H171.841V16.75H162.826V17.98H170.311V19.705H162.871V24.025H166.576V26.26H161.326V27.49H173.401V26.26H168.106V24.025H172.231ZM186.379 27.235V25.99H174.304V27.235H186.379ZM184.804 17.26H175.699V18.475H183.259C183.259 20.635 183.034 23.53 182.704 24.865L184.219 25.06C184.579 23.305 184.804 20.8 184.804 17.26ZM198.278 25.51V15.82H196.748V25.51H198.278ZM198.593 28.795V27.565H190.973V24.595H189.443V28.795H198.593ZM194.528 20.08C194.528 18.175 193.148 16.81 191.108 16.81C189.053 16.81 187.658 18.19 187.658 20.095C187.658 21.985 189.068 23.35 191.108 23.35C193.148 23.35 194.528 21.985 194.528 20.08ZM192.998 20.08C192.998 21.175 192.278 22.045 191.108 22.045C189.968 22.045 189.203 21.175 189.203 20.08C189.203 18.94 189.968 18.085 191.108 18.085C192.278 18.085 192.998 18.91 192.998 20.08Z" fill="black" fill-opacity="0.85"/>
<g clip-path="url(#clip0_130_7766)">
<path fill-rule="evenodd" clip-rule="evenodd" d="M23 13.9761C18.0292 13.9761 14 17.1055 14 20.9651C14 23.3655 15.5584 25.4815 17.9315 26.7401L16.933 30.4069C16.8448 30.7309 17.2134 30.9892 17.4965 30.8014L21.8734 27.8974C22.2427 27.9333 22.6181 27.9542 23 27.9542C27.9705 27.9542 31.9999 24.8249 31.9999 20.9651C31.9999 17.1055 27.9705 13.9761 23 13.9761Z" fill="black"/>
</g>
<defs>
<clipPath id="clip0_130_7766">
<rect width="18" height="18" fill="white" transform="translate(14 13.5)"/>
</clipPath>
</defs>
</svg>
