<svg width="660" height="115" viewBox="0 0 660 115" fill="none" xmlns="http://www.w3.org/2000/svg">
<g clip-path="url(#clip0_2159_12275)">
<path d="M239.945 35.0137H284.355" stroke="white" stroke-width="6.48689" stroke-linecap="round"/>
<path d="M11.1647 4.48459C6.16272 18.8202 3.41825 42.0803 3.41821 51.0028C3.41817 60.6576 10.0101 68.326 14.0141 71.0948C19.5333 74.9114 38.353 81.7843 57.7724 61.748C73.7445 45.2681 54.097 31.295 43.3375 36.1127C34.1903 40.2085 30.8088 52.4247 37.5984 60.1572C40.9798 64.0082 54.6809 76.9054 69.0441 76.9054C81.794 76.9054 102.845 67.129 104.591 52.08C105.637 43.0671 99.474 34.8652 87.997 36.1127C76.5207 37.3601 71.0354 53.0805 78.9563 61.748C88.185 71.8461 90.9194 78.9562 109.035 74.5128C127.15 70.0694 152.866 7.34332 136.748 4.48459C124.816 2.36822 121.933 60.4163 127.26 61.748C131.521 62.8134 137.414 46.4334 151.064 48.4309C154.837 50.6504 155.347 50.6996 146.291 52.8303C134.971 55.4937 125.783 62.5499 129.201 71.0948C132.619 79.6399 179.939 80.8321 188.793 68.547C196.243 58.2088 208.985 41.0987 220.462 44.0926C228.797 46.267 214.74 44.8465 208.254 52.8303C202.269 60.195 193.782 75.5341 206.507 76.5322C219.231 77.5303 228.712 52.5144 229.211 48.4309C229.71 44.3474 224.97 74.9565 238.692 74.9565C252.414 74.9558 283.252 -0.460136 269.879 4.48459C253.163 10.6655 242.434 73.3808 260.648 74.9565C275.218 76.2171 282.465 72.5406 285.293 70.5445C295.189 65.0335 331.26 39.2934 333.257 34.8291C335.752 29.2486 310.553 78.1079 333.257 76.5322C351.42 75.2716 356.958 28.841 356.958 34.3302C354.547 64.6547 348.723 107.48 321.977 110.474C288.545 114.216 354.279 79.7465 372.428 75.2839C387.647 71.5412 400.371 62.7537 402.367 52.0254C403.436 46.2796 400.725 35.6138 388.645 35.6138C375.671 35.6138 366.808 47.924 375.92 62.0603C383.333 73.5592 393.245 77.5289 402.367 77.5289C416.938 77.5289 424.036 47.5061 427.696 34.8653C428.201 33.1186 411.928 73.739 427.696 76.5322C443.464 79.3261 455.306 55.0747 455.306 36.1127C455.306 27.131 443.879 64.1564 453.06 72.5393C464.537 83.0182 476.304 74.4527 478.353 67.4066C482.346 53.683 483.576 31.6215 512.019 34.8653C537.139 37.7303 513.491 44.4344 501.765 44.4344C490.038 44.4344 491.167 51.9849 499.103 56.5715C539.021 79.6399 495.595 77.0305 491.852 72.5393C488.11 68.0485 538.021 56.0719 560.725 51.082C576.947 47.5165 567.461 34.8653 553.24 34.8653C539.019 34.8653 528.325 66.3038 541.414 71.4366C554.502 76.5691 563.289 72.5393 570.125 67.4066C583.294 57.519 607.249 16.3296 600.726 7.3343C584.259 -15.3703 580.134 66.5938 596.102 73.8292C599.513 75.3749 602 77.6649 609.09 73.8292C623.104 66.2492 623.069 -1.66686 652.326 4.4313C666.34 7.35221 638.025 14.8874 633.682 19.9746C628.485 26.0626 607.039 73.4874 636.093 76.5636" stroke="white" stroke-width="6.48689" stroke-linecap="round"/>
<path d="M617.293 35.0137H649.423" stroke="white" stroke-width="6.48689" stroke-linecap="round"/>
</g>
<defs>
<clipPath id="clip0_2159_12275">
<rect width="659.677" height="114.162" fill="white"/>
</clipPath>
</defs>
</svg>
