<svg width="32" height="32" viewBox="0 0 32 32" fill="none" xmlns="http://www.w3.org/2000/svg">
<circle cx="16" cy="16" r="16" fill="black"/>
<path d="M16.2375 9.61538C17.125 9.61538 18.2375 9.00509 18.9 8.19135C19.5 7.45391 19.9375 6.42403 19.9375 5.39415C19.9375 5.25429 19.925 5.11443 19.9 5C18.9125 5.03814 17.725 5.67387 17.0125 6.52575C16.45 7.17419 15.9375 8.19135 15.9375 9.23395C15.9375 9.38652 15.9625 9.5391 15.975 9.58996C16.0375 9.60267 16.1375 9.61538 16.2375 9.61538ZM13.1125 25C14.325 25 14.8625 24.1736 16.375 24.1736C17.9125 24.1736 18.25 24.9746 19.6 24.9746C20.925 24.9746 21.8125 23.7285 22.65 22.5079C23.5875 21.1093 23.975 19.7362 24 19.6726C23.9125 19.6472 21.375 18.5919 21.375 15.6294C21.375 13.061 23.375 11.904 23.4875 11.815C22.1625 9.88239 20.15 9.83153 19.6 9.83153C18.1125 9.83153 16.9 10.747 16.1375 10.747C15.3125 10.747 14.225 9.88239 12.9375 9.88239C10.4875 9.88239 8 11.9421 8 15.8328C8 18.2486 8.925 20.8042 10.0625 22.4571C11.0375 23.8557 11.8875 25 13.1125 25Z" fill="white"/>
</svg>
